<svg xmlns="http://www.w3.org/2000/svg" viewBox="0 0 70 70"><title>info blanco 70x70</title><path d="M35,65A30,30,0,1,1,65,35,30,30,0,0,1,35,65ZM35,5.91A29.09,29.09,0,1,0,64.09,35,29.13,29.13,0,0,0,35,5.91Zm0,53.55A24.46,24.46,0,1,1,59.45,35,24.49,24.49,0,0,1,35,59.45Zm0-48A23.55,23.55,0,1,0,58.55,35,23.58,23.58,0,0,0,35,11.44Zm0,38.78a4.15,4.15,0,0,1-4.15-4.14V35a4.15,4.15,0,1,1,8.29,0V46.08A4.14,4.14,0,0,1,35,50.22Zm0-22.15a4.15,4.15,0,1,1,4.14-4.15A4.16,4.16,0,0,1,35,28.07Z" fill="#fff"/></svg>