<svg xmlns="http://www.w3.org/2000/svg" viewBox="0 0 70 70"><title>temp blanco 70x70</title><path d="M35,65A14.48,14.48,0,0,1,20.53,50.53a14.29,14.29,0,0,1,3.95-9.92V15.52a10.53,10.53,0,0,1,21.05,0v25.1a14.31,14.31,0,0,1,3.94,9.92A14.49,14.49,0,0,1,35,65ZM35,5.9a9.63,9.63,0,0,0-9.63,9.62V40.8a0.45,0.45,0,0,1-.13.31,13.4,13.4,0,0,0-3.82,9.42,13.57,13.57,0,0,0,27.15,0,13.41,13.41,0,0,0-3.81-9.42,0.45,0.45,0,0,1-.13-0.31V15.52A9.64,9.64,0,0,0,35,5.9Zm0,55.22A10.59,10.59,0,0,1,24.42,50.54a10.4,10.4,0,0,1,4-8.26V26.46A0.45,0.45,0,0,1,28.85,26h4.37a0.87,0.87,0,0,0,0-1.75H28.85a0.45,0.45,0,0,1-.45-0.45V20.63a0.45,0.45,0,0,1,.45-0.45h4.37a0.83,0.83,0,1,0,0-1.66H28.85a0.45,0.45,0,0,1-.45-0.45V15.52a6.6,6.6,0,1,1,13.21,0v26.8a10.36,10.36,0,0,1,3.94,8.22A10.58,10.58,0,0,1,35,61.12Zm-5.7-34.21V42.5a0.45,0.45,0,0,1-.18.36,9.51,9.51,0,0,0-3.8,7.68,9.67,9.67,0,1,0,19.34,0,9.47,9.47,0,0,0-3.76-7.64,0.45,0.45,0,0,1-.18-0.36v-27a5.71,5.71,0,1,0-11.42,0v2.11h3.92a1.73,1.73,0,1,1,0,3.45H29.29v2.29h3.92a1.77,1.77,0,0,1,0,3.54H29.29Z" fill="#fff"/><path d="M32.22,30V44.88a0.45,0.45,0,0,1-.23.39,6,6,0,0,0-3.06,5.27,6.07,6.07,0,1,0,12.14,0A6,6,0,0,0,38,45.27a0.45,0.45,0,0,1-.23-0.39V30H32.22Z" fill="#fff"/></svg>