<?xml version="1.0" encoding="utf-8"?>
<!-- Generator: Adobe Illustrator 19.2.0, SVG Export Plug-In . SVG Version: 6.00 Build 0)  -->
<svg version="1.1" id="Layer_1" xmlns="http://www.w3.org/2000/svg" xmlns:xlink="http://www.w3.org/1999/xlink" x="0px" y="0px"
	 viewBox="0 0 180 60" style="enable-background:new 0 0 180 60;" xml:space="preserve">
<rect style="fill:#FFFFFF;" width="180" height="60"/>
<g>
	<text transform="matrix(1 0 0 1 64.2285 8.9336)" style="font-family:'Raleway-SemiBold'; font-size:8px;">kWh/m2/dia</text>
</g>
<g>
	
		<rect x="155" y="23.9" transform="matrix(3.811066e-011 1 -1 3.811066e-011 203.8582 -143.8582)" style="fill:#BE0000;" width="37.8" height="12.3"/>
	
		<rect x="143" y="23.9" transform="matrix(3.815951e-011 1 -1 3.815951e-011 191.8785 -131.8785)" style="fill:#D80000;" width="37.8" height="12.3"/>
	
		<rect x="131" y="23.9" transform="matrix(3.811066e-011 1 -1 3.811066e-011 179.8987 -119.8987)" style="fill:#F20000;" width="37.8" height="12.3"/>
	
		<rect x="119" y="23.9" transform="matrix(3.811066e-011 1 -1 3.811066e-011 167.919 -107.919)" style="fill:#FF3000;" width="37.8" height="12.3"/>
	
		<rect x="107.1" y="23.9" transform="matrix(3.806270e-011 1 -1 3.806270e-011 155.9392 -95.9392)" style="fill:#FF7900;" width="37.8" height="12.3"/>
	
		<rect x="95.1" y="23.9" transform="matrix(3.806270e-011 1 -1 3.806270e-011 143.9595 -83.9595)" style="fill:#FFB24D;" width="37.8" height="12.3"/>
	
		<rect x="83.1" y="23.9" transform="matrix(3.806270e-011 1 -1 3.806270e-011 131.9798 -71.9798)" style="fill:#FCE155;" width="37.8" height="12.3"/>
	
		<rect x="71.1" y="23.9" transform="matrix(3.811066e-011 1 -1 3.811066e-011 120 -60)" style="fill:#F7FF5D;" width="37.8" height="12.3"/>
	
		<rect x="59.1" y="23.9" transform="matrix(3.815951e-011 1 -1 3.815951e-011 108.0203 -48.0203)" style="fill:#DDFF73;" width="37.8" height="12.3"/>
	
		<rect x="47.2" y="23.9" transform="matrix(3.815951e-011 1 -1 3.815951e-011 96.0405 -36.0405)" style="fill:#C4F986;" width="37.8" height="12.3"/>
	
		<rect x="35.2" y="23.9" transform="matrix(3.811066e-011 1 -1 3.811066e-011 84.0608 -24.0608)" style="fill:#ABED98;" width="37.8" height="12.3"/>
	
		<rect x="23.2" y="23.9" transform="matrix(3.806270e-011 1 -1 3.806270e-011 72.081 -12.081)" style="fill:#8CD9A6;" width="37.8" height="12.3"/>
	
		<rect x="11.2" y="23.9" transform="matrix(3.811066e-011 1 -1 3.811066e-011 60.1013 -0.1013)" style="fill:#6ABAAE;" width="37.8" height="12.3"/>
	
		<rect x="-0.8" y="23.9" transform="matrix(3.815951e-011 1 -1 3.815951e-011 48.1215 11.8785)" style="fill:#4A9AB5;" width="37.8" height="12.3"/>
	
		<rect x="-12.7" y="23.9" transform="matrix(3.815951e-011 1 -1 3.815951e-011 36.1418 23.8582)" style="fill:#3279BD;" width="37.8" height="12.3"/>
</g>
<text transform="matrix(1 0 0 1 8.2686 55.8455)" style="font-family:'Raleway-SemiBold'; font-size:8px;">&lt; 3</text>
<text transform="matrix(1 0 0 1 57.8275 55.8459)" style="font-family:'Raleway-SemiBold'; font-size:8px;">5</text>
<text transform="matrix(1 0 0 1 107.0374 55.8459)" style="font-family:'Raleway-SemiBold'; font-size:8px;">7</text>
<text transform="matrix(1 0 0 1 160.0351 55.8452)" style="font-family:'Raleway-SemiBold'; font-size:8px;">&gt; 9</text>
</svg>
