<svg xmlns="http://www.w3.org/2000/svg" xmlns:xlink="http://www.w3.org/1999/xlink" viewBox="0 0 152.99 83.23"><defs><style>.a{fill:none;}.b{fill:#ffc20e;}.c{fill:#f58220;}.d{fill:#9f1522;}.e{fill:#565555;}.f{clip-path:url(#a);}.g{fill:#fff;}.h{fill:#001e59;}.i{fill:#f9b408;}</style><clipPath id="a" transform="translate(6.67 0.54)"><path class="a" d="M26.58,61.18l5.31,7L34,64.57A0.64,0.64,0,0,1,35,64.49l0.76,0.95,4.68,2.12,0.24-2.93A0.64,0.64,0,0,1,41.28,64l5.65-.53a0.64,0.64,0,0,1,.39.09l5,3L57.72,66l2.95-7.52a0.64,0.64,0,0,1,.6-0.41h0l11,0.21L89.18,38.33V8.94l-6.36-5a0.64,0.64,0,0,1-.24-0.53l0.08-2.11H72.14L70.72,2.42a0.64,0.64,0,0,1-.94-0.16l-0.56-.88H66.9L63.25,9.7l-1.37,4.86a0.64,0.64,0,0,1-1.21.07L59.18,11a0.64,0.64,0,0,1,0-.28l0.09-1.79L57.45,6.56a0.64,0.64,0,0,1-.13-0.38V5.39l-1.4-1.32L51.57,2.56h-2L47.23,9.71l1.66,5.56,2.56,0.85a0.64,0.64,0,0,1,.43.66l-0.3,3.59,2.13,2.84,2-.7a0.64,0.64,0,0,1,.61.11l2.76,2.22,0.68-1a0.64,0.64,0,0,1,.53-0.28h2.77a0.64,0.64,0,0,1,.64.64V36.12a0.64,0.64,0,0,1-.27.52l-7.14,5.11a0.64,0.64,0,0,1-.87-0.11,1.78,1.78,0,0,0-1.25-.8,1.44,1.44,0,0,0-.89.71,0.64,0.64,0,0,1-.77.3l-4.88-1.66a6.13,6.13,0,0,1-6-3l0,0a22.2,22.2,0,0,0-2.68-4.93,3.42,3.42,0,0,1-2-.67,0.64,0.64,0,0,1-.25-0.41l-0.43-2.66a0.65,0.65,0,0,1,0-.12l0.1-3.9-3.66-1.27-0.16,3c0.33,0.64,1.08,2.69,0,6.51a3.67,3.67,0,0,1-2.23,2.74c-1.67.54-3.43-.66-3.73-0.89l-1.13-.62-0.09-.06-3-2.34a0.64,0.64,0,0,1-.24-0.45l-0.08-1-2.15-1.63-1.32,4a0.64,0.64,0,0,1-.35.39L5,38.7l-1.3.93L1.38,44.57l3,4.06a0.64,0.64,0,0,1-.17.91L3.54,50c6.91,1.59,25.43,1,25.63,1a0.64,0.64,0,0,1,.63.43c1.86,5.47-1,7-1.17,7.06l-0.06,0-2.53,1Z"/></clipPath></defs><title>LOGOok</title><circle class="b" cx="44.31" cy="25.21" r="25.13" transform="translate(25.29 69.78) rotate(-89.37)"/><circle class="c" cx="44.31" cy="25.21" r="22.02" transform="translate(25.29 69.78) rotate(-89.37)"/><circle class="d" cx="44.31" cy="25.21" r="14.94" transform="translate(25.29 69.78) rotate(-89.37)"/><path class="e" d="M32,70a0.64,0.64,0,0,1-.51-0.25l-6-7.88a0.64,0.64,0,0,1-.1-0.2l-0.75-2.45A0.64,0.64,0,0,1,25,58.43l3-1.16c0.2-.12,1.81-1.23.66-5-3.3.1-21.64,0.56-26.93-1.44a0.64,0.64,0,0,1-.12-1.13l1.24-.8L0.12,45a0.64,0.64,0,0,1-.06-0.65l2.56-5.43a0.64,0.64,0,0,1,.21-0.25l1.49-1.07,0.11-.06,13-5.74,1.51-4.63a0.64,0.64,0,0,1,1-.31L23,29.22a0.64,0.64,0,0,1,.25.46l0.08,1L26,32.81l1.13,0.61,0.08,0.06a3.38,3.38,0,0,0,2.61.72,2.52,2.52,0,0,0,1.4-1.88c1.16-3.95.1-5.62,0.09-5.64a0.61,0.61,0,0,1-.11-0.39l0.21-4a0.64,0.64,0,0,1,.85-0.57l4.9,1.7a0.64,0.64,0,0,1,.43.62L37.5,28.3l0.37,2.32a1.86,1.86,0,0,0,1,.28c0.62-.08,1.24.38,2.57,3,0.65,1.26,1.2,2.52,1.29,2.72a4.89,4.89,0,0,0,4.9,2.31,0.64,0.64,0,0,1,.27,0l4.56,1.55a2.4,2.4,0,0,1,1.58-.91,2.46,2.46,0,0,1,1.95.82l6.41-4.59v-11H60.65l-0.88,1.31a0.64,0.64,0,0,1-.93.14l-3-2.44-2.12.74A0.64,0.64,0,0,1,53,24.36l-2.56-3.41a0.64,0.64,0,0,1-.13-0.44l0.28-3.33-2.4-.8A0.64,0.64,0,0,1,47.76,16L45.95,9.88a0.64,0.64,0,0,1,0-.38l2.56-7.78a0.64,0.64,0,0,1,.61-0.44h2.56a0.64,0.64,0,0,1,.21,0l4.58,1.6a0.64,0.64,0,0,1,.23.14l1.7,1.6a0.64,0.64,0,0,1,.2.47V6l1.79,2.39a0.64,0.64,0,0,1,.13.42l-0.1,1.88,0.73,1.78L62,9.31l0-.08L65.9,0.49A0.64,0.64,0,0,1,66.48.11h3.09a0.64,0.64,0,0,1,.54.3L70.48,1l1-.83A0.64,0.64,0,0,1,71.92,0h11.4A0.64,0.64,0,0,1,84,.66L83.86,3.11l6.35,5a0.64,0.64,0,0,1,.24.5V38.57a0.64,0.64,0,0,1-.15.41L73,59.33a0.63,0.63,0,0,1-.5.23l-10.85-.2-2.93,7.47a0.64,0.64,0,0,1-.53.4l-6,.64a0.64,0.64,0,0,1-.39-0.09l-5-3-4.91.46-0.28,3.3a0.64,0.64,0,0,1-.9.53l-5.65-2.56a0.64,0.64,0,0,1-.24-0.18L34.61,66l-2.09,3.66A0.64,0.64,0,0,1,32,70h0Z" transform="translate(6.67 0.54)"/><g class="f"><rect class="g" width="110.59" height="83.23"/><rect class="h" x="40.01" y="36.76" width="8.15" height="8.15" rx="1.14" ry="1.14" transform="translate(-2.8 68.62) rotate(-69.78)"/><rect class="h" x="48.19" y="39.77" width="8.15" height="8.15" rx="1.14" ry="1.14" transform="matrix(0.35, -0.94, 0.94, 0.35, -0.28, 78.27)"/><rect class="h" x="56.37" y="42.78" width="8.15" height="8.15" rx="1.14" ry="1.14" transform="matrix(0.35, -0.94, 0.94, 0.35, 2.25, 87.92)"/><rect class="h" x="64.55" y="45.8" width="8.15" height="8.15" rx="1.14" ry="1.14" transform="translate(4.77 97.57) rotate(-69.78)"/><rect class="h" x="37.01" y="44.89" width="8.15" height="8.15" rx="1.14" ry="1.14" transform="translate(-12.4 71.13) rotate(-69.78)"/><rect class="h" x="45.19" y="47.91" width="8.15" height="8.15" rx="1.14" ry="1.14" transform="translate(-9.87 80.78) rotate(-69.78)"/><rect class="h" x="53.37" y="50.92" width="8.15" height="8.15" rx="1.14" ry="1.14" transform="translate(-7.35 90.43) rotate(-69.78)"/><rect class="h" x="61.56" y="53.93" width="8.15" height="8.15" rx="1.14" ry="1.14" transform="translate(-4.82 100.08) rotate(-69.78)"/><rect class="h" x="34.02" y="53.03" width="8.15" height="8.15" rx="1.14" ry="1.14" transform="translate(-21.99 73.65) rotate(-69.78)"/><rect class="h" x="42.2" y="56.04" width="8.15" height="8.15" rx="1.14" ry="1.14" transform="translate(-19.47 83.29) rotate(-69.78)"/><rect class="h" x="50.38" y="59.06" width="8.15" height="8.15" rx="1.14" ry="1.14" transform="matrix(0.35, -0.94, 0.94, 0.35, -16.94, 92.94)"/><rect class="h" x="58.56" y="62.07" width="8.15" height="8.15" rx="1.14" ry="1.14" transform="translate(-14.42 102.59) rotate(-69.78)"/></g><path class="e" d="M101.17,22.55Q98,22.55,98,24.8a1.82,1.82,0,0,0,.76,1.66,14.52,14.52,0,0,0,3.35,1.21,8.92,8.92,0,0,1,3.65,1.72,4.14,4.14,0,0,1,1.06,3.15,5.12,5.12,0,0,1-1.55,4.08A6.23,6.23,0,0,1,101,38a25.11,25.11,0,0,1-4.75-.51l-0.91-.18L95.61,35a42.69,42.69,0,0,0,5.21.46q3.13,0,3.13-2.78a1.86,1.86,0,0,0-.71-1.61A10.81,10.81,0,0,0,100.06,30a8.66,8.66,0,0,1-3.69-1.71,4.4,4.4,0,0,1-1.21-3.44,4.24,4.24,0,0,1,1.53-3.55,6.7,6.7,0,0,1,4.23-1.2,27.74,27.74,0,0,1,4.6.46l0.88,0.15-0.23,2.28Q102.64,22.55,101.17,22.55Z" transform="translate(6.67 0.54)"/><path class="e" d="M109.82,37.69V20.37h2.81V37.69h-2.81Z" transform="translate(6.67 0.54)"/><path class="e" d="M121.7,22.55q-3.21,0-3.21,2.25a1.82,1.82,0,0,0,.76,1.66,14.52,14.52,0,0,0,3.35,1.21,8.92,8.92,0,0,1,3.65,1.72,4.14,4.14,0,0,1,1.06,3.15,5.12,5.12,0,0,1-1.55,4.08A6.23,6.23,0,0,1,121.52,38a25.11,25.11,0,0,1-4.75-.51l-0.91-.18L116.14,35a42.69,42.69,0,0,0,5.21.46q3.13,0,3.13-2.78a1.86,1.86,0,0,0-.71-1.61A10.81,10.81,0,0,0,120.59,30a8.66,8.66,0,0,1-3.69-1.71,4.4,4.4,0,0,1-1.21-3.44,4.24,4.24,0,0,1,1.53-3.55,6.7,6.7,0,0,1,4.23-1.2,27.74,27.74,0,0,1,4.6.46l0.88,0.15-0.23,2.28Q123.17,22.55,121.7,22.55Z" transform="translate(6.67 0.54)"/><path class="i" d="M130.71,26.41q1.3-1.64,4.34-1.64t4.34,1.64a7.84,7.84,0,0,1,1.3,4.93,8.14,8.14,0,0,1-1.26,5Q138.16,38,135,38t-4.37-1.67a8.13,8.13,0,0,1-1.26-5A7.84,7.84,0,0,1,130.71,26.41Zm2.06,8.22a3.07,3.07,0,0,0,4.55,0,7,7,0,0,0,.58-3.31,6.32,6.32,0,0,0-.62-3.26,3.09,3.09,0,0,0-4.47,0,6.32,6.32,0,0,0-.62,3.26A7,7,0,0,0,132.77,34.63Z" transform="translate(6.67 0.54)"/><path class="i" d="M143.57,37.69V19.79h2.76v17.9h-2.76Z" transform="translate(6.67 0.54)"/><path class="d" d="M97.81,43.65q-1.37,0-1.37,1a0.78,0.78,0,0,0,.32.7,6.19,6.19,0,0,0,1.43.52,3.8,3.8,0,0,1,1.55.73,1.76,1.76,0,0,1,.45,1.34,2.18,2.18,0,0,1-.66,1.74,2.65,2.65,0,0,1-1.8.58,10.69,10.69,0,0,1-2-.22l-0.39-.08,0.12-1a18.14,18.14,0,0,0,2.22.19A1.12,1.12,0,0,0,99,48a0.79,0.79,0,0,0-.3-0.68,4.6,4.6,0,0,0-1.36-.48,3.68,3.68,0,0,1-1.57-.73,1.87,1.87,0,0,1-.52-1.46,1.8,1.8,0,0,1,.65-1.51,2.85,2.85,0,0,1,1.8-.51,11.81,11.81,0,0,1,2,.19L100,42.85l-0.1,1Q98.43,43.65,97.81,43.65Z" transform="translate(6.67 0.54)"/><path class="d" d="M101.83,50.09l1.82-7.37H106l1.83,7.37h-1.21l-0.4-1.58h-2.83L103,50.09h-1.19Zm2.74-6.37-0.91,3.73H106l-0.9-3.73h-0.54Z" transform="translate(6.67 0.54)"/><path class="d" d="M114.12,50.09H110V42.72h1.19V49h2.94v1.07Z" transform="translate(6.67 0.54)"/><path class="d" d="M114.57,43.79V42.72h5.38v1.07h-2.08v6.31h-1.21V43.79h-2.1Z" transform="translate(6.67 0.54)"/><path class="d" d="M120.94,50.09l1.82-7.37h2.38L127,50.09h-1.21l-0.4-1.58h-2.83l-0.4,1.58h-1.19Zm2.74-6.37-0.91,3.73h2.36l-0.9-3.73h-0.54Z" transform="translate(6.67 0.54)"/></svg>