<?xml version="1.0" encoding="utf-8"?>
<!-- Generator: Adobe Illustrator 19.2.0, SVG Export Plug-In . SVG Version: 6.00 Build 0)  -->
<svg version="1.1" id="Layer_1" xmlns="http://www.w3.org/2000/svg" xmlns:xlink="http://www.w3.org/1999/xlink" x="0px" y="0px"
	 viewBox="0 0 155 76" style="enable-background:new 0 0 155 76;" xml:space="preserve">
<g>
	<g>
		<g>
			
				<ellipse transform="matrix(1.097662e-002 -0.9999 0.9999 1.097662e-002 19.9145 76.5456)" style="fill:#FFC20E;" cx="48.7" cy="28.2" rx="25.1" ry="25.1"/>
			
				<ellipse transform="matrix(1.097662e-002 -0.9999 0.9999 1.097662e-002 19.9145 76.5456)" style="fill:#F58220;" cx="48.7" cy="28.2" rx="22" ry="22"/>
			
				<ellipse transform="matrix(1.097662e-002 -0.9999 0.9999 1.097662e-002 19.9145 76.5456)" style="fill:#9F1522;" cx="48.7" cy="28.2" rx="14.9" ry="14.9"/>
		</g>
		<path style="fill:#565555;" d="M36.3,73c-0.2,0-0.4-0.1-0.5-0.3l-6-7.9c0-0.1-0.1-0.1-0.1-0.2L29,62.2c-0.1-0.3,0.1-0.7,0.4-0.8
			l3-1.2c0.2-0.1,1.8-1.2,0.7-5c-3.3,0.1-21.6,0.6-26.9-1.4c-0.2-0.1-0.4-0.3-0.4-0.5c0-0.2,0.1-0.5,0.3-0.6l1.2-0.8L4.5,48
			c-0.1-0.2-0.2-0.4-0.1-0.6L7,41.9c0-0.1,0.1-0.2,0.2-0.2l1.5-1.1c0,0,0.1,0,0.1-0.1l13-5.7l1.5-4.6c0.1-0.2,0.2-0.4,0.4-0.4
			c0.2-0.1,0.4,0,0.6,0.1l3.1,2.3c0.1,0.1,0.2,0.3,0.3,0.5l0.1,1l2.7,2.1l1.1,0.6c0,0,0.1,0,0.1,0.1c0.4,0.3,1.6,1,2.6,0.7
			c0.6-0.2,1.1-0.8,1.4-1.9c1.2-3.9,0.1-5.6,0.1-5.6c-0.1-0.1-0.1-0.3-0.1-0.4l0.2-4c0-0.2,0.1-0.4,0.3-0.5c0.2-0.1,0.4-0.1,0.6-0.1
			l4.9,1.7c0.3,0.1,0.4,0.3,0.4,0.6l-0.1,4.3l0.4,2.3c0.3,0.1,0.7,0.3,1,0.3c0.6-0.1,1.2,0.4,2.6,3c0.7,1.3,1.2,2.5,1.3,2.7
			c0.1,0.2,1.6,2.7,4.9,2.3c0.1,0,0.2,0,0.3,0l4.6,1.6c0.3-0.4,0.8-0.8,1.6-0.9c0.7-0.1,1.3,0.2,1.9,0.8l6.4-4.6v-11H65l-0.9,1.3
			c-0.1,0.1-0.3,0.3-0.4,0.3c-0.2,0-0.4,0-0.5-0.1l-3-2.4L58,27.6c-0.3,0.1-0.6,0-0.7-0.2l-2.6-3.4c-0.1-0.1-0.1-0.3-0.1-0.4
			l0.3-3.3l-2.4-0.8c-0.2-0.1-0.4-0.2-0.4-0.4l-1.8-6.1c0-0.1,0-0.3,0-0.4l2.6-7.8c0.1-0.3,0.3-0.4,0.6-0.4H56c0.1,0,0.1,0,0.2,0
			l4.6,1.6C60.9,5.9,61,6,61,6l1.7,1.6c0.1,0.1,0.2,0.3,0.2,0.5V9l1.8,2.4c0.1,0.1,0.1,0.3,0.1,0.4l-0.1,1.9l0.7,1.8l0.9-3.1
			c0,0,0-0.1,0-0.1l3.8-8.7c0.1-0.2,0.3-0.4,0.6-0.4h3.1c0.2,0,0.4,0.1,0.5,0.3L74.8,4l1-0.8C76,3,76.1,3,76.3,3h11.4
			c0.2,0,0.3,0.1,0.5,0.2c0.1,0.1,0.2,0.3,0.2,0.5l-0.1,2.4l6.4,5c0.2,0.1,0.2,0.3,0.2,0.5v29.9c0,0.2-0.1,0.3-0.2,0.4L77.4,62.3
			c-0.1,0.1-0.3,0.2-0.5,0.2L66,62.4l-2.9,7.5c-0.1,0.2-0.3,0.4-0.5,0.4l-6,0.6c-0.1,0-0.3,0-0.4-0.1l-5-3l-4.9,0.5L46,71.6
			c0,0.2-0.1,0.4-0.3,0.5c-0.2,0.1-0.4,0.1-0.6,0l-5.6-2.6c-0.1,0-0.2-0.1-0.2-0.2L38.9,69l-2.1,3.7C36.7,72.9,36.6,73,36.3,73
			C36.3,73,36.3,73,36.3,73z"/>
		<g>
			<defs>
				<path id="SVGID_1_" d="M30.9,64.2l5.3,7l2.1-3.6c0.1-0.2,0.3-0.3,0.5-0.3c0.2,0,0.4,0.1,0.5,0.2l0.8,0.9l4.7,2.1l0.2-2.9
					c0-0.3,0.3-0.6,0.6-0.6l5.6-0.5c0.1,0,0.3,0,0.4,0.1l5,3l5.4-0.6l2.9-7.5c0.1-0.2,0.3-0.4,0.6-0.4c0,0,0,0,0,0l11,0.2l16.9-19.9
					V11.9l-6.4-5c-0.2-0.1-0.3-0.3-0.2-0.5L87,4.3H76.5l-1.4,1.1c-0.1,0.1-0.3,0.2-0.5,0.1c-0.2,0-0.3-0.1-0.4-0.3l-0.6-0.9h-2.3
					l-3.7,8.3l-1.4,4.9c-0.1,0.3-0.3,0.4-0.6,0.5c-0.3,0-0.5-0.1-0.6-0.4L63.5,14c0-0.1-0.1-0.2,0-0.3l0.1-1.8l-1.8-2.4
					c-0.1-0.1-0.1-0.2-0.1-0.4V8.4l-1.4-1.3l-4.4-1.5h-2l-2.3,7.1l1.7,5.6l2.6,0.9c0.3,0.1,0.5,0.4,0.4,0.7l-0.3,3.6l2.1,2.8l2-0.7
					c0.2-0.1,0.4,0,0.6,0.1l2.8,2.2l0.7-1c0.1-0.2,0.3-0.3,0.5-0.3h2.8c0.4,0,0.6,0.3,0.6,0.6v11.9c0,0.2-0.1,0.4-0.3,0.5l-7.1,5.1
					c-0.3,0.2-0.7,0.1-0.9-0.1c-0.3-0.4-0.8-0.8-1.2-0.8c-0.4,0-0.8,0.6-0.9,0.7c-0.1,0.3-0.5,0.4-0.8,0.3L52,43.2
					c-4.2,0.4-6-2.9-6-3c0,0,0,0,0,0c-0.9-2.1-2.2-4.5-2.7-4.9c-1,0.1-1.9-0.6-2-0.7c-0.1-0.1-0.2-0.2-0.2-0.4l-0.4-2.7
					c0,0,0-0.1,0-0.1l0.1-3.9L37,26.2l-0.2,3c0.3,0.6,1.1,2.7,0,6.5c-0.4,1.5-1.2,2.4-2.2,2.7c-1.7,0.5-3.4-0.7-3.7-0.9l-1.1-0.6
					c0,0-0.1,0-0.1-0.1l-3-2.3c-0.1-0.1-0.2-0.3-0.2-0.4l-0.1-1l-2.1-1.6l-1.3,4c-0.1,0.2-0.2,0.3-0.3,0.4L9.3,41.7L8,42.6l-2.3,4.9
					l3,4.1c0.1,0.1,0.1,0.3,0.1,0.5c0,0.2-0.1,0.3-0.3,0.4L7.9,53c6.9,1.6,25.4,1,25.6,1c0.3,0,0.5,0.2,0.6,0.4c1.9,5.5-1,7-1.2,7.1
					c0,0,0,0-0.1,0l-2.5,1L30.9,64.2z"/>
			</defs>
			<clipPath id="SVGID_2_">
				<use xlink:href="#SVGID_1_"  style="overflow:visible;"/>
			</clipPath>
			<rect x="-2.3" y="2.5" style="clip-path:url(#SVGID_2_);fill:#FFFFFF;" width="110.6" height="83.2"/>
			<g style="clip-path:url(#SVGID_2_);">
				<path style="fill:#001E59;" d="M52.6,41l-5.5-2c-0.6-0.2-1.3,0.1-1.5,0.7l-2,5.5c-0.2,0.6,0.1,1.3,0.7,1.5l5.5,2
					c0.6,0.2,1.3-0.1,1.5-0.7l2-5.5C53.5,41.9,53.2,41.2,52.6,41z"/>
				<path style="fill:#001E59;" d="M60.8,44l-5.5-2c-0.6-0.2-1.3,0.1-1.5,0.7l-2,5.5c-0.2,0.6,0.1,1.3,0.7,1.5l5.5,2
					c0.6,0.2,1.3-0.1,1.5-0.7l2-5.5C61.7,44.9,61.3,44.3,60.8,44z"/>
				<path style="fill:#001E59;" d="M68.9,47l-5.5-2c-0.6-0.2-1.3,0.1-1.5,0.7l-2,5.5c-0.2,0.6,0.1,1.3,0.7,1.5l5.5,2
					c0.6,0.2,1.3-0.1,1.5-0.7l2-5.5C69.8,47.9,69.5,47.3,68.9,47z"/>
				<path style="fill:#001E59;" d="M77.1,50.1l-5.5-2c-0.6-0.2-1.3,0.1-1.5,0.7l-2,5.5c-0.2,0.6,0.1,1.3,0.7,1.5l5.5,2
					c0.6,0.2,1.3-0.1,1.5-0.7l2-5.5C78,50.9,77.7,50.3,77.1,50.1z"/>
				<path style="fill:#001E59;" d="M49.6,49.2l-5.5-2c-0.6-0.2-1.3,0.1-1.5,0.7l-2,5.5c-0.2,0.6,0.1,1.3,0.7,1.5l5.5,2
					c0.6,0.2,1.3-0.1,1.5-0.7l2-5.5C50.5,50,50.2,49.4,49.6,49.2z"/>
				<path style="fill:#001E59;" d="M57.8,52.2l-5.5-2c-0.6-0.2-1.3,0.1-1.5,0.7l-2,5.5c-0.2,0.6,0.1,1.3,0.7,1.5l5.5,2
					c0.6,0.2,1.3-0.1,1.5-0.7l2-5.5C58.7,53,58.4,52.4,57.8,52.2z"/>
				<path style="fill:#001E59;" d="M65.9,55.2l-5.5-2c-0.6-0.2-1.3,0.1-1.5,0.7l-2,5.5c-0.2,0.6,0.1,1.3,0.7,1.5l5.5,2
					c0.6,0.2,1.3-0.1,1.5-0.7l2-5.5C66.8,56.1,66.5,55.4,65.9,55.2z"/>
				<path style="fill:#001E59;" d="M74.1,58.2l-5.5-2c-0.6-0.2-1.3,0.1-1.5,0.7l-2,5.5c-0.2,0.6,0.1,1.3,0.7,1.5l5.5,2
					c0.6,0.2,1.3-0.1,1.5-0.7l2-5.5C75,59.1,74.7,58.4,74.1,58.2z"/>
				<path style="fill:#001E59;" d="M46.6,57.3l-5.5-2c-0.6-0.2-1.3,0.1-1.5,0.7l-2,5.5c-0.2,0.6,0.1,1.3,0.7,1.5l5.5,2
					c0.6,0.2,1.3-0.1,1.5-0.7l2-5.5C47.5,58.2,47.2,57.5,46.6,57.3z"/>
				<path style="fill:#001E59;" d="M54.8,60.3l-5.5-2c-0.6-0.2-1.3,0.1-1.5,0.7l-2,5.5c-0.2,0.6,0.1,1.3,0.7,1.5l5.5,2
					c0.6,0.2,1.3-0.1,1.5-0.7l2-5.5C55.7,61.2,55.4,60.5,54.8,60.3z"/>
				<path style="fill:#001E59;" d="M62.9,63.3l-5.5-2c-0.6-0.2-1.3,0.1-1.5,0.7l-2,5.5c-0.2,0.6,0.1,1.3,0.7,1.5l5.5,2
					c0.6,0.2,1.3-0.1,1.5-0.7l2-5.5C63.8,64.2,63.5,63.5,62.9,63.3z"/>
				<path style="fill:#001E59;" d="M71.1,66.3l-5.5-2c-0.6-0.2-1.3,0.1-1.5,0.7l-2,5.5c-0.2,0.6,0.1,1.3,0.7,1.5l5.5,2
					c0.6,0.2,1.3-0.1,1.5-0.7l2-5.5C72,67.2,71.7,66.5,71.1,66.3z"/>
			</g>
		</g>
	</g>
	<g>
		<g>
			<g>
				<path style="fill:#565555;" d="M105.5,25.5c-2.1,0-3.2,0.8-3.2,2.2c0,0.8,0.3,1.3,0.8,1.7s1.6,0.7,3.3,1.2
					c1.7,0.5,2.9,1.1,3.7,1.7c0.7,0.7,1.1,1.7,1.1,3.1c0,1.8-0.5,3.2-1.6,4.1c-1,0.9-2.4,1.4-4.2,1.4c-1.4,0-3-0.2-4.8-0.5l-0.9-0.2
					l0.3-2.2c2.3,0.3,4,0.5,5.2,0.5c2.1,0,3.1-0.9,3.1-2.8c0-0.7-0.2-1.3-0.7-1.6c-0.5-0.3-1.5-0.7-3.2-1.1c-1.7-0.4-2.9-1-3.7-1.7
					c-0.8-0.7-1.2-1.9-1.2-3.4c0-1.6,0.5-2.8,1.5-3.6c1-0.8,2.4-1.2,4.2-1.2c1.3,0,2.8,0.2,4.6,0.5l0.9,0.2l-0.2,2.3
					C108.2,25.7,106.5,25.5,105.5,25.5z"/>
				<path style="fill:#565555;" d="M114.2,40.7V23.4h2.8v17.3H114.2z"/>
				<path style="fill:#565555;" d="M126,25.5c-2.1,0-3.2,0.8-3.2,2.2c0,0.8,0.3,1.3,0.8,1.7c0.5,0.3,1.6,0.7,3.3,1.2
					c1.7,0.5,2.9,1.1,3.7,1.7c0.7,0.7,1.1,1.7,1.1,3.1c0,1.8-0.5,3.2-1.6,4.1c-1,0.9-2.4,1.4-4.2,1.4c-1.4,0-3-0.2-4.8-0.5l-0.9-0.2
					l0.3-2.2c2.3,0.3,4,0.5,5.2,0.5c2.1,0,3.1-0.9,3.1-2.8c0-0.7-0.2-1.3-0.7-1.6c-0.5-0.3-1.5-0.7-3.2-1.1c-1.7-0.4-2.9-1-3.7-1.7
					c-0.8-0.7-1.2-1.9-1.2-3.4c0-1.6,0.5-2.8,1.5-3.6c1-0.8,2.4-1.2,4.2-1.2c1.3,0,2.8,0.2,4.6,0.5l0.9,0.2l-0.2,2.3
					C128.7,25.7,127,25.5,126,25.5z"/>
				<path style="fill:#F9B408;" d="M135.1,29.4c0.9-1.1,2.3-1.6,4.3-1.6c2,0,3.5,0.5,4.3,1.6c0.9,1.1,1.3,2.7,1.3,4.9
					c0,2.2-0.4,3.8-1.3,5c-0.8,1.1-2.3,1.7-4.4,1.7s-3.5-0.6-4.4-1.7c-0.8-1.1-1.3-2.8-1.3-5C133.7,32.2,134.2,30.5,135.1,29.4z
					 M137.1,37.6c0.4,0.7,1.1,1,2.3,1c1.1,0,1.9-0.3,2.3-1c0.4-0.7,0.6-1.8,0.6-3.3c0-1.5-0.2-2.6-0.6-3.3c-0.4-0.6-1.2-1-2.2-1
					c-1.1,0-1.8,0.3-2.2,1c-0.4,0.6-0.6,1.7-0.6,3.3C136.5,35.9,136.7,37,137.1,37.6z"/>
				<path style="fill:#F9B408;" d="M147.9,40.7V22.8h2.8v17.9H147.9z"/>
			</g>
		</g>
		<g>
			<path style="fill:#9F1522;" d="M102.1,46.6c-0.9,0-1.4,0.3-1.4,1c0,0.3,0.1,0.6,0.3,0.7c0.2,0.1,0.7,0.3,1.4,0.5
				c0.7,0.2,1.3,0.4,1.6,0.7c0.3,0.3,0.5,0.7,0.5,1.3c0,0.8-0.2,1.4-0.7,1.7c-0.4,0.4-1,0.6-1.8,0.6c-0.6,0-1.3-0.1-2-0.2l-0.4-0.1
				l0.1-1c1,0.1,1.7,0.2,2.2,0.2c0.9,0,1.3-0.4,1.3-1.2c0-0.3-0.1-0.5-0.3-0.7c-0.2-0.1-0.7-0.3-1.4-0.5c-0.7-0.2-1.2-0.4-1.6-0.7
				c-0.3-0.3-0.5-0.8-0.5-1.5s0.2-1.2,0.7-1.5c0.4-0.3,1-0.5,1.8-0.5c0.6,0,1.2,0.1,2,0.2l0.4,0.1l-0.1,1
				C103.3,46.7,102.6,46.6,102.1,46.6z"/>
			<path style="fill:#9F1522;" d="M106.2,53.1l1.8-7.4h2.4l1.8,7.4H111l-0.4-1.6h-2.8l-0.4,1.6H106.2z M108.9,46.7l-0.9,3.7h2.4
				l-0.9-3.7H108.9z"/>
			<path style="fill:#9F1522;" d="M118.5,53.1h-4.1v-7.4h1.2V52h2.9V53.1z"/>
			<path style="fill:#9F1522;" d="M118.9,46.8v-1.1h5.4v1.1h-2.1v6.3H121v-6.3H118.9z"/>
			<path style="fill:#9F1522;" d="M125.3,53.1l1.8-7.4h2.4l1.8,7.4h-1.2l-0.4-1.6h-2.8l-0.4,1.6H125.3z M128,46.7l-0.9,3.7h2.4
				l-0.9-3.7H128z"/>
		</g>
	</g>
</g>
</svg>
