<svg xmlns="http://www.w3.org/2000/svg" xmlns:xlink="http://www.w3.org/1999/xlink" viewBox="0 0 164 70"><defs><style>.a{fill:none;}.b{fill:#ffc20e;}.c{fill:#f58220;}.d{fill:#9f1522;}.e{fill:#565555;}.f{clip-path:url(#a);}.g{fill:#fff;}.h{fill:#001e59;}.i{fill:#f9b408;}</style><clipPath id="a"><path class="a" d="M41.57,57.44l4.55,6,1.78-3.11a0.55,0.55,0,0,1,.9-0.07l0.65,0.81,4,1.82,0.21-2.51a0.55,0.55,0,0,1,.49-0.5L59,59.43a0.55,0.55,0,0,1,.33.07l4.32,2.56,4.6-.49,2.53-6.45a0.55,0.55,0,0,1,.51-0.35h0l9.42,0.18,14.5-17.09V12.66L89.77,8.35a0.55,0.55,0,0,1-.21-0.45L89.64,6.1h-9l-1.22,1a0.55,0.55,0,0,1-.8-0.13l-0.48-.75h-2L73,13.31l-1.18,4.16a0.55,0.55,0,0,1-1,.06l-1.28-3.1a0.55,0.55,0,0,1,0-.24l0.08-1.54-1.52-2a0.55,0.55,0,0,1-.11-0.33V9.62l-1.2-1.13L63,7.19h-1.7l-2,6.13,1.42,4.77,2.2,0.73a0.55,0.55,0,0,1,.37.57L63,22.46l1.83,2.44,1.72-.6a0.55,0.55,0,0,1,.52.09l2.36,1.91L70,25.43a0.55,0.55,0,0,1,.46-0.24h2.37a0.55,0.55,0,0,1,.55.55V36a0.55,0.55,0,0,1-.23.45l-6.12,4.38a0.55,0.55,0,0,1-.74-0.1A1.52,1.52,0,0,0,65.24,40a1.24,1.24,0,0,0-.77.6,0.55,0.55,0,0,1-.66.26l-4.18-1.42a5.25,5.25,0,0,1-5.17-2.59l0,0a19,19,0,0,0-2.29-4.23A2.94,2.94,0,0,1,50.42,32a0.55,0.55,0,0,1-.21-0.35l-0.37-2.28a0.56,0.56,0,0,1,0-.1l0.08-3.34-3.13-1.09-0.14,2.58c0.28,0.55.93,2.3,0,5.58a3.15,3.15,0,0,1-1.91,2.35,4,4,0,0,1-3.2-.76l-1-.53L40.46,34,37.9,32a0.55,0.55,0,0,1-.21-0.39l-0.07-.85-1.84-1.4-1.13,3.47a0.55,0.55,0,0,1-.3.33l-11.27,5L22,39,20,43.2l2.55,3.48a0.55,0.55,0,0,1-.14.78l-0.55.35c5.92,1.37,21.8.84,22,.83a0.55,0.55,0,0,1,.54.37c1.6,4.69-.9,6-1,6.05l-0.05,0-2.17.82Z"/></clipPath></defs><title>LOGOok</title><circle class="b" cx="56.77" cy="26.6" r="21.54" transform="translate(29.55 83.08) rotate(-89.37)"/><circle class="c" cx="56.77" cy="26.6" r="18.87" transform="translate(29.55 83.08) rotate(-89.37)"/><circle class="d" cx="56.77" cy="26.6" r="12.8" transform="translate(29.55 83.08) rotate(-89.37)"/><path class="e" d="M46.19,65a0.55,0.55,0,0,1-.44-0.22L40.64,58a0.55,0.55,0,0,1-.09-0.17l-0.64-2.1a0.55,0.55,0,0,1,.33-0.67l2.61-1c0.17-.1,1.55-1.06.57-4.33-2.83.09-18.55,0.48-23.09-1.24a0.55,0.55,0,0,1-.1-1l1.07-.69-2.4-3.28A0.55,0.55,0,0,1,18.84,43L21,38.37a0.55,0.55,0,0,1,.18-0.21l1.28-.91,0.1-.05,11.1-4.92,1.29-4A0.55,0.55,0,0,1,35.83,28l2.65,2a0.55,0.55,0,0,1,.21.39l0.07,0.86,2.33,1.83,1,0.53,0.07,0a2.9,2.9,0,0,0,2.23.62,2.16,2.16,0,0,0,1.2-1.61c1-3.38.08-4.82,0.07-4.83a0.52,0.52,0,0,1-.09-0.34l0.18-3.47a0.55,0.55,0,0,1,.73-0.49L50.66,25a0.55,0.55,0,0,1,.37.53l-0.09,3.69,0.32,2a1.59,1.59,0,0,0,.89.24c0.53-.07,1.06.33,2.2,2.54,0.56,1.08,1,2.16,1.1,2.33a4.19,4.19,0,0,0,4.2,2,0.55,0.55,0,0,1,.24,0l3.9,1.33a2.06,2.06,0,0,1,1.36-.78,2.11,2.11,0,0,1,1.67.71l5.49-3.94v-9.4H70.77L70,27.4a0.55,0.55,0,0,1-.8.12l-2.59-2.09-1.81.63a0.55,0.55,0,0,1-.62-0.19L62,23a0.55,0.55,0,0,1-.11-0.37l0.24-2.86L60.08,19a0.55,0.55,0,0,1-.35-0.36l-1.55-5.21a0.55,0.55,0,0,1,0-.33l2.19-6.67a0.55,0.55,0,0,1,.52-0.38h2.19a0.55,0.55,0,0,1,.18,0L67.19,7.5a0.55,0.55,0,0,1,.19.12L68.84,9a0.55,0.55,0,0,1,.17.4v0.73l1.53,2a0.55,0.55,0,0,1,.11.36l-0.08,1.61,0.63,1.53L72,13l0-.07,3.29-7.49a0.55,0.55,0,0,1,.5-0.33h2.65a0.55,0.55,0,0,1,.46.25L79.2,5.83l0.89-.71A0.55,0.55,0,0,1,80.43,5h9.77a0.55,0.55,0,0,1,.55.57l-0.08,2.1L96.12,12a0.55,0.55,0,0,1,.21.43V38.06a0.55,0.55,0,0,1-.13.35L81.4,55.86a0.54,0.54,0,0,1-.43.19l-9.3-.18-2.51,6.4a0.55,0.55,0,0,1-.45.35l-5.11.55a0.55,0.55,0,0,1-.34-0.07l-4.32-2.56-4.21.4L54.5,63.77a0.55,0.55,0,0,1-.77.45L48.88,62a0.55,0.55,0,0,1-.2-0.16l-0.23-.28-1.79,3.14a0.55,0.55,0,0,1-.44.27h0Z"/><g class="f"><rect class="g" x="13.08" y="4.54" width="94.79" height="71.34"/><rect class="h" x="53.09" y="36.51" width="6.98" height="6.98" rx="0.98" ry="0.98" transform="matrix(0.35, -0.94, 0.94, 0.35, -0.51, 79.26)"/><rect class="h" x="60.1" y="39.09" width="6.98" height="6.98" rx="0.98" ry="0.98" transform="translate(1.65 87.53) rotate(-69.78)"/><rect class="h" x="67.11" y="41.67" width="6.98" height="6.98" rx="0.98" ry="0.98" transform="translate(3.82 95.8) rotate(-69.78)"/><rect class="h" x="74.12" y="44.26" width="6.98" height="6.98" rx="0.98" ry="0.98" transform="translate(5.98 104.07) rotate(-69.78)"/><rect class="h" x="50.52" y="43.48" width="6.98" height="6.98" rx="0.98" ry="0.98" transform="translate(-8.74 81.41) rotate(-69.78)"/><rect class="h" x="57.53" y="46.06" width="6.98" height="6.98" rx="0.98" ry="0.98" transform="translate(-6.57 89.68) rotate(-69.78)"/><rect class="h" x="64.54" y="48.65" width="6.98" height="6.98" rx="0.98" ry="0.98" transform="translate(-4.41 97.95) rotate(-69.78)"/><rect class="h" x="71.55" y="51.23" width="6.98" height="6.98" rx="0.98" ry="0.98" transform="translate(-2.24 106.22) rotate(-69.78)"/><rect class="h" x="47.95" y="50.45" width="6.98" height="6.98" rx="0.98" ry="0.98" transform="translate(-16.96 83.57) rotate(-69.78)"/><rect class="h" x="54.96" y="53.04" width="6.98" height="6.98" rx="0.98" ry="0.98" transform="translate(-14.8 91.83) rotate(-69.78)"/><rect class="h" x="61.97" y="55.62" width="6.98" height="6.98" rx="0.98" ry="0.98" transform="translate(-12.63 100.1) rotate(-69.78)"/><rect class="h" x="68.98" y="58.2" width="6.98" height="6.98" rx="0.98" ry="0.98" transform="translate(-10.47 108.37) rotate(-69.78)"/></g><path class="e" d="M105.51,24.32q-2.75,0-2.75,1.93a1.56,1.56,0,0,0,.65,1.42,12.44,12.44,0,0,0,2.87,1,7.65,7.65,0,0,1,3.13,1.47,3.55,3.55,0,0,1,.91,2.7,4.39,4.39,0,0,1-1.33,3.5,5.34,5.34,0,0,1-3.63,1.16,21.52,21.52,0,0,1-4.07-.43L100.5,37,100.74,35a36.59,36.59,0,0,0,4.46.39q2.69,0,2.69-2.38a1.59,1.59,0,0,0-.61-1.38,9.27,9.27,0,0,0-2.73-1,7.42,7.42,0,0,1-3.16-1.46,3.77,3.77,0,0,1-1-2.95,3.64,3.64,0,0,1,1.31-3,5.74,5.74,0,0,1,3.63-1,23.78,23.78,0,0,1,3.94.39L110,22.72l-0.2,2Q106.77,24.33,105.51,24.32Z"/><path class="e" d="M112.92,37.3V22.46h2.41V37.3h-2.41Z"/><path class="e" d="M123.1,24.32q-2.75,0-2.75,1.93a1.56,1.56,0,0,0,.65,1.42,12.44,12.44,0,0,0,2.87,1A7.65,7.65,0,0,1,127,30.19a3.55,3.55,0,0,1,.91,2.7,4.39,4.39,0,0,1-1.33,3.5A5.34,5.34,0,0,1,123,37.54a21.52,21.52,0,0,1-4.07-.43L118.1,37,118.34,35a36.59,36.59,0,0,0,4.46.39q2.69,0,2.69-2.38a1.59,1.59,0,0,0-.61-1.38,9.27,9.27,0,0,0-2.73-1A7.42,7.42,0,0,1,119,29.22a3.77,3.77,0,0,1-1-2.95,3.64,3.64,0,0,1,1.31-3,5.74,5.74,0,0,1,3.63-1,23.78,23.78,0,0,1,3.94.39l0.76,0.13-0.2,2Q124.36,24.33,123.1,24.32Z"/><path class="i" d="M130.83,27.64a5.61,5.61,0,0,1,7.43,0,6.72,6.72,0,0,1,1.12,4.23,7,7,0,0,1-1.08,4.25,5.63,5.63,0,0,1-7.5,0,7,7,0,0,1-1.08-4.25A6.72,6.72,0,0,1,130.83,27.64Zm1.77,7a2.63,2.63,0,0,0,3.9,0,6,6,0,0,0,.5-2.84,5.42,5.42,0,0,0-.53-2.8,2.64,2.64,0,0,0-3.84,0,5.42,5.42,0,0,0-.53,2.8A6,6,0,0,0,132.6,34.68Z"/><path class="i" d="M141.85,37.3V22h2.36V37.3h-2.36Z"/><path class="d" d="M102.63,42.41q-1.17,0-1.17.82a0.67,0.67,0,0,0,.28.6,5.31,5.31,0,0,0,1.22.44,3.25,3.25,0,0,1,1.33.63,1.51,1.51,0,0,1,.39,1.15,1.87,1.87,0,0,1-.57,1.49,2.27,2.27,0,0,1-1.54.49,9.16,9.16,0,0,1-1.73-.18l-0.33-.06,0.1-.82a15.55,15.55,0,0,0,1.9.17,1,1,0,0,0,1.14-1,0.68,0.68,0,0,0-.26-0.59,3.94,3.94,0,0,0-1.16-.42,3.16,3.16,0,0,1-1.35-.62,1.6,1.6,0,0,1-.44-1.25,1.55,1.55,0,0,1,.56-1.3,2.44,2.44,0,0,1,1.54-.44,10.12,10.12,0,0,1,1.68.17l0.32,0.06-0.08.83Q103.16,42.41,102.63,42.41Z"/><path class="d" d="M106.08,47.94l1.56-6.32h2l1.57,6.32h-1l-0.34-1.36h-2.43l-0.34,1.36h-1Zm2.35-5.46-0.78,3.2h2l-0.77-3.2h-0.46Z"/><path class="d" d="M116.61,47.94h-3.54V41.62h1V47h2.52v0.91Z"/><path class="d" d="M117,42.53V41.62h4.61v0.91h-1.78v5.4h-1v-5.4H117Z"/><path class="d" d="M122.45,47.94L124,41.62h2l1.57,6.32h-1l-0.34-1.36h-2.43l-0.34,1.36h-1Zm2.35-5.46L124,45.68h2l-0.77-3.2H124.8Z"/></svg>