<?xml version="1.0" encoding="utf-8"?>
<!-- Generator: Adobe Illustrator 19.2.0, SVG Export Plug-In . SVG Version: 6.00 Build 0)  -->
<svg version="1.1" id="Layer_1" xmlns:x="&ns_extend;" xmlns:i="&ns_ai;" xmlns:graph="&ns_graphs;"
	 xmlns="http://www.w3.org/2000/svg" xmlns:xlink="http://www.w3.org/1999/xlink" x="0px" y="0px" viewBox="0 0 146 70"
	 style="enable-background:new 0 0 146 70;" xml:space="preserve">
<style type="text/css">
	.st0{fill:#FFC20E;}
	.st1{fill:#F58220;}
	.st2{fill:#9F1522;}
	.st3{fill:#565555;}
	.st4{clip-path:url(#SVGID_2_);fill:#FFFFFF;}
	.st5{clip-path:url(#SVGID_2_);}
	.st6{fill:#001E59;}
	.st7{fill:#F9B408;}
</style>
<metadata>
	<sfw  xmlns="&ns_sfw;">
		<slices></slices>
		<sliceSourceBounds  bottomLeftOrigin="true" height="83.2" width="152.7" x="270.8" y="-397.7"></sliceSourceBounds>
	</sfw>
</metadata>
<g>
	<g>
		<g>
			
				<ellipse transform="matrix(1.100099e-002 -0.9999 0.9999 1.100099e-002 18.5258 69.1421)" class="st0" cx="44.2" cy="25.2" rx="25.1" ry="25.1"/>
			
				<ellipse transform="matrix(1.100099e-002 -0.9999 0.9999 1.100099e-002 18.5258 69.1421)" class="st1" cx="44.2" cy="25.2" rx="22" ry="22"/>
			
				<ellipse transform="matrix(1.100099e-002 -0.9999 0.9999 1.100099e-002 18.5258 69.1421)" class="st2" cx="44.2" cy="25.2" rx="14.9" ry="14.9"/>
		</g>
		<path class="st3" d="M31.9,70c-0.2,0-0.4-0.1-0.5-0.3l-6-7.9c0-0.1-0.1-0.1-0.1-0.2l-0.7-2.5c-0.1-0.3,0.1-0.7,0.4-0.8l3-1.2
			c0.2-0.1,1.8-1.2,0.7-5c-3.3,0.1-21.6,0.6-26.9-1.4c-0.2-0.1-0.4-0.3-0.4-0.5c0-0.2,0.1-0.5,0.3-0.6l1.2-0.8L0.1,45
			C0,44.8,0,44.6,0.1,44.4l2.6-5.4c0-0.1,0.1-0.2,0.2-0.2l1.5-1.1c0,0,0.1,0,0.1-0.1l12.9-5.7l1.5-4.6c0.1-0.2,0.2-0.4,0.4-0.4
			c0.2-0.1,0.4,0,0.6,0.1l3.1,2.3c0.1,0.1,0.2,0.3,0.3,0.5l0.1,1l2.7,2.1l1.1,0.6c0,0,0.1,0,0.1,0.1c0.4,0.3,1.6,1,2.6,0.7
			c0.6-0.2,1.1-0.8,1.4-1.9c1.2-3.9,0.1-5.6,0.1-5.6c-0.1-0.1-0.1-0.3-0.1-0.4l0.2-4c0-0.2,0.1-0.4,0.3-0.5c0.2-0.1,0.4-0.1,0.6-0.1
			l4.9,1.7c0.3,0.1,0.4,0.3,0.4,0.6l-0.1,4.3l0.4,2.3c0.3,0.1,0.7,0.3,1,0.3c0.6-0.1,1.2,0.4,2.6,3c0.6,1.3,1.2,2.5,1.3,2.7
			c0.1,0.2,1.6,2.7,4.9,2.3c0.1,0,0.2,0,0.3,0l4.5,1.6c0.3-0.4,0.8-0.8,1.6-0.9c0.7-0.1,1.3,0.2,1.9,0.8l6.4-4.6v-11h-1.8l-0.9,1.3
			c-0.1,0.1-0.3,0.3-0.4,0.3c-0.2,0-0.4,0-0.5-0.1l-3-2.4l-2.1,0.7c-0.3,0.1-0.6,0-0.7-0.2l-2.6-3.4c-0.1-0.1-0.1-0.3-0.1-0.4
			l0.3-3.3l-2.4-0.8c-0.2-0.1-0.4-0.2-0.4-0.4l-1.8-6.1c0-0.1,0-0.3,0-0.4l2.6-7.8c0.1-0.3,0.3-0.4,0.6-0.4h2.6c0.1,0,0.1,0,0.2,0
			l4.6,1.6c0.1,0,0.2,0.1,0.2,0.1l1.7,1.6c0.1,0.1,0.2,0.3,0.2,0.5V6l1.8,2.4c0.1,0.1,0.1,0.3,0.1,0.4l-0.1,1.9l0.7,1.8l0.9-3.1
			c0,0,0-0.1,0-0.1l3.8-8.7c0.1-0.2,0.3-0.4,0.6-0.4h3.1c0.2,0,0.4,0.1,0.5,0.3L70.3,1l1-0.8C71.5,0,71.6,0,71.8,0h11.4
			c0.2,0,0.3,0.1,0.5,0.2c0.1,0.1,0.2,0.3,0.2,0.5l-0.1,2.4l6.3,5c0.2,0.1,0.2,0.3,0.2,0.5v29.9c0,0.2-0.1,0.3-0.2,0.4L72.9,59.3
			c-0.1,0.1-0.3,0.2-0.5,0.2l-10.8-0.2l-2.9,7.5c-0.1,0.2-0.3,0.4-0.5,0.4l-6,0.6c-0.1,0-0.3,0-0.4-0.1l-5-3l-4.9,0.5l-0.3,3.3
			c0,0.2-0.1,0.4-0.3,0.5c-0.2,0.1-0.4,0.1-0.6,0L35,66.5c-0.1,0-0.2-0.1-0.2-0.2L34.5,66l-2.1,3.7C32.3,69.9,32.1,70,31.9,70
			C31.9,70,31.9,70,31.9,70z"/>
		<g>
			<defs>
				<path id="SVGID_1_" d="M26.5,61.2l5.3,7l2.1-3.6c0.1-0.2,0.3-0.3,0.5-0.3c0.2,0,0.4,0.1,0.5,0.2l0.8,0.9l4.7,2.1l0.2-2.9
					c0-0.3,0.3-0.6,0.6-0.6l5.6-0.5c0.1,0,0.3,0,0.4,0.1l5,3l5.4-0.6l2.9-7.5c0.1-0.2,0.3-0.4,0.6-0.4c0,0,0,0,0,0l11,0.2L89,38.3
					V8.9l-6.3-5c-0.2-0.1-0.2-0.3-0.2-0.5l0.1-2.1H72l-1.4,1.1c-0.1,0.1-0.3,0.2-0.5,0.1c-0.2,0-0.3-0.1-0.4-0.3l-0.6-0.9h-2.3
					l-3.6,8.3l-1.4,4.9c-0.1,0.3-0.3,0.4-0.6,0.5c-0.3,0-0.5-0.1-0.6-0.4L59,11c0-0.1-0.1-0.2,0-0.3l0.1-1.8l-1.8-2.4
					c-0.1-0.1-0.1-0.2-0.1-0.4V5.4l-1.4-1.3l-4.3-1.5h-2l-2.3,7.1l1.7,5.6l2.6,0.9c0.3,0.1,0.5,0.4,0.4,0.7l-0.3,3.6l2.1,2.8l2-0.7
					c0.2-0.1,0.4,0,0.6,0.1l2.8,2.2l0.7-1c0.1-0.2,0.3-0.3,0.5-0.3h2.8c0.4,0,0.6,0.3,0.6,0.6v11.9c0,0.2-0.1,0.4-0.3,0.5l-7.1,5.1
					c-0.3,0.2-0.7,0.1-0.9-0.1c-0.3-0.4-0.8-0.8-1.2-0.8c-0.4,0-0.8,0.6-0.9,0.7c-0.1,0.3-0.5,0.4-0.8,0.3l-4.9-1.7
					c-4.2,0.4-5.9-2.9-6-3c0,0,0,0,0,0c-0.9-2.1-2.2-4.5-2.7-4.9c-1,0.1-1.9-0.6-2-0.7c-0.1-0.1-0.2-0.2-0.2-0.4l-0.4-2.7
					c0,0,0-0.1,0-0.1l0.1-3.9l-3.6-1.3l-0.2,3c0.3,0.6,1.1,2.7,0,6.5c-0.4,1.5-1.2,2.4-2.2,2.7c-1.7,0.5-3.4-0.7-3.7-0.9l-1.1-0.6
					c0,0-0.1,0-0.1-0.1l-3-2.3c-0.1-0.1-0.2-0.3-0.2-0.4l-0.1-1l-2.1-1.6l-1.3,4c-0.1,0.2-0.2,0.3-0.3,0.4L5,38.7l-1.3,0.9l-2.3,4.9
					l3,4.1c0.1,0.1,0.1,0.3,0.1,0.5c0,0.2-0.1,0.3-0.3,0.4L3.5,50c6.9,1.6,25.4,1,25.6,1c0.3,0,0.5,0.2,0.6,0.4c1.9,5.5-1,7-1.2,7.1
					c0,0,0,0-0.1,0l-2.5,1L26.5,61.2z"/>
			</defs>
			<clipPath id="SVGID_2_">
				<use xlink:href="#SVGID_1_"  style="overflow:visible;"/>
			</clipPath>
			<rect x="-6.7" y="-0.5" class="st4" width="110.3" height="83.2"/>
			<g class="st5">
				<path class="st6" d="M48.1,38l-5.5-2c-0.6-0.2-1.2,0.1-1.5,0.7l-2,5.5c-0.2,0.6,0.1,1.3,0.7,1.5l5.5,2c0.6,0.2,1.2-0.1,1.5-0.7
					l2-5.5C49,38.9,48.7,38.2,48.1,38z"/>
				<path class="st6" d="M56.3,41l-5.5-2c-0.6-0.2-1.2,0.1-1.5,0.7l-2,5.5c-0.2,0.6,0.1,1.3,0.7,1.5l5.5,2c0.6,0.2,1.2-0.1,1.5-0.7
					l2-5.5C57.2,41.9,56.9,41.3,56.3,41z"/>
				<path class="st6" d="M64.5,44L59,42c-0.6-0.2-1.2,0.1-1.5,0.7l-2,5.5c-0.2,0.6,0.1,1.3,0.7,1.5l5.5,2c0.6,0.2,1.2-0.1,1.5-0.7
					l2-5.5C65.4,44.9,65,44.3,64.5,44z"/>
				<path class="st6" d="M72.6,47.1l-5.5-2c-0.6-0.2-1.2,0.1-1.5,0.7l-2,5.5c-0.2,0.6,0.1,1.3,0.7,1.5l5.5,2
					c0.6,0.2,1.2-0.1,1.5-0.7l2-5.5C73.5,47.9,73.2,47.3,72.6,47.1z"/>
				<path class="st6" d="M45.1,46.2l-5.5-2c-0.6-0.2-1.2,0.1-1.5,0.7l-2,5.5c-0.2,0.6,0.1,1.3,0.7,1.5l5.5,2
					c0.6,0.2,1.2-0.1,1.5-0.7l2-5.5C46,47,45.7,46.4,45.1,46.2z"/>
				<path class="st6" d="M53.3,49.2l-5.5-2c-0.6-0.2-1.2,0.1-1.5,0.7l-2,5.5c-0.2,0.6,0.1,1.3,0.7,1.5l5.5,2
					c0.6,0.2,1.2-0.1,1.5-0.7l2-5.5C54.2,50,53.9,49.4,53.3,49.2z"/>
				<path class="st6" d="M61.5,52.2l-5.5-2c-0.6-0.2-1.2,0.1-1.5,0.7l-2,5.5c-0.2,0.6,0.1,1.3,0.7,1.5l5.5,2
					c0.6,0.2,1.2-0.1,1.5-0.7l2-5.5C62.4,53.1,62.1,52.4,61.5,52.2z"/>
				<path class="st6" d="M69.6,55.2l-5.5-2c-0.6-0.2-1.2,0.1-1.5,0.7l-2,5.5c-0.2,0.6,0.1,1.3,0.7,1.5l5.5,2
					c0.6,0.2,1.2-0.1,1.5-0.7l2-5.5C70.5,56.1,70.2,55.4,69.6,55.2z"/>
				<path class="st6" d="M42.2,54.3l-5.5-2c-0.6-0.2-1.2,0.1-1.5,0.7l-2,5.5c-0.2,0.6,0.1,1.3,0.7,1.5l5.5,2
					c0.6,0.2,1.2-0.1,1.5-0.7l2-5.5C43,55.2,42.7,54.5,42.2,54.3z"/>
				<path class="st6" d="M50.3,57.3l-5.5-2c-0.6-0.2-1.2,0.1-1.5,0.7l-2,5.5c-0.2,0.6,0.1,1.3,0.7,1.5l5.5,2
					c0.6,0.2,1.2-0.1,1.5-0.7l2-5.5C51.2,58.2,50.9,57.5,50.3,57.3z"/>
				<path class="st6" d="M58.5,60.3l-5.5-2c-0.6-0.2-1.2,0.1-1.5,0.7l-2,5.5c-0.2,0.6,0.1,1.3,0.7,1.5l5.5,2
					c0.6,0.2,1.2-0.1,1.5-0.7l2-5.5C59.4,61.2,59.1,60.5,58.5,60.3z"/>
				<path class="st6" d="M66.6,63.3l-5.5-2c-0.6-0.2-1.2,0.1-1.5,0.7l-2,5.5c-0.2,0.6,0.1,1.3,0.7,1.5l5.5,2
					c0.6,0.2,1.2-0.1,1.5-0.7l2-5.5C67.5,64.2,67.2,63.5,66.6,63.3z"/>
			</g>
		</g>
	</g>
	<g>
		<g>
			<g>
				<path class="st3" d="M100.9,22.5c-2.1,0-3.2,0.8-3.2,2.2c0,0.8,0.3,1.3,0.8,1.7c0.5,0.3,1.6,0.7,3.3,1.2
					c1.7,0.5,2.9,1.1,3.6,1.7c0.7,0.7,1.1,1.7,1.1,3.1c0,1.8-0.5,3.2-1.6,4.1c-1,0.9-2.4,1.4-4.2,1.4c-1.4,0-3-0.2-4.7-0.5l-0.9-0.2
					l0.3-2.2c2.3,0.3,4,0.5,5.2,0.5c2.1,0,3.1-0.9,3.1-2.8c0-0.7-0.2-1.3-0.7-1.6c-0.5-0.3-1.5-0.7-3.2-1.1c-1.6-0.4-2.9-1-3.7-1.7
					c-0.8-0.7-1.2-1.9-1.2-3.4c0-1.6,0.5-2.8,1.5-3.6c1-0.8,2.4-1.2,4.2-1.2c1.3,0,2.8,0.2,4.6,0.5l0.9,0.2l-0.2,2.3
					C103.6,22.7,101.9,22.5,100.9,22.5z"/>
				<path class="st3" d="M109.6,37.7V20.4h2.8v17.3H109.6z"/>
				<path class="st3" d="M121.4,22.5c-2.1,0-3.2,0.8-3.2,2.2c0,0.8,0.3,1.3,0.8,1.7s1.6,0.7,3.3,1.2c1.7,0.5,2.9,1.1,3.6,1.7
					c0.7,0.7,1.1,1.7,1.1,3.1c0,1.8-0.5,3.2-1.6,4.1c-1,0.9-2.4,1.4-4.2,1.4c-1.4,0-3-0.2-4.7-0.5l-0.9-0.2l0.3-2.2
					c2.3,0.3,4,0.5,5.2,0.5c2.1,0,3.1-0.9,3.1-2.8c0-0.7-0.2-1.3-0.7-1.6c-0.5-0.3-1.5-0.7-3.2-1.1c-1.6-0.4-2.9-1-3.7-1.7
					c-0.8-0.7-1.2-1.9-1.2-3.4c0-1.6,0.5-2.8,1.5-3.6c1-0.8,2.4-1.2,4.2-1.2c1.3,0,2.8,0.2,4.6,0.5l0.9,0.2l-0.2,2.3
					C124.1,22.7,122.4,22.5,121.4,22.5z"/>
				<path class="st7" d="M130.4,26.4c0.9-1.1,2.3-1.6,4.3-1.6c2,0,3.5,0.5,4.3,1.6c0.9,1.1,1.3,2.7,1.3,4.9c0,2.2-0.4,3.8-1.3,5
					c-0.8,1.1-2.3,1.7-4.4,1.7c-2.1,0-3.5-0.6-4.4-1.7s-1.3-2.8-1.3-5C129.1,29.2,129.6,27.5,130.4,26.4z M132.5,34.6
					c0.4,0.7,1.1,1,2.3,1c1.1,0,1.9-0.3,2.3-1c0.4-0.7,0.6-1.8,0.6-3.3c0-1.5-0.2-2.6-0.6-3.3c-0.4-0.6-1.2-1-2.2-1
					c-1.1,0-1.8,0.3-2.2,1c-0.4,0.6-0.6,1.7-0.6,3.3C131.9,32.9,132.1,34,132.5,34.6z"/>
				<path class="st7" d="M143.3,37.7V19.8h2.7v17.9H143.3z"/>
			</g>
		</g>
		<g>
			<path class="st2" d="M97.6,43.6c-0.9,0-1.4,0.3-1.4,1c0,0.3,0.1,0.6,0.3,0.7s0.7,0.3,1.4,0.5c0.7,0.2,1.3,0.4,1.6,0.7
				c0.3,0.3,0.5,0.7,0.5,1.3c0,0.8-0.2,1.4-0.7,1.7c-0.4,0.4-1,0.6-1.8,0.6c-0.6,0-1.3-0.1-2-0.2l-0.4-0.1l0.1-1
				c1,0.1,1.7,0.2,2.2,0.2c0.9,0,1.3-0.4,1.3-1.2c0-0.3-0.1-0.5-0.3-0.7c-0.2-0.1-0.7-0.3-1.4-0.5c-0.7-0.2-1.2-0.4-1.6-0.7
				c-0.3-0.3-0.5-0.8-0.5-1.5s0.2-1.2,0.6-1.5c0.4-0.3,1-0.5,1.8-0.5c0.6,0,1.2,0.1,2,0.2l0.4,0.1l-0.1,1
				C98.7,43.7,98,43.6,97.6,43.6z"/>
			<path class="st2" d="M101.6,50.1l1.8-7.4h2.4l1.8,7.4h-1.2l-0.4-1.6h-2.8l-0.4,1.6H101.6z M104.3,43.7l-0.9,3.7h2.4l-0.9-3.7
				H104.3z"/>
			<path class="st2" d="M113.9,50.1h-4.1v-7.4h1.2V49h2.9V50.1z"/>
			<path class="st2" d="M114.3,43.8v-1.1h5.4v1.1h-2.1v6.3h-1.2v-6.3H114.3z"/>
			<path class="st2" d="M120.7,50.1l1.8-7.4h2.4l1.8,7.4h-1.2l-0.4-1.6h-2.8l-0.4,1.6H120.7z M123.4,43.7l-0.9,3.7h2.4l-0.9-3.7
				H123.4z"/>
		</g>
	</g>
</g>
</svg>
