<svg xmlns="http://www.w3.org/2000/svg" xmlns:xlink="http://www.w3.org/1999/xlink" viewBox="0 0 125 50"><defs><clipPath id="a"><rect x="0.69" y="16.17" width="122.62" height="25.61" rx="7.05" ry="7.05" fill="none"/></clipPath></defs><title>escalas en negro</title><path d="M21.67,3.11H20.31V6.65H19.49V3.11H18.13V2.39h3.55V3.11Z"/><path d="M23.2,6.71a1.75,1.75,0,0,1-.68-0.13A1.55,1.55,0,0,1,22,6.23a1.53,1.53,0,0,1-.33-0.52,1.66,1.66,0,0,1-.12-0.62,1.75,1.75,0,0,1,.11-0.63A1.54,1.54,0,0,1,22,3.94a1.59,1.59,0,0,1,.53-0.36,1.75,1.75,0,0,1,.69-0.13,1.7,1.7,0,0,1,.69.13,1.59,1.59,0,0,1,.52.35,1.52,1.52,0,0,1,.32.52,1.71,1.71,0,0,1,.11.61c0,0.05,0,.1,0,0.15a0.63,0.63,0,0,1,0,.12H22.39a1,1,0,0,0,.09.33,0.84,0.84,0,0,0,.19.25,0.83,0.83,0,0,0,.26.16,0.84,0.84,0,0,0,.3.05A0.92,0.92,0,0,0,23.68,6,0.62,0.62,0,0,0,24,5.69l0.69,0.19a1.4,1.4,0,0,1-.56.59A1.72,1.72,0,0,1,23.2,6.71ZM24,4.81a0.84,0.84,0,0,0-.26-0.57,0.81,0.81,0,0,0-1.29.25,0.86,0.86,0,0,0-.08.32H24Z"/><path d="M30.52,6.65h-0.8V4.89a0.94,0.94,0,0,0-.13-0.55,0.42,0.42,0,0,0-.36-0.17,0.68,0.68,0,0,0-.45.18,1,1,0,0,0-.3.48V6.65h-0.8V4.89a0.94,0.94,0,0,0-.13-0.55,0.42,0.42,0,0,0-.36-0.17,0.68,0.68,0,0,0-.45.18,1,1,0,0,0-.3.47V6.65h-0.8V3.51h0.73V4.09a1.21,1.21,0,0,1,.48-0.47,1.43,1.43,0,0,1,.69-0.17,0.89,0.89,0,0,1,.61.19,0.86,0.86,0,0,1,.28.47,1.35,1.35,0,0,1,.49-0.49,1.31,1.31,0,0,1,.67-0.17,0.93,0.93,0,0,1,.47.11,0.78,0.78,0,0,1,.29.28,1.16,1.16,0,0,1,.14.4,2.57,2.57,0,0,1,0,.45v2Z"/><path d="M33.4,6.71a1.24,1.24,0,0,1-.65-0.17,1.17,1.17,0,0,1-.43-0.45V7.93h-0.8V3.51h0.7V4a1.28,1.28,0,0,1,.45-0.44,1.25,1.25,0,0,1,.64-0.16,1.35,1.35,0,0,1,.59.13,1.45,1.45,0,0,1,.46.35,1.64,1.64,0,0,1,.31.52,1.79,1.79,0,0,1,.11.63,2,2,0,0,1-.1.64,1.64,1.64,0,0,1-.29.52,1.32,1.32,0,0,1-.44.35A1.22,1.22,0,0,1,33.4,6.71ZM33.13,6a0.71,0.71,0,0,0,.33-0.08,0.8,0.8,0,0,0,.26-0.21,1,1,0,0,0,.17-0.31A1.1,1.1,0,0,0,34,5.07a1,1,0,0,0-.07-0.37,0.93,0.93,0,0,0-.18-0.3,0.86,0.86,0,0,0-.28-0.2,0.81,0.81,0,0,0-.34-0.07,0.75,0.75,0,0,0-.23,0,0.8,0.8,0,0,0-.22.11,1,1,0,0,0-.18.17,0.7,0.7,0,0,0-.12.21V5.4a1.07,1.07,0,0,0,.33.45A0.76,0.76,0,0,0,33.13,6Z"/><path d="M37.08,6.71a1.75,1.75,0,0,1-.68-0.13,1.55,1.55,0,0,1-.52-0.35,1.53,1.53,0,0,1-.33-0.52,1.66,1.66,0,0,1-.12-0.62,1.75,1.75,0,0,1,.11-0.63,1.54,1.54,0,0,1,.33-0.52,1.59,1.59,0,0,1,.53-0.36,1.75,1.75,0,0,1,.69-0.13,1.7,1.7,0,0,1,.69.13,1.59,1.59,0,0,1,.52.35,1.52,1.52,0,0,1,.32.52,1.71,1.71,0,0,1,.11.61c0,0.05,0,.1,0,0.15a0.63,0.63,0,0,1,0,.12H36.28a1,1,0,0,0,.09.33,0.84,0.84,0,0,0,.19.25,0.83,0.83,0,0,0,.26.16,0.84,0.84,0,0,0,.3.05A0.92,0.92,0,0,0,37.56,6a0.62,0.62,0,0,0,.29-0.31l0.69,0.19a1.4,1.4,0,0,1-.56.59A1.72,1.72,0,0,1,37.08,6.71Zm0.82-1.9a0.84,0.84,0,0,0-.26-0.57,0.81,0.81,0,0,0-1.29.25,0.86,0.86,0,0,0-.08.32H37.9Z"/><path d="M41.39,4.2a1.6,1.6,0,0,0-.65.14,0.83,0.83,0,0,0-.41.41v1.9h-0.8V3.51h0.74V4.18a1.44,1.44,0,0,1,.2-0.29,1.52,1.52,0,0,1,.25-0.22A1.14,1.14,0,0,1,41,3.51a0.73,0.73,0,0,1,.26-0.05h0.16V4.2Z"/><path d="M43,6.71a1.2,1.2,0,0,1-.43-0.08,1,1,0,0,1-.34-0.21A1,1,0,0,1,42,6.11a0.94,0.94,0,0,1-.08-0.4A0.88,0.88,0,0,1,42,5.3,1,1,0,0,1,42.26,5a1.39,1.39,0,0,1,.42-0.21,1.85,1.85,0,0,1,.54-0.08,2.38,2.38,0,0,1,.41,0,1.69,1.69,0,0,1,.36.1V4.66a0.63,0.63,0,0,0-.18-0.48A0.73,0.73,0,0,0,43.29,4a1.4,1.4,0,0,0-.49.09,2.29,2.29,0,0,0-.49.26l-0.25-.51a2.32,2.32,0,0,1,1.31-.4,1.54,1.54,0,0,1,1.05.33,1.22,1.22,0,0,1,.38,1v1a0.28,0.28,0,0,0,0,.18A0.2,0.2,0,0,0,45,6V6.65a1.76,1.76,0,0,1-.35,0,0.54,0.54,0,0,1-.35-0.1,0.44,0.44,0,0,1-.15-0.27l0-.17a1.38,1.38,0,0,1-.51.42A1.46,1.46,0,0,1,43,6.71Zm0.23-.59A1.05,1.05,0,0,0,43.57,6a0.7,0.7,0,0,0,.29-0.19A0.29,0.29,0,0,0,44,5.63V5.27l-0.31-.09a1.72,1.72,0,0,0-.32,0,0.85,0.85,0,0,0-.51.14,0.42,0.42,0,0,0-.2.36A0.43,0.43,0,0,0,42.8,6,0.57,0.57,0,0,0,43.18,6.12Z"/><path d="M47.7,6.49l-0.4.14a1.67,1.67,0,0,1-.49.07,1.17,1.17,0,0,1-.32,0,0.7,0.7,0,0,1-.26-0.14,0.65,0.65,0,0,1-.18-0.24A0.87,0.87,0,0,1,46,5.93V4.12H45.58V3.51H46v-1h0.8v1h0.66V4.12H46.8V5.66a0.28,0.28,0,0,0,.09.24A0.33,0.33,0,0,0,47.1,6a0.73,0.73,0,0,0,.25,0l0.19-.07Z"/><path d="M49.38,6.71a0.89,0.89,0,0,1-.74-0.31,1.45,1.45,0,0,1-.25-0.92v-2h0.8V5.3Q49.2,6,49.72,6a0.83,0.83,0,0,0,.45-0.14,1,1,0,0,0,.36-0.43v-2h0.8V5.73a0.28,0.28,0,0,0,0,.18,0.2,0.2,0,0,0,.15.06V6.65l-0.2,0H51.18a0.58,0.58,0,0,1-.35-0.1,0.39,0.39,0,0,1-.16-0.27l0-.25a1.34,1.34,0,0,1-.54.49A1.63,1.63,0,0,1,49.38,6.71Z"/><path d="M54.3,4.2a1.6,1.6,0,0,0-.65.14,0.82,0.82,0,0,0-.41.41v1.9h-0.8V3.51h0.74V4.18a1.44,1.44,0,0,1,.2-0.29,1.52,1.52,0,0,1,.25-0.22,1.13,1.13,0,0,1,.27-0.15,0.74,0.74,0,0,1,.26-0.05H54.3V4.2Z"/><path d="M55.87,6.71a1.19,1.19,0,0,1-.43-0.08,1,1,0,0,1-.34-0.21,1,1,0,0,1-.23-0.32,1,1,0,0,1-.08-0.4,0.87,0.87,0,0,1,.1-0.41A0.93,0.93,0,0,1,55.17,5a1.39,1.39,0,0,1,.42-0.21,1.84,1.84,0,0,1,.54-0.08,2.38,2.38,0,0,1,.41,0,1.7,1.7,0,0,1,.36.1V4.66a0.63,0.63,0,0,0-.18-0.48A0.74,0.74,0,0,0,56.2,4a1.4,1.4,0,0,0-.49.09,2.29,2.29,0,0,0-.49.26L55,3.85a2.32,2.32,0,0,1,1.31-.4,1.53,1.53,0,0,1,1.05.33,1.22,1.22,0,0,1,.38,1v1a0.28,0.28,0,0,0,0,.18A0.2,0.2,0,0,0,57.9,6V6.65a1.76,1.76,0,0,1-.35,0,0.54,0.54,0,0,1-.35-0.1A0.44,0.44,0,0,1,57,6.32l0-.17a1.39,1.39,0,0,1-.51.42A1.46,1.46,0,0,1,55.87,6.71Zm0.23-.59A1.05,1.05,0,0,0,56.48,6a0.7,0.7,0,0,0,.29-0.19,0.29,0.29,0,0,0,.13-0.23V5.27l-0.31-.09a1.71,1.71,0,0,0-.32,0,0.86,0.86,0,0,0-.51.14,0.42,0.42,0,0,0-.2.36,0.43,0.43,0,0,0,.16.34A0.57,0.57,0,0,0,56.1,6.12Z"/><path d="M64,6.65V3.83l-1.1,2.1H62.5l-1.1-2.1V6.65H60.57V2.39h0.89l1.26,2.42L64,2.39h0.88V6.65H64Z"/><path d="M67.4,6.71a1.74,1.74,0,0,1-.68-0.13,1.55,1.55,0,0,1-.86-0.87,1.66,1.66,0,0,1-.12-0.62,1.75,1.75,0,0,1,.11-0.63,1.54,1.54,0,0,1,.33-0.52,1.58,1.58,0,0,1,.53-0.36,1.74,1.74,0,0,1,.69-0.13,1.71,1.71,0,0,1,.69.13,1.59,1.59,0,0,1,.52.35,1.52,1.52,0,0,1,.32.52,1.71,1.71,0,0,1,.11.61c0,0.05,0,.1,0,0.15a0.63,0.63,0,0,1,0,.12H66.6a0.93,0.93,0,0,0,.09.33,0.8,0.8,0,0,0,.44.4,0.84,0.84,0,0,0,.3.05A0.93,0.93,0,0,0,67.88,6a0.63,0.63,0,0,0,.29-0.31l0.69,0.19a1.4,1.4,0,0,1-.55.59A1.72,1.72,0,0,1,67.4,6.71Zm0.82-1.9A0.84,0.84,0,0,0,68,4.25a0.84,0.84,0,0,0-.86-0.16,0.77,0.77,0,0,0-.25.16,0.8,0.8,0,0,0-.18.25,0.88,0.88,0,0,0-.08.32h1.63Z"/><path d="M71.14,6.71a1.43,1.43,0,0,1-.6-0.13,1.41,1.41,0,0,1-.47-0.35,1.6,1.6,0,0,1-.31-0.52,1.81,1.81,0,0,1-.11-0.64,1.9,1.9,0,0,1,.1-0.64A1.67,1.67,0,0,1,70,3.93a1.34,1.34,0,0,1,.44-0.35A1.27,1.27,0,0,1,71,3.45a1.19,1.19,0,0,1,.63.17,1.21,1.21,0,0,1,.43.44V2.27h0.8V5.73a0.3,0.3,0,0,0,0,.18A0.19,0.19,0,0,0,73.1,6V6.65a1.8,1.8,0,0,1-.34,0,0.56,0.56,0,0,1-.35-0.11,0.4,0.4,0,0,1-.16-0.28l0-.2a1.14,1.14,0,0,1-.47.45A1.35,1.35,0,0,1,71.14,6.71ZM71.35,6a0.74,0.74,0,0,0,.23,0,0.82,0.82,0,0,0,.22-0.11A1,1,0,0,0,72,5.71a0.73,0.73,0,0,0,.12-0.21V4.75A0.9,0.9,0,0,0,72,4.5a1,1,0,0,0-.2-0.19,1.08,1.08,0,0,0-.23-0.13,0.66,0.66,0,0,0-.24,0,0.72,0.72,0,0,0-.33.08,0.79,0.79,0,0,0-.26.21,1,1,0,0,0-.17.31,1.1,1.1,0,0,0-.06.36,1,1,0,0,0,.07.37,1,1,0,0,0,.18.29A0.84,0.84,0,0,0,71,6,0.85,0.85,0,0,0,71.35,6Z"/><path d="M74,3.07V2.27h0.8v0.8H74Zm0,3.58V3.51h0.8V6.65H74Z"/><path d="M76.69,6.71a1.2,1.2,0,0,1-.43-0.08,1,1,0,0,1-.34-0.21,1,1,0,0,1-.22-0.32,0.94,0.94,0,0,1-.08-0.4,0.88,0.88,0,0,1,.1-0.41A1,1,0,0,1,76,5a1.39,1.39,0,0,1,.42-0.21A1.85,1.85,0,0,1,77,4.7a2.38,2.38,0,0,1,.41,0,1.69,1.69,0,0,1,.36.1V4.66a0.63,0.63,0,0,0-.18-0.48A0.73,0.73,0,0,0,77,4a1.4,1.4,0,0,0-.49.09,2.29,2.29,0,0,0-.49.26l-0.25-.51a2.32,2.32,0,0,1,1.31-.4,1.54,1.54,0,0,1,1.05.33,1.22,1.22,0,0,1,.38,1v1a0.28,0.28,0,0,0,0,.18,0.2,0.2,0,0,0,.15.06V6.65a1.76,1.76,0,0,1-.35,0A0.54,0.54,0,0,1,78,6.59a0.44,0.44,0,0,1-.15-0.27l0-.17a1.38,1.38,0,0,1-.51.42A1.46,1.46,0,0,1,76.69,6.71Zm0.23-.59A1.05,1.05,0,0,0,77.31,6a0.7,0.7,0,0,0,.29-0.19,0.29,0.29,0,0,0,.13-0.23V5.27l-0.31-.09a1.72,1.72,0,0,0-.32,0,0.85,0.85,0,0,0-.51.14,0.42,0.42,0,0,0-.2.36,0.43,0.43,0,0,0,.16.34A0.57,0.57,0,0,0,76.92,6.12Z"/><path d="M82.42,2.39h0.73l1.62,4.26H83.92l-0.4-1.06H82L81.65,6.65H80.8Zm1,2.62L82.79,3.33,82.18,5h1.2Z"/><path d="M88.39,6.65h-0.8V4.89a0.92,0.92,0,0,0-.13-0.55,0.43,0.43,0,0,0-.37-0.17,0.68,0.68,0,0,0-.25,0,0.88,0.88,0,0,0-.24.13,1.07,1.07,0,0,0-.2.21,0.82,0.82,0,0,0-.13.26V6.65h-0.8V3.51h0.73V4.09a1.19,1.19,0,0,1,.5-0.47,1.61,1.61,0,0,1,.74-0.17,0.94,0.94,0,0,1,.48.11,0.78,0.78,0,0,1,.29.28,1.18,1.18,0,0,1,.14.4,2.67,2.67,0,0,1,0,.45v2Z"/><path d="M90.35,6.71a0.89,0.89,0,0,1-.74-0.31,1.45,1.45,0,0,1-.25-0.92v-2h0.8V5.3q0,0.73.52,0.73a0.83,0.83,0,0,0,.45-0.14,1,1,0,0,0,.36-0.43v-2h0.8V5.73a0.27,0.27,0,0,0,0,.18,0.19,0.19,0,0,0,.15.06V6.65l-0.2,0H92.14a0.58,0.58,0,0,1-.35-0.1,0.39,0.39,0,0,1-.16-0.27l0-.25a1.34,1.34,0,0,1-.54.49A1.63,1.63,0,0,1,90.35,6.71Z"/><path d="M94.25,6.71a1.2,1.2,0,0,1-.43-0.08,1,1,0,0,1-.34-0.21,1,1,0,0,1-.22-0.32,0.94,0.94,0,0,1-.08-0.4,0.87,0.87,0,0,1,.1-0.41A1,1,0,0,1,93.56,5,1.38,1.38,0,0,1,94,4.77a1.85,1.85,0,0,1,.54-0.08,2.39,2.39,0,0,1,.41,0,1.69,1.69,0,0,1,.36.1V4.66a0.63,0.63,0,0,0-.18-0.48A0.74,0.74,0,0,0,94.58,4a1.4,1.4,0,0,0-.49.09,2.31,2.31,0,0,0-.49.26l-0.25-.51a2.32,2.32,0,0,1,1.31-.4,1.53,1.53,0,0,1,1.05.33,1.22,1.22,0,0,1,.38,1v1a0.28,0.28,0,0,0,0,.18,0.19,0.19,0,0,0,.15.06V6.65a1.76,1.76,0,0,1-.35,0,0.54,0.54,0,0,1-.35-0.1,0.44,0.44,0,0,1-.15-0.27l0-.17a1.38,1.38,0,0,1-.51.42A1.46,1.46,0,0,1,94.25,6.71Zm0.23-.59A1.05,1.05,0,0,0,94.87,6a0.7,0.7,0,0,0,.29-0.19,0.29,0.29,0,0,0,.13-0.23V5.27L95,5.18a1.73,1.73,0,0,0-.32,0,0.85,0.85,0,0,0-.51.14,0.42,0.42,0,0,0-.2.36A0.43,0.43,0,0,0,94.1,6,0.57,0.57,0,0,0,94.48,6.12Z"/><path d="M97.13,2.27h0.8V5.64a0.4,0.4,0,0,0,.08.27,0.3,0.3,0,0,0,.24.1l0.16,0,0.16-.06,0.11,0.61a1.55,1.55,0,0,1-.38.12,2,2,0,0,1-.39,0,0.81,0.81,0,0,1-.58-0.2,0.76,0.76,0,0,1-.21-0.57V2.27Z"/><path d="M100.77,2.9a0.57,0.57,0,0,1,.17-0.42,0.6,0.6,0,0,1,.44-0.17,0.61,0.61,0,0,1,.44.17,0.57,0.57,0,0,1,.17.42,0.62,0.62,0,0,1-.17.46,0.6,0.6,0,0,1-.44.17,0.59,0.59,0,0,1-.44-0.18A0.63,0.63,0,0,1,100.77,2.9Zm0.45-.14a0.25,0.25,0,0,0-.06.16,0.2,0.2,0,0,0,.06.15,0.25,0.25,0,0,0,.16.07,0.2,0.2,0,0,0,.16-0.07,0.2,0.2,0,0,0,.06-0.15,0.25,0.25,0,0,0-.06-0.16l-0.07,0-0.09,0A0.25,0.25,0,0,0,101.22,2.76Z"/><path d="M102.73,4.49a2.21,2.21,0,0,1,.14-0.77,2.07,2.07,0,0,1,1.07-1.17,2,2,0,0,1,.89-0.19,1.94,1.94,0,0,1,1,.26,1.65,1.65,0,0,1,.64.67l-0.64.44a1.08,1.08,0,0,0-.2-0.3,1,1,0,0,0-.26-0.2,1.13,1.13,0,0,0-.29-0.1,1.33,1.33,0,0,0-.29,0,1.12,1.12,0,0,0-.54.13,1.2,1.2,0,0,0-.38.33,1.47,1.47,0,0,0-.23.46,1.73,1.73,0,0,0-.08.51,1.64,1.64,0,0,0,.09.54,1.43,1.43,0,0,0,.25.46,1.29,1.29,0,0,0,.4.32,1.08,1.08,0,0,0,.51.12,1.37,1.37,0,0,0,.3,0,1.17,1.17,0,0,0,.3-0.11,1.12,1.12,0,0,0,.26-0.2,0.92,0.92,0,0,0,.19-0.3l0.68,0.39a1.29,1.29,0,0,1-.29.42,1.89,1.89,0,0,1-.43.31,2.18,2.18,0,0,1-.51.19,2.23,2.23,0,0,1-.53.07A1.82,1.82,0,0,1,104,6.49a2.2,2.2,0,0,1-.65-0.5,2.33,2.33,0,0,1-.43-0.7A2.21,2.21,0,0,1,102.73,4.49Z"/><path d="M2,46.42l2.53-1.53v0.85l-1.36.85,1.36,0.82v0.9L2,46.81V46.42Z"/><path d="M8.06,47.42v0.73H5.62V47.42H6.47V45.61a0.66,0.66,0,0,1-.17.15L6,45.89,5.76,46a1,1,0,0,1-.26,0V45.29a0.68,0.68,0,0,0,.26-0.07,2.17,2.17,0,0,0,.31-0.17l0.26-.19a0.67,0.67,0,0,0,.14-0.15H7.3v2.7H8.06Z"/><path d="M10.24,46.24a1.54,1.54,0,0,1,.56.1,1.26,1.26,0,0,1,.74.71,1.53,1.53,0,0,1,0,1.15,1.32,1.32,0,0,1-.33.45,1.5,1.5,0,0,1-.5.29,1.79,1.79,0,0,1-.62.11,1.75,1.75,0,0,1-.84-0.2,1.37,1.37,0,0,1-.56-0.54l0.46-.48a1.24,1.24,0,0,0,.42.37,1.06,1.06,0,0,0,.52.14,0.75,0.75,0,0,0,.53-0.2,0.7,0.7,0,0,0-.48-1.21,0.79,0.79,0,0,0-.37.09,0.71,0.71,0,0,0-.27.25H8.78a1.2,1.2,0,0,1,0-.13l0.06-.3,0.08-.41L9,46l0.24-1.24h2.1v0.73H9.86l-0.17,1a0.52,0.52,0,0,1,.21-0.13A1.1,1.1,0,0,1,10.24,46.24Z"/><path d="M111.35,46.42l2.53-1.53v0.85l-1.36.85,1.36,0.82v0.9l-2.53-1.5V46.42Z"/><path d="M114.77,48.15a2.65,2.65,0,0,1,0-.49,1.32,1.32,0,0,1,.15-0.41,1.36,1.36,0,0,1,.29-0.35,2.59,2.59,0,0,1,.46-0.32l0.43-.23,0.32-.18a0.78,0.78,0,0,0,.19-0.17,0.33,0.33,0,0,0,.07-0.2,0.4,0.4,0,0,0-.14-0.31,0.6,0.6,0,0,0-.41-0.13,0.87,0.87,0,0,0-.26,0,1,1,0,0,0-.22.11l-0.19.15-0.16.17-0.52-.59a1.34,1.34,0,0,1,.22-0.18,2.15,2.15,0,0,1,.34-0.19,2.51,2.51,0,0,1,.43-0.14,2.16,2.16,0,0,1,.51-0.06,1.84,1.84,0,0,1,.55.07,1.21,1.21,0,0,1,.41.21,0.9,0.9,0,0,1,.25.32,1,1,0,0,1,.09.41,0.85,0.85,0,0,1-.08.37,1.1,1.1,0,0,1-.2.29,1.49,1.49,0,0,1-.26.22l-0.27.17-0.25.14-0.27.17-0.25.19a0.89,0.89,0,0,0-.17.2h1.82v0.73h-2.89Z"/><path d="M121.59,46.89a1.17,1.17,0,0,1-.12.54,1.28,1.28,0,0,1-.34.41,1.51,1.51,0,0,1-.5.27,1.89,1.89,0,0,1-.6.09,1.78,1.78,0,0,1-.6-0.1,1.5,1.5,0,0,1-.49-0.28,1.3,1.3,0,0,1-.33-0.43,1.21,1.21,0,0,1-.12-0.54,0.91,0.91,0,0,1,.06-0.33,1.14,1.14,0,0,1,.16-0.28,1.4,1.4,0,0,1,.21-0.22,1.3,1.3,0,0,1,.24-0.16,1,1,0,0,1-.38-0.32,0.79,0.79,0,0,1-.16-0.47,1,1,0,0,1,.13-0.51,1.22,1.22,0,0,1,.34-0.37,1.58,1.58,0,0,1,.46-0.23,1.66,1.66,0,0,1,.5-0.08,1.76,1.76,0,0,1,.5.08,1.47,1.47,0,0,1,.46.22,1.28,1.28,0,0,1,.34.37,1,1,0,0,1,.13.51,0.76,0.76,0,0,1,0,.25,0.87,0.87,0,0,1-.12.23,1,1,0,0,1-.18.19,1,1,0,0,1-.22.14,1.36,1.36,0,0,1,.25.16,1.3,1.3,0,0,1,.22.23,1.1,1.1,0,0,1,.15.29A1,1,0,0,1,121.59,46.89Zm-0.82,0a0.58,0.58,0,0,0-.06-0.27,0.6,0.6,0,0,0-.17-0.2,0.73,0.73,0,0,0-.24-0.12,0.88,0.88,0,0,0-.27,0,0.85,0.85,0,0,0-.28,0,0.68,0.68,0,0,0-.23.13,0.64,0.64,0,0,0-.16.2,0.56,0.56,0,0,0-.06.26,0.54,0.54,0,0,0,.06.26,0.66,0.66,0,0,0,.17.2,0.76,0.76,0,0,0,.23.13,0.82,0.82,0,0,0,.27,0,0.8,0.8,0,0,0,.51-0.18,0.63,0.63,0,0,0,.16-0.2A0.55,0.55,0,0,0,120.77,46.84Zm-1.33-1.75a0.42,0.42,0,0,0,.05.22,0.49,0.49,0,0,0,.14.16,0.64,0.64,0,0,0,.19.1,0.69,0.69,0,0,0,.42,0,0.6,0.6,0,0,0,.2-0.1,0.54,0.54,0,0,0,.14-0.16,0.43,0.43,0,0,0,.05-0.22,0.42,0.42,0,0,0-.18-0.35A0.7,0.7,0,0,0,120,44.6a0.67,0.67,0,0,0-.42.13A0.43,0.43,0,0,0,119.44,45.1Z"/><path d="M42,48.15a2.65,2.65,0,0,1,0-.49,1.32,1.32,0,0,1,.15-0.41,1.36,1.36,0,0,1,.29-0.35,2.59,2.59,0,0,1,.46-0.32l0.43-.23,0.32-.18A0.78,0.78,0,0,0,43.85,46a0.33,0.33,0,0,0,.07-0.2,0.4,0.4,0,0,0-.14-0.31,0.6,0.6,0,0,0-.41-0.13,0.87,0.87,0,0,0-.26,0,1,1,0,0,0-.22.11l-0.19.15-0.16.17L42,45.23a1.34,1.34,0,0,1,.22-0.18,2.15,2.15,0,0,1,.34-0.19A2.51,2.51,0,0,1,43,44.72a2.16,2.16,0,0,1,.51-0.06,1.84,1.84,0,0,1,.55.07,1.21,1.21,0,0,1,.41.21,0.9,0.9,0,0,1,.25.32,1,1,0,0,1,.09.41,0.85,0.85,0,0,1-.08.37,1.1,1.1,0,0,1-.2.29,1.49,1.49,0,0,1-.26.22L44,46.73l-0.25.14L43.46,47l-0.25.19a0.89,0.89,0,0,0-.17.2h1.82v0.73H42Z"/><path d="M48.81,46.39a2.19,2.19,0,0,1-.12.73,1.8,1.8,0,0,1-.32.58,1.45,1.45,0,0,1-.49.38,1.47,1.47,0,0,1-1.23,0,1.46,1.46,0,0,1-.49-0.38,1.8,1.8,0,0,1-.32-0.58,2.33,2.33,0,0,1,0-1.46,1.8,1.8,0,0,1,.32-0.58,1.49,1.49,0,0,1,.49-0.38,1.44,1.44,0,0,1,1.23,0,1.49,1.49,0,0,1,.49.38,1.8,1.8,0,0,1,.32.58A2.18,2.18,0,0,1,48.81,46.39Zm-0.81,0a1.7,1.7,0,0,0-.05-0.44,1.11,1.11,0,0,0-.15-0.34,0.72,0.72,0,0,0-.23-0.22,0.59,0.59,0,0,0-.3-0.08,0.6,0.6,0,0,0-.3.08,0.72,0.72,0,0,0-.23.22,1.11,1.11,0,0,0-.15.34,1.7,1.7,0,0,0-.05.44,1.66,1.66,0,0,0,.05.44,1.12,1.12,0,0,0,.15.34,0.72,0.72,0,0,0,.23.22,0.6,0.6,0,0,0,.3.08,0.59,0.59,0,0,0,.3-0.08,0.72,0.72,0,0,0,.23-0.22,1.12,1.12,0,0,0,.15-0.34A1.66,1.66,0,0,0,48,46.39Z"/><path d="M78.66,48.15a2.57,2.57,0,0,1,0-.49,1.32,1.32,0,0,1,.15-0.41,1.38,1.38,0,0,1,.29-0.35,2.63,2.63,0,0,1,.46-0.32L80,46.36l0.31-.18A0.79,0.79,0,0,0,80.54,46a0.33,0.33,0,0,0,.07-0.2,0.4,0.4,0,0,0-.14-0.31,0.6,0.6,0,0,0-.41-0.13,0.87,0.87,0,0,0-.26,0,1,1,0,0,0-.23.11l-0.19.15-0.16.17-0.52-.59a1.34,1.34,0,0,1,.22-0.18,2.14,2.14,0,0,1,.34-0.19,2.54,2.54,0,0,1,.43-0.14,2.16,2.16,0,0,1,.51-0.06,1.84,1.84,0,0,1,.55.07,1.21,1.21,0,0,1,.4.21,0.9,0.9,0,0,1,.25.32,1,1,0,0,1,.09.41,0.85,0.85,0,0,1-.08.37,1.13,1.13,0,0,1-.2.29,1.49,1.49,0,0,1-.26.22l-0.27.17-0.25.14L80.16,47l-0.25.19a0.89,0.89,0,0,0-.17.2h1.82v0.73H78.66Z"/><path d="M84,48.91V48H82.24V47.3l2-2.58h0.55V47.3h0.53V48H84.79v0.89H84ZM83,47.3h1V45.94Z"/><path d="M1.54,12.42l2.53-1.53v0.85l-1.36.85,1.36,0.82v0.9l-2.53-1.5V12.42Z"/><path d="M5.09,12.86V12.14H6.91v0.73H5.09Z"/><path d="M10.24,13.42v0.73H7.81V13.42H8.66V11.61a0.63,0.63,0,0,1-.17.15l-0.26.14L7.95,12a1,1,0,0,1-.26,0V11.29A0.69,0.69,0,0,0,8,11.22a2.27,2.27,0,0,0,.31-0.17l0.26-.19a0.62,0.62,0,0,0,.14-0.15H9.48v2.7h0.76Z"/><path d="M12.43,12.24a1.53,1.53,0,0,1,.56.1,1.32,1.32,0,0,1,.45.28,1.3,1.3,0,0,1,.29.43,1.54,1.54,0,0,1,0,1.15,1.32,1.32,0,0,1-.33.45,1.51,1.51,0,0,1-.5.29,1.8,1.8,0,0,1-.62.11,1.75,1.75,0,0,1-.84-0.2,1.36,1.36,0,0,1-.56-0.54l0.46-.48a1.25,1.25,0,0,0,.42.37,1.07,1.07,0,0,0,.52.14,0.74,0.74,0,0,0,.53-0.2,0.7,0.7,0,0,0-.48-1.21,0.79,0.79,0,0,0-.37.09,0.71,0.71,0,0,0-.27.25H11a1.2,1.2,0,0,1,0-.13l0.06-.3,0.08-.41L11.22,12l0.24-1.24h2.1v0.73H12l-0.17,1a0.51,0.51,0,0,1,.21-0.13A1.1,1.1,0,0,1,12.43,12.24Z"/><path d="M112.54,12.42l2.53-1.53v0.85l-1.36.85,1.36,0.82v0.9l-2.53-1.5V12.42Z"/><path d="M118.56,13.42v0.73h-2.44V13.42H117V11.61a0.64,0.64,0,0,1-.17.15l-0.25.14-0.29.11a1,1,0,0,1-.26,0V11.29a0.68,0.68,0,0,0,.26-0.07,2.23,2.23,0,0,0,.31-0.17l0.26-.19a0.62,0.62,0,0,0,.14-0.15h0.82v2.7h0.76Z"/><path d="M121.29,12.73a1,1,0,0,1,.6.36,1.11,1.11,0,0,1,.23.71,1.15,1.15,0,0,1-.11.51,1.09,1.09,0,0,1-.31.39,1.44,1.44,0,0,1-.49.25,2.22,2.22,0,0,1-.65.09,2.08,2.08,0,0,1-.81-0.15,1.51,1.51,0,0,1-.58-0.43l0.46-.57a1.07,1.07,0,0,0,.37.31,1.19,1.19,0,0,0,.54.11,0.91,0.91,0,0,0,.56-0.14,0.52,0.52,0,0,0,.19-0.44,0.57,0.57,0,0,0-.22-0.48,1.11,1.11,0,0,0-.67-0.17h-0.17v-0.6h0.19A0.89,0.89,0,0,0,121,12.3a0.52,0.52,0,0,0,.2-0.42,0.42,0.42,0,0,0-.17-0.37,0.73,0.73,0,0,0-.44-0.12,1,1,0,0,0-.5.13,1,1,0,0,0-.36.35l-0.5-.56a1,1,0,0,1,.24-0.25,1.69,1.69,0,0,1,.34-0.19,2.13,2.13,0,0,1,.41-0.13,2.34,2.34,0,0,1,.46,0,1.89,1.89,0,0,1,.56.08,1.41,1.41,0,0,1,.44.22,0.93,0.93,0,0,1,.38.77,1.1,1.1,0,0,1-.05.34,1,1,0,0,1-.16.29,1,1,0,0,1-.24.22A0.83,0.83,0,0,1,121.29,12.73Z"/><path d="M47.6,13.42v0.73H45.17V13.42H46V11.61a0.65,0.65,0,0,1-.17.15l-0.25.14L45.31,12A1,1,0,0,1,45,12V11.29a0.69,0.69,0,0,0,.26-0.07,2.22,2.22,0,0,0,.31-0.17l0.26-.19A0.67,0.67,0,0,0,46,10.72h0.82v2.7H47.6Z"/><path d="M84.38,12.89a1.17,1.17,0,0,1-.12.54,1.28,1.28,0,0,1-.34.41,1.51,1.51,0,0,1-.5.27,1.89,1.89,0,0,1-.6.09,1.78,1.78,0,0,1-.6-0.1,1.5,1.5,0,0,1-.49-0.28,1.3,1.3,0,0,1-.33-0.43,1.21,1.21,0,0,1-.12-0.54,0.91,0.91,0,0,1,.06-0.33,1.14,1.14,0,0,1,.16-0.28A1.4,1.4,0,0,1,81.71,12a1.3,1.3,0,0,1,.24-0.16,1,1,0,0,1-.38-0.32,0.79,0.79,0,0,1-.16-0.47,1,1,0,0,1,.13-0.51,1.22,1.22,0,0,1,.34-0.37A1.58,1.58,0,0,1,82.34,10a1.66,1.66,0,0,1,.5-0.08,1.76,1.76,0,0,1,.5.08,1.47,1.47,0,0,1,.46.22,1.28,1.28,0,0,1,.34.37,1,1,0,0,1,.13.51,0.76,0.76,0,0,1,0,.25,0.87,0.87,0,0,1-.12.23,1,1,0,0,1-.18.19,1,1,0,0,1-.22.14A1.36,1.36,0,0,1,84,12a1.3,1.3,0,0,1,.22.23,1.1,1.1,0,0,1,.15.29A1,1,0,0,1,84.38,12.89Zm-0.82,0a0.58,0.58,0,0,0-.06-0.27,0.6,0.6,0,0,0-.17-0.2,0.73,0.73,0,0,0-.24-0.12,0.88,0.88,0,0,0-.27,0,0.85,0.85,0,0,0-.28,0,0.68,0.68,0,0,0-.23.13,0.64,0.64,0,0,0-.16.2,0.56,0.56,0,0,0-.06.26,0.54,0.54,0,0,0,.06.26,0.66,0.66,0,0,0,.17.2,0.76,0.76,0,0,0,.23.13,0.82,0.82,0,0,0,.27,0,0.8,0.8,0,0,0,.51-0.18,0.63,0.63,0,0,0,.16-0.2A0.55,0.55,0,0,0,83.56,12.84ZM82.23,11.1a0.42,0.42,0,0,0,.05.22,0.49,0.49,0,0,0,.14.16,0.64,0.64,0,0,0,.19.1,0.69,0.69,0,0,0,.42,0,0.6,0.6,0,0,0,.2-0.1,0.54,0.54,0,0,0,.14-0.16,0.43,0.43,0,0,0,.05-0.22,0.42,0.42,0,0,0-.18-0.35,0.7,0.7,0,0,0-.43-0.13,0.67,0.67,0,0,0-.42.13A0.43,0.43,0,0,0,82.23,11.1Z"/><path d="M116.26,42.46H7.74A7.75,7.75,0,0,1,0,34.72V23.22a7.75,7.75,0,0,1,7.74-7.74H116.26A7.75,7.75,0,0,1,124,23.22v11.5A7.75,7.75,0,0,1,116.26,42.46ZM7.74,16.86a6.37,6.37,0,0,0-6.37,6.37v11.5a6.37,6.37,0,0,0,6.37,6.37H116.26a6.37,6.37,0,0,0,6.37-6.37V23.22a6.37,6.37,0,0,0-6.37-6.37H7.74Z" fill="#fff"/><rect x="0.83" y="22.33" width="122.33" height="11" fill="#fff"/><g clip-path="url(#a)"><rect x="115.15" y="15.42" width="8.16" height="12.86" fill="#2dfd73"/><rect x="115.15" y="29.66" width="8.16" height="12.86" fill="#800600"/><rect x="106.99" y="29.66" width="7.96" height="12.86" fill="#992302"/><rect x="106.99" y="15.42" width="7.96" height="12.86" fill="#2dfea3"/><rect x="98.83" y="15.42" width="7.96" height="12.86" fill="#23fdd8"/><rect x="98.83" y="29.66" width="7.96" height="12.86" fill="#b63f02"/><rect x="90.67" y="29.66" width="7.96" height="12.86" fill="#d25702"/><rect x="90.67" y="15.42" width="7.96" height="12.86" fill="#1beffe"/><rect x="82.51" y="29.66" width="7.96" height="12.86" fill="#f47501"/><rect x="82.51" y="15.42" width="7.96" height="12.86" fill="#37b5fe"/><rect x="74.34" y="29.66" width="7.96" height="12.86" fill="#fd8f02"/><rect x="74.34" y="15.42" width="7.96" height="12.86" fill="#3a7efe"/><rect x="66.18" y="15.42" width="7.96" height="12.86" fill="#2f4bfe"/><rect x="66.18" y="29.66" width="7.96" height="12.86" fill="#ffae00"/><rect x="58.02" y="29.66" width="7.96" height="12.86" fill="#fec701"/><rect x="58.02" y="15.42" width="7.96" height="12.86" fill="#0c10fe"/><rect x="49.86" y="29.66" width="7.96" height="12.86" fill="#fee401"/><rect x="49.86" y="15.42" width="7.96" height="12.86" fill="#5302f9"/><rect x="41.7" y="15.42" width="7.96" height="12.86" fill="#8701fe"/><rect x="41.7" y="29.66" width="7.96" height="12.86" fill="#f9fd02"/><rect x="33.54" y="29.66" width="7.96" height="12.86" fill="#cafd02"/><rect x="33.54" y="15.42" width="7.96" height="12.86" fill="#b502fd"/><rect x="25.38" y="15.42" width="7.96" height="12.86" fill="#e501fe"/><rect x="25.38" y="29.66" width="7.96" height="12.86" fill="#9cfe01"/><rect x="17.21" y="29.66" width="7.96" height="12.86" fill="#69fe01"/><rect x="17.21" y="15.42" width="7.96" height="12.86" fill="#f3f"/><rect x="9.05" y="15.42" width="7.96" height="12.86" fill="#ff70ff"/><rect x="9.05" y="29.66" width="7.96" height="12.86" fill="#25fe01"/><rect x="0.69" y="15.42" width="8.16" height="12.86" fill="#ffb3ff"/><rect x="0.69" y="29.66" width="8.16" height="12.86" fill="#21ff3f"/></g></svg>