<svg xmlns="http://www.w3.org/2000/svg" xmlns:xlink="http://www.w3.org/1999/xlink" viewBox="0 0 125 50"><defs><clipPath id="a"><rect x="1.19" y="12.21" width="122.62" height="25.61" rx="7.05" ry="7.05" fill="none"/></clipPath></defs><title>escala e iconos</title><path d="M47.25,10.42L46.32,9.09l-0.48.45v0.88H45.23v-4h0.61V8.94l1.33-1.41h0.66L46.71,8.74l1.19,1.68H47.25Z" fill="#fff"/><path d="M48.1,10.52h-0.9L46.31,9.24l-0.36.34v0.94H45.13V6.27h0.82V8.68l1.18-1.26h0.94L46.84,8.75Zm-0.79-.21h0.4L46.58,8.73l1-1.1H47.22L45.74,9.2V6.48h-0.4v3.84h0.4V9.5l0.6-.57Z"/><path d="M49.66,6.5h0.59l0.48,1.34L51.22,6.5H51.8L51.13,8.25,51.72,9.7l1.22-3.21h0.68L52,10.42H51.47L50.74,8.66,50,10.42H49.47L47.85,6.49h0.68L49.75,9.7l0.59-1.45Z" fill="#fff"/><path d="M52.07,10.52H51.4l-0.66-1.6-0.67,1.6H49.4L47.69,6.38h0.9l1.16,3,0.47-1.17L49.51,6.4h0.81l0.41,1.14L51.15,6.4H52L51.24,8.25l0.47,1.17,1.16-3h0.91Zm-0.53-.21h0.39l1.54-3.73H53L51.72,10,51,8.26l0.63-1.65H51.29L50.73,8.14,50.18,6.61H49.81l0.64,1.65L49.75,10l-1.3-3.39H48l1.54,3.73h0.39l0.81-1.93Z"/><path d="M56.61,10.42H56V8.8a1,1,0,0,0-.14-0.59A0.48,0.48,0,0,0,55.46,8a0.7,0.7,0,0,0-.25,0,0.91,0.91,0,0,0-.24.14,1.08,1.08,0,0,0-.2.22,0.92,0.92,0,0,0-.13.27v1.72H54v-4h0.61V8.1a1.2,1.2,0,0,1,.45-0.47,1.21,1.21,0,0,1,.62-0.17,0.91,0.91,0,0,1,.45.1,0.78,0.78,0,0,1,.28.26,1,1,0,0,1,.15.37,2.35,2.35,0,0,1,0,.45v1.77Z" fill="#fff"/><path d="M56.72,10.52H55.9V8.8a0.91,0.91,0,0,0-.12-0.53,0.37,0.37,0,0,0-.32-0.15,0.6,0.6,0,0,0-.22,0,0.8,0.8,0,0,0-.21.13,1,1,0,0,0-.18.2,0.83,0.83,0,0,0-.11.23v1.81H53.91V6.27h0.82V7.79A1.27,1.27,0,0,1,55,7.55a1.32,1.32,0,0,1,.67-0.18,1,1,0,0,1,.5.11,0.88,0.88,0,0,1,.32.29,1.14,1.14,0,0,1,.16.41,2.48,2.48,0,0,1,0,.47v1.87Zm-0.61-.21h0.4V8.65a2.26,2.26,0,0,0,0-.43,1,1,0,0,0-.13-0.34,0.68,0.68,0,0,0-.24-0.22,0.81,0.81,0,0,0-.4-0.08,1.12,1.12,0,0,0-.57.15,1.11,1.11,0,0,0-.41.43l-0.19.35v-2h-0.4v3.84h0.4V8.67a1,1,0,0,1,.15-0.3,1.19,1.19,0,0,1,.22-0.24A1,1,0,0,1,55.16,8a0.8,0.8,0,0,1,.29-0.06,0.58,0.58,0,0,1,.49.23,1.08,1.08,0,0,1,.16.65v1.52Z"/><path d="M60.48,6.49l-2.7,3.93H57.11l2.7-3.93h0.68Z" fill="#fff"/><path d="M57.84,10.52H56.91l2.84-4.14h0.93Zm-0.53-.21h0.43l2.56-3.73H59.86Z"/><path d="M65.3,10.42H64.69V8.8a1,1,0,0,0-.13-0.59A0.44,0.44,0,0,0,64.17,8a0.69,0.69,0,0,0-.47.19,1.08,1.08,0,0,0-.31.5v1.72H62.78V8.8a1,1,0,0,0-.13-0.6A0.44,0.44,0,0,0,62.27,8a0.71,0.71,0,0,0-.48.19,1,1,0,0,0-.31.49v1.72H60.87V7.52h0.55V8.1a1.23,1.23,0,0,1,.45-0.47,1.25,1.25,0,0,1,.64-0.16,0.78,0.78,0,0,1,.83.66,1.33,1.33,0,0,1,.46-0.49,1.19,1.19,0,0,1,.63-0.17,0.84,0.84,0,0,1,.42.1,0.75,0.75,0,0,1,.27.26,1.1,1.1,0,0,1,.14.37,2.57,2.57,0,0,1,0,.45v1.77Z" fill="#fff"/><path d="M65.41,10.52H64.59V8.8a1,1,0,0,0-.11-0.53,0.34,0.34,0,0,0-.3-0.15,0.59,0.59,0,0,0-.41.17,1,1,0,0,0-.27.44v1.8H62.68V8.8a1,1,0,0,0-.11-0.54,0.34,0.34,0,0,0-.3-0.14,0.6,0.6,0,0,0-.41.16,1,1,0,0,0-.27.43v1.81H60.77V7.42h0.76V7.79a1.26,1.26,0,0,1,.3-0.24,1.35,1.35,0,0,1,.69-0.18,0.87,0.87,0,0,1,.86.52,1.35,1.35,0,0,1,.37-0.34,1.29,1.29,0,0,1,.69-0.18,0.94,0.94,0,0,1,.47.11,0.85,0.85,0,0,1,.31.29,1.22,1.22,0,0,1,.15.41,2.66,2.66,0,0,1,0,.47v1.87Zm-0.61-.21h0.4V8.65a2.41,2.41,0,0,0,0-.43A1,1,0,0,0,65,7.88a0.64,0.64,0,0,0-.23-0.22,0.75,0.75,0,0,0-.37-0.08,1.09,1.09,0,0,0-.58.15,1.24,1.24,0,0,0-.42.45l-0.14.25,0-.28A0.7,0.7,0,0,0,63,7.74a0.72,0.72,0,0,0-.5-0.16,1.15,1.15,0,0,0-.59.15,1.14,1.14,0,0,0-.41.43l-0.19.34V7.63H61v2.69h0.4V8.67a1.15,1.15,0,0,1,.34-0.54,0.81,0.81,0,0,1,.54-0.21,0.54,0.54,0,0,1,.47.23,1.13,1.13,0,0,1,.15.66v1.52h0.4V8.67a1.19,1.19,0,0,1,.34-0.54,0.8,0.8,0,0,1,.54-0.22,0.54,0.54,0,0,1,.47.23,1.11,1.11,0,0,1,.15.65v1.52Z"/><path d="M66.48,8.65a1.71,1.71,0,0,1,0-.33A0.9,0.9,0,0,1,66.62,8a1,1,0,0,1,.21-0.26,1.72,1.72,0,0,1,.34-0.24l0.28-.15,0.23-.13a0.68,0.68,0,0,0,.16-0.14,0.27,0.27,0,0,0,.06-0.17,0.33,0.33,0,0,0-.12-0.24,0.48,0.48,0,0,0-.34-0.11,0.66,0.66,0,0,0-.21,0l-0.17.08-0.14.11-0.11.11-0.3-.34,0.13-.12a1.33,1.33,0,0,1,.22-0.13,1.64,1.64,0,0,1,.3-0.11,1.37,1.37,0,0,1,.36,0,1.18,1.18,0,0,1,.37.05,0.84,0.84,0,0,1,.28.15,0.63,0.63,0,0,1,.17.22,0.66,0.66,0,0,1,.06.28,0.6,0.6,0,0,1-.06.28,0.88,0.88,0,0,1-.16.22,1,1,0,0,1-.2.16l-0.2.11-0.2.1-0.22.13L67.16,8a0.47,0.47,0,0,0-.12.19h1.41V8.65h-2Z" fill="#fff"/><path d="M68.53,8.73H66.4V8.65a1.85,1.85,0,0,1,0-.35A1,1,0,0,1,66.55,8a1.13,1.13,0,0,1,.22-0.27,1.79,1.79,0,0,1,.36-0.25l0.28-.15,0.22-.13a0.6,0.6,0,0,0,.14-0.12,0.19,0.19,0,0,0,0-.12,0.25,0.25,0,0,0-.09-0.19,0.41,0.41,0,0,0-.28-0.09,0.57,0.57,0,0,0-.19,0l-0.16.07L67,6.87,66.88,7,66.82,7l-0.4-.47,0-.05L66.6,6.4a1.4,1.4,0,0,1,.23-0.14,1.76,1.76,0,0,1,.31-0.11,1.47,1.47,0,0,1,.77,0,0.92,0.92,0,0,1,.3.16,0.72,0.72,0,0,1,.19.25,0.74,0.74,0,0,1,.07.31,0.69,0.69,0,0,1-.07.32,1,1,0,0,1-.17.24A1.1,1.1,0,0,1,68,7.6l-0.21.12-0.2.1-0.21.13-0.18.15,0,0.05h1.36V8.73Zm-2-.16h1.81V8.31H66.94l0-.1A0.55,0.55,0,0,1,67.11,8l0.2-.17,0.23-.14,0.2-.1,0.2-.11a1,1,0,0,0,.19-0.15,0.8,0.8,0,0,0,.14-0.2,0.51,0.51,0,0,0,.05-0.24,0.58,0.58,0,0,0-.05-0.25,0.55,0.55,0,0,0-.15-0.2,0.76,0.76,0,0,0-.25-0.13,1.31,1.31,0,0,0-.68,0,1.57,1.57,0,0,0-.28.1l-0.21.13-0.07.06,0.19,0.22,0.05-.05L67,6.64l0.19-.09a0.72,0.72,0,0,1,.24,0,0.56,0.56,0,0,1,.39.13,0.41,0.41,0,0,1,.14.3,0.34,0.34,0,0,1-.08.22,0.74,0.74,0,0,1-.18.16l-0.24.14-0.28.15a1.64,1.64,0,0,0-.32.22,1,1,0,0,0-.19.24,0.82,0.82,0,0,0-.1.26A1.45,1.45,0,0,0,66.56,8.57Z"/><path d="M72.21,6.49l-2.7,3.93H68.83l2.7-3.93h0.68Z" fill="#fff"/><path d="M69.57,10.52H68.64l2.84-4.14H72.4ZM69,10.32h0.43L72,6.59H71.59Z"/><path d="M73.68,10.48a1.24,1.24,0,0,1-.54-0.12A1.34,1.34,0,0,1,72.71,10a1.5,1.5,0,0,1-.29-0.48,1.74,1.74,0,0,1,0-1.16,1.5,1.5,0,0,1,.27-0.47,1.31,1.31,0,0,1,.41-0.32,1.2,1.2,0,0,1,1.13,0,1.23,1.23,0,0,1,.42.43V6.38h0.61V9.7a0.24,0.24,0,0,0,0,.15,0.17,0.17,0,0,0,.13,0v0.52l-0.15,0h-0.1a0.46,0.46,0,0,1-.3-0.09,0.33,0.33,0,0,1-.13-0.24V9.9a1.16,1.16,0,0,1-.44.43A1.24,1.24,0,0,1,73.68,10.48ZM73.83,10a0.85,0.85,0,0,0,.27,0,1,1,0,0,0,.24-0.12,0.86,0.86,0,0,0,.19-0.18,0.66,0.66,0,0,0,.11-0.23V8.62a0.92,0.92,0,0,0-.14-0.25,1,1,0,0,0-.21-0.2A0.92,0.92,0,0,0,74.05,8a0.81,0.81,0,0,0-.26,0,0.69,0.69,0,0,0-.33.08,0.88,0.88,0,0,0-.26.22,1.12,1.12,0,0,0-.17.32A1.09,1.09,0,0,0,73,9a1,1,0,0,0,.07.38,1,1,0,0,0,.19.31,0.93,0.93,0,0,0,.28.21A0.76,0.76,0,0,0,73.83,10Z" fill="#fff"/><path d="M73.68,10.58a1.35,1.35,0,0,1-.59-0.13,1.44,1.44,0,0,1-.46-0.35,1.61,1.61,0,0,1-.31-0.51A1.79,1.79,0,0,1,72.22,9a1.76,1.76,0,0,1,.1-0.61,1.59,1.59,0,0,1,.29-0.51,1.42,1.42,0,0,1,.44-0.35,1.3,1.3,0,0,1,1.24.05,1.4,1.4,0,0,1,.26.21V6.27h0.82V9.7a0.16,0.16,0,0,0,0,.08h0.15v0.71l-0.08,0-0.16,0H75.17a0.56,0.56,0,0,1-.36-0.12,0.44,0.44,0,0,1-.16-0.26,1.26,1.26,0,0,1-.3.23A1.35,1.35,0,0,1,73.68,10.58Zm-0.07-3a1,1,0,0,0-.47.11,1.22,1.22,0,0,0-.38.3,1.41,1.41,0,0,0-.25.44,1.65,1.65,0,0,0,0,1.09,1.4,1.4,0,0,0,.27.45,1.25,1.25,0,0,0,.4.3,1.2,1.2,0,0,0,1.06,0,1.06,1.06,0,0,0,.4-0.39l0.17-.29,0,0.56a0.23,0.23,0,0,0,.09.17,0.36,0.36,0,0,0,.23.07h0.15V10a0.22,0.22,0,0,1-.11-0.07,0.33,0.33,0,0,1-.06-0.21V6.48h-0.4v2l-0.19-.34a1.12,1.12,0,0,0-.38-0.39A1,1,0,0,0,73.62,7.58Zm0.22,2.48A0.86,0.86,0,0,1,73.45,10a1,1,0,0,1-.31-0.23,1.08,1.08,0,0,1-.21-0.34A1.14,1.14,0,0,1,72.85,9a1.18,1.18,0,0,1,.07-0.4,1.22,1.22,0,0,1,.19-0.35A1,1,0,0,1,73.4,8a0.85,0.85,0,0,1,.68,0,1,1,0,0,1,.27.14,1.09,1.09,0,0,1,.23.22,1,1,0,0,1,.16.28V9.41a0.78,0.78,0,0,1-.13.26,1,1,0,0,1-.21.2,1.06,1.06,0,0,1-.27.14A1,1,0,0,1,73.83,10.06Zm0-2a0.59,0.59,0,0,0-.29.07,0.78,0.78,0,0,0-.23.2,1.05,1.05,0,0,0-.16.29,1,1,0,0,0-.06.33,0.94,0.94,0,0,0,.06.34,0.88,0.88,0,0,0,.17.28,0.83,0.83,0,0,0,.25.19,0.69,0.69,0,0,0,.53,0,0.87,0.87,0,0,0,.22-0.11,0.78,0.78,0,0,0,.17-0.16,0.56,0.56,0,0,0,.09-0.18V8.64a0.82,0.82,0,0,0-.12-0.21,0.91,0.91,0,0,0-.19-0.18A0.83,0.83,0,0,0,74,8.14,0.71,0.71,0,0,0,73.79,8.1Z"/><path d="M76,7V6.38h0.61V7H76Zm0,3.38V7.52h0.61v2.9H76Z" fill="#fff"/><path d="M76.75,10.52H75.93V7.42h0.82v3.1Zm-0.61-.21h0.4V7.63h-0.4v2.69Zm0.61-3.17H75.93V6.27h0.82V7.15Zm-0.61-.21h0.4V6.48h-0.4V6.94Z"/><path d="M78.14,10.48a1.09,1.09,0,0,1-.39-0.07,1,1,0,0,1-.31-0.19,0.9,0.9,0,0,1-.2-0.29,0.85,0.85,0,0,1-.08-0.36,0.77,0.77,0,0,1,.09-0.37,0.85,0.85,0,0,1,.25-0.29,1.21,1.21,0,0,1,.39-0.19,1.74,1.74,0,0,1,.5-0.07,2.28,2.28,0,0,1,.4,0,2,2,0,0,1,.36.1V8.59A0.67,0.67,0,0,0,79,8.09a0.72,0.72,0,0,0-.53-0.18A1.27,1.27,0,0,0,78,8a2.3,2.3,0,0,0-.46.25l-0.19-.39a2.05,2.05,0,0,1,1.16-.38,1.33,1.33,0,0,1,.93.3,1.13,1.13,0,0,1,.33.88v1a0.16,0.16,0,0,0,.16.2v0.52l-0.15,0H79.65a0.39,0.39,0,0,1-.27-0.09,0.38,0.38,0,0,1-.12-0.23l0-.18a1.29,1.29,0,0,1-.48.39A1.4,1.4,0,0,1,78.14,10.48ZM78.31,10a1.1,1.1,0,0,0,.42-0.08A0.73,0.73,0,0,0,79,9.72a0.28,0.28,0,0,0,.12-0.21V9.13A1.83,1.83,0,0,0,78.82,9a1.81,1.81,0,0,0-.34,0,0.93,0.93,0,0,0-.54.14,0.43,0.43,0,0,0-.21.37,0.47,0.47,0,0,0,.16.36A0.58,0.58,0,0,0,78.31,10Z" fill="#fff"/><path d="M78.14,10.58a1.19,1.19,0,0,1-.43-0.08,1,1,0,0,1-.34-0.21A1,1,0,0,1,77.14,10a1,1,0,0,1-.08-0.4,0.87,0.87,0,0,1,.1-0.42,1,1,0,0,1,.28-0.32,1.33,1.33,0,0,1,.42-0.2,2.13,2.13,0,0,1,.95,0L79,8.64V8.59a0.57,0.57,0,0,0-.15-0.43A0.63,0.63,0,0,0,78.44,8a1.17,1.17,0,0,0-.42.08,2.2,2.2,0,0,0-.44.24l-0.1.07L77.2,7.81l0.07,0a2.17,2.17,0,0,1,1.22-.39,1.43,1.43,0,0,1,1,.33,1.23,1.23,0,0,1,.37,1v1c0,0.09,0,.1.06,0.1H80v0.71l-0.08,0-0.16,0a0.61,0.61,0,0,1-.48-0.11,0.47,0.47,0,0,1-.14-0.25,1.39,1.39,0,0,1-.36.24A1.5,1.5,0,0,1,78.14,10.58Zm0.24-1.82a1.64,1.64,0,0,0-.47.06,1.12,1.12,0,0,0-.36.17,0.76,0.76,0,0,0-.22.25,0.66,0.66,0,0,0-.08.32,0.75,0.75,0,0,0,.07.32,0.8,0.8,0,0,0,.18.26,0.85,0.85,0,0,0,.28.17,1.23,1.23,0,0,0,.92-0.06,1.19,1.19,0,0,0,.44-0.36l0.16-.21,0,0.45a0.27,0.27,0,0,0,.09.16,0.45,0.45,0,0,0,.32.06h0.06V10a0.28,0.28,0,0,1-.16-0.28v-1a1,1,0,0,0-.3-0.8,1.23,1.23,0,0,0-.86-0.28,1.93,1.93,0,0,0-1,.31l0.1,0.2a2.31,2.31,0,0,1,.38-0.19,1.38,1.38,0,0,1,.49-0.09A0.82,0.82,0,0,1,79,8a0.77,0.77,0,0,1,.21.57V8.94l-0.14-.05a1.93,1.93,0,0,0-.34-0.09A2.18,2.18,0,0,0,78.39,8.76Zm-0.08,1.37A0.68,0.68,0,0,1,77.83,10a0.57,0.57,0,0,1-.19-0.44,0.53,0.53,0,0,1,.25-0.46,1.29,1.29,0,0,1,1-.12,2,2,0,0,1,.35.1l0.07,0V9.51a0.38,0.38,0,0,1-.15.29,0.79,0.79,0,0,1-.34.24A1.2,1.2,0,0,1,78.31,10.13Zm0.17-1a0.84,0.84,0,0,0-.48.12,0.33,0.33,0,0,0-.16.29A0.37,0.37,0,0,0,78,9.8a0.71,0.71,0,0,0,.72,0A0.62,0.62,0,0,0,79,9.66,0.22,0.22,0,0,0,79,9.51V9.2L78.8,9.14A1.73,1.73,0,0,0,78.48,9.11Z"/><path d="M6.53,41.58l2.33-1.41v0.65l-1.45.9,1.45,0.88v0.68L6.53,41.88v-0.3Z" fill="#fff"/><path d="M9,43.45L6.42,41.94V41.52l0,0L9,40v0.89l-1.35.84L9,42.53v0.92ZM6.63,41.82l2.12,1.26V42.65l-1.54-.93,1.54-1V40.35L6.63,41.64v0.19Z"/><path d="M12.59,41.84a1,1,0,0,1,.32.12,0.86,0.86,0,0,1,.24.21,1,1,0,0,1,.16.29,1.12,1.12,0,0,1,.06.36,1.09,1.09,0,0,1-.1.47,1,1,0,0,1-.28.36,1.26,1.26,0,0,1-.44.23A1.89,1.89,0,0,1,12,44a1.77,1.77,0,0,1-.74-0.15,1.25,1.25,0,0,1-.52-0.42L11.1,43a1,1,0,0,0,.34.32,1.1,1.1,0,0,0,.53.12,0.89,0.89,0,0,0,.56-0.16,0.56,0.56,0,0,0,.2-0.47,0.62,0.62,0,0,0-.22-0.5,1,1,0,0,0-.65-0.18H11.71V41.63h0.17a0.84,0.84,0,0,0,.57-0.17,0.56,0.56,0,0,0,.2-0.44,0.45,0.45,0,0,0-.18-0.39A0.78,0.78,0,0,0,12,40.5a1,1,0,0,0-.5.12,0.89,0.89,0,0,0-.34.35l-0.38-.42A0.88,0.88,0,0,1,11,40.31a1.49,1.49,0,0,1,.3-0.19A1.6,1.6,0,0,1,11.66,40a1.92,1.92,0,0,1,.41,0,1.63,1.63,0,0,1,.5.07,1.24,1.24,0,0,1,.39.2,0.88,0.88,0,0,1,.25.31,0.92,0.92,0,0,1,.09.4,1,1,0,0,1,0,.32,1,1,0,0,1-.14.27,0.82,0.82,0,0,1-.22.2A0.78,0.78,0,0,1,12.59,41.84Z" fill="#fff"/><path d="M12,44.07a1.88,1.88,0,0,1-.79-0.16,1.35,1.35,0,0,1-.56-0.46l0-.07,0.52-.58,0.07,0.11a0.87,0.87,0,0,0,.31.29,1,1,0,0,0,.48.1,0.79,0.79,0,0,0,.5-0.13,0.46,0.46,0,0,0,.16-0.38,0.52,0.52,0,0,0-.18-0.42,0.92,0.92,0,0,0-.59-0.16H11.6V41.52h0.27a0.75,0.75,0,0,0,.5-0.15A0.46,0.46,0,0,0,12.54,41a0.35,0.35,0,0,0-.13-0.31,0.69,0.69,0,0,0-.4-0.1,0.88,0.88,0,0,0-.45.11,0.77,0.77,0,0,0-.3.31l-0.07.12-0.53-.58,0-.07a1,1,0,0,1,.23-0.27,1.57,1.57,0,0,1,.32-0.2,1.69,1.69,0,0,1,.39-0.13,2,2,0,0,1,1,0,1.36,1.36,0,0,1,.42.22,1,1,0,0,1,.28.35,1,1,0,0,1,.1.45,1.1,1.1,0,0,1-.06.35,1,1,0,0,1-.16.3,0.94,0.94,0,0,1-.25.23l0,0,0.06,0a1,1,0,0,1,.27.24,1.05,1.05,0,0,1,.17.33,1.23,1.23,0,0,1,.06.39,1.2,1.2,0,0,1-.11.51,1.13,1.13,0,0,1-.3.39,1.38,1.38,0,0,1-.47.25A2,2,0,0,1,12,44.07Zm-1.13-.67a1.16,1.16,0,0,0,.43.33,1.68,1.68,0,0,0,.7.14,1.77,1.77,0,0,0,.54-0.08,1.15,1.15,0,0,0,.4-0.21,0.92,0.92,0,0,0,.25-0.32,1,1,0,0,0,.09-0.42,1,1,0,0,0-.05-0.33,0.87,0.87,0,0,0-.14-0.26,0.76,0.76,0,0,0-.21-0.19,0.85,0.85,0,0,0-.28-0.11L12,41.84l0.56-.1a0.69,0.69,0,0,0,.25-0.09A0.72,0.72,0,0,0,13,41.47a0.87,0.87,0,0,0,.13-0.24,0.91,0.91,0,0,0,0-.28,0.82,0.82,0,0,0-.08-0.36,0.78,0.78,0,0,0-.22-0.27,1.13,1.13,0,0,0-.36-0.18,1.73,1.73,0,0,0-.85,0,1.53,1.53,0,0,0-.34.11,1.42,1.42,0,0,0-.28.18,0.82,0.82,0,0,0-.15.15l0.24,0.26a1,1,0,0,1,.31-0.27A1.09,1.09,0,0,1,12,40.39a0.89,0.89,0,0,1,.52.14,0.55,0.55,0,0,1,.22.47,0.66,0.66,0,0,1-.23.52,0.94,0.94,0,0,1-.64.2H11.81V42h0a1.11,1.11,0,0,1,.72.21,0.72,0.72,0,0,1,.26.58,0.66,0.66,0,0,1-.24.55,1,1,0,0,1-.63.18,1.21,1.21,0,0,1-.58-0.13,1.08,1.08,0,0,1-.3-0.25Z"/><path d="M45,41.39a1.36,1.36,0,0,1,.51.09,1.27,1.27,0,0,1,.41.26,1.17,1.17,0,0,1,.27.4,1.39,1.39,0,0,1,0,1,1.24,1.24,0,0,1-.3.42,1.33,1.33,0,0,1-.45.27,1.64,1.64,0,0,1-.56.09,1.53,1.53,0,0,1-.77-0.19,1.31,1.31,0,0,1-.52-0.52L44,42.92a1.22,1.22,0,0,0,.4.38,1,1,0,0,0,.52.14,0.79,0.79,0,0,0,.57-0.21,0.73,0.73,0,0,0,.22-0.56,0.76,0.76,0,0,0-.06-0.3,0.71,0.71,0,0,0-.16-0.23A0.72,0.72,0,0,0,45.24,42a0.78,0.78,0,0,0-.3-0.06,0.87,0.87,0,0,0-.39.09,0.77,0.77,0,0,0-.3.27H43.71l0-.13,0.05-.28,0.07-.37,0.08-.42q0.1-.49.22-1.1h1.92v0.56H44.6l-0.2,1.08a0.64,0.64,0,0,1,.25-0.17A1,1,0,0,1,45,41.39Z" fill="#fff"/><path d="M44.9,44.08a1.64,1.64,0,0,1-.82-0.21,1.42,1.42,0,0,1-.56-0.56l0-.07L44,42.76l0.07,0.1a1.1,1.1,0,0,0,.37.35,0.91,0.91,0,0,0,.47.13,0.68,0.68,0,0,0,.49-0.18,0.63,0.63,0,0,0,.19-0.48,0.67,0.67,0,0,0,0-.26,0.61,0.61,0,0,0-.14-0.2,0.61,0.61,0,0,0-.2-0.13,0.77,0.77,0,0,0-.61,0,0.67,0.67,0,0,0-.26.23l0,0H43.58l0-.13,0-.13,0.05-.28,0.07-.37,0.08-.42q0.1-.49.22-1.1l0-.08h2.11v0.77h-1.5l-0.14.74,0.07,0a1.43,1.43,0,0,1,1,0,1.39,1.39,0,0,1,.44.28,1.29,1.29,0,0,1,.3.43,1.5,1.5,0,0,1,0,1.13,1.34,1.34,0,0,1-.32.45,1.43,1.43,0,0,1-.49.29A1.74,1.74,0,0,1,44.9,44.08Zm-1.15-.79a1.21,1.21,0,0,0,.44.41,1.44,1.44,0,0,0,.71.18,1.55,1.55,0,0,0,.52-0.09,1.24,1.24,0,0,0,.42-0.25,1.15,1.15,0,0,0,.27-0.38,1.21,1.21,0,0,0,.1-0.5,1.22,1.22,0,0,0-.09-0.47,1.06,1.06,0,0,0-.25-0.36,1.19,1.19,0,0,0-.38-0.24,1.22,1.22,0,0,0-.81,0,0.54,0.54,0,0,0-.21.14L44.24,42l0.28-1.52H46V40.09H44.25q-0.11.56-.2,1L44,41.53l-0.07.37-0.05.28H44.2a0.86,0.86,0,0,1,.31-0.26,1,1,0,0,1,.78,0,0.81,0.81,0,0,1,.45.44,0.88,0.88,0,0,1,.07.34,0.84,0.84,0,0,1-.25.63,0.89,0.89,0,0,1-.64.24,1.12,1.12,0,0,1-.57-0.16A1.34,1.34,0,0,1,44,43.07Z"/><path d="M80.52,40.48H78.61V39.92h2.87l-2,3.93H78.82Z" fill="#fff"/><path d="M79.58,44H78.66l1.7-3.37H78.51V39.82h3.14ZM79,43.75h0.46L81.32,40h-2.6v0.35h2Z"/><path d="M111.43,41.58l2.33-1.41v0.65l-1.45.9,1.45,0.88v0.68l-2.33-1.39v-0.3Z" fill="#fff"/><path d="M113.86,43.45l-2.54-1.51V41.52l0,0,2.49-1.5v0.89l-1.35.84,1.35,0.82v0.92Zm-2.33-1.63,2.12,1.26V42.65l-1.54-.93,1.54-1V40.35l-2.12,1.28v0.19Z"/><path d="M115.64,41.35a1.31,1.31,0,0,1,.11-0.53,1.38,1.38,0,0,1,.75-0.73,1.5,1.5,0,0,1,.56-0.1,1.41,1.41,0,0,1,.59.12,1.24,1.24,0,0,1,.45.34,1.59,1.59,0,0,1,.29.55,2.44,2.44,0,0,1,.1.73,4.07,4.07,0,0,1-.11,1,2.23,2.23,0,0,1-.3.71,1.28,1.28,0,0,1-.47.43A1.32,1.32,0,0,1,117,44a1.41,1.41,0,0,1-.69-0.17,1.35,1.35,0,0,1-.51-0.49l0.36-.38a1,1,0,0,0,.35.37,0.94,0.94,0,0,0,.5.14,0.77,0.77,0,0,0,.66-0.35,1.77,1.77,0,0,0,.26-1,0.89,0.89,0,0,1-.36.39,1.1,1.1,0,0,1-.56.14,1.4,1.4,0,0,1-.54-0.1,1.35,1.35,0,0,1-.43-0.28,1.3,1.3,0,0,1-.29-0.42A1.27,1.27,0,0,1,115.64,41.35Zm1.42-.84a0.81,0.81,0,0,0-.32.07,0.86,0.86,0,0,0-.27.18,0.9,0.9,0,0,0-.18.27,0.81,0.81,0,0,0-.07.32,0.79,0.79,0,0,0,.07.32,0.86,0.86,0,0,0,.18.26,0.87,0.87,0,0,0,.27.18,0.82,0.82,0,0,0,.65,0,0.85,0.85,0,0,0,.27-0.18,0.86,0.86,0,0,0,.18-0.26,0.79,0.79,0,0,0,.07-0.32,0.81,0.81,0,0,0-.07-0.32,0.91,0.91,0,0,0-.18-0.27,0.84,0.84,0,0,0-.27-0.18A0.81,0.81,0,0,0,117.06,40.51Z" fill="#fff"/><path d="M117,44.11a1.52,1.52,0,0,1-.74-0.18,1.46,1.46,0,0,1-.54-0.52l0-.07,0.51-.54,0.07,0.12a0.86,0.86,0,0,0,.32.33,0.83,0.83,0,0,0,.44.12,0.67,0.67,0,0,0,.58-0.31,1.36,1.36,0,0,0,.21-0.58l-0.18.13a1.4,1.4,0,0,1-1.19,0,1.46,1.46,0,0,1-.46-0.3,1.42,1.42,0,0,1-.31-0.45,1.39,1.39,0,0,1-.11-0.56,1.42,1.42,0,0,1,.12-0.57,1.49,1.49,0,0,1,.81-0.78,1.65,1.65,0,0,1,1.23,0,1.36,1.36,0,0,1,.49.37,1.71,1.71,0,0,1,.31.58,2.55,2.55,0,0,1,.11.77,4.19,4.19,0,0,1-.11,1,2.32,2.32,0,0,1-.32.74,1.38,1.38,0,0,1-.51.46A1.43,1.43,0,0,1,117,44.11Zm-1.07-.75a1.23,1.23,0,0,0,.43.38,1.32,1.32,0,0,0,1.21,0,1.17,1.17,0,0,0,.44-0.39,2.16,2.16,0,0,0,.29-0.68,4,4,0,0,0,.1-1,2.33,2.33,0,0,0-.1-0.7,1.49,1.49,0,0,0-.27-0.51,1.15,1.15,0,0,0-.42-0.32,1.3,1.3,0,0,0-.55-0.11,1.4,1.4,0,0,0-.52.1,1.27,1.27,0,0,0-.7.67,1.22,1.22,0,0,0-.1.49,1.17,1.17,0,0,0,.1.48,1.21,1.21,0,0,0,.26.39,1.24,1.24,0,0,0,.4.26,1.19,1.19,0,0,0,1,0,0.78,0.78,0,0,0,.32-0.35l0.21-.44v0.48a1.88,1.88,0,0,1-.28,1,0.87,0.87,0,0,1-.75.4,1,1,0,0,1-.55-0.15,1.06,1.06,0,0,1-.32-0.29Zm1.13-1.07a0.91,0.91,0,0,1-.37-0.08,1,1,0,0,1-.3-0.2,1,1,0,0,1-.2-0.29,0.9,0.9,0,0,1-.08-0.36,0.91,0.91,0,0,1,.08-0.37,1,1,0,0,1,.2-0.3,1,1,0,0,1,.3-0.21,0.93,0.93,0,0,1,.73,0,1,1,0,0,1,.3.21,1,1,0,0,1,.2.3,0.92,0.92,0,0,1,.08.37,0.9,0.9,0,0,1-.08.36,1,1,0,0,1-.2.29,1,1,0,0,1-.3.2A0.92,0.92,0,0,1,117.06,42.29Zm0-1.67a0.7,0.7,0,0,0-.28.06,0.77,0.77,0,0,0-.23.16,0.8,0.8,0,0,0-.16.24,0.7,0.7,0,0,0-.06.28,0.67,0.67,0,0,0,.06.28,0.75,0.75,0,0,0,.39.39,0.72,0.72,0,0,0,.57,0,0.73,0.73,0,0,0,.23-0.16,0.77,0.77,0,0,0,.16-0.23,0.69,0.69,0,0,0,.06-0.28,0.7,0.7,0,0,0-.06-0.28,0.77,0.77,0,0,0-.16-0.24,0.72,0.72,0,0,0-.23-0.16A0.7,0.7,0,0,0,117.06,40.61Z"/><path d="M116.76,38.5H8.24A7.75,7.75,0,0,1,.5,30.76V19.26a7.75,7.75,0,0,1,7.74-7.74H116.76a7.75,7.75,0,0,1,7.74,7.74v11.5A7.75,7.75,0,0,1,116.76,38.5ZM8.24,12.9a6.37,6.37,0,0,0-6.37,6.37v11.5a6.37,6.37,0,0,0,6.37,6.37H116.76a6.37,6.37,0,0,0,6.37-6.37V19.26a6.37,6.37,0,0,0-6.37-6.37H8.24Z" fill="#fff"/><g clip-path="url(#a)"><rect x="106.77" y="20.77" width="25.72" height="8.37" transform="translate(144.59 -94.67) rotate(90)" fill="#be0000"/><rect x="98.61" y="20.77" width="25.72" height="8.37" transform="translate(136.43 -86.51) rotate(90)" fill="#d80000"/><rect x="90.45" y="20.77" width="25.72" height="8.37" transform="translate(128.26 -78.35) rotate(90)" fill="#f20000"/><rect x="82.29" y="20.77" width="25.72" height="8.37" transform="translate(120.1 -70.19) rotate(90)" fill="#ff3000"/><rect x="74.12" y="20.77" width="25.72" height="8.37" transform="translate(111.94 -62.03) rotate(90)" fill="#ff7900"/><rect x="65.96" y="20.77" width="25.72" height="8.37" transform="translate(103.78 -53.87) rotate(90)" fill="#ffb24d"/><rect x="57.8" y="20.77" width="25.72" height="8.37" transform="translate(95.62 -45.7) rotate(90)" fill="#fce155"/><rect x="49.64" y="20.77" width="25.72" height="8.37" transform="translate(87.46 -37.54) rotate(90)" fill="#f7ff5d"/><rect x="41.48" y="20.77" width="25.72" height="8.37" transform="translate(79.3 -29.38) rotate(90)" fill="#ddff73"/><rect x="33.32" y="20.77" width="25.72" height="8.37" transform="translate(71.14 -21.22) rotate(90)" fill="#c4f986"/><rect x="25.16" y="20.77" width="25.72" height="8.37" transform="translate(62.97 -13.06) rotate(90)" fill="#abed98"/><rect x="17" y="20.77" width="25.72" height="8.37" transform="translate(54.81 -4.9) rotate(90)" fill="#8cd9a6"/><rect x="8.83" y="20.77" width="25.72" height="8.37" transform="translate(46.65 3.26) rotate(90)" fill="#6abaae"/><rect x="0.67" y="20.77" width="25.72" height="8.37" transform="translate(38.49 11.42) rotate(90)" fill="#4a9ab5"/><rect x="-7.49" y="20.77" width="25.72" height="8.37" transform="translate(30.33 19.59) rotate(90)" fill="#3279bd"/></g></svg>