<svg xmlns="http://www.w3.org/2000/svg" xmlns:xlink="http://www.w3.org/1999/xlink" viewBox="0 0 125 50"><defs><clipPath id="a"><rect x="1.19" y="12.17" width="122.62" height="25.61" rx="7.05" ry="7.05" fill="none"/></clipPath></defs><title>escala e iconos</title><path d="M45.61,10.38L44.68,9l-0.48.46v0.88H43.59v-4H44.2V8.89l1.33-1.41H46.2L45.07,8.7l1.19,1.68H45.61Z" fill="#fff"/><path d="M46.46,10.48h-0.9l0,0L44.67,9.2l-0.36.34v0.94H43.49V6.22H44.3V8.63l1.18-1.25h0.95L45.2,8.7Zm-0.79-.21h0.39L44.94,8.69l1-1.1H45.58L44.1,9.16V6.43h-0.4v3.84h0.4V9.45l0.6-.57Z"/><path d="M48,6.46h0.59l0.48,1.33,0.49-1.33h0.58L49.49,8.21l0.59,1.45,1.22-3.21H52l-1.62,3.94H49.83L49.1,8.61l-0.74,1.76H47.83L46.21,6.44h0.68l1.23,3.21L48.7,8.21Z" fill="#fff"/><path d="M50.43,10.48H49.76L49.1,8.88l-0.67,1.6H47.76l0-.06L46.05,6.34H47L47,6.4l1.14,3,0.47-1.17L47.87,6.35h0.81l0.41,1.13,0.41-1.13h0.81L49.61,8.21l0.47,1.16,1.16-3h0.91Zm-0.53-.21h0.39l1.54-3.73H51.38l-1.29,3.4-0.7-1.73L50,6.56H49.65L49.09,8.09,48.54,6.56H48.18l0.64,1.65-0.7,1.73-1.3-3.39H46.36l1.54,3.73h0.39L49.1,8.34Z"/><path d="M55,10.38H54.36V8.75a1,1,0,0,0-.14-0.59A0.48,0.48,0,0,0,53.82,8a0.7,0.7,0,0,0-.25.05,0.92,0.92,0,0,0-.24.14,1,1,0,0,0-.2.22,0.9,0.9,0,0,0-.13.27v1.72H52.37v-4H53V8.06a1.21,1.21,0,0,1,.45-0.47,1.23,1.23,0,0,1,.62-0.17,0.91,0.91,0,0,1,.45.1,0.78,0.78,0,0,1,.28.26,1,1,0,0,1,.15.37,2.36,2.36,0,0,1,0,.45v1.77Z" fill="#fff"/><path d="M55.08,10.48H54.26V8.75a0.9,0.9,0,0,0-.12-0.53,0.44,0.44,0,0,0-.54-0.11,0.82,0.82,0,0,0-.21.13,1,1,0,0,0-.18.2,0.8,0.8,0,0,0-.11.23v1.81H52.27V6.22h0.82V7.74a1.29,1.29,0,0,1,.3-0.24,1.34,1.34,0,0,1,.68-0.18,1,1,0,0,1,.5.11,0.88,0.88,0,0,1,.32.29,1.15,1.15,0,0,1,.16.41,2.49,2.49,0,0,1,0,.47v1.87Zm-0.61-.21h0.4V8.61a2.23,2.23,0,0,0,0-.43,1,1,0,0,0-.13-0.34,0.68,0.68,0,0,0-.24-0.22,0.82,0.82,0,0,0-.4-0.08,1.13,1.13,0,0,0-.57.15,1.11,1.11,0,0,0-.41.43l-0.19.35v-2h-0.4v3.84h0.4V8.62A1,1,0,0,1,53,8.32a1.16,1.16,0,0,1,.22-0.24,1,1,0,0,1,.27-0.16,0.81,0.81,0,0,1,.29-0.06,0.58,0.58,0,0,1,.49.23,1.09,1.09,0,0,1,.16.65v1.52Z"/><path d="M58.84,6.44l-2.7,3.94H55.47l2.7-3.94h0.68Z" fill="#fff"/><path d="M56.2,10.48H55.27l2.84-4.14H59Zm-0.53-.21h0.42l2.56-3.73H58.22Z"/><path d="M70.57,6.44l-2.7,3.94H67.19l2.7-3.94h0.68Z" fill="#fff"/><path d="M67.93,10.48H67l2.84-4.14h0.93Zm-0.53-.21h0.42l2.56-3.73H69.95Z"/><path d="M75.39,10.38H74.78V8.75a1,1,0,0,0-.13-0.59A0.44,0.44,0,0,0,74.26,8a0.69,0.69,0,0,0-.47.19,1.07,1.07,0,0,0-.31.5v1.72H72.87V8.75a1,1,0,0,0-.13-0.6A0.44,0.44,0,0,0,72.35,8a0.7,0.7,0,0,0-.48.19,1,1,0,0,0-.31.49v1.72H71V7.48h0.55V8.06A1.22,1.22,0,0,1,72,7.59a1.24,1.24,0,0,1,.64-0.16,0.81,0.81,0,0,1,.57.19,0.8,0.8,0,0,1,.26.47,1.3,1.3,0,0,1,.46-0.49,1.18,1.18,0,0,1,.63-0.17,0.85,0.85,0,0,1,.42.1,0.75,0.75,0,0,1,.27.26,1.08,1.08,0,0,1,.14.37,2.58,2.58,0,0,1,0,.45v1.77Z" fill="#fff"/><path d="M75.49,10.48H74.68V8.75a1,1,0,0,0-.11-0.53,0.34,0.34,0,0,0-.3-0.15,0.59,0.59,0,0,0-.4.17,1,1,0,0,0-.27.43v1.81H72.76V8.75a1,1,0,0,0-.11-0.54,0.34,0.34,0,0,0-.3-0.14,0.6,0.6,0,0,0-.41.16,1,1,0,0,0-.28.43v1.81H70.85V7.37h0.76V7.74a1.31,1.31,0,0,1,.3-0.24,1.35,1.35,0,0,1,.69-0.18,0.91,0.91,0,0,1,.64.22,0.9,0.9,0,0,1,.22.3,1.32,1.32,0,0,1,.37-0.34,1.28,1.28,0,0,1,.69-0.18,1,1,0,0,1,.48.11,0.86,0.86,0,0,1,.31.29,1.22,1.22,0,0,1,.15.41,2.72,2.72,0,0,1,0,.47v1.87Zm-0.61-.21h0.4V8.61a2.47,2.47,0,0,0,0-.43,1,1,0,0,0-.12-0.34,0.64,0.64,0,0,0-.23-0.22,0.75,0.75,0,0,0-.37-0.08,1.07,1.07,0,0,0-.58.16,1.2,1.2,0,0,0-.42.45l-0.14.25L73.33,8.1a0.7,0.7,0,0,0-.22-0.41,0.71,0.71,0,0,0-.5-0.16,1.14,1.14,0,0,0-.59.15,1.12,1.12,0,0,0-.41.43l-0.19.35V7.58H71.06v2.69h0.4V8.62a1.14,1.14,0,0,1,.34-0.54,0.81,0.81,0,0,1,.54-0.21,0.54,0.54,0,0,1,.47.23,1.13,1.13,0,0,1,.15.66v1.52h0.4V8.63a1.17,1.17,0,0,1,.34-0.54,0.8,0.8,0,0,1,.54-0.22,0.54,0.54,0,0,1,.47.23,1.12,1.12,0,0,1,.15.65v1.52Z"/><path d="M77.41,10.43a1.53,1.53,0,0,1-.61-0.12A1.44,1.44,0,0,1,76.32,10,1.46,1.46,0,0,1,76,9.51a1.54,1.54,0,0,1-.11-0.58A1.57,1.57,0,0,1,76,8.35a1.5,1.5,0,0,1,.3-0.48,1.42,1.42,0,0,1,.47-0.33,1.58,1.58,0,0,1,.62-0.12,1.48,1.48,0,0,1,.61.12,1.45,1.45,0,0,1,.47.32,1.38,1.38,0,0,1,.3.47,1.57,1.57,0,0,1,.1.56s0,0.09,0,.13v0.1H76.55a1,1,0,0,0,.09.35,0.92,0.92,0,0,0,.19.27,0.87,0.87,0,0,0,.27.17,0.84,0.84,0,0,0,.32.06l0.24,0a0.89,0.89,0,0,0,.22-0.09,0.81,0.81,0,0,0,.18-0.14,0.67,0.67,0,0,0,.12-0.18l0.52,0.15a1.2,1.2,0,0,1-.5.54A1.54,1.54,0,0,1,77.41,10.43Zm0.88-1.72a1,1,0,0,0-.09-0.34A0.86,0.86,0,0,0,78,8.11a0.85,0.85,0,0,0-.27-0.17,0.88,0.88,0,0,0-.33-0.06,0.85,0.85,0,0,0-.32.06,0.87,0.87,0,0,0-.27.17,0.84,0.84,0,0,0-.19.26,1,1,0,0,0-.09.34h1.75Z" fill="#fff"/><path d="M77.41,10.53a1.65,1.65,0,0,1-.66-0.13,1.56,1.56,0,0,1-.51-0.35,1.58,1.58,0,0,1-.33-0.51,1.65,1.65,0,0,1-.11-0.61,1.68,1.68,0,0,1,.11-0.62,1.61,1.61,0,0,1,.33-0.51,1.53,1.53,0,0,1,.51-0.35,1.73,1.73,0,0,1,1.32,0,1.56,1.56,0,0,1,.5.35,1.5,1.5,0,0,1,.32.51,1.66,1.66,0,0,1,.11.6S79,9,79,9s0,0.08,0,.1V9.23H76.67a0.8,0.8,0,0,0,.07.2,0.82,0.82,0,0,0,.17.24,0.76,0.76,0,0,0,.24.15,0.82,0.82,0,0,0,.5,0l0.19-.08A0.71,0.71,0,0,0,78,9.65a0.58,0.58,0,0,0,.1-0.16l0-.08,0.72,0.21,0,0.11a1.32,1.32,0,0,1-.54.58A1.64,1.64,0,0,1,77.41,10.53Zm0-3a1.49,1.49,0,0,0-.58.11,1.33,1.33,0,0,0-.44.3,1.42,1.42,0,0,0-.28.45,1.48,1.48,0,0,0-.1.54,1.43,1.43,0,0,0,.1.54,1.36,1.36,0,0,0,.28.44,1.32,1.32,0,0,0,.44.3,1.42,1.42,0,0,0,.57.11,1.44,1.44,0,0,0,.75-0.19,1.14,1.14,0,0,0,.4-0.38l-0.32-.09a0.75,0.75,0,0,1-.1.13,0.92,0.92,0,0,1-.2.16,1,1,0,0,1-.24.1,1,1,0,0,1-.63,0,1,1,0,0,1-.3-0.19,1,1,0,0,1-.22-0.3,1.08,1.08,0,0,1-.1-0.39V9h2.34s0-.07,0-0.11a1.47,1.47,0,0,0-.1-0.53,1.28,1.28,0,0,0-.27-0.44A1.34,1.34,0,0,0,78,7.64,1.38,1.38,0,0,0,77.41,7.53Zm1,1.28h-2V8.7a1.12,1.12,0,0,1,.1-0.37A1,1,0,0,1,76.74,8,1,1,0,0,1,77,7.84a1,1,0,0,1,.73,0,1,1,0,0,1,.3.19,1,1,0,0,1,.21.29,1.07,1.07,0,0,1,.1.37V8.81ZM76.66,8.6h1.51a0.82,0.82,0,0,0-.06-0.19,0.76,0.76,0,0,0-.17-0.23A0.75,0.75,0,0,0,77.7,8a0.78,0.78,0,0,0-.57,0,0.77,0.77,0,0,0-.24.15,0.74,0.74,0,0,0-.16.23A0.84,0.84,0,0,0,76.66,8.6Z"/><path d="M80.44,10.43a2.2,2.2,0,0,1-.7-0.11,1.76,1.76,0,0,1-.6-0.32L79.4,9.6a2.2,2.2,0,0,0,.52.29,1.42,1.42,0,0,0,.52.1,0.76,0.76,0,0,0,.43-0.11A0.34,0.34,0,0,0,81,9.58a0.28,0.28,0,0,0-.18-0.27,3.4,3.4,0,0,0-.55-0.18L79.82,9a1.17,1.17,0,0,1-.32-0.15,0.53,0.53,0,0,1-.18-0.21,0.65,0.65,0,0,1-.06-0.28A0.87,0.87,0,0,1,79.36,8a0.83,0.83,0,0,1,.24-0.29A1.06,1.06,0,0,1,80,7.49a1.61,1.61,0,0,1,.44-0.06,1.82,1.82,0,0,1,.61.1,1.59,1.59,0,0,1,.5.29l-0.26.37a1.35,1.35,0,0,0-.86-0.32A0.73,0.73,0,0,0,80,8a0.34,0.34,0,0,0-.16.31,0.3,0.3,0,0,0,0,.15,0.28,0.28,0,0,0,.11.11L80.18,8.6l0.3,0.08L81,8.82a1.4,1.4,0,0,1,.35.17,0.62,0.62,0,0,1,.21.23,0.68,0.68,0,0,1,.07.31,0.79,0.79,0,0,1-.31.66A1.36,1.36,0,0,1,80.44,10.43Z" fill="#fff"/><path d="M80.44,10.53a2.3,2.3,0,0,1-.73-0.12,1.86,1.86,0,0,1-.63-0.34L79,10l0.35-.56,0.09,0.07a2.11,2.11,0,0,0,.49.27,1.08,1.08,0,0,0,.86,0,0.24,0.24,0,0,0,.11-0.21,0.17,0.17,0,0,0-.12-0.17,3.26,3.26,0,0,0-.54-0.18l-0.47-.14a1.24,1.24,0,0,1-.34-0.17,0.63,0.63,0,0,1-.21-0.24,0.76,0.76,0,0,1-.07-0.33,1,1,0,0,1,.1-0.44,0.94,0.94,0,0,1,.27-0.33,1.18,1.18,0,0,1,.39-0.2,1.89,1.89,0,0,1,1.12,0,1.7,1.7,0,0,1,.54.31L81.65,7.8l-0.38.53-0.08-.07A1.24,1.24,0,0,0,80.4,8a0.63,0.63,0,0,0-.34.08,0.23,0.23,0,0,0-.11.22,0.21,0.21,0,0,0,0,.1,0.18,0.18,0,0,0,.07.07L80.21,8.5,80.5,8.58,81,8.72a1.49,1.49,0,0,1,.38.18,0.73,0.73,0,0,1,.24.26,0.79,0.79,0,0,1,.08.36,0.89,0.89,0,0,1-.35.74A1.47,1.47,0,0,1,80.44,10.53ZM79.29,10a1.72,1.72,0,0,0,.49.25,2.12,2.12,0,0,0,.66.11,1.28,1.28,0,0,0,.79-0.22,0.69,0.69,0,0,0,.27-0.58,0.57,0.57,0,0,0-.06-0.27,0.53,0.53,0,0,0-.17-0.19A1.29,1.29,0,0,0,81,8.92l-0.5-.14-0.3-.08-0.21-.09a0.39,0.39,0,0,1-.15-0.15,0.4,0.4,0,0,1,0-.2A0.44,0.44,0,0,1,80,7.87a0.84,0.84,0,0,1,.44-0.11,1.43,1.43,0,0,1,.84.28l0.14-.2A1.52,1.52,0,0,0,81,7.62a1.7,1.7,0,0,0-1,0,1,1,0,0,0-.32.16,0.72,0.72,0,0,0-.21.26,0.76,0.76,0,0,0-.08.35,0.55,0.55,0,0,0,0,.24,0.43,0.43,0,0,0,.14.17,1,1,0,0,0,.29.14L80.32,9a3.45,3.45,0,0,1,.57.19,0.38,0.38,0,0,1,.24.36,0.44,0.44,0,0,1-.2.39,0.86,0.86,0,0,1-.49.12,1.53,1.53,0,0,1-.56-0.1,2.24,2.24,0,0,1-.45-0.23Z"/><path d="M3.34,41.53l2.33-1.41v0.65l-1.45.9,1.45,0.88v0.68L3.34,41.84v-0.3Z" fill="#fff"/><path d="M5.77,43.41L3.24,41.89V41.47l2.54-1.53v0.89l-1.35.84,1.35,0.82v0.92ZM3.44,41.78L5.56,43V42.61L4,41.67l1.54-1V40.31L3.44,41.59v0.19Z"/><path d="M9.84,42.56v0.55H7.72V42.56H8.51V40.62a0.67,0.67,0,0,1-.15.14l-0.23.13L7.86,41a0.87,0.87,0,0,1-.24,0V40.47a0.67,0.67,0,0,0,.26-0.07l0.28-.16,0.24-.18a0.49,0.49,0,0,0,.12-0.13H9.14v2.62h0.7Z" fill="#fff"/><path d="M9.94,43.21H7.62V42.45H8.41v-1.6L8.17,41l-0.28.11a1,1,0,0,1-.27,0H7.51V40.37h0.1a0.58,0.58,0,0,0,.22-0.06l0.27-.15L8.32,40a0.5,0.5,0,0,0,.09-0.09l0-.06h0.8v2.62h0.7v0.76ZM7.83,43H9.74V42.66H9V40H8.56l-0.11.1a2,2,0,0,1-.25.19l-0.29.16-0.2.06v0.36l0.11,0,0.25-.1,0.22-.12a0.59,0.59,0,0,0,.13-0.12l0.19-.25v2.35H7.83V43Z"/><path d="M13.09,41.48a2,2,0,0,1-.11.67,1.67,1.67,0,0,1-.3.53,1.37,1.37,0,0,1-.45.35,1.29,1.29,0,0,1-.56.13A1.31,1.31,0,0,1,11.11,43a1.34,1.34,0,0,1-.45-0.35,1.7,1.7,0,0,1-.3-0.53,2.16,2.16,0,0,1,0-1.35,1.68,1.68,0,0,1,.3-0.53,1.34,1.34,0,0,1,.45-0.35,1.25,1.25,0,0,1,.56-0.13,1.24,1.24,0,0,1,.56.13,1.38,1.38,0,0,1,.45.35,1.65,1.65,0,0,1,.3.53A2,2,0,0,1,13.09,41.48Zm-0.62,0A1.68,1.68,0,0,0,12.41,41a1.12,1.12,0,0,0-.17-0.35A0.76,0.76,0,0,0,12,40.44a0.64,0.64,0,0,0-.32-0.08,0.66,0.66,0,0,0-.33.08,0.77,0.77,0,0,0-.25.23,1.12,1.12,0,0,0-.17.35,1.81,1.81,0,0,0,0,.91,1.09,1.09,0,0,0,.17.35,0.78,0.78,0,0,0,.25.23,0.66,0.66,0,0,0,.33.08A0.64,0.64,0,0,0,12,42.52a0.77,0.77,0,0,0,.25-0.23,1.09,1.09,0,0,0,.17-0.35A1.68,1.68,0,0,0,12.47,41.48Z" fill="#fff"/><path d="M11.67,43.27a1.41,1.41,0,0,1-.61-0.13,1.45,1.45,0,0,1-.48-0.38,1.82,1.82,0,0,1-.31-0.56,2.26,2.26,0,0,1,0-1.42,1.8,1.8,0,0,1,.31-0.56,1.46,1.46,0,0,1,.48-0.38,1.41,1.41,0,0,1,1.22,0,1.49,1.49,0,0,1,.48.38,1.75,1.75,0,0,1,.32.56,2.26,2.26,0,0,1,0,1.42,1.78,1.78,0,0,1-.32.56,1.49,1.49,0,0,1-.48.38A1.4,1.4,0,0,1,11.67,43.27Zm0-3.37a1.16,1.16,0,0,0-.52.12,1.26,1.26,0,0,0-.42.33,1.58,1.58,0,0,0-.28.5,2.06,2.06,0,0,0,0,1.28,1.59,1.59,0,0,0,.28.5,1.21,1.21,0,0,0,1.45.32,1.26,1.26,0,0,0,.42-0.32,1.56,1.56,0,0,0,.28-0.5,2.06,2.06,0,0,0,0-1.28,1.55,1.55,0,0,0-.28-0.5A1.28,1.28,0,0,0,12.19,40,1.14,1.14,0,0,0,11.67,39.9Zm0,2.8a0.77,0.77,0,0,1-.38-0.09A0.88,0.88,0,0,1,11,42.35,1.18,1.18,0,0,1,10.82,42a1.92,1.92,0,0,1,0-1A1.21,1.21,0,0,1,11,40.61a0.88,0.88,0,0,1,.29-0.26,0.81,0.81,0,0,1,.75,0,0.86,0.86,0,0,1,.29.26,1.22,1.22,0,0,1,.18.39,1.92,1.92,0,0,1,0,1,1.18,1.18,0,0,1-.18.38,0.88,0.88,0,0,1-.29.26A0.75,0.75,0,0,1,11.67,42.7Zm0-2.23a0.56,0.56,0,0,0-.28.07,0.68,0.68,0,0,0-.22.2,1,1,0,0,0-.15.32,1.71,1.71,0,0,0,0,.85,1,1,0,0,0,.15.32,0.66,0.66,0,0,0,.22.2,0.58,0.58,0,0,0,.55,0,0.68,0.68,0,0,0,.22-0.2,1,1,0,0,0,.15-0.32,1.71,1.71,0,0,0,0-.85,1,1,0,0,0-.15-0.32,0.66,0.66,0,0,0-.22-0.2A0.54,0.54,0,0,0,11.67,40.47Z"/><path d="M16.5,41.48a2,2,0,0,1-.11.67,1.67,1.67,0,0,1-.3.53,1.37,1.37,0,0,1-.45.35,1.29,1.29,0,0,1-.56.13A1.31,1.31,0,0,1,14.51,43a1.34,1.34,0,0,1-.45-0.35,1.7,1.7,0,0,1-.3-0.53,2.16,2.16,0,0,1,0-1.35,1.68,1.68,0,0,1,.3-0.53,1.34,1.34,0,0,1,.45-0.35,1.25,1.25,0,0,1,.56-0.13,1.24,1.24,0,0,1,.56.13,1.38,1.38,0,0,1,.45.35,1.65,1.65,0,0,1,.3.53A2,2,0,0,1,16.5,41.48Zm-0.62,0A1.68,1.68,0,0,0,15.82,41a1.12,1.12,0,0,0-.17-0.35,0.76,0.76,0,0,0-.25-0.23,0.64,0.64,0,0,0-.32-0.08,0.66,0.66,0,0,0-.33.08,0.77,0.77,0,0,0-.25.23,1.12,1.12,0,0,0-.17.35,1.81,1.81,0,0,0,0,.91,1.09,1.09,0,0,0,.17.35,0.78,0.78,0,0,0,.25.23,0.66,0.66,0,0,0,.33.08,0.64,0.64,0,0,0,.32-0.08,0.77,0.77,0,0,0,.25-0.23,1.09,1.09,0,0,0,.17-0.35A1.68,1.68,0,0,0,15.88,41.48Z" fill="#fff"/><path d="M15.08,43.27a1.41,1.41,0,0,1-.61-0.13A1.45,1.45,0,0,1,14,42.75a1.82,1.82,0,0,1-.31-0.56,2.26,2.26,0,0,1,0-1.42A1.8,1.8,0,0,1,14,40.21a1.46,1.46,0,0,1,.48-0.38,1.41,1.41,0,0,1,1.22,0,1.49,1.49,0,0,1,.48.38,1.75,1.75,0,0,1,.32.56,2.26,2.26,0,0,1,0,1.42,1.78,1.78,0,0,1-.32.56,1.49,1.49,0,0,1-.48.38A1.4,1.4,0,0,1,15.08,43.27Zm0-3.37a1.16,1.16,0,0,0-.52.12,1.26,1.26,0,0,0-.42.33,1.58,1.58,0,0,0-.28.5,2.06,2.06,0,0,0,0,1.28,1.59,1.59,0,0,0,.28.5,1.21,1.21,0,0,0,1.45.32A1.26,1.26,0,0,0,16,42.62a1.56,1.56,0,0,0,.28-0.5,2.06,2.06,0,0,0,0-1.28,1.55,1.55,0,0,0-.28-0.5A1.28,1.28,0,0,0,15.59,40,1.14,1.14,0,0,0,15.08,39.9Zm0,2.8a0.77,0.77,0,0,1-.38-0.09,0.88,0.88,0,0,1-.29-0.26A1.18,1.18,0,0,1,14.23,42a1.92,1.92,0,0,1,0-1,1.21,1.21,0,0,1,.18-0.39,0.88,0.88,0,0,1,.29-0.26,0.81,0.81,0,0,1,.75,0,0.86,0.86,0,0,1,.29.26,1.22,1.22,0,0,1,.18.39,1.92,1.92,0,0,1,0,1,1.18,1.18,0,0,1-.18.38,0.88,0.88,0,0,1-.29.26A0.75,0.75,0,0,1,15.08,42.7Zm0-2.23a0.56,0.56,0,0,0-.28.07,0.68,0.68,0,0,0-.22.2,1,1,0,0,0-.15.32,1.71,1.71,0,0,0,0,.85,1,1,0,0,0,.15.32,0.66,0.66,0,0,0,.22.2,0.58,0.58,0,0,0,.55,0,0.68,0.68,0,0,0,.22-0.2,1,1,0,0,0,.15-0.32,1.71,1.71,0,0,0,0-.85,1,1,0,0,0-.15-0.32,0.66,0.66,0,0,0-.22-0.2A0.54,0.54,0,0,0,15.08,40.47Z"/><path d="M42.88,42.56v0.55H40.76V42.56h0.79V40.62a0.67,0.67,0,0,1-.15.14l-0.23.13L40.9,41a0.87,0.87,0,0,1-.24,0V40.47a0.67,0.67,0,0,0,.26-0.07l0.28-.16,0.24-.18a0.49,0.49,0,0,0,.12-0.13h0.63v2.62h0.7Z" fill="#fff"/><path d="M43,43.21H40.66V42.45h0.79v-1.6L41.21,41l-0.28.11a1,1,0,0,1-.27,0h-0.1V40.37h0.1a0.58,0.58,0,0,0,.22-0.06l0.27-.15L41.36,40a0.5,0.5,0,0,0,.09-0.09l0-.06h0.8v2.62H43v0.76ZM40.87,43h1.91V42.66h-0.7V40H41.6l-0.11.1a2,2,0,0,1-.25.19L41,40.5l-0.2.06v0.36l0.11,0,0.25-.1,0.22-.12a0.59,0.59,0,0,0,.13-0.12l0.19-.25v2.35H40.87V43Z"/><path d="M44.84,43.81V42.93h-1.7V42.38L45,39.94h0.42v2.43h0.49v0.55H45.45v0.88H44.84Zm-1.08-1.44H44.9v-1.5Z" fill="#fff"/><path d="M45.55,43.91H44.73V43H43V42.35L45,39.84h0.57v2.43H46V43H45.55v0.88Zm-0.61-.21h0.4V42.82h0.49V42.48H45.34V40H45.08l-1.84,2.38v0.4h1.7v0.88ZM45,42.48H43.55L45,40.57v1.91Zm-1-.21H44.8V41.18Z"/><path d="M49.26,41.48a2,2,0,0,1-.11.67,1.67,1.67,0,0,1-.3.53,1.37,1.37,0,0,1-.45.35,1.29,1.29,0,0,1-.56.13A1.31,1.31,0,0,1,47.28,43a1.34,1.34,0,0,1-.45-0.35,1.7,1.7,0,0,1-.3-0.53,2.16,2.16,0,0,1,0-1.35,1.68,1.68,0,0,1,.3-0.53,1.34,1.34,0,0,1,.45-0.35,1.25,1.25,0,0,1,.56-0.13,1.24,1.24,0,0,1,.56.13,1.38,1.38,0,0,1,.45.35,1.65,1.65,0,0,1,.3.53A2,2,0,0,1,49.26,41.48Zm-0.62,0A1.68,1.68,0,0,0,48.58,41a1.12,1.12,0,0,0-.17-0.35,0.76,0.76,0,0,0-.25-0.23,0.64,0.64,0,0,0-.32-0.08,0.66,0.66,0,0,0-.33.08,0.77,0.77,0,0,0-.25.23,1.12,1.12,0,0,0-.17.35,1.81,1.81,0,0,0,0,.91,1.09,1.09,0,0,0,.17.35,0.78,0.78,0,0,0,.25.23,0.66,0.66,0,0,0,.33.08,0.64,0.64,0,0,0,.32-0.08,0.77,0.77,0,0,0,.25-0.23,1.09,1.09,0,0,0,.17-0.35A1.68,1.68,0,0,0,48.64,41.48Z" fill="#fff"/><path d="M47.84,43.27a1.41,1.41,0,0,1-.61-0.13,1.45,1.45,0,0,1-.48-0.38,1.82,1.82,0,0,1-.31-0.56,2.26,2.26,0,0,1,0-1.42,1.8,1.8,0,0,1,.31-0.56,1.46,1.46,0,0,1,.48-0.38,1.41,1.41,0,0,1,1.22,0,1.49,1.49,0,0,1,.48.38,1.75,1.75,0,0,1,.32.56,2.26,2.26,0,0,1,0,1.42,1.78,1.78,0,0,1-.32.56,1.49,1.49,0,0,1-.48.38A1.4,1.4,0,0,1,47.84,43.27Zm0-3.37a1.16,1.16,0,0,0-.52.12,1.26,1.26,0,0,0-.42.33,1.58,1.58,0,0,0-.28.5,2.06,2.06,0,0,0,0,1.28,1.59,1.59,0,0,0,.28.5,1.21,1.21,0,0,0,1.45.32,1.26,1.26,0,0,0,.42-0.32,1.56,1.56,0,0,0,.28-0.5,2.06,2.06,0,0,0,0-1.28,1.55,1.55,0,0,0-.28-0.5A1.28,1.28,0,0,0,48.36,40,1.14,1.14,0,0,0,47.84,39.9Zm0,2.8a0.77,0.77,0,0,1-.38-0.09,0.88,0.88,0,0,1-.29-0.26A1.18,1.18,0,0,1,47,42a1.92,1.92,0,0,1,0-1,1.21,1.21,0,0,1,.18-0.39,0.88,0.88,0,0,1,.29-0.26,0.81,0.81,0,0,1,.75,0,0.86,0.86,0,0,1,.29.26,1.22,1.22,0,0,1,.18.39,1.92,1.92,0,0,1,0,1,1.18,1.18,0,0,1-.18.38,0.88,0.88,0,0,1-.29.26A0.75,0.75,0,0,1,47.84,42.7Zm0-2.23a0.56,0.56,0,0,0-.28.07,0.68,0.68,0,0,0-.22.2,1,1,0,0,0-.15.32,1.71,1.71,0,0,0,0,.85,1,1,0,0,0,.15.32,0.66,0.66,0,0,0,.22.2,0.58,0.58,0,0,0,.55,0,0.68,0.68,0,0,0,.22-0.2,1,1,0,0,0,.15-0.32,1.71,1.71,0,0,0,0-.85,1,1,0,0,0-.15-0.32,0.66,0.66,0,0,0-.22-0.2A0.54,0.54,0,0,0,47.84,40.47Z"/><path d="M77.78,42.56v0.55H75.67V42.56h0.79V40.62a0.66,0.66,0,0,1-.16.14l-0.23.13L75.8,41a0.88,0.88,0,0,1-.24,0V40.47a0.66,0.66,0,0,0,.26-0.07l0.28-.16,0.24-.18a0.51,0.51,0,0,0,.12-0.13h0.63v2.62h0.7Z" fill="#fff"/><path d="M77.89,43.21H75.56V42.45h0.79v-1.6L76.11,41l-0.28.11a1,1,0,0,1-.28,0h-0.1V40.37h0.1a0.57,0.57,0,0,0,.22-0.06L76,40.16,76.26,40a0.47,0.47,0,0,0,.09-0.09l0-.05h0.79v2.62h0.7v0.76ZM75.77,43h1.91V42.66H77V40H76.51l-0.11.1a2,2,0,0,1-.25.19l-0.3.16-0.2.06v0.36l0.11,0L76,40.8l0.22-.12a0.58,0.58,0,0,0,.13-0.12l0.19-.25v2.35H75.77V43Z"/><path d="M81,42a1,1,0,0,1-.11.48,1.16,1.16,0,0,1-.31.37,1.4,1.4,0,0,1-.45.24,1.71,1.71,0,0,1-.54.08A1.65,1.65,0,0,1,79,43.06a1.39,1.39,0,0,1-.45-0.25,1.17,1.17,0,0,1-.3-0.38,1.08,1.08,0,0,1-.11-0.48,0.85,0.85,0,0,1,.06-0.32,1.09,1.09,0,0,1,.16-0.27,1.19,1.19,0,0,1,.22-0.21A1.49,1.49,0,0,1,78.85,41a1,1,0,0,1-.39-0.3,0.73,0.73,0,0,1-.16-0.46,0.88,0.88,0,0,1,.12-0.45,1.12,1.12,0,0,1,.3-0.33,1.37,1.37,0,0,1,.41-0.21,1.51,1.51,0,0,1,.45-0.07,1.54,1.54,0,0,1,.45.07,1.4,1.4,0,0,1,.42.2,1.06,1.06,0,0,1,.3.33,0.87,0.87,0,0,1,.12.45,0.74,0.74,0,0,1-.16.47,1,1,0,0,1-.4.31,1.51,1.51,0,0,1,.26.15,1,1,0,0,1,.22.22,1.06,1.06,0,0,1,.15.27A0.93,0.93,0,0,1,81,42Zm-0.62,0a0.58,0.58,0,0,0-.07-0.29,0.71,0.71,0,0,0-.18-0.21,0.81,0.81,0,0,0-.25-0.13,1,1,0,0,0-.29,0,0.91,0.91,0,0,0-.29,0,0.78,0.78,0,0,0-.25.13,0.71,0.71,0,0,0-.17.21,0.6,0.6,0,0,0-.07.28,0.57,0.57,0,0,0,.07.28,0.67,0.67,0,0,0,.18.21,0.84,0.84,0,0,0,.25.13,0.9,0.9,0,0,0,.29,0,0.87,0.87,0,0,0,.29,0,0.9,0.9,0,0,0,.25-0.14,0.73,0.73,0,0,0,.18-0.21A0.56,0.56,0,0,0,80.37,41.93Zm-1.45-1.68a0.43,0.43,0,0,0,.06.23,0.53,0.53,0,0,0,.15.17,0.79,0.79,0,0,0,.21.1,0.8,0.8,0,0,0,.23,0,0.84,0.84,0,0,0,.24,0A0.71,0.71,0,0,0,80,40.65a0.6,0.6,0,0,0,.16-0.17,0.45,0.45,0,0,0,.06-0.24A0.44,0.44,0,0,0,80.19,40,0.55,0.55,0,0,0,80,39.86a0.63,0.63,0,0,0-.21-0.11,0.89,0.89,0,0,0-.25,0,0.77,0.77,0,0,0-.25,0,0.68,0.68,0,0,0-.21.11A0.51,0.51,0,0,0,79,40,0.47,0.47,0,0,0,78.92,40.25Z" fill="#fff"/><path d="M79.57,43.25a1.74,1.74,0,0,1-.59-0.1,1.51,1.51,0,0,1-.48-0.27,1.28,1.28,0,0,1-.32-0.42,1.19,1.19,0,0,1-.12-0.53,1,1,0,0,1,.07-0.36,1.22,1.22,0,0,1,.17-0.3,1.3,1.3,0,0,1,.24-0.23L78.64,41a1.16,1.16,0,0,1-.25-0.24,0.84,0.84,0,0,1-.18-0.53,1,1,0,0,1,.13-0.5,1.23,1.23,0,0,1,.33-0.36,1.51,1.51,0,0,1,.44-0.22,1.65,1.65,0,0,1,1,0,1.47,1.47,0,0,1,.45.22,1.17,1.17,0,0,1,.33.36,1,1,0,0,1,.13.5,0.85,0.85,0,0,1-.18.53,1.19,1.19,0,0,1-.26.24l0.1,0.07a1.13,1.13,0,0,1,.24.24,1.17,1.17,0,0,1,.16.3,1,1,0,0,1,.06.36,1.17,1.17,0,0,1-.12.53,1.29,1.29,0,0,1-.33.41,1.53,1.53,0,0,1-.48.26A1.8,1.8,0,0,1,79.57,43.25Zm0-4a1.39,1.39,0,0,0-.42.06,1.27,1.27,0,0,0-.38.19,1,1,0,0,0-.27.3,0.78,0.78,0,0,0-.1.4,0.63,0.63,0,0,0,.14.4,0.89,0.89,0,0,0,.35.27L79.11,41l-0.21.1-0.23.13a1,1,0,0,0-.2.19,1,1,0,0,0-.14.24,0.76,0.76,0,0,0-.05.28,1,1,0,0,0,.1.44,1.08,1.08,0,0,0,.27.35,1.32,1.32,0,0,0,.41.23,1.66,1.66,0,0,0,1,0,1.3,1.3,0,0,0,.42-0.22,1.05,1.05,0,0,0,.28-0.34,1,1,0,0,0,.1-0.44,0.82,0.82,0,0,0,0-.29,0.94,0.94,0,0,0-.13-0.25,0.91,0.91,0,0,0-.2-0.2,1.31,1.31,0,0,0-.24-0.14L80,41l0.21-.09a0.92,0.92,0,0,0,.36-0.28,0.64,0.64,0,0,0,.14-0.4,0.77,0.77,0,0,0-.1-0.4,0.94,0.94,0,0,0-.27-0.3A1.29,1.29,0,0,0,80,39.34,1.42,1.42,0,0,0,79.58,39.28Zm0,3.43a1,1,0,0,1-.32-0.05A1,1,0,0,1,79,42.5a0.78,0.78,0,0,1-.21-0.24,0.67,0.67,0,0,1-.08-0.33,0.7,0.7,0,0,1,.08-0.33,0.82,0.82,0,0,1,.2-0.25,0.89,0.89,0,0,1,.28-0.15,1,1,0,0,1,.64,0,0.92,0.92,0,0,1,.29.15,0.81,0.81,0,0,1,.21.25,0.71,0.71,0,0,1,0,.66,0.84,0.84,0,0,1-.2.24,1,1,0,0,1-.28.16A1,1,0,0,1,79.58,42.71Zm0-1.35a0.81,0.81,0,0,0-.26,0,0.66,0.66,0,0,0-.22.12,0.61,0.61,0,0,0-.15.18,0.5,0.5,0,0,0-.05.23,0.46,0.46,0,0,0,.06.23,0.57,0.57,0,0,0,.15.18,0.75,0.75,0,0,0,.22.12,0.77,0.77,0,0,0,.73-0.12,0.61,0.61,0,0,0,.15-0.18,0.46,0.46,0,0,0,.05-0.22,0.48,0.48,0,0,0-.06-0.23,0.61,0.61,0,0,0-.16-0.18,0.69,0.69,0,0,0-.22-0.11A0.83,0.83,0,0,0,79.58,41.36Zm0-.47a0.91,0.91,0,0,1-.26,0,0.89,0.89,0,0,1-.24-0.12,0.63,0.63,0,0,1-.18-0.2,0.54,0.54,0,0,1-.08-0.29A0.58,0.58,0,0,1,78.88,40a0.62,0.62,0,0,1,.17-0.2,0.79,0.79,0,0,1,.24-0.12,1,1,0,0,1,.57,0,0.74,0.74,0,0,1,.24.12,0.65,0.65,0,0,1,.17.2,0.54,0.54,0,0,1,.07.27,0.56,0.56,0,0,1-.08.29,0.7,0.7,0,0,1-.18.2,0.8,0.8,0,0,1-.24.12A0.94,0.94,0,0,1,79.58,40.89Zm0-1.07a0.67,0.67,0,0,0-.22,0,0.57,0.57,0,0,0-.18.09,0.41,0.41,0,0,0-.12.13,0.37,0.37,0,0,0,0,.17,0.33,0.33,0,0,0,0,.18,0.41,0.41,0,0,0,.12.13,0.68,0.68,0,0,0,.18.09,0.71,0.71,0,0,0,.41,0A0.63,0.63,0,0,0,80,40.57a0.5,0.5,0,0,0,.13-0.14,0.35,0.35,0,0,0,0-.18,0.34,0.34,0,0,0,0-.17A0.44,0.44,0,0,0,80,39.94a0.54,0.54,0,0,0-.18-0.09A0.8,0.8,0,0,0,79.58,39.82Z"/><path d="M84.37,41.48a2,2,0,0,1-.11.67,1.66,1.66,0,0,1-.3.53,1.38,1.38,0,0,1-.45.35,1.29,1.29,0,0,1-.56.13A1.31,1.31,0,0,1,82.38,43a1.32,1.32,0,0,1-.45-0.35,1.69,1.69,0,0,1-.3-0.53,2.15,2.15,0,0,1,0-1.35,1.67,1.67,0,0,1,.3-0.53,1.33,1.33,0,0,1,.45-0.35,1.26,1.26,0,0,1,.57-0.13,1.24,1.24,0,0,1,.56.13,1.38,1.38,0,0,1,.45.35,1.64,1.64,0,0,1,.3.53A2,2,0,0,1,84.37,41.48Zm-0.62,0A1.66,1.66,0,0,0,83.69,41a1.14,1.14,0,0,0-.17-0.35,0.77,0.77,0,0,0-.25-0.23,0.65,0.65,0,0,0-.32-0.08,0.66,0.66,0,0,0-.33.08,0.76,0.76,0,0,0-.26.23,1.14,1.14,0,0,0-.17.35,1.83,1.83,0,0,0,0,.91,1.11,1.11,0,0,0,.17.35,0.77,0.77,0,0,0,.26.23,0.66,0.66,0,0,0,.33.08,0.65,0.65,0,0,0,.32-0.08,0.78,0.78,0,0,0,.25-0.23,1.11,1.11,0,0,0,.17-0.35A1.66,1.66,0,0,0,83.74,41.48Z" fill="#fff"/><path d="M82.95,43.27a1.41,1.41,0,0,1-.61-0.13,1.43,1.43,0,0,1-.48-0.38,1.78,1.78,0,0,1-.31-0.56,2.25,2.25,0,0,1,0-1.42,1.77,1.77,0,0,1,.32-0.56,1.43,1.43,0,0,1,.48-0.38,1.41,1.41,0,0,1,1.22,0,1.48,1.48,0,0,1,.48.38,1.75,1.75,0,0,1,.32.56,2.14,2.14,0,0,1,.11.71,2.12,2.12,0,0,1-.11.71,1.76,1.76,0,0,1-.32.56,1.5,1.5,0,0,1-.48.38A1.41,1.41,0,0,1,82.95,43.27Zm0-3.37a1.17,1.17,0,0,0-.52.12,1.24,1.24,0,0,0-.41.33,1.57,1.57,0,0,0-.28.5,2,2,0,0,0,0,1.28,1.57,1.57,0,0,0,.28.5,1.21,1.21,0,0,0,.41.32,1.24,1.24,0,0,0,1,0,1.27,1.27,0,0,0,.42-0.32,1.55,1.55,0,0,0,.28-0.5,1.91,1.91,0,0,0,.1-0.64,1.94,1.94,0,0,0-.1-0.64,1.54,1.54,0,0,0-.28-0.5A1.27,1.27,0,0,0,83.46,40,1.14,1.14,0,0,0,82.95,39.9Zm0,2.8a0.77,0.77,0,0,1-.38-0.09,0.89,0.89,0,0,1-.29-0.26A1.21,1.21,0,0,1,82.1,42,1.8,1.8,0,0,1,82,41.48,1.84,1.84,0,0,1,82.1,41a1.28,1.28,0,0,1,.18-0.39,0.87,0.87,0,0,1,.29-0.26,0.81,0.81,0,0,1,.75,0,0.87,0.87,0,0,1,.29.26,1.23,1.23,0,0,1,.18.39,1.93,1.93,0,0,1,0,1,1.21,1.21,0,0,1-.18.38,0.89,0.89,0,0,1-.29.26A0.76,0.76,0,0,1,82.95,42.7Zm0-2.23a0.55,0.55,0,0,0-.28.07,0.67,0.67,0,0,0-.22.2,1.06,1.06,0,0,0-.15.32,1.72,1.72,0,0,0,0,.85,1,1,0,0,0,.15.32,0.66,0.66,0,0,0,.22.2,0.58,0.58,0,0,0,.55,0,0.67,0.67,0,0,0,.22-0.2,1,1,0,0,0,.15-0.32,1.72,1.72,0,0,0,0-.85,1,1,0,0,0-.15-0.32,0.66,0.66,0,0,0-.22-0.2A0.54,0.54,0,0,0,82.95,40.47Z"/><path d="M108.32,41.53l2.33-1.41v0.65l-1.45.9,1.45,0.88v0.68l-2.33-1.39v-0.3Z" fill="#fff"/><path d="M110.75,43.41l-2.54-1.51V41.47l2.54-1.53v0.89l-1.35.84,1.35,0.82v0.92Zm-2.33-1.63L110.54,43V42.61L109,41.67l1.54-1V40.31l-2.12,1.28v0.19Z"/><path d="M112.56,43.11a2.22,2.22,0,0,1,0-.43,1.2,1.2,0,0,1,.14-0.37A1.4,1.4,0,0,1,113,42a2.24,2.24,0,0,1,.44-0.31l0.37-.2,0.3-.17a0.88,0.88,0,0,0,.21-0.18,0.35,0.35,0,0,0,.08-0.22,0.43,0.43,0,0,0-.15-0.32,0.63,0.63,0,0,0-.44-0.14,0.87,0.87,0,0,0-.27,0,1,1,0,0,0-.41.25l-0.14.15-0.39-.45,0.17-.15a1.7,1.7,0,0,1,.29-0.17,2.06,2.06,0,0,1,.39-0.14,1.88,1.88,0,0,1,.47-0.06,1.59,1.59,0,0,1,.48.07,1.09,1.09,0,0,1,.36.19,0.82,0.82,0,0,1,.22.29,0.86,0.86,0,0,1,.08.36,0.78,0.78,0,0,1-.08.37,1.16,1.16,0,0,1-.21.28,1.38,1.38,0,0,1-.27.21l-0.27.15-0.26.13-0.29.17a2,2,0,0,0-.25.21,0.62,0.62,0,0,0-.16.24h1.83v0.55h-2.57Z" fill="#fff"/><path d="M115.23,43.21h-2.77v-0.1a2.33,2.33,0,0,1,0-.45,1.31,1.31,0,0,1,.15-0.41,1.47,1.47,0,0,1,.29-0.36,2.27,2.27,0,0,1,.46-0.32l0.33-.18,0,0,0.29-.17a0.76,0.76,0,0,0,.18-0.16,0.24,0.24,0,0,0,.06-0.16,0.33,0.33,0,0,0-.12-0.24,0.53,0.53,0,0,0-.37-0.11,0.76,0.76,0,0,0-.24,0,0.89,0.89,0,0,0-.2.09l-0.16.13-0.13.14L113,41l-0.53-.61,0.06-.07,0.19-.17A1.86,1.86,0,0,1,113,40a2.2,2.2,0,0,1,.4-0.15,2,2,0,0,1,1,0,1.2,1.2,0,0,1,.4.21,0.93,0.93,0,0,1,.25.33,1,1,0,0,1,.09.41,0.88,0.88,0,0,1-.09.41,1.23,1.23,0,0,1-.22.31,1.52,1.52,0,0,1-.29.22l-0.27.15-0.18.09L114,42l-0.27.16a2,2,0,0,0-.24.2l-0.06.07h1.77v0.76ZM112.67,43H115V42.66h-1.87l0-.14a0.74,0.74,0,0,1,.18-0.28,2,2,0,0,1,.26-0.22l0.3-.18,0.08,0,0.18-.09,0.26-.14a1.25,1.25,0,0,0,.25-0.19,1.05,1.05,0,0,0,.19-0.26A0.68,0.68,0,0,0,115,40.8a0.77,0.77,0,0,0-.07-0.32,0.71,0.71,0,0,0-.2-0.25,1,1,0,0,0-.33-0.17,1.74,1.74,0,0,0-.89,0,2,2,0,0,0-.37.13,1.61,1.61,0,0,0-.27.16l-0.09.08L113,40.7l0.06-.07a1.13,1.13,0,0,1,.2-0.16,1.07,1.07,0,0,1,.25-0.12,1,1,0,0,1,.31,0,0.73,0.73,0,0,1,.51.17,0.53,0.53,0,0,1,.19.39,0.45,0.45,0,0,1-.1.29,1,1,0,0,1-.23.21l-0.31.18,0,0-0.33.18a2.2,2.2,0,0,0-.42.29,1.33,1.33,0,0,0-.25.31,1.08,1.08,0,0,0-.13.34A1.86,1.86,0,0,0,112.67,43Z"/><path d="M115.61,43.11a2.22,2.22,0,0,1,0-.43,1.2,1.2,0,0,1,.14-0.37,1.4,1.4,0,0,1,.27-0.33,2.24,2.24,0,0,1,.44-0.31l0.37-.2,0.3-.17a0.88,0.88,0,0,0,.21-0.18,0.35,0.35,0,0,0,.08-0.22,0.43,0.43,0,0,0-.15-0.32,0.63,0.63,0,0,0-.44-0.14,0.87,0.87,0,0,0-.27,0,1,1,0,0,0-.41.25l-0.14.15-0.39-.45,0.17-.15a1.7,1.7,0,0,1,.29-0.17,2.06,2.06,0,0,1,.39-0.14,1.88,1.88,0,0,1,.47-0.06,1.59,1.59,0,0,1,.48.07,1.09,1.09,0,0,1,.36.19,0.82,0.82,0,0,1,.22.29,0.86,0.86,0,0,1,.08.36,0.78,0.78,0,0,1-.08.37,1.16,1.16,0,0,1-.21.28,1.38,1.38,0,0,1-.27.21l-0.27.15-0.26.13-0.29.17a2,2,0,0,0-.25.21,0.62,0.62,0,0,0-.16.24h1.83v0.55h-2.57Z" fill="#fff"/><path d="M118.27,43.21H115.5v-0.1a2.33,2.33,0,0,1,0-.45,1.31,1.31,0,0,1,.15-0.41,1.47,1.47,0,0,1,.29-0.36,2.27,2.27,0,0,1,.46-0.32l0.33-.18,0,0,0.29-.17a0.76,0.76,0,0,0,.18-0.16,0.24,0.24,0,0,0,.06-0.16,0.33,0.33,0,0,0-.12-0.24,0.53,0.53,0,0,0-.37-0.11,0.76,0.76,0,0,0-.24,0,0.89,0.89,0,0,0-.2.09l-0.16.13-0.13.14L116,41l-0.53-.61,0.06-.07,0.19-.17a1.86,1.86,0,0,1,.31-0.19,2.2,2.2,0,0,1,.4-0.15,2,2,0,0,1,1,0,1.2,1.2,0,0,1,.4.21,0.93,0.93,0,0,1,.25.33,1,1,0,0,1,.09.41,0.88,0.88,0,0,1-.09.41,1.23,1.23,0,0,1-.22.31,1.52,1.52,0,0,1-.29.22l-0.27.15-0.18.09-0.08,0-0.27.16a2,2,0,0,0-.24.2l-0.06.07h1.77v0.76ZM115.71,43h2.36V42.66h-1.87l0-.14a0.74,0.74,0,0,1,.18-0.28,2,2,0,0,1,.26-0.22l0.3-.18,0.08,0,0.18-.09,0.26-.14a1.25,1.25,0,0,0,.25-0.19,1.05,1.05,0,0,0,.19-0.26A0.68,0.68,0,0,0,118,40.8a0.77,0.77,0,0,0-.07-0.32,0.71,0.71,0,0,0-.2-0.25,1,1,0,0,0-.33-0.17,1.74,1.74,0,0,0-.89,0,2,2,0,0,0-.37.13,1.61,1.61,0,0,0-.27.16l-0.09.08L116,40.7l0.06-.07a1.13,1.13,0,0,1,.2-0.16,1.07,1.07,0,0,1,.25-0.12,1,1,0,0,1,.31,0,0.73,0.73,0,0,1,.51.17,0.53,0.53,0,0,1,.19.39,0.45,0.45,0,0,1-.1.29,1,1,0,0,1-.23.21l-0.31.18,0,0-0.33.18a2.2,2.2,0,0,0-.42.29,1.33,1.33,0,0,0-.25.31,1.08,1.08,0,0,0-.13.34A1.86,1.86,0,0,0,115.71,43Z"/><path d="M121.55,41.48a2,2,0,0,1-.11.67,1.66,1.66,0,0,1-.3.53,1.38,1.38,0,0,1-.45.35,1.29,1.29,0,0,1-.56.13,1.31,1.31,0,0,1-.57-0.12,1.32,1.32,0,0,1-.45-0.35,1.69,1.69,0,0,1-.3-0.53,2.15,2.15,0,0,1,0-1.35,1.67,1.67,0,0,1,.3-0.53,1.33,1.33,0,0,1,.45-0.35,1.26,1.26,0,0,1,.57-0.13,1.24,1.24,0,0,1,.56.13,1.38,1.38,0,0,1,.45.35,1.64,1.64,0,0,1,.3.53A2,2,0,0,1,121.55,41.48Zm-0.62,0a1.66,1.66,0,0,0-.06-0.46,1.14,1.14,0,0,0-.17-0.35,0.77,0.77,0,0,0-.25-0.23,0.65,0.65,0,0,0-.32-0.08,0.66,0.66,0,0,0-.33.08,0.76,0.76,0,0,0-.26.23,1.14,1.14,0,0,0-.17.35,1.83,1.83,0,0,0,0,.91,1.11,1.11,0,0,0,.17.35,0.77,0.77,0,0,0,.26.23,0.66,0.66,0,0,0,.33.08,0.65,0.65,0,0,0,.32-0.08,0.78,0.78,0,0,0,.25-0.23,1.11,1.11,0,0,0,.17-0.35A1.66,1.66,0,0,0,120.92,41.48Z" fill="#fff"/><path d="M120.13,43.27a1.41,1.41,0,0,1-.61-0.13,1.43,1.43,0,0,1-.48-0.38,1.78,1.78,0,0,1-.31-0.56,2.25,2.25,0,0,1,0-1.42,1.77,1.77,0,0,1,.32-0.56,1.43,1.43,0,0,1,.48-0.38,1.41,1.41,0,0,1,1.22,0,1.48,1.48,0,0,1,.48.38,1.75,1.75,0,0,1,.32.56,2.14,2.14,0,0,1,.11.71,2.12,2.12,0,0,1-.11.71,1.76,1.76,0,0,1-.32.56,1.5,1.5,0,0,1-.48.38A1.41,1.41,0,0,1,120.13,43.27Zm0-3.37a1.17,1.17,0,0,0-.52.12,1.24,1.24,0,0,0-.41.33,1.57,1.57,0,0,0-.28.5,2,2,0,0,0,0,1.28,1.57,1.57,0,0,0,.28.5,1.21,1.21,0,0,0,.41.32,1.24,1.24,0,0,0,1,0,1.27,1.27,0,0,0,.42-0.32,1.55,1.55,0,0,0,.28-0.5,1.91,1.91,0,0,0,.1-0.64,1.94,1.94,0,0,0-.1-0.64,1.54,1.54,0,0,0-.28-0.5,1.27,1.27,0,0,0-.42-0.33A1.14,1.14,0,0,0,120.13,39.9Zm0,2.8a0.77,0.77,0,0,1-.38-0.09,0.89,0.89,0,0,1-.29-0.26,1.21,1.21,0,0,1-.18-0.38,1.8,1.8,0,0,1-.06-0.48,1.84,1.84,0,0,1,.06-0.48,1.28,1.28,0,0,1,.18-0.39,0.87,0.87,0,0,1,.29-0.26,0.81,0.81,0,0,1,.75,0,0.87,0.87,0,0,1,.29.26A1.23,1.23,0,0,1,121,41a1.93,1.93,0,0,1,0,1,1.21,1.21,0,0,1-.18.38,0.89,0.89,0,0,1-.29.26A0.76,0.76,0,0,1,120.13,42.7Zm0-2.23a0.55,0.55,0,0,0-.28.07,0.67,0.67,0,0,0-.22.2,1.06,1.06,0,0,0-.15.32,1.72,1.72,0,0,0,0,.85,1,1,0,0,0,.15.32,0.66,0.66,0,0,0,.22.2,0.58,0.58,0,0,0,.55,0,0.67,0.67,0,0,0,.22-0.2,1,1,0,0,0,.15-0.32,1.72,1.72,0,0,0,0-.85,1,1,0,0,0-.15-0.32,0.66,0.66,0,0,0-.22-0.2A0.54,0.54,0,0,0,120.13,40.47Z"/><path d="M116.76,38.46H8.24A7.75,7.75,0,0,1,.5,30.72V19.22a7.75,7.75,0,0,1,7.74-7.74H116.76a7.75,7.75,0,0,1,7.74,7.74v11.5A7.75,7.75,0,0,1,116.76,38.46ZM8.24,12.85a6.37,6.37,0,0,0-6.37,6.37v11.5a6.37,6.37,0,0,0,6.37,6.37H116.76a6.37,6.37,0,0,0,6.37-6.37V19.22a6.37,6.37,0,0,0-6.37-6.37H8.24Z" fill="#fff"/><g clip-path="url(#a)"><rect x="106.77" y="20.73" width="25.72" height="8.37" transform="translate(144.54 -94.72) rotate(90)" fill="#be0000"/><rect x="98.61" y="20.73" width="25.72" height="8.37" transform="translate(136.38 -86.56) rotate(90)" fill="#d80000"/><rect x="90.45" y="20.73" width="25.72" height="8.37" transform="translate(128.22 -78.4) rotate(90)" fill="#f20000"/><rect x="82.29" y="20.73" width="25.72" height="8.37" transform="translate(120.06 -70.24) rotate(90)" fill="#ff3000"/><rect x="74.12" y="20.73" width="25.72" height="8.37" transform="translate(111.9 -62.07) rotate(90)" fill="#ff7900"/><rect x="65.96" y="20.73" width="25.72" height="8.37" transform="translate(103.73 -53.91) rotate(90)" fill="#ffb24d"/><rect x="57.8" y="20.73" width="25.72" height="8.37" transform="translate(95.57 -45.75) rotate(90)" fill="#fce155"/><rect x="49.64" y="20.73" width="25.72" height="8.37" transform="translate(87.41 -37.59) rotate(90)" fill="#f7ff5d"/><rect x="41.48" y="20.73" width="25.72" height="8.37" transform="translate(79.25 -29.43) rotate(90)" fill="#ddff73"/><rect x="33.32" y="20.73" width="25.72" height="8.37" transform="translate(71.09 -21.27) rotate(90)" fill="#c4f986"/><rect x="25.16" y="20.73" width="25.72" height="8.37" transform="translate(62.93 -13.11) rotate(90)" fill="#abed98"/><rect x="17" y="20.73" width="25.72" height="8.37" transform="translate(54.77 -4.94) rotate(90)" fill="#8cd9a6"/><rect x="8.83" y="20.73" width="25.72" height="8.37" transform="translate(46.6 3.22) rotate(90)" fill="#6abaae"/><rect x="0.67" y="20.73" width="25.72" height="8.37" transform="translate(38.44 11.38) rotate(90)" fill="#4a9ab5"/><rect x="-7.49" y="20.73" width="25.72" height="8.37" transform="translate(30.28 19.54) rotate(90)" fill="#3279bd"/></g><path d="M63.64,10.34H63V8.71a1,1,0,0,0-.13-0.59,0.44,0.44,0,0,0-.39-0.19,0.69,0.69,0,0,0-.47.19,1.08,1.08,0,0,0-.31.5v1.72H61.12V8.71A1,1,0,0,0,61,8.12a0.44,0.44,0,0,0-.38-0.19,0.71,0.71,0,0,0-.48.19,1,1,0,0,0-.31.49v1.72H59.2V7.44h0.55V8a1.23,1.23,0,0,1,.45-0.47,1.25,1.25,0,0,1,.64-0.16,0.78,0.78,0,0,1,.83.66,1.33,1.33,0,0,1,.46-0.49,1.19,1.19,0,0,1,.63-0.17,0.84,0.84,0,0,1,.42.1,0.75,0.75,0,0,1,.27.26,1.1,1.1,0,0,1,.14.37,2.57,2.57,0,0,1,0,.45v1.77Z" fill="#fff"/><path d="M63.74,10.44H62.92V8.71a1,1,0,0,0-.11-0.53A0.34,0.34,0,0,0,62.51,8a0.59,0.59,0,0,0-.41.17,1,1,0,0,0-.27.44v1.8H61V8.71a1,1,0,0,0-.11-0.54A0.34,0.34,0,0,0,60.6,8a0.6,0.6,0,0,0-.41.16,1,1,0,0,0-.27.43v1.81H59.1V7.34h0.76V7.7a1.26,1.26,0,0,1,.3-0.24,1.35,1.35,0,0,1,.69-0.18,0.87,0.87,0,0,1,.86.52,1.35,1.35,0,0,1,.37-0.34,1.29,1.29,0,0,1,.69-0.18,0.94,0.94,0,0,1,.47.11,0.85,0.85,0,0,1,.31.29,1.22,1.22,0,0,1,.15.41,2.66,2.66,0,0,1,0,.47v1.87Zm-0.61-.21h0.4V8.57a2.41,2.41,0,0,0,0-.43,1,1,0,0,0-.12-0.34,0.64,0.64,0,0,0-.23-0.22,0.75,0.75,0,0,0-.37-0.08,1.09,1.09,0,0,0-.58.15,1.24,1.24,0,0,0-.42.45l-0.14.25,0-.28a0.7,0.7,0,0,0-.23-0.41,0.72,0.72,0,0,0-.5-0.16,1.15,1.15,0,0,0-.59.15,1.14,1.14,0,0,0-.41.43l-0.19.34V7.54H59.31v2.69h0.4V8.58A1.15,1.15,0,0,1,60.06,8a0.81,0.81,0,0,1,.54-0.21,0.54,0.54,0,0,1,.47.23,1.13,1.13,0,0,1,.15.66v1.52h0.4V8.59A1.19,1.19,0,0,1,62,8a0.8,0.8,0,0,1,.54-0.22,0.54,0.54,0,0,1,.47.23,1.11,1.11,0,0,1,.15.65v1.52Z"/><path d="M64.82,8.57a1.71,1.71,0,0,1,0-.33A0.9,0.9,0,0,1,65,7.95a1,1,0,0,1,.21-0.26,1.72,1.72,0,0,1,.34-0.24l0.28-.15L66,7.17A0.68,0.68,0,0,0,66.17,7a0.27,0.27,0,0,0,.06-0.17,0.33,0.33,0,0,0-.12-0.24,0.48,0.48,0,0,0-.34-0.11,0.66,0.66,0,0,0-.21,0l-0.17.08-0.14.11-0.11.11-0.3-.34L65,6.38a1.33,1.33,0,0,1,.22-0.13,1.64,1.64,0,0,1,.3-0.11,1.37,1.37,0,0,1,.36,0,1.18,1.18,0,0,1,.37.05,0.84,0.84,0,0,1,.28.15,0.63,0.63,0,0,1,.17.22,0.66,0.66,0,0,1,.06.28,0.6,0.6,0,0,1-.06.28,0.88,0.88,0,0,1-.16.22,1,1,0,0,1-.2.16l-0.2.11-0.2.1-0.22.13L65.5,8a0.47,0.47,0,0,0-.12.19h1.41V8.57h-2Z" fill="#fff"/><path d="M66.87,8.64H64.74V8.57a1.85,1.85,0,0,1,0-.35,1,1,0,0,1,.12-0.31,1.13,1.13,0,0,1,.22-0.27,1.79,1.79,0,0,1,.36-0.25l0.28-.15L66,7.11A0.6,0.6,0,0,0,66.11,7a0.19,0.19,0,0,0,0-.12,0.25,0.25,0,0,0-.09-0.19,0.41,0.41,0,0,0-.28-0.09,0.57,0.57,0,0,0-.19,0l-0.16.07-0.12.1-0.1.11L65.15,7l-0.4-.47,0-.05,0.14-.13a1.4,1.4,0,0,1,.23-0.14,1.76,1.76,0,0,1,.31-0.11,1.47,1.47,0,0,1,.77,0,0.92,0.92,0,0,1,.3.16,0.72,0.72,0,0,1,.19.25,0.74,0.74,0,0,1,.07.31,0.69,0.69,0,0,1-.07.32,1,1,0,0,1-.17.24,1.1,1.1,0,0,1-.22.17l-0.21.12-0.2.1-0.21.13L65.55,8l0,0.05h1.36V8.64Zm-2-.16h1.81V8.22H65.27l0-.1a0.55,0.55,0,0,1,.14-0.22l0.2-.17,0.23-.14,0.2-.1,0.2-.11a1,1,0,0,0,.19-0.15A0.8,0.8,0,0,0,66.61,7a0.51,0.51,0,0,0,.05-0.24,0.58,0.58,0,0,0-.05-0.25,0.55,0.55,0,0,0-.15-0.2,0.76,0.76,0,0,0-.25-0.13,1.31,1.31,0,0,0-.68,0,1.57,1.57,0,0,0-.28.1L65,6.44,65,6.5l0.19,0.22,0.05-.05,0.15-.12,0.19-.09a0.72,0.72,0,0,1,.24,0,0.56,0.56,0,0,1,.39.13,0.41,0.41,0,0,1,.14.3,0.34,0.34,0,0,1-.08.22,0.74,0.74,0,0,1-.18.16l-0.24.14-0.28.15a1.64,1.64,0,0,0-.32.22A1,1,0,0,0,65,8a0.82,0.82,0,0,0-.1.26A1.45,1.45,0,0,0,64.9,8.49Z"/></svg>