<svg xmlns="http://www.w3.org/2000/svg" xmlns:xlink="http://www.w3.org/1999/xlink" viewBox="0 0 125 50"><defs><clipPath id="a"><rect x="1.19" y="12.17" width="122.62" height="25.61" rx="7.05" ry="7.05" fill="none"/></clipPath></defs><title>escala anual ok-07</title><path d="M2.66,42.53L5,41.12v0.65l-1.45.9L5,43.55v0.68L2.66,42.84v-0.3Z" fill="#fff" stroke="#000" stroke-miterlimit="10" stroke-width="0.21"/><path d="M9.16,43.56v0.55H7V43.56H7.83V41.62a0.69,0.69,0,0,1-.15.14l-0.23.13L7.17,42a0.87,0.87,0,0,1-.24,0V41.47a0.65,0.65,0,0,0,.26-0.07l0.28-.16,0.24-.18a0.49,0.49,0,0,0,.12-0.13H8.46v2.62h0.7Z" fill="#fff" stroke="#000" stroke-miterlimit="10" stroke-width="0.21"/><path d="M12.42,42.8a1.32,1.32,0,0,1-.11.53,1.35,1.35,0,0,1-.3.43,1.38,1.38,0,0,1-.45.29,1.48,1.48,0,0,1-.56.11A1.44,1.44,0,0,1,10.41,44,1.27,1.27,0,0,1,10,43.7a1.58,1.58,0,0,1-.29-0.55,2.43,2.43,0,0,1-.1-0.73,4,4,0,0,1,.11-1,2.24,2.24,0,0,1,.3-0.71,1.28,1.28,0,0,1,.47-0.43,1.33,1.33,0,0,1,.62-0.14,1.41,1.41,0,0,1,.69.17,1.36,1.36,0,0,1,.51.49l-0.36.38a1,1,0,0,0-.35-0.37,1,1,0,0,0-.5-0.14,0.77,0.77,0,0,0-.66.35,1.76,1.76,0,0,0-.26,1,0.91,0.91,0,0,1,.37-0.39,1.07,1.07,0,0,1,.56-0.14,1.4,1.4,0,0,1,.54.1,1.35,1.35,0,0,1,.43.28,1.31,1.31,0,0,1,.29.42A1.29,1.29,0,0,1,12.42,42.8ZM11,43.64a0.79,0.79,0,0,0,.32-0.07,0.83,0.83,0,0,0,.27-0.18,0.89,0.89,0,0,0,.18-0.27,0.8,0.8,0,0,0,.07-0.32,0.78,0.78,0,0,0-.07-0.32A0.85,0.85,0,0,0,11.32,42a0.81,0.81,0,0,0-.65,0,0.85,0.85,0,0,0-.45.44,0.78,0.78,0,0,0-.07.32,0.8,0.8,0,0,0,.07.32,0.9,0.9,0,0,0,.18.27,0.83,0.83,0,0,0,.27.18A0.79,0.79,0,0,0,11,43.64Z" fill="#fff" stroke="#000" stroke-miterlimit="10" stroke-width="0.21"/><path d="M15.78,42.48a2,2,0,0,1-.11.67,1.67,1.67,0,0,1-.3.53,1.37,1.37,0,0,1-.45.35,1.28,1.28,0,0,1-.56.13A1.29,1.29,0,0,1,13.79,44a1.33,1.33,0,0,1-.45-0.35,1.7,1.7,0,0,1-.3-0.53,2.15,2.15,0,0,1,0-1.35,1.69,1.69,0,0,1,.3-0.53,1.37,1.37,0,0,1,.45-0.35,1.27,1.27,0,0,1,.56-0.13,1.25,1.25,0,0,1,.56.13,1.4,1.4,0,0,1,.45.35,1.66,1.66,0,0,1,.3.53A2,2,0,0,1,15.78,42.48Zm-0.62,0A1.67,1.67,0,0,0,15.1,42a1.12,1.12,0,0,0-.17-0.35,0.77,0.77,0,0,0-.25-0.23,0.65,0.65,0,0,0-.32-0.08,0.67,0.67,0,0,0-.33.08,0.78,0.78,0,0,0-.25.23,1.12,1.12,0,0,0-.17.35,1.81,1.81,0,0,0,0,.91,1.09,1.09,0,0,0,.17.35,0.79,0.79,0,0,0,.25.23,0.67,0.67,0,0,0,.33.08,0.65,0.65,0,0,0,.32-0.08,0.79,0.79,0,0,0,.25-0.23,1.09,1.09,0,0,0,.17-0.35A1.68,1.68,0,0,0,15.16,42.48Z" fill="#fff" stroke="#000" stroke-miterlimit="10" stroke-width="0.21"/><path d="M19.18,42.48a2,2,0,0,1-.11.67,1.67,1.67,0,0,1-.3.53,1.37,1.37,0,0,1-.45.35,1.28,1.28,0,0,1-.56.13A1.29,1.29,0,0,1,17.19,44a1.33,1.33,0,0,1-.45-0.35,1.7,1.7,0,0,1-.3-0.53,2.15,2.15,0,0,1,0-1.35,1.69,1.69,0,0,1,.3-0.53,1.37,1.37,0,0,1,.45-0.35,1.27,1.27,0,0,1,.56-0.13,1.25,1.25,0,0,1,.56.13,1.4,1.4,0,0,1,.45.35,1.66,1.66,0,0,1,.3.53A2,2,0,0,1,19.18,42.48Zm-0.62,0A1.67,1.67,0,0,0,18.5,42a1.12,1.12,0,0,0-.17-0.35,0.77,0.77,0,0,0-.25-0.23,0.65,0.65,0,0,0-.32-0.08,0.67,0.67,0,0,0-.33.08,0.78,0.78,0,0,0-.25.23A1.12,1.12,0,0,0,17,42a1.81,1.81,0,0,0,0,.91,1.09,1.09,0,0,0,.17.35,0.79,0.79,0,0,0,.25.23,0.67,0.67,0,0,0,.33.08,0.65,0.65,0,0,0,.32-0.08,0.79,0.79,0,0,0,.25-0.23,1.09,1.09,0,0,0,.17-0.35A1.68,1.68,0,0,0,18.56,42.48Z" fill="#fff" stroke="#000" stroke-miterlimit="10" stroke-width="0.21"/><path d="M41.41,43.56v0.55H39.29V43.56h0.79V41.62a0.69,0.69,0,0,1-.15.14l-0.23.13-0.27.1a0.87,0.87,0,0,1-.24,0V41.47a0.65,0.65,0,0,0,.26-0.07l0.28-.16L40,41.07a0.49,0.49,0,0,0,.12-0.13h0.63v2.62h0.7Z" fill="#fff" stroke="#000" stroke-miterlimit="10" stroke-width="0.21"/><path d="M44.61,43a1,1,0,0,1-.11.48,1.15,1.15,0,0,1-.31.37,1.4,1.4,0,0,1-.45.24,1.73,1.73,0,0,1-.54.08,1.65,1.65,0,0,1-.55-0.09,1.42,1.42,0,0,1-.45-0.25,1.18,1.18,0,0,1-.3-0.38,1.09,1.09,0,0,1-.11-0.48,0.85,0.85,0,0,1,.06-0.32A1,1,0,0,1,42,42.35a1.19,1.19,0,0,1,.22-0.21A1.38,1.38,0,0,1,42.48,42a1,1,0,0,1-.39-0.31,0.73,0.73,0,0,1-.16-0.46A0.87,0.87,0,0,1,42,40.78a1.11,1.11,0,0,1,.3-0.33,1.31,1.31,0,0,1,.41-0.21,1.51,1.51,0,0,1,.45-0.07,1.54,1.54,0,0,1,.45.07,1.39,1.39,0,0,1,.42.2,1.07,1.07,0,0,1,.3.33,0.87,0.87,0,0,1,.12.45,0.74,0.74,0,0,1-.16.47,1,1,0,0,1-.4.31,1.43,1.43,0,0,1,.26.15,1.05,1.05,0,0,1,.22.22,1.07,1.07,0,0,1,.15.27A0.93,0.93,0,0,1,44.61,43Zm-0.62,0a0.57,0.57,0,0,0-.07-0.29,0.71,0.71,0,0,0-.18-0.21,0.81,0.81,0,0,0-.26-0.13,1,1,0,0,0-.29,0,0.92,0.92,0,0,0-.29,0,0.77,0.77,0,0,0-.25.14,0.7,0.7,0,0,0-.17.21,0.59,0.59,0,0,0-.07.28,0.57,0.57,0,0,0,.07.28,0.68,0.68,0,0,0,.18.21,0.84,0.84,0,0,0,.25.13,0.87,0.87,0,0,0,.58,0,0.9,0.9,0,0,0,.25-0.14,0.7,0.7,0,0,0,.18-0.21A0.56,0.56,0,0,0,44,42.93Zm-1.45-1.68a0.44,0.44,0,0,0,.06.23,0.55,0.55,0,0,0,.16.17,0.79,0.79,0,0,0,.44.14,0.79,0.79,0,0,0,.24,0,0.69,0.69,0,0,0,.21-0.11,0.57,0.57,0,0,0,.16-0.17,0.45,0.45,0,0,0,.06-0.24A0.43,0.43,0,0,0,43.82,41a0.54,0.54,0,0,0-.15-0.17,0.64,0.64,0,0,0-.21-0.11,0.85,0.85,0,0,0-.25,0,0.79,0.79,0,0,0-.25,0,0.7,0.7,0,0,0-.21.11,0.51,0.51,0,0,0-.14.17A0.47,0.47,0,0,0,42.55,41.25Z" fill="#fff" stroke="#000" stroke-miterlimit="10" stroke-width="0.21"/><path d="M48,42.48a2,2,0,0,1-.11.67,1.67,1.67,0,0,1-.3.53,1.37,1.37,0,0,1-.45.35,1.28,1.28,0,0,1-.56.13A1.29,1.29,0,0,1,46,44a1.33,1.33,0,0,1-.45-0.35,1.7,1.7,0,0,1-.3-0.53,2.15,2.15,0,0,1,0-1.35,1.69,1.69,0,0,1,.3-0.53A1.37,1.37,0,0,1,46,40.92a1.27,1.27,0,0,1,.56-0.13,1.25,1.25,0,0,1,.56.13,1.4,1.4,0,0,1,.45.35,1.66,1.66,0,0,1,.3.53A2,2,0,0,1,48,42.48Zm-0.62,0A1.67,1.67,0,0,0,47.32,42a1.12,1.12,0,0,0-.17-0.35,0.77,0.77,0,0,0-.25-0.23,0.65,0.65,0,0,0-.32-0.08,0.67,0.67,0,0,0-.33.08,0.78,0.78,0,0,0-.25.23,1.12,1.12,0,0,0-.17.35,1.81,1.81,0,0,0,0,.91,1.09,1.09,0,0,0,.17.35,0.79,0.79,0,0,0,.25.23,0.67,0.67,0,0,0,.33.08,0.65,0.65,0,0,0,.32-0.08,0.79,0.79,0,0,0,.25-0.23,1.09,1.09,0,0,0,.17-0.35A1.68,1.68,0,0,0,47.37,42.48Z" fill="#fff" stroke="#000" stroke-miterlimit="10" stroke-width="0.21"/><path d="M51.4,42.48a2,2,0,0,1-.11.67,1.67,1.67,0,0,1-.3.53,1.37,1.37,0,0,1-.45.35,1.28,1.28,0,0,1-.56.13A1.29,1.29,0,0,1,49.41,44,1.33,1.33,0,0,1,49,43.69a1.7,1.7,0,0,1-.3-0.53,2.15,2.15,0,0,1,0-1.35,1.69,1.69,0,0,1,.3-0.53,1.37,1.37,0,0,1,.45-0.35A1.27,1.27,0,0,1,50,40.8a1.25,1.25,0,0,1,.56.13,1.4,1.4,0,0,1,.45.35,1.66,1.66,0,0,1,.3.53A2,2,0,0,1,51.4,42.48Zm-0.62,0A1.67,1.67,0,0,0,50.72,42a1.12,1.12,0,0,0-.17-0.35,0.77,0.77,0,0,0-.25-0.23A0.65,0.65,0,0,0,50,41.36a0.67,0.67,0,0,0-.33.08,0.78,0.78,0,0,0-.25.23,1.12,1.12,0,0,0-.17.35,1.81,1.81,0,0,0,0,.91,1.09,1.09,0,0,0,.17.35,0.79,0.79,0,0,0,.25.23,0.67,0.67,0,0,0,.33.08,0.65,0.65,0,0,0,.32-0.08,0.79,0.79,0,0,0,.25-0.23,1.09,1.09,0,0,0,.17-0.35A1.68,1.68,0,0,0,50.78,42.48Z" fill="#fff" stroke="#000" stroke-miterlimit="10" stroke-width="0.21"/><path d="M73.64,44.11a2.23,2.23,0,0,1,0-.43,1.18,1.18,0,0,1,.14-0.37A1.38,1.38,0,0,1,74.09,43a2.24,2.24,0,0,1,.44-0.31l0.37-.19,0.3-.17a0.88,0.88,0,0,0,.21-0.18,0.35,0.35,0,0,0,.08-0.22,0.43,0.43,0,0,0-.15-0.32,0.63,0.63,0,0,0-.44-0.14,0.87,0.87,0,0,0-.27,0,1,1,0,0,0-.23.11,1,1,0,0,0-.18.14l-0.14.15-0.39-.45,0.17-.15a1.77,1.77,0,0,1,.29-0.17,2.14,2.14,0,0,1,.39-0.14A1.83,1.83,0,0,1,75,40.89a1.56,1.56,0,0,1,.48.07,1.07,1.07,0,0,1,.36.19,0.81,0.81,0,0,1,.22.29,0.86,0.86,0,0,1,.08.36,0.78,0.78,0,0,1-.08.37,1.13,1.13,0,0,1-.21.28,1.39,1.39,0,0,1-.27.21l-0.27.15-0.26.13-0.29.17a2,2,0,0,0-.25.21,0.62,0.62,0,0,0-.16.24H76.2v0.55H73.64Z" fill="#fff" stroke="#000" stroke-miterlimit="10" stroke-width="0.21"/><path d="M78.93,43.56v0.55H76.82V43.56H77.6V41.62a0.68,0.68,0,0,1-.16.14l-0.23.13L77,42a0.88,0.88,0,0,1-.24,0V41.47A0.64,0.64,0,0,0,77,41.4l0.28-.16,0.24-.18a0.51,0.51,0,0,0,.12-0.13h0.63v2.62h0.7Z" fill="#fff" stroke="#000" stroke-miterlimit="10" stroke-width="0.21"/><path d="M82.19,42.48a2,2,0,0,1-.11.67,1.66,1.66,0,0,1-.3.53,1.37,1.37,0,0,1-.45.35,1.28,1.28,0,0,1-.56.13A1.3,1.3,0,0,1,80.2,44a1.32,1.32,0,0,1-.45-0.35,1.7,1.7,0,0,1-.3-0.53,2.15,2.15,0,0,1,0-1.35,1.69,1.69,0,0,1,.3-0.53,1.35,1.35,0,0,1,.45-0.35,1.27,1.27,0,0,1,.57-0.13,1.25,1.25,0,0,1,.56.13,1.41,1.41,0,0,1,.45.35,1.65,1.65,0,0,1,.3.53A2,2,0,0,1,82.19,42.48Zm-0.62,0A1.65,1.65,0,0,0,81.51,42a1.14,1.14,0,0,0-.17-0.35,0.78,0.78,0,0,0-.25-0.23,0.66,0.66,0,0,0-.32-0.08,0.67,0.67,0,0,0-.33.08,0.77,0.77,0,0,0-.26.23A1.14,1.14,0,0,0,80,42a1.82,1.82,0,0,0,0,.91,1.11,1.11,0,0,0,.17.35,0.79,0.79,0,0,0,.26.23,0.67,0.67,0,0,0,.33.08,0.66,0.66,0,0,0,.32-0.08,0.79,0.79,0,0,0,.25-0.23,1.11,1.11,0,0,0,.17-0.35A1.66,1.66,0,0,0,81.57,42.48Z" fill="#fff" stroke="#000" stroke-miterlimit="10" stroke-width="0.21"/><path d="M85.59,42.48a2,2,0,0,1-.11.67,1.66,1.66,0,0,1-.3.53,1.37,1.37,0,0,1-.45.35,1.28,1.28,0,0,1-.56.13A1.3,1.3,0,0,1,83.61,44a1.32,1.32,0,0,1-.45-0.35,1.7,1.7,0,0,1-.3-0.53,2.15,2.15,0,0,1,0-1.35,1.69,1.69,0,0,1,.3-0.53,1.35,1.35,0,0,1,.45-0.35,1.27,1.27,0,0,1,.57-0.13,1.25,1.25,0,0,1,.56.13,1.41,1.41,0,0,1,.45.35,1.65,1.65,0,0,1,.3.53A2,2,0,0,1,85.59,42.48Zm-0.62,0A1.65,1.65,0,0,0,84.91,42a1.14,1.14,0,0,0-.17-0.35,0.78,0.78,0,0,0-.25-0.23,0.66,0.66,0,0,0-.32-0.08,0.67,0.67,0,0,0-.33.08,0.77,0.77,0,0,0-.26.23,1.14,1.14,0,0,0-.17.35,1.82,1.82,0,0,0,0,.91,1.11,1.11,0,0,0,.17.35,0.79,0.79,0,0,0,.26.23,0.67,0.67,0,0,0,.33.08,0.66,0.66,0,0,0,.32-0.08,0.79,0.79,0,0,0,.25-0.23,1.11,1.11,0,0,0,.17-0.35A1.66,1.66,0,0,0,85,42.48Z" fill="#fff" stroke="#000" stroke-miterlimit="10" stroke-width="0.21"/><path d="M105.62,42.53l2.33-1.41v0.65l-1.45.9,1.45,0.88v0.68l-2.33-1.39v-0.3Z" fill="#fff" stroke="#000" stroke-miterlimit="10" stroke-width="0.21"/><path d="M109.86,44.11a2.23,2.23,0,0,1,0-.43A1.18,1.18,0,0,1,110,43.3a1.38,1.38,0,0,1,.27-0.33,2.24,2.24,0,0,1,.44-0.31l0.37-.19,0.3-.17a0.88,0.88,0,0,0,.21-0.18,0.35,0.35,0,0,0,.08-0.22,0.43,0.43,0,0,0-.15-0.32,0.63,0.63,0,0,0-.44-0.14,0.87,0.87,0,0,0-.27,0,1,1,0,0,0-.23.11,1,1,0,0,0-.18.14l-0.14.15-0.39-.45,0.17-.15a1.77,1.77,0,0,1,.29-0.17,2.14,2.14,0,0,1,.39-0.14,1.83,1.83,0,0,1,.47-0.06,1.56,1.56,0,0,1,.48.07,1.07,1.07,0,0,1,.36.19,0.81,0.81,0,0,1,.22.29,0.86,0.86,0,0,1,.08.36,0.78,0.78,0,0,1-.08.37,1.13,1.13,0,0,1-.21.28,1.39,1.39,0,0,1-.27.21l-0.27.15-0.26.13-0.29.17a2,2,0,0,0-.25.21,0.62,0.62,0,0,0-.16.24h1.83v0.55h-2.57Z" fill="#fff" stroke="#000" stroke-miterlimit="10" stroke-width="0.21"/><path d="M114.73,42.8a1,1,0,0,1,.32.12,0.86,0.86,0,0,1,.24.21,1,1,0,0,1,.16.29,1.12,1.12,0,0,1,.06.36,1.09,1.09,0,0,1-.1.47,1,1,0,0,1-.28.36,1.26,1.26,0,0,1-.44.23,1.89,1.89,0,0,1-.57.08,1.78,1.78,0,0,1-.74-0.15,1.25,1.25,0,0,1-.51-0.42l0.37-.42a1,1,0,0,0,.34.32,1.09,1.09,0,0,0,.53.12,0.89,0.89,0,0,0,.56-0.16,0.56,0.56,0,0,0,.2-0.47,0.62,0.62,0,0,0-.22-0.5,1,1,0,0,0-.65-0.18h-0.15V42.58H114a0.84,0.84,0,0,0,.57-0.17,0.56,0.56,0,0,0,.2-0.44,0.45,0.45,0,0,0-.18-0.39,0.79,0.79,0,0,0-.46-0.12,1,1,0,0,0-.5.12,0.89,0.89,0,0,0-.34.35l-0.38-.42a0.88,0.88,0,0,1,.21-0.24,1.5,1.5,0,0,1,.3-0.19,1.61,1.61,0,0,1,.37-0.12,1.92,1.92,0,0,1,.41,0,1.62,1.62,0,0,1,.5.07,1.24,1.24,0,0,1,.39.2,0.86,0.86,0,0,1,.25.31,0.91,0.91,0,0,1,.09.4,1,1,0,0,1,0,.32,0.93,0.93,0,0,1-.14.27,0.81,0.81,0,0,1-.22.2A0.78,0.78,0,0,1,114.73,42.8Z" fill="#fff" stroke="#000" stroke-miterlimit="10" stroke-width="0.21"/><path d="M118.84,42.48a2,2,0,0,1-.11.67,1.66,1.66,0,0,1-.3.53A1.37,1.37,0,0,1,118,44a1.28,1.28,0,0,1-.56.13,1.3,1.3,0,0,1-.57-0.12,1.32,1.32,0,0,1-.45-0.35,1.7,1.7,0,0,1-.3-0.53,2.15,2.15,0,0,1,0-1.35,1.68,1.68,0,0,1,.3-0.53,1.35,1.35,0,0,1,.45-0.35,1.27,1.27,0,0,1,.57-0.13,1.25,1.25,0,0,1,.56.13,1.41,1.41,0,0,1,.45.35,1.65,1.65,0,0,1,.3.53A2,2,0,0,1,118.84,42.48Zm-0.62,0a1.65,1.65,0,0,0-.06-0.45,1.14,1.14,0,0,0-.17-0.35,0.78,0.78,0,0,0-.25-0.23,0.66,0.66,0,0,0-.32-0.08,0.67,0.67,0,0,0-.33.08,0.77,0.77,0,0,0-.26.23,1.14,1.14,0,0,0-.17.35,1.82,1.82,0,0,0,0,.91,1.11,1.11,0,0,0,.17.35,0.79,0.79,0,0,0,.26.23,0.67,0.67,0,0,0,.33.08,0.66,0.66,0,0,0,.32-0.08,0.79,0.79,0,0,0,.25-0.23,1.11,1.11,0,0,0,.17-0.35A1.66,1.66,0,0,0,118.22,42.48Z" fill="#fff" stroke="#000" stroke-miterlimit="10" stroke-width="0.21"/><path d="M122.25,42.48a2,2,0,0,1-.11.67,1.66,1.66,0,0,1-.3.53,1.37,1.37,0,0,1-.45.35,1.28,1.28,0,0,1-.56.13,1.3,1.3,0,0,1-.57-0.12,1.32,1.32,0,0,1-.45-0.35,1.7,1.7,0,0,1-.3-0.53,2.15,2.15,0,0,1,0-1.35,1.69,1.69,0,0,1,.3-0.53,1.35,1.35,0,0,1,.45-0.35,1.27,1.27,0,0,1,.57-0.13,1.25,1.25,0,0,1,.56.13,1.41,1.41,0,0,1,.45.35,1.65,1.65,0,0,1,.3.53A2,2,0,0,1,122.25,42.48Zm-0.62,0a1.65,1.65,0,0,0-.06-0.45,1.14,1.14,0,0,0-.17-0.35,0.78,0.78,0,0,0-.25-0.23,0.66,0.66,0,0,0-.32-0.08,0.67,0.67,0,0,0-.33.08,0.77,0.77,0,0,0-.26.23,1.14,1.14,0,0,0-.17.35,1.82,1.82,0,0,0,0,.91,1.11,1.11,0,0,0,.17.35,0.79,0.79,0,0,0,.26.23,0.67,0.67,0,0,0,.33.08,0.66,0.66,0,0,0,.32-0.08,0.79,0.79,0,0,0,.25-0.23,1.11,1.11,0,0,0,.17-0.35A1.66,1.66,0,0,0,121.63,42.48Z" fill="#fff" stroke="#000" stroke-miterlimit="10" stroke-width="0.21"/><path d="M116.76,38.46H8.24A7.75,7.75,0,0,1,.5,30.72V19.22a7.75,7.75,0,0,1,7.74-7.74H116.76a7.75,7.75,0,0,1,7.74,7.74v11.5A7.75,7.75,0,0,1,116.76,38.46ZM8.24,12.85a6.37,6.37,0,0,0-6.37,6.37v11.5a6.37,6.37,0,0,0,6.37,6.37H116.76a6.37,6.37,0,0,0,6.37-6.37V19.22a6.37,6.37,0,0,0-6.37-6.37H8.24Z" fill="#fff"/><g clip-path="url(#a)"><rect x="106.77" y="20.73" width="25.72" height="8.37" transform="translate(144.54 -94.72) rotate(90)" fill="#be0000"/><rect x="98.61" y="20.73" width="25.72" height="8.37" transform="translate(136.38 -86.56) rotate(90)" fill="#d80000"/><rect x="90.45" y="20.73" width="25.72" height="8.37" transform="translate(128.22 -78.4) rotate(90)" fill="#f20000"/><rect x="82.29" y="20.73" width="25.72" height="8.37" transform="translate(120.06 -70.23) rotate(90)" fill="#ff3000"/><rect x="74.12" y="20.73" width="25.72" height="8.37" transform="translate(111.9 -62.07) rotate(90)" fill="#ff7900"/><rect x="65.96" y="20.73" width="25.72" height="8.37" transform="translate(103.73 -53.91) rotate(90)" fill="#ffb24d"/><rect x="57.8" y="20.73" width="25.72" height="8.37" transform="translate(95.57 -45.75) rotate(90)" fill="#fce155"/><rect x="49.64" y="20.73" width="25.72" height="8.37" transform="translate(87.41 -37.59) rotate(90)" fill="#f7ff5d"/><rect x="41.48" y="20.73" width="25.72" height="8.37" transform="translate(79.25 -29.43) rotate(90)" fill="#ddff73"/><rect x="33.32" y="20.73" width="25.72" height="8.37" transform="translate(71.09 -21.27) rotate(90)" fill="#c4f986"/><rect x="25.16" y="20.73" width="25.72" height="8.37" transform="translate(62.93 -13.11) rotate(90)" fill="#abed98"/><rect x="17" y="20.73" width="25.72" height="8.37" transform="translate(54.77 -4.94) rotate(90)" fill="#8cd9a6"/><rect x="8.83" y="20.73" width="25.72" height="8.37" transform="translate(46.61 3.22) rotate(90)" fill="#6abaae"/><rect x="0.67" y="20.73" width="25.72" height="8.37" transform="translate(38.44 11.38) rotate(90)" fill="#4a9ab5"/><rect x="-7.49" y="20.73" width="25.72" height="8.37" transform="translate(30.28 19.54) rotate(90)" fill="#3279bd"/></g><path d="M46.25,10.23L45.33,8.9l-0.48.45v0.88H44.24v-4h0.61V8.75l1.33-1.41h0.67L45.72,8.55l1.19,1.68H46.25Z" fill="#fff" stroke="#000" stroke-miterlimit="10" stroke-width="0.21"/><path d="M48.67,6.31h0.59l0.48,1.34,0.49-1.34h0.58L50.14,8.07l0.59,1.45L52,6.3h0.68L51,10.23H50.48L49.74,8.47,49,10.23H48.48L46.85,6.3h0.68l1.23,3.21,0.59-1.45Z" fill="#fff" stroke="#000" stroke-miterlimit="10" stroke-width="0.21"/><path d="M55.62,10.23H55V8.61A1,1,0,0,0,54.87,8a0.47,0.47,0,0,0-.41-0.19,0.7,0.7,0,0,0-.25,0A0.92,0.92,0,0,0,54,8a1.08,1.08,0,0,0-.2.22,0.91,0.91,0,0,0-.13.27v1.72H53v-4h0.61V7.92a1.2,1.2,0,0,1,.45-0.47,1.22,1.22,0,0,1,.62-0.17,0.91,0.91,0,0,1,.45.1,0.78,0.78,0,0,1,.28.26,1,1,0,0,1,.15.37,2.39,2.39,0,0,1,0,.45v1.77Z" fill="#fff" stroke="#000" stroke-miterlimit="10" stroke-width="0.21"/><path d="M59.49,6.3l-2.7,3.93H56.11l2.7-3.93h0.68Z" fill="#fff" stroke="#000" stroke-miterlimit="10" stroke-width="0.21"/><path d="M64.31,10.23H63.7V8.61A1,1,0,0,0,63.57,8a0.45,0.45,0,0,0-.39-0.19A0.69,0.69,0,0,0,62.7,8a1.07,1.07,0,0,0-.31.5v1.72H61.79V8.61A1,1,0,0,0,61.65,8a0.44,0.44,0,0,0-.38-0.19A0.71,0.71,0,0,0,60.8,8a1,1,0,0,0-.31.49v1.72H59.88V7.33h0.55V7.92a1.22,1.22,0,0,1,.45-0.47,1.24,1.24,0,0,1,.64-0.16,0.82,0.82,0,0,1,.57.19,0.81,0.81,0,0,1,.26.47,1.31,1.31,0,0,1,.46-0.49,1.19,1.19,0,0,1,.63-0.17,0.84,0.84,0,0,1,.42.1,0.75,0.75,0,0,1,.27.26,1.08,1.08,0,0,1,.14.37,2.57,2.57,0,0,1,0,.45v1.77Z" fill="#fff" stroke="#000" stroke-miterlimit="10" stroke-width="0.21"/><path d="M64.87,10.23a2.22,2.22,0,0,1,0-.43A1.18,1.18,0,0,1,65,9.43a1.36,1.36,0,0,1,.27-0.33,2.24,2.24,0,0,1,.44-0.31l0.37-.19,0.3-.17a0.88,0.88,0,0,0,.21-0.18A0.35,0.35,0,0,0,66.71,8a0.43,0.43,0,0,0-.15-0.32,0.63,0.63,0,0,0-.44-0.14,0.86,0.86,0,0,0-.27,0,1.08,1.08,0,0,0-.23.1,1,1,0,0,0-.18.14L65.3,8l-0.39-.45,0.17-.15a1.73,1.73,0,0,1,.29-0.17,2.14,2.14,0,0,1,.39-0.14A1.79,1.79,0,0,1,66.23,7a1.54,1.54,0,0,1,.48.07,1.09,1.09,0,0,1,.36.19,0.82,0.82,0,0,1,.22.29,0.86,0.86,0,0,1,.08.36,0.78,0.78,0,0,1-.08.37,1.14,1.14,0,0,1-.21.28,1.35,1.35,0,0,1-.27.21l-0.27.15-0.26.13L66,9.23a2,2,0,0,0-.25.21,0.62,0.62,0,0,0-.16.24h1.83v0.55H64.87Z" fill="#fff" stroke="#000" stroke-miterlimit="10" stroke-width="0.21"/><path d="M71.21,6.3l-2.7,3.93H67.84l2.7-3.93h0.68Z" fill="#fff" stroke="#000" stroke-miterlimit="10" stroke-width="0.21"/><path d="M72.31,10.29a1.09,1.09,0,0,1-.39-0.07A1,1,0,0,1,71.6,10a0.9,0.9,0,0,1-.2-0.29,0.85,0.85,0,0,1-.08-0.36A0.77,0.77,0,0,1,71.41,9a0.85,0.85,0,0,1,.25-0.29,1.21,1.21,0,0,1,.39-0.19,1.74,1.74,0,0,1,.5-0.07,2.28,2.28,0,0,1,.4,0,2,2,0,0,1,.36.1V8.4a0.67,0.67,0,0,0-.18-0.5,0.72,0.72,0,0,0-.53-0.18,1.27,1.27,0,0,0-.46.09,2.3,2.3,0,0,0-.46.25L71.5,7.66a2.05,2.05,0,0,1,1.16-.38,1.33,1.33,0,0,1,.93.3,1.13,1.13,0,0,1,.33.88v1a0.16,0.16,0,0,0,.16.2v0.52l-0.15,0H73.81a0.39,0.39,0,0,1-.27-0.09,0.38,0.38,0,0,1-.12-0.23l0-.18a1.29,1.29,0,0,1-.48.39A1.4,1.4,0,0,1,72.31,10.29Zm0.17-.45a1.1,1.1,0,0,0,.42-0.08,0.73,0.73,0,0,0,.31-0.22,0.28,0.28,0,0,0,.12-0.21V8.94A1.83,1.83,0,0,0,73,8.85a1.81,1.81,0,0,0-.34,0,0.93,0.93,0,0,0-.54.14,0.43,0.43,0,0,0-.21.37,0.47,0.47,0,0,0,.16.36A0.58,0.58,0,0,0,72.47,9.84Z" fill="#fff" stroke="#000" stroke-miterlimit="10" stroke-width="0.21"/><path d="M77.26,10.23H76.65V8.61A1.06,1.06,0,0,0,76.52,8a0.44,0.44,0,0,0-.38-0.19,0.75,0.75,0,0,0-.27,0,0.94,0.94,0,0,0-.25.14,1.14,1.14,0,0,0-.21.22,1,1,0,0,0-.14.27v1.72H74.66V7.33h0.55V7.92a1.18,1.18,0,0,1,.48-0.46,1.45,1.45,0,0,1,.7-0.17,0.86,0.86,0,0,1,.43.09,0.71,0.71,0,0,1,.26.26,1.12,1.12,0,0,1,.14.38,2.48,2.48,0,0,1,0,.45v1.77Zm-0.9-3.41a0.62,0.62,0,0,1-.22,0L76,6.71,75.8,6.62a0.39,0.39,0,0,0-.17,0,0.24,0.24,0,0,0-.15,0,0.29,0.29,0,0,0-.08.09,0.27,0.27,0,0,0,0,.09V6.85H75a0.69,0.69,0,0,1,0-.15,0.77,0.77,0,0,1,.1-0.21,0.72,0.72,0,0,1,.18-0.19,0.47,0.47,0,0,1,.29-0.08,0.54,0.54,0,0,1,.21,0L76,6.34l0.16,0.08a0.4,0.4,0,0,0,.18,0,0.3,0.3,0,0,0,.16,0,0.29,0.29,0,0,0,.09-0.09,0.29,0.29,0,0,0,0-.09,0.3,0.3,0,0,0,0-.05H77a0.63,0.63,0,0,1,0,.14,0.82,0.82,0,0,1-.1.22,0.73,0.73,0,0,1-.19.2A0.52,0.52,0,0,1,76.36,6.82Z" fill="#fff" stroke="#000" stroke-miterlimit="10" stroke-width="0.21"/><path d="M79.27,10.29a1.51,1.51,0,0,1-.62-0.12,1.42,1.42,0,0,1-.77-0.81,1.63,1.63,0,0,1,0-1.15,1.41,1.41,0,0,1,.3-0.48,1.47,1.47,0,0,1,.47-0.33,1.52,1.52,0,0,1,1.7.33,1.42,1.42,0,0,1,.3.48,1.61,1.61,0,0,1,0,1.15,1.42,1.42,0,0,1-.3.48A1.47,1.47,0,0,1,79.27,10.29Zm-0.86-1.5a1.11,1.11,0,0,0,.07.39,1,1,0,0,0,.18.31,0.86,0.86,0,0,0,.27.21,0.81,0.81,0,0,0,.68,0,0.83,0.83,0,0,0,.27-0.21,1,1,0,0,0,.18-0.31,1.16,1.16,0,0,0,0-.77,1,1,0,0,0-.18-0.31,0.83,0.83,0,0,0-.27-0.21,0.79,0.79,0,0,0-.34-0.07,0.75,0.75,0,0,0-.33.08,0.86,0.86,0,0,0-.27.21,1,1,0,0,0-.19.31A1,1,0,0,0,78.41,8.79Z" fill="#fff" stroke="#000" stroke-miterlimit="10" stroke-width="0.21"/></svg>