<svg xmlns="http://www.w3.org/2000/svg" xmlns:xlink="http://www.w3.org/1999/xlink" viewBox="0 0 125 50"><defs><clipPath id="a"><rect x="0.69" y="15.76" width="122.62" height="25.61" rx="7.05" ry="7.05" fill="none"/></clipPath></defs><title>escala e iconos</title><path d="M26.39,3.28H25.08V6.66H24.45V3.28H23.14V2.73h3.25V3.28Z" fill="#fff"/><path d="M25.18,6.77H24.35V3.38H23V2.62h3.46V3.38H25.18V6.77Zm-0.63-.21H25V3.17h1.31V2.83h-3V3.17h1.31V6.56Z"/><path d="M27.52,6.72A1.53,1.53,0,0,1,26.9,6.6a1.43,1.43,0,0,1-.47-0.32,1.46,1.46,0,0,1-.3-0.48A1.54,1.54,0,0,1,26,5.22a1.56,1.56,0,0,1,.11-0.58,1.49,1.49,0,0,1,.3-0.48,1.42,1.42,0,0,1,.47-0.33,1.56,1.56,0,0,1,.62-0.12,1.48,1.48,0,0,1,.61.12,1.43,1.43,0,0,1,.47.32,1.38,1.38,0,0,1,.3.47,1.56,1.56,0,0,1,.1.56s0,0.09,0,.13v0.1H26.67a1,1,0,0,0,.09.35A0.92,0.92,0,0,0,27,6a0.85,0.85,0,0,0,.27.17,0.84,0.84,0,0,0,.32.06l0.24,0A0.89,0.89,0,0,0,28,6.15,0.78,0.78,0,0,0,28.18,6a0.68,0.68,0,0,0,.12-0.18L28.82,6a1.21,1.21,0,0,1-.5.54A1.54,1.54,0,0,1,27.52,6.72ZM28.4,5a1,1,0,0,0-.09-0.34,0.87,0.87,0,0,0-.19-0.26,0.85,0.85,0,0,0-.27-0.17,0.9,0.9,0,0,0-.33-0.06,0.86,0.86,0,0,0-.59.23,0.85,0.85,0,0,0-.19.26,1,1,0,0,0-.09.34H28.4Z" fill="#fff"/><path d="M27.52,6.82a1.65,1.65,0,0,1-.66-0.13,1.54,1.54,0,0,1-.51-0.35A1.58,1.58,0,0,1,26,5.84a1.64,1.64,0,0,1-.11-0.61A1.67,1.67,0,0,1,26,4.6a1.59,1.59,0,0,1,.33-0.51,1.53,1.53,0,0,1,.51-0.35,1.74,1.74,0,0,1,1.32,0,1.57,1.57,0,0,1,.5.35,1.5,1.5,0,0,1,.32.51,1.66,1.66,0,0,1,.11.6s0,0.09,0,.13,0,0.08,0,.1V5.52H26.79a0.81,0.81,0,0,0,.07.2A0.82,0.82,0,0,0,27,6a0.76,0.76,0,0,0,.24.15,0.81,0.81,0,0,0,.5,0l0.19-.08a0.68,0.68,0,0,0,.16-0.12,0.58,0.58,0,0,0,.1-0.16l0-.08L29,5.91l0,0.11a1.31,1.31,0,0,1-.54.58A1.64,1.64,0,0,1,27.52,6.82Zm0-3a1.46,1.46,0,0,0-.58.11,1.32,1.32,0,0,0-.44.3,1.4,1.4,0,0,0-.28.45,1.46,1.46,0,0,0-.1.54,1.44,1.44,0,0,0,.1.54,1.36,1.36,0,0,0,.28.44,1.33,1.33,0,0,0,.44.3,1.42,1.42,0,0,0,.57.11,1.44,1.44,0,0,0,.75-0.19A1.16,1.16,0,0,0,28.67,6l-0.32-.09a0.77,0.77,0,0,1-.1.13,0.87,0.87,0,0,1-.2.16,1,1,0,0,1-.24.1,1,1,0,0,1-.63,0,1,1,0,0,1-.3-0.2,1,1,0,0,1-.22-0.3,1.1,1.1,0,0,1-.1-0.39V5.31H28.9s0-.07,0-0.11a1.47,1.47,0,0,0-.1-0.53,1.28,1.28,0,0,0-.27-0.44,1.32,1.32,0,0,0-.44-0.3A1.38,1.38,0,0,0,27.52,3.82Zm1,1.28h-2V5a1.12,1.12,0,0,1,.1-0.37,0.94,0.94,0,0,1,.51-0.49,1,1,0,0,1,.73,0,1,1,0,0,1,.31.19,1,1,0,0,1,.21.29,1.09,1.09,0,0,1,.1.37V5.1Zm-1.75-.21h1.51a0.8,0.8,0,0,0-.06-0.19A0.77,0.77,0,0,0,28,4.47a0.75,0.75,0,0,0-.24-0.15,0.77,0.77,0,0,0-.81.15,0.75,0.75,0,0,0-.17.23A0.89,0.89,0,0,0,26.77,4.89Z"/><path d="M33.94,6.66H33.33V5a1,1,0,0,0-.13-0.59,0.44,0.44,0,0,0-.39-0.19,0.69,0.69,0,0,0-.47.19,1.07,1.07,0,0,0-.31.5V6.66H31.41V5a1,1,0,0,0-.13-0.6,0.44,0.44,0,0,0-.38-0.19,0.71,0.71,0,0,0-.48.19,1,1,0,0,0-.31.49V6.66H29.5V3.76h0.55V4.35a1.22,1.22,0,0,1,.45-0.47,1.24,1.24,0,0,1,.64-0.16,0.81,0.81,0,0,1,.57.19,0.8,0.8,0,0,1,.26.47,1.31,1.31,0,0,1,.46-0.49,1.18,1.18,0,0,1,.63-0.17,0.85,0.85,0,0,1,.42.1,0.75,0.75,0,0,1,.27.26,1.08,1.08,0,0,1,.14.37,2.57,2.57,0,0,1,0,.45V6.66Z" fill="#fff"/><path d="M34,6.77H33.22V5a1,1,0,0,0-.11-0.53,0.34,0.34,0,0,0-.3-0.15,0.59,0.59,0,0,0-.4.17,1,1,0,0,0-.27.43V6.77H31.31V5A1,1,0,0,0,31.2,4.5a0.34,0.34,0,0,0-.3-0.14,0.6,0.6,0,0,0-.41.16,1,1,0,0,0-.28.43V6.77H29.4V3.66h0.76V4a1.31,1.31,0,0,1,.3-0.24,1.35,1.35,0,0,1,.69-0.18,0.87,0.87,0,0,1,.86.52,1.35,1.35,0,0,1,.37-0.34,1.28,1.28,0,0,1,.69-0.18,1,1,0,0,1,.48.11,0.86,0.86,0,0,1,.31.29,1.2,1.2,0,0,1,.15.41,2.7,2.7,0,0,1,0,.47V6.77Zm-0.61-.21h0.4V4.89a2.46,2.46,0,0,0,0-.43,0.94,0.94,0,0,0-.12-0.34,0.64,0.64,0,0,0-.23-0.22,0.75,0.75,0,0,0-.37-0.08,1.07,1.07,0,0,0-.58.16,1.21,1.21,0,0,0-.42.45l-0.14.25-0.05-.29A0.7,0.7,0,0,0,31.65,4a0.72,0.72,0,0,0-.5-0.16,1.14,1.14,0,0,0-.59.15,1.12,1.12,0,0,0-.41.43L30,4.74V3.87H29.61V6.56H30V4.91a1.14,1.14,0,0,1,.34-0.54,0.81,0.81,0,0,1,.54-0.21,0.54,0.54,0,0,1,.47.23,1.13,1.13,0,0,1,.15.66V6.56h0.4V4.91a1.18,1.18,0,0,1,.34-0.54,0.8,0.8,0,0,1,.54-0.22,0.55,0.55,0,0,1,.47.23,1.12,1.12,0,0,1,.15.65V6.56Z"/><path d="M36.29,6.72a1.13,1.13,0,0,1-.62-0.17,1.24,1.24,0,0,1-.42-0.43V7.84H34.64V3.76h0.54V4.28a1.27,1.27,0,0,1,.43-0.42,1.15,1.15,0,0,1,.6-0.16,1.23,1.23,0,0,1,.55.12,1.37,1.37,0,0,1,.43.33,1.51,1.51,0,0,1,.29.48,1.6,1.6,0,0,1,.1.57,1.81,1.81,0,0,1-.09.59,1.46,1.46,0,0,1-.27.48,1.31,1.31,0,0,1-.41.32A1.13,1.13,0,0,1,36.29,6.72Zm-0.2-.52a0.75,0.75,0,0,0,.35-0.08,0.85,0.85,0,0,0,.27-0.22,1,1,0,0,0,.17-0.32,1.13,1.13,0,0,0,.06-0.37,1,1,0,0,0-.26-0.69,0.85,0.85,0,0,0-.29-0.21A0.82,0.82,0,0,0,36,4.24a0.72,0.72,0,0,0-.24,0,1,1,0,0,0-.43.3,0.6,0.6,0,0,0-.12.22V5.57a1.15,1.15,0,0,0,.14.25,1.1,1.1,0,0,0,.2.2,1,1,0,0,0,.24.13A0.71,0.71,0,0,0,36.09,6.2Z" fill="#fff"/><path d="M35.35,7.95H34.54V3.66h0.74V4a1.41,1.41,0,0,1,.27-0.21,1.36,1.36,0,0,1,1.24,0,1.5,1.5,0,0,1,.46.35,1.64,1.64,0,0,1,.31.51,1.73,1.73,0,0,1,.11.61,1.93,1.93,0,0,1-.1.62,1.56,1.56,0,0,1-.29.51,1.42,1.42,0,0,1-.44.35,1.31,1.31,0,0,1-1.24-.05,1.39,1.39,0,0,1-.26-0.21V7.95Zm-0.61-.21h0.4v-2l0.19,0.33a1.13,1.13,0,0,0,.39.4,1.1,1.1,0,0,0,1,0,1.22,1.22,0,0,0,.38-0.3,1.35,1.35,0,0,0,.25-0.44,1.71,1.71,0,0,0,.09-0.56,1.5,1.5,0,0,0-.1-0.53,1.42,1.42,0,0,0-.27-0.44,1.29,1.29,0,0,0-.4-0.3,1.11,1.11,0,0,0-1.44.41l-0.19.3V3.87H34.74V7.74ZM36.09,6.3a0.81,0.81,0,0,1-.3-0.06,1.07,1.07,0,0,1-.26-0.15,1.19,1.19,0,0,1-.22-0.22,1.24,1.24,0,0,1-.16-0.27V4.78a0.72,0.72,0,0,1,.14-0.26,1.08,1.08,0,0,1,.48-0.33,0.88,0.88,0,0,1,.68,0,1,1,0,0,1,.32.23A1.1,1.1,0,0,1,37,4.8a1.12,1.12,0,0,1,.08.41,1.24,1.24,0,0,1-.07.4,1.13,1.13,0,0,1-.19.35,1,1,0,0,1-.3.25A0.86,0.86,0,0,1,36.09,6.3Zm-0.73-.76a1,1,0,0,0,.12.21,1,1,0,0,0,.18.18,0.86,0.86,0,0,0,.21.12,0.64,0.64,0,0,0,.53,0,0.75,0.75,0,0,0,.24-0.2,0.9,0.9,0,0,0,.16-0.28,1,1,0,0,0,.06-0.33,0.9,0.9,0,0,0-.06-0.34,0.93,0.93,0,0,0-.17-0.28,0.74,0.74,0,0,0-.25-0.18,0.66,0.66,0,0,0-.53,0,0.85,0.85,0,0,0-.21.11,0.87,0.87,0,0,0-.17.16,0.5,0.5,0,0,0-.09.17V5.54Z"/><path d="M39.43,6.72a1.53,1.53,0,0,1-.61-0.12,1.43,1.43,0,0,1-.47-0.32A1.46,1.46,0,0,1,38,5.8a1.54,1.54,0,0,1-.11-0.58A1.56,1.56,0,0,1,38,4.64a1.49,1.49,0,0,1,.3-0.48,1.42,1.42,0,0,1,.47-0.33,1.56,1.56,0,0,1,.62-0.12,1.48,1.48,0,0,1,.61.12,1.43,1.43,0,0,1,.47.32,1.38,1.38,0,0,1,.3.47,1.56,1.56,0,0,1,.1.56s0,0.09,0,.13v0.1H38.58a1,1,0,0,0,.09.35,0.92,0.92,0,0,0,.19.27,0.85,0.85,0,0,0,.27.17,0.84,0.84,0,0,0,.32.06l0.24,0a0.89,0.89,0,0,0,.22-0.09A0.78,0.78,0,0,0,40.09,6a0.68,0.68,0,0,0,.12-0.18L40.74,6a1.21,1.21,0,0,1-.5.54A1.54,1.54,0,0,1,39.43,6.72ZM40.32,5a1,1,0,0,0-.09-0.34A0.87,0.87,0,0,0,40,4.39a0.85,0.85,0,0,0-.27-0.17,0.9,0.9,0,0,0-.33-0.06,0.86,0.86,0,0,0-.59.23,0.85,0.85,0,0,0-.19.26,1,1,0,0,0-.09.34h1.75Z" fill="#fff"/><path d="M39.43,6.82a1.65,1.65,0,0,1-.66-0.13,1.54,1.54,0,0,1-.51-0.35,1.58,1.58,0,0,1-.33-0.51,1.64,1.64,0,0,1-.11-0.61,1.67,1.67,0,0,1,.11-0.62,1.59,1.59,0,0,1,.33-0.51,1.53,1.53,0,0,1,.51-0.35,1.74,1.74,0,0,1,1.32,0,1.57,1.57,0,0,1,.5.35,1.5,1.5,0,0,1,.32.51,1.66,1.66,0,0,1,.11.6s0,0.09,0,.13,0,0.08,0,.1V5.52H38.7a0.81,0.81,0,0,0,.07.2,0.82,0.82,0,0,0,.17.24,0.76,0.76,0,0,0,.24.15,0.81,0.81,0,0,0,.5,0l0.19-.08A0.68,0.68,0,0,0,40,5.94a0.58,0.58,0,0,0,.1-0.16l0-.08,0.72,0.21,0,0.11a1.31,1.31,0,0,1-.54.58A1.64,1.64,0,0,1,39.43,6.82Zm0-3a1.46,1.46,0,0,0-.58.11,1.32,1.32,0,0,0-.44.3,1.4,1.4,0,0,0-.28.45,1.46,1.46,0,0,0-.1.54,1.44,1.44,0,0,0,.1.54,1.36,1.36,0,0,0,.28.44,1.33,1.33,0,0,0,.44.3,1.42,1.42,0,0,0,.57.11,1.44,1.44,0,0,0,.75-0.19A1.16,1.16,0,0,0,40.58,6l-0.32-.09a0.77,0.77,0,0,1-.1.13,0.87,0.87,0,0,1-.2.16,1,1,0,0,1-.24.1,1,1,0,0,1-.63,0,1,1,0,0,1-.3-0.2,1,1,0,0,1-.22-0.3,1.1,1.1,0,0,1-.1-0.39V5.31h2.34s0-.07,0-0.11a1.47,1.47,0,0,0-.1-0.53,1.28,1.28,0,0,0-.27-0.44A1.32,1.32,0,0,0,40,3.93,1.38,1.38,0,0,0,39.44,3.82Zm1,1.28h-2V5a1.12,1.12,0,0,1,.1-0.37,0.94,0.94,0,0,1,.51-0.49,1,1,0,0,1,.73,0,1,1,0,0,1,.31.19,1,1,0,0,1,.21.29,1.09,1.09,0,0,1,.1.37V5.1Zm-1.75-.21h1.51a0.8,0.8,0,0,0-.06-0.19A0.77,0.77,0,0,0,40,4.47a0.75,0.75,0,0,0-.24-0.15,0.77,0.77,0,0,0-.81.15,0.75,0.75,0,0,0-.17.23A0.89,0.89,0,0,0,38.68,4.89Z"/><path d="M43,4.29a1.37,1.37,0,0,0-.63.16,0.86,0.86,0,0,0-.39.44V6.66H41.42V3.76H42V4.41a1.35,1.35,0,0,1,.39-0.48,1,1,0,0,1,.52-0.2H43V4.29Z" fill="#fff"/><path d="M42.13,6.77H41.31V3.66h0.77v0.4a1.33,1.33,0,0,1,.22-0.21,1.06,1.06,0,0,1,.58-0.22h0.18l0.08,0V4.39h-0.1a1.28,1.28,0,0,0-.58.15,0.76,0.76,0,0,0-.34.37V6.77Zm-0.61-.21h0.4V4.85a1,1,0,0,1,.44-0.49,1.44,1.44,0,0,1,.58-0.17V3.84H42.89a0.86,0.86,0,0,0-.46.18,1.23,1.23,0,0,0-.36.44l-0.2.39v-1H41.52V6.56Z"/><path d="M44.22,6.72a1.11,1.11,0,0,1-.39-0.07,1,1,0,0,1-.31-0.19,0.91,0.91,0,0,1-.2-0.29,0.85,0.85,0,0,1-.08-0.36,0.77,0.77,0,0,1,.09-0.37,0.86,0.86,0,0,1,.25-0.29A1.19,1.19,0,0,1,44,5a1.72,1.72,0,0,1,.5-0.07,2.32,2.32,0,0,1,.4,0,2,2,0,0,1,.36.1V4.83A0.67,0.67,0,0,0,45,4.33a0.72,0.72,0,0,0-.53-0.18,1.26,1.26,0,0,0-.46.09,2.28,2.28,0,0,0-.46.25l-0.19-.39a2.06,2.06,0,0,1,1.16-.38,1.33,1.33,0,0,1,.93.3,1.13,1.13,0,0,1,.33.88v1a0.16,0.16,0,0,0,.16.2V6.66l-0.15,0H45.72a0.39,0.39,0,0,1-.27-0.09,0.38,0.38,0,0,1-.12-0.23l0-.18a1.29,1.29,0,0,1-.48.39A1.4,1.4,0,0,1,44.22,6.72Zm0.17-.45a1.09,1.09,0,0,0,.42-0.08A0.71,0.71,0,0,0,45.11,6a0.28,0.28,0,0,0,.12-0.21V5.37a1.92,1.92,0,0,0-.33-0.09,1.81,1.81,0,0,0-.34,0,0.93,0.93,0,0,0-.54.14,0.43,0.43,0,0,0-.21.37,0.47,0.47,0,0,0,.16.36A0.58,0.58,0,0,0,44.39,6.27Z" fill="#fff"/><path d="M44.22,6.82a1.21,1.21,0,0,1-.43-0.07,1.09,1.09,0,0,1-.35-0.21,1,1,0,0,1-.23-0.32,1,1,0,0,1-.08-0.4,0.89,0.89,0,0,1,.1-0.42,1,1,0,0,1,.28-0.32,1.29,1.29,0,0,1,.42-0.2,2.1,2.1,0,0,1,.95,0l0.24,0.06V4.83A0.57,0.57,0,0,0,45,4.4a0.61,0.61,0,0,0-.45-0.15,1.18,1.18,0,0,0-.42.08,2.22,2.22,0,0,0-.44.24l-0.1.07-0.28-.58,0.08,0a2.17,2.17,0,0,1,1.22-.39,1.43,1.43,0,0,1,1,.33,1.23,1.23,0,0,1,.37,1v1C45.94,6,46,6,46,6h0.1V6.75L46,6.77l-0.16,0a0.61,0.61,0,0,1-.48-0.11,0.48,0.48,0,0,1-.14-0.25,1.39,1.39,0,0,1-.36.24A1.51,1.51,0,0,1,44.22,6.82ZM44.47,5a1.61,1.61,0,0,0-.47.06,1.09,1.09,0,0,0-.36.17,0.76,0.76,0,0,0-.22.25,0.67,0.67,0,0,0-.08.32,0.75,0.75,0,0,0,.07.32,0.81,0.81,0,0,0,.18.26,0.87,0.87,0,0,0,.28.17,1.24,1.24,0,0,0,.92-0.06,1.2,1.2,0,0,0,.44-0.36l0.16-.21,0,0.45a0.27,0.27,0,0,0,.09.16,0.44,0.44,0,0,0,.32.06H45.9V6.23a0.28,0.28,0,0,1-.16-0.28v-1a1,1,0,0,0-.3-0.8,1.24,1.24,0,0,0-.86-0.28,1.93,1.93,0,0,0-1,.31l0.1,0.2A2.27,2.27,0,0,1,44,4.14,1.37,1.37,0,0,1,44.52,4a0.82,0.82,0,0,1,.6.21,0.77,0.77,0,0,1,.21.58V5.18l-0.14-.05A1.87,1.87,0,0,0,44.85,5,2.2,2.2,0,0,0,44.47,5ZM44.39,6.37a0.68,0.68,0,0,1-.48-0.17,0.57,0.57,0,0,1-.19-0.44A0.54,0.54,0,0,1,44,5.3a1.28,1.28,0,0,1,1-.12,2,2,0,0,1,.35.1l0.07,0V5.75a0.38,0.38,0,0,1-.15.29,0.78,0.78,0,0,1-.34.24A1.21,1.21,0,0,1,44.39,6.37Zm0.17-1a0.83,0.83,0,0,0-.48.13,0.33,0.33,0,0,0-.16.29A0.37,0.37,0,0,0,44,6a0.47,0.47,0,0,0,.34.12,1,1,0,0,0,.38-0.07A0.63,0.63,0,0,0,45,5.9a0.22,0.22,0,0,0,.09-0.15V5.44l-0.25-.07A1.71,1.71,0,0,0,44.56,5.35Z"/><path d="M48.17,6.51l-0.32.13a1.37,1.37,0,0,1-.44.07,0.91,0.91,0,0,1-.27,0,0.65,0.65,0,0,1-.22-0.12,0.51,0.51,0,0,1-.15-0.2A0.74,0.74,0,0,1,46.71,6V4.24H46.32V3.76h0.38v-1h0.61v1h0.63V4.24H47.31V5.85a0.3,0.3,0,0,0,.1.22,0.33,0.33,0,0,0,.21.07,0.68,0.68,0,0,0,.24,0L48,6Z" fill="#fff"/><path d="M47.41,6.81a1,1,0,0,1-.3,0,0.78,0.78,0,0,1-.26-0.13,0.62,0.62,0,0,1-.18-0.24A0.85,0.85,0,0,1,46.6,6V4.34H46.22V3.66H46.6v-1h0.82v1H48V4.34H47.42V5.85a0.2,0.2,0,0,0,.06.14,0.39,0.39,0,0,0,.35,0L48,5.94l0.12-.06,0.18,0.69-0.08,0-0.33.13A1.48,1.48,0,0,1,47.41,6.81Zm-1-2.68h0.38V6a0.64,0.64,0,0,0,0,.26,0.42,0.42,0,0,0,.12.16,0.56,0.56,0,0,0,.19.1,1.1,1.1,0,0,0,.65,0L48,6.45,48,6.17l-0.07,0a0.57,0.57,0,0,1-.56,0,0.4,0.4,0,0,1-.14-0.3V4.13h0.63V3.87H47.21v-1h-0.4v1H46.43V4.13Z"/><path d="M49.48,6.72a0.82,0.82,0,0,1-.69-0.3,1.41,1.41,0,0,1-.23-0.88V3.76h0.61V5.41q0,0.78.55,0.78A0.85,0.85,0,0,0,50.22,6a1,1,0,0,0,.36-0.46V3.76h0.61V5.94a0.24,0.24,0,0,0,0,.15,0.17,0.17,0,0,0,.13,0V6.66l-0.16,0H51.08A0.45,0.45,0,0,1,50.8,6.6a0.3,0.3,0,0,1-.12-0.24V6.07a1.29,1.29,0,0,1-.5.48A1.45,1.45,0,0,1,49.48,6.72Z" fill="#fff"/><path d="M49.48,6.82a0.92,0.92,0,0,1-.77-0.34,1.51,1.51,0,0,1-.25-0.95V3.66h0.82V5.41c0,0.61.26,0.68,0.45,0.68a0.74,0.74,0,0,0,.43-0.14,0.91,0.91,0,0,0,.32-0.4V3.66h0.82V5.94a0.15,0.15,0,0,0,0,.08h0.15V6.75H51.37l-0.16,0a0.65,0.65,0,0,1-.47-0.11,0.4,0.4,0,0,1-.16-0.31,1.36,1.36,0,0,1-.36.28A1.55,1.55,0,0,1,49.48,6.82Zm-0.82-3V5.54a1.31,1.31,0,0,0,.21.82,0.71,0.71,0,0,0,.6.26,1.36,1.36,0,0,0,.63-0.15A1.19,1.19,0,0,0,50.58,6l0.18-.29,0,0.63a0.2,0.2,0,0,0,.08.16,0.44,0.44,0,0,0,.33.06h0.06V6.23a0.22,0.22,0,0,1-.11-0.07,0.33,0.33,0,0,1-.06-0.21V3.87h-0.4V5.61a1.14,1.14,0,0,1-.4.51,1,1,0,0,1-.55.18c-0.3,0-.66-0.15-0.66-0.89V3.87h-0.4Z"/><path d="M53.59,4.29a1.37,1.37,0,0,0-.63.16,0.86,0.86,0,0,0-.39.44V6.66H52V3.76h0.56V4.41a1.35,1.35,0,0,1,.39-0.48,1,1,0,0,1,.52-0.2h0.16V4.29Z" fill="#fff"/><path d="M52.68,6.77H51.86V3.66h0.77v0.4a1.33,1.33,0,0,1,.22-0.21,1.06,1.06,0,0,1,.58-0.22h0.18l0.08,0V4.39H53.6a1.28,1.28,0,0,0-.58.15,0.76,0.76,0,0,0-.34.37V6.77Zm-0.61-.21h0.4V4.85a1,1,0,0,1,.44-0.49,1.44,1.44,0,0,1,.58-0.17V3.84H53.44A0.86,0.86,0,0,0,53,4a1.23,1.23,0,0,0-.36.44l-0.2.39v-1H52.07V6.56Z"/><path d="M54.77,6.72a1.11,1.11,0,0,1-.39-0.07,1,1,0,0,1-.31-0.19,0.91,0.91,0,0,1-.2-0.29,0.85,0.85,0,0,1-.08-0.36,0.77,0.77,0,0,1,.09-0.37,0.86,0.86,0,0,1,.25-0.29A1.19,1.19,0,0,1,54.52,5,1.72,1.72,0,0,1,55,4.89a2.32,2.32,0,0,1,.4,0,2,2,0,0,1,.36.1V4.83a0.67,0.67,0,0,0-.18-0.5,0.72,0.72,0,0,0-.53-0.18,1.26,1.26,0,0,0-.46.09,2.28,2.28,0,0,0-.46.25L54,4.09a2.06,2.06,0,0,1,1.16-.38,1.33,1.33,0,0,1,.93.3,1.13,1.13,0,0,1,.33.88v1a0.16,0.16,0,0,0,.16.2V6.66l-0.15,0H56.27A0.39,0.39,0,0,1,56,6.6a0.38,0.38,0,0,1-.12-0.23l0-.18a1.29,1.29,0,0,1-.48.39A1.4,1.4,0,0,1,54.77,6.72Zm0.17-.45a1.09,1.09,0,0,0,.42-0.08A0.71,0.71,0,0,0,55.66,6a0.28,0.28,0,0,0,.12-0.21V5.37a1.92,1.92,0,0,0-.33-0.09,1.81,1.81,0,0,0-.34,0,0.93,0.93,0,0,0-.54.14,0.43,0.43,0,0,0-.21.37,0.47,0.47,0,0,0,.16.36A0.58,0.58,0,0,0,54.93,6.27Z" fill="#fff"/><path d="M54.77,6.82a1.21,1.21,0,0,1-.43-0.07A1.09,1.09,0,0,1,54,6.53a1,1,0,0,1-.23-0.32,1,1,0,0,1-.08-0.4,0.89,0.89,0,0,1,.1-0.42,1,1,0,0,1,.28-0.32,1.29,1.29,0,0,1,.42-0.2,2.1,2.1,0,0,1,.95,0l0.24,0.06V4.83a0.57,0.57,0,0,0-.15-0.43,0.61,0.61,0,0,0-.45-0.15,1.18,1.18,0,0,0-.42.08,2.22,2.22,0,0,0-.44.24l-0.1.07-0.28-.58L53.9,4a2.17,2.17,0,0,1,1.22-.39,1.43,1.43,0,0,1,1,.33,1.23,1.23,0,0,1,.37,1v1c0,0.09,0,.09.06,0.1h0.1V6.75l-0.08,0-0.16,0a0.62,0.62,0,0,1-.48-0.11,0.48,0.48,0,0,1-.14-0.25,1.39,1.39,0,0,1-.36.24A1.51,1.51,0,0,1,54.77,6.82ZM55,5a1.61,1.61,0,0,0-.47.06,1.09,1.09,0,0,0-.36.17,0.76,0.76,0,0,0-.22.25,0.67,0.67,0,0,0-.08.32,0.75,0.75,0,0,0,.07.32,0.81,0.81,0,0,0,.18.26,0.87,0.87,0,0,0,.28.17,1.24,1.24,0,0,0,.92-0.06,1.2,1.2,0,0,0,.44-0.36l0.16-.21,0,0.45a0.27,0.27,0,0,0,.09.16,0.44,0.44,0,0,0,.32.06h0.06V6.23a0.28,0.28,0,0,1-.16-0.28v-1a1,1,0,0,0-.3-0.8,1.24,1.24,0,0,0-.86-0.28,1.93,1.93,0,0,0-1,.31l0.1,0.2a2.27,2.27,0,0,1,.38-0.19A1.37,1.37,0,0,1,55.07,4a0.82,0.82,0,0,1,.6.21,0.77,0.77,0,0,1,.21.58V5.18l-0.14-.05A1.87,1.87,0,0,0,55.4,5,2.2,2.2,0,0,0,55,5ZM54.93,6.37a0.68,0.68,0,0,1-.48-0.17,0.57,0.57,0,0,1-.19-0.44,0.54,0.54,0,0,1,.25-0.46,1.28,1.28,0,0,1,1-.12,2,2,0,0,1,.35.1l0.07,0V5.75a0.38,0.38,0,0,1-.15.29,0.78,0.78,0,0,1-.34.24A1.21,1.21,0,0,1,54.93,6.37Zm0.17-1a0.83,0.83,0,0,0-.48.13,0.33,0.33,0,0,0-.16.29,0.37,0.37,0,0,0,.13.29,0.47,0.47,0,0,0,.34.12,1,1,0,0,0,.38-0.07,0.63,0.63,0,0,0,.26-0.19,0.22,0.22,0,0,0,.09-0.15V5.44l-0.25-.07A1.71,1.71,0,0,0,55.11,5.35Z"/><path d="M61.88,6.66V3.83L60.71,6H60.37L59.19,3.83V6.66H58.57V2.73h0.67l1.3,2.41,1.3-2.41H62.5V6.66H61.88Z" fill="#fff"/><path d="M62.61,6.77H61.77V4.24l-1,1.84H60.3l-1-1.84V6.77H58.47V2.62H59.3l0,0.05,1.21,2.24,1.24-2.29h0.83V6.77ZM62,6.56H62.4V2.83H61.9L60.54,5.35,59.17,2.83h-0.5V6.56h0.41V3.42l1.34,2.45h0.22L62,3.42V6.56Z"/><path d="M64.59,6.72A1.53,1.53,0,0,1,64,6.6a1.43,1.43,0,0,1-.47-0.32,1.46,1.46,0,0,1-.3-0.48,1.54,1.54,0,0,1-.11-0.58,1.56,1.56,0,0,1,.11-0.58,1.49,1.49,0,0,1,.3-0.48A1.42,1.42,0,0,1,64,3.83a1.56,1.56,0,0,1,.62-0.12,1.48,1.48,0,0,1,.61.12,1.43,1.43,0,0,1,.47.32,1.38,1.38,0,0,1,.3.47,1.56,1.56,0,0,1,.1.56s0,0.09,0,.13v0.1H63.74a1,1,0,0,0,.09.35A0.92,0.92,0,0,0,64,6a0.85,0.85,0,0,0,.27.17,0.84,0.84,0,0,0,.32.06l0.24,0a0.89,0.89,0,0,0,.22-0.09A0.78,0.78,0,0,0,65.25,6a0.68,0.68,0,0,0,.12-0.18L65.89,6a1.21,1.21,0,0,1-.5.54A1.54,1.54,0,0,1,64.59,6.72ZM65.47,5a1,1,0,0,0-.09-0.34,0.87,0.87,0,0,0-.19-0.26,0.85,0.85,0,0,0-.27-0.17,0.9,0.9,0,0,0-.33-0.06,0.86,0.86,0,0,0-.59.23,0.85,0.85,0,0,0-.19.26,1,1,0,0,0-.09.34h1.75Z" fill="#fff"/><path d="M64.59,6.82a1.65,1.65,0,0,1-.66-0.13,1.54,1.54,0,0,1-.51-0.35,1.58,1.58,0,0,1-.33-0.51A1.64,1.64,0,0,1,63,5.22,1.67,1.67,0,0,1,63.1,4.6a1.59,1.59,0,0,1,.33-0.51,1.53,1.53,0,0,1,.51-0.35,1.74,1.74,0,0,1,1.32,0,1.57,1.57,0,0,1,.5.35,1.5,1.5,0,0,1,.32.51,1.66,1.66,0,0,1,.11.6s0,0.09,0,.13,0,0.08,0,.1V5.52H63.85a0.81,0.81,0,0,0,.07.2,0.82,0.82,0,0,0,.17.24,0.76,0.76,0,0,0,.24.15,0.81,0.81,0,0,0,.5,0L65,6.06a0.68,0.68,0,0,0,.16-0.12,0.58,0.58,0,0,0,.1-0.16l0-.08L66,5.91,66,6a1.31,1.31,0,0,1-.54.58A1.64,1.64,0,0,1,64.59,6.82Zm0-3a1.46,1.46,0,0,0-.58.11,1.32,1.32,0,0,0-.44.3,1.4,1.4,0,0,0-.28.45,1.46,1.46,0,0,0-.1.54,1.44,1.44,0,0,0,.1.54,1.36,1.36,0,0,0,.28.44,1.33,1.33,0,0,0,.44.3,1.42,1.42,0,0,0,.57.11,1.44,1.44,0,0,0,.75-0.19A1.16,1.16,0,0,0,65.74,6l-0.32-.09a0.77,0.77,0,0,1-.1.13,0.87,0.87,0,0,1-.2.16,1,1,0,0,1-.24.1,1,1,0,0,1-.63,0,1,1,0,0,1-.3-0.2,1,1,0,0,1-.22-0.3,1.1,1.1,0,0,1-.1-0.39V5.31H66s0-.07,0-0.11a1.47,1.47,0,0,0-.1-0.53,1.28,1.28,0,0,0-.27-0.44,1.32,1.32,0,0,0-.44-0.3A1.38,1.38,0,0,0,64.59,3.82Zm1,1.28h-2V5a1.12,1.12,0,0,1,.1-0.37,0.94,0.94,0,0,1,.51-0.49,1,1,0,0,1,.73,0,1,1,0,0,1,.31.19,1,1,0,0,1,.21.29,1.09,1.09,0,0,1,.1.37V5.1Zm-1.75-.21h1.51a0.8,0.8,0,0,0-.06-0.19,0.77,0.77,0,0,0-.17-0.23,0.75,0.75,0,0,0-.24-0.15,0.77,0.77,0,0,0-.81.15,0.75,0.75,0,0,0-.17.23A0.89,0.89,0,0,0,63.84,4.89Z"/><path d="M67.75,6.72a1.23,1.23,0,0,1-.54-0.12,1.34,1.34,0,0,1-.43-0.32,1.51,1.51,0,0,1-.29-0.48,1.68,1.68,0,0,1-.1-0.59,1.66,1.66,0,0,1,.1-0.57,1.5,1.5,0,0,1,.27-0.47,1.32,1.32,0,0,1,.41-0.32,1.13,1.13,0,0,1,.52-0.12,1.12,1.12,0,0,1,.62.17,1.22,1.22,0,0,1,.42.43V2.62h0.61V5.94a0.24,0.24,0,0,0,0,.15,0.17,0.17,0,0,0,.13,0V6.66l-0.15,0h-0.1a0.46,0.46,0,0,1-.3-0.09,0.33,0.33,0,0,1-.13-0.24V6.14a1.16,1.16,0,0,1-.44.43A1.25,1.25,0,0,1,67.75,6.72ZM67.9,6.2a0.85,0.85,0,0,0,.27,0A0.94,0.94,0,0,0,68.41,6a0.84,0.84,0,0,0,.19-0.18,0.66,0.66,0,0,0,.11-0.23V4.86a0.92,0.92,0,0,0-.14-0.25,1,1,0,0,0-.21-0.2,0.92,0.92,0,0,0-.25-0.13,0.8,0.8,0,0,0-.26,0,0.68,0.68,0,0,0-.33.08,0.88,0.88,0,0,0-.26.22,1.1,1.1,0,0,0-.17.32,1.08,1.08,0,0,0-.06.37,1,1,0,0,0,.07.38,1,1,0,0,0,.19.31,1,1,0,0,0,.28.21A0.77,0.77,0,0,0,67.9,6.2Z" fill="#fff"/><path d="M67.75,6.82a1.34,1.34,0,0,1-.59-0.13,1.45,1.45,0,0,1-.46-0.35,1.63,1.63,0,0,1-.31-0.51,1.79,1.79,0,0,1-.11-0.63,1.76,1.76,0,0,1,.1-0.61,1.6,1.6,0,0,1,.29-0.51,1.44,1.44,0,0,1,.44-0.35,1.24,1.24,0,0,1,.56-0.13,1.22,1.22,0,0,1,.67.19,1.38,1.38,0,0,1,.26.21V2.51h0.82V5.94a0.15,0.15,0,0,0,0,.08H69.6V6.75H69.51l-0.16,0H69.24a0.57,0.57,0,0,1-.36-0.12,0.43,0.43,0,0,1-.16-0.26,1.3,1.3,0,0,1-.3.23A1.35,1.35,0,0,1,67.75,6.82Zm-0.07-3a1,1,0,0,0-.47.11,1.23,1.23,0,0,0-.38.3,1.41,1.41,0,0,0-.25.44,1.63,1.63,0,0,0,0,1.09,1.42,1.42,0,0,0,.27.45,1.26,1.26,0,0,0,.4.3,1.2,1.2,0,0,0,1.06,0,1.06,1.06,0,0,0,.4-0.39l0.18-.3,0,0.56a0.23,0.23,0,0,0,.09.17,0.36,0.36,0,0,0,.23.07h0.15V6.23a0.22,0.22,0,0,1-.11-0.07,0.33,0.33,0,0,1-.06-0.21V2.72h-0.4v2l-0.19-.34A1.12,1.12,0,0,0,68.25,4,1,1,0,0,0,67.69,3.82ZM67.9,6.3a0.89,0.89,0,0,1-.39-0.09A1.07,1.07,0,0,1,67,5.64a1.14,1.14,0,0,1-.08-0.42A1.19,1.19,0,0,1,67,4.82a1.18,1.18,0,0,1,.19-0.35,1,1,0,0,1,.29-0.25,0.85,0.85,0,0,1,.68,0,1,1,0,0,1,.27.14,1.06,1.06,0,0,1,.23.22,1,1,0,0,1,.16.28V5.65a0.78,0.78,0,0,1-.13.26,0.94,0.94,0,0,1-.21.2,1,1,0,0,1-.27.14A1,1,0,0,1,67.9,6.3Zm0-2a0.58,0.58,0,0,0-.29.07,0.78,0.78,0,0,0-.23.2,1,1,0,0,0-.16.29,1,1,0,0,0-.06.33,0.93,0.93,0,0,0,.06.34,0.89,0.89,0,0,0,.17.28,0.84,0.84,0,0,0,.25.19,0.69,0.69,0,0,0,.53,0,0.8,0.8,0,0,0,.22-0.11,0.73,0.73,0,0,0,.17-0.16,0.57,0.57,0,0,0,.09-0.18V4.88a0.84,0.84,0,0,0-.12-0.21,0.86,0.86,0,0,0-.19-0.18,0.82,0.82,0,0,0-.22-0.11A0.69,0.69,0,0,0,67.86,4.34Z"/><path d="M70.1,3.29V2.62h0.61V3.29H70.1Zm0,3.38V3.76h0.61v2.9H70.1Z" fill="#fff"/><path d="M70.82,6.77H70V3.66h0.82V6.77Zm-0.61-.21h0.4V3.87h-0.4V6.56Zm0.61-3.17H70V2.51h0.82V3.39Zm-0.61-.21h0.4V2.72h-0.4V3.18Z"/><path d="M72.21,6.72a1.11,1.11,0,0,1-.39-0.07,1,1,0,0,1-.31-0.19,0.91,0.91,0,0,1-.2-0.29,0.85,0.85,0,0,1-.08-0.36,0.77,0.77,0,0,1,.09-0.37,0.86,0.86,0,0,1,.25-0.29A1.19,1.19,0,0,1,72,5a1.72,1.72,0,0,1,.5-0.07,2.32,2.32,0,0,1,.4,0,2,2,0,0,1,.36.1V4.83A0.67,0.67,0,0,0,73,4.33a0.72,0.72,0,0,0-.53-0.18,1.26,1.26,0,0,0-.46.09,2.28,2.28,0,0,0-.46.25L71.4,4.09a2.06,2.06,0,0,1,1.16-.38,1.33,1.33,0,0,1,.93.3,1.13,1.13,0,0,1,.33.88v1a0.16,0.16,0,0,0,.16.2V6.66l-0.15,0H73.71a0.39,0.39,0,0,1-.27-0.09,0.38,0.38,0,0,1-.12-0.23l0-.18a1.29,1.29,0,0,1-.48.39A1.4,1.4,0,0,1,72.21,6.72Zm0.17-.45a1.09,1.09,0,0,0,.42-0.08A0.71,0.71,0,0,0,73.11,6a0.28,0.28,0,0,0,.12-0.21V5.37a1.92,1.92,0,0,0-.33-0.09,1.81,1.81,0,0,0-.34,0,0.93,0.93,0,0,0-.54.14,0.43,0.43,0,0,0-.21.37,0.47,0.47,0,0,0,.16.36A0.58,0.58,0,0,0,72.38,6.27Z" fill="#fff"/><path d="M72.21,6.82a1.21,1.21,0,0,1-.43-0.07,1.09,1.09,0,0,1-.35-0.21,1,1,0,0,1-.23-0.32,1,1,0,0,1-.08-0.4,0.89,0.89,0,0,1,.1-0.42,1,1,0,0,1,.28-0.32,1.29,1.29,0,0,1,.42-0.2,2.1,2.1,0,0,1,.95,0l0.24,0.06V4.83A0.57,0.57,0,0,0,73,4.4a0.61,0.61,0,0,0-.45-0.15,1.18,1.18,0,0,0-.42.08,2.22,2.22,0,0,0-.44.24l-0.1.07-0.28-.58,0.08,0a2.17,2.17,0,0,1,1.22-.39,1.43,1.43,0,0,1,1,.33,1.23,1.23,0,0,1,.37,1v1C73.93,6,74,6,74,6h0.1V6.75L74,6.77l-0.16,0a0.62,0.62,0,0,1-.48-0.11,0.48,0.48,0,0,1-.14-0.25,1.39,1.39,0,0,1-.36.24A1.51,1.51,0,0,1,72.21,6.82ZM72.46,5a1.61,1.61,0,0,0-.47.06,1.09,1.09,0,0,0-.36.17,0.76,0.76,0,0,0-.22.25,0.67,0.67,0,0,0-.08.32,0.75,0.75,0,0,0,.07.32,0.81,0.81,0,0,0,.18.26,0.87,0.87,0,0,0,.28.17,1.24,1.24,0,0,0,.92-0.06,1.2,1.2,0,0,0,.44-0.36l0.16-.21,0,0.45a0.27,0.27,0,0,0,.09.16,0.44,0.44,0,0,0,.32.06h0.06V6.23a0.28,0.28,0,0,1-.16-0.28v-1a1,1,0,0,0-.3-0.8,1.24,1.24,0,0,0-.86-0.28,1.93,1.93,0,0,0-1,.31l0.1,0.2A2.27,2.27,0,0,1,72,4.14,1.37,1.37,0,0,1,72.51,4a0.82,0.82,0,0,1,.6.21,0.77,0.77,0,0,1,.21.58V5.18l-0.14-.05A1.87,1.87,0,0,0,72.84,5,2.2,2.2,0,0,0,72.46,5ZM72.38,6.37A0.68,0.68,0,0,1,71.9,6.2a0.57,0.57,0,0,1-.19-0.44A0.54,0.54,0,0,1,72,5.3a1.28,1.28,0,0,1,1-.12,2,2,0,0,1,.35.1l0.07,0V5.75a0.38,0.38,0,0,1-.15.29,0.78,0.78,0,0,1-.34.24A1.21,1.21,0,0,1,72.38,6.37Zm0.17-1a0.83,0.83,0,0,0-.48.13,0.33,0.33,0,0,0-.16.29A0.37,0.37,0,0,0,72,6a0.47,0.47,0,0,0,.34.12,1,1,0,0,0,.38-0.07A0.63,0.63,0,0,0,73,5.9a0.22,0.22,0,0,0,.09-0.15V5.44l-0.25-.07A1.71,1.71,0,0,0,72.55,5.35Z"/><path d="M79.32,6.66V3.83L78.16,6H77.81L76.64,3.83V6.66H76V2.73h0.67L78,5.13l1.3-2.41H80V6.66H79.32Z" fill="#fff"/><path d="M80.05,6.77H79.22V4.24l-1,1.84H77.75l-1-1.84V6.77H75.91V2.62h0.83l0,0.05L78,4.91l1.24-2.29h0.83V6.77Zm-0.63-.21h0.42V2.83h-0.5L78,5.35,76.62,2.83h-0.5V6.56h0.41V3.42l1.34,2.45h0.22l1.33-2.45V6.56Z"/><path d="M82,6.72a1.53,1.53,0,0,1-.61-0.12,1.43,1.43,0,0,1-.47-0.32,1.46,1.46,0,0,1-.3-0.48,1.54,1.54,0,0,1-.11-0.58,1.56,1.56,0,0,1,.11-0.58,1.49,1.49,0,0,1,.3-0.48,1.42,1.42,0,0,1,.47-0.33A1.56,1.56,0,0,1,82,3.71a1.48,1.48,0,0,1,.61.12,1.43,1.43,0,0,1,.47.32,1.38,1.38,0,0,1,.3.47,1.56,1.56,0,0,1,.1.56s0,0.09,0,.13v0.1H81.18a1,1,0,0,0,.09.35,0.92,0.92,0,0,0,.19.27,0.85,0.85,0,0,0,.27.17,0.84,0.84,0,0,0,.32.06l0.24,0a0.89,0.89,0,0,0,.22-0.09A0.78,0.78,0,0,0,82.69,6a0.68,0.68,0,0,0,.12-0.18L83.34,6a1.21,1.21,0,0,1-.5.54A1.54,1.54,0,0,1,82,6.72ZM82.92,5a1,1,0,0,0-.09-0.34,0.87,0.87,0,0,0-.19-0.26,0.85,0.85,0,0,0-.27-0.17A0.9,0.9,0,0,0,82,4.16a0.86,0.86,0,0,0-.59.23,0.85,0.85,0,0,0-.19.26,1,1,0,0,0-.09.34h1.75Z" fill="#fff"/><path d="M82,6.82a1.65,1.65,0,0,1-.66-0.13,1.54,1.54,0,0,1-.51-0.35,1.58,1.58,0,0,1-.33-0.51,1.64,1.64,0,0,1-.11-0.61,1.67,1.67,0,0,1,.11-0.62,1.59,1.59,0,0,1,.33-0.51,1.53,1.53,0,0,1,.51-0.35,1.74,1.74,0,0,1,1.32,0,1.57,1.57,0,0,1,.5.35,1.5,1.5,0,0,1,.32.51,1.66,1.66,0,0,1,.11.6s0,0.09,0,.13,0,0.08,0,.1V5.52H81.3a0.81,0.81,0,0,0,.07.2,0.82,0.82,0,0,0,.17.24,0.76,0.76,0,0,0,.24.15,0.81,0.81,0,0,0,.5,0l0.19-.08a0.68,0.68,0,0,0,.16-0.12,0.58,0.58,0,0,0,.1-0.16l0-.08,0.72,0.21,0,0.11a1.31,1.31,0,0,1-.54.58A1.64,1.64,0,0,1,82,6.82Zm0-3a1.46,1.46,0,0,0-.58.11,1.32,1.32,0,0,0-.44.3,1.4,1.4,0,0,0-.28.45,1.46,1.46,0,0,0-.1.54,1.44,1.44,0,0,0,.1.54A1.36,1.36,0,0,0,81,6.2a1.33,1.33,0,0,0,.44.3,1.42,1.42,0,0,0,.57.11,1.44,1.44,0,0,0,.75-0.19A1.16,1.16,0,0,0,83.18,6l-0.32-.09a0.77,0.77,0,0,1-.1.13,0.87,0.87,0,0,1-.2.16,1,1,0,0,1-.24.1,1,1,0,0,1-.63,0,1,1,0,0,1-.3-0.2,1,1,0,0,1-.22-0.3,1.1,1.1,0,0,1-.1-0.39V5.31h2.34s0-.07,0-0.11a1.47,1.47,0,0,0-.1-0.53A1.28,1.28,0,0,0,83,4.23a1.32,1.32,0,0,0-.44-0.3A1.38,1.38,0,0,0,82,3.82ZM83,5.1h-2V5a1.12,1.12,0,0,1,.1-0.37,0.94,0.94,0,0,1,.51-0.49,1,1,0,0,1,.73,0,1,1,0,0,1,.31.19,1,1,0,0,1,.21.29A1.09,1.09,0,0,1,83,5V5.1Zm-1.75-.21h1.51a0.8,0.8,0,0,0-.06-0.19,0.77,0.77,0,0,0-.17-0.23,0.75,0.75,0,0,0-.24-0.15,0.77,0.77,0,0,0-.81.15,0.75,0.75,0,0,0-.17.23A0.89,0.89,0,0,0,81.28,4.89Z"/><path d="M86.62,6.66H86V5a1.06,1.06,0,0,0-.13-0.6,0.44,0.44,0,0,0-.38-0.19,0.75,0.75,0,0,0-.27.05,1,1,0,0,0-.25.14,1.13,1.13,0,0,0-.21.22,1,1,0,0,0-.14.27V6.66H84V3.76h0.55V4.35a1.17,1.17,0,0,1,.48-0.46,1.45,1.45,0,0,1,.7-0.17,0.85,0.85,0,0,1,.43.09,0.72,0.72,0,0,1,.26.26,1.12,1.12,0,0,1,.14.38,2.48,2.48,0,0,1,0,.45V6.66Z" fill="#fff"/><path d="M86.72,6.77H85.9V5a1,1,0,0,0-.11-0.54,0.43,0.43,0,0,0-.53-0.1,0.83,0.83,0,0,0-.22.13,1,1,0,0,0-.19.2,0.89,0.89,0,0,0-.12.23V6.77H83.92V3.66h0.76V4A1.34,1.34,0,0,1,85,3.79a1.55,1.55,0,0,1,.75-0.18,0.94,0.94,0,0,1,.48.11,0.82,0.82,0,0,1,.3.29,1.22,1.22,0,0,1,.15.41,2.67,2.67,0,0,1,0,.47V6.77Zm-0.61-.21h0.4V4.89a2.35,2.35,0,0,0,0-.43,1,1,0,0,0-.12-0.34,0.63,0.63,0,0,0-.23-0.22,0.76,0.76,0,0,0-.37-0.08A1.35,1.35,0,0,0,85.1,4a1.06,1.06,0,0,0-.44.42l-0.19.34V3.87H84.12V6.56h0.4V4.9a1.12,1.12,0,0,1,.16-0.3,1.24,1.24,0,0,1,.23-0.24,1.05,1.05,0,0,1,.28-0.16,0.64,0.64,0,0,1,.77.17,1.15,1.15,0,0,1,.15.66V6.56Z"/><path d="M88.38,6.72a2.2,2.2,0,0,1-.7-0.11,1.76,1.76,0,0,1-.6-0.32l0.24-.39a2.2,2.2,0,0,0,.52.29,1.46,1.46,0,0,0,.52.1,0.76,0.76,0,0,0,.43-0.11A0.34,0.34,0,0,0,89,5.87a0.28,0.28,0,0,0-.18-0.27,3.5,3.5,0,0,0-.55-0.18l-0.47-.14a1.2,1.2,0,0,1-.32-0.15,0.55,0.55,0,0,1-.18-0.21,0.65,0.65,0,0,1-.06-0.28,0.88,0.88,0,0,1,.09-0.39A0.84,0.84,0,0,1,87.53,4a1,1,0,0,1,.36-0.18,1.57,1.57,0,0,1,.44-0.06,1.82,1.82,0,0,1,.61.1,1.57,1.57,0,0,1,.5.29l-0.26.37a1.36,1.36,0,0,0-.86-0.32,0.73,0.73,0,0,0-.39.1,0.34,0.34,0,0,0-.16.31,0.3,0.3,0,0,0,0,.15,0.28,0.28,0,0,0,.11.11l0.19,0.08L88.41,5l0.51,0.14a1.4,1.4,0,0,1,.35.17,0.62,0.62,0,0,1,.21.23,0.68,0.68,0,0,1,.07.31,0.79,0.79,0,0,1-.31.66A1.36,1.36,0,0,1,88.38,6.72Z" fill="#fff"/><path d="M88.38,6.82a2.3,2.3,0,0,1-.73-0.12A1.86,1.86,0,0,1,87,6.36L87,6.3l0.35-.56,0.09,0.07a2.16,2.16,0,0,0,.49.27,1.06,1.06,0,0,0,.86,0,0.24,0.24,0,0,0,.11-0.21,0.17,0.17,0,0,0-.12-0.17,3.34,3.34,0,0,0-.54-0.18l-0.47-.14a1.28,1.28,0,0,1-.34-0.17A0.64,0.64,0,0,1,87.17,5a0.76,0.76,0,0,1-.07-0.33,1,1,0,0,1,.1-0.44,0.93,0.93,0,0,1,.27-0.33,1.14,1.14,0,0,1,.39-0.2,1.88,1.88,0,0,1,1.12,0,1.68,1.68,0,0,1,.54.31l0.07,0.06-0.38.53-0.09-.07a1.26,1.26,0,0,0-.79-0.3,0.62,0.62,0,0,0-.34.08,0.23,0.23,0,0,0-.11.22,0.2,0.2,0,0,0,0,.1,0.18,0.18,0,0,0,.07.07l0.17,0.07,0.29,0.08L89,5a1.49,1.49,0,0,1,.38.18,0.73,0.73,0,0,1,.24.26,0.78,0.78,0,0,1,.08.36,0.89,0.89,0,0,1-.35.74A1.47,1.47,0,0,1,88.38,6.82Zm-1.15-.56a1.72,1.72,0,0,0,.49.25,2.12,2.12,0,0,0,.66.11,1.28,1.28,0,0,0,.79-0.22,0.68,0.68,0,0,0,.27-0.58,0.57,0.57,0,0,0-.06-0.27,0.52,0.52,0,0,0-.17-0.19,1.29,1.29,0,0,0-.33-0.16l-0.5-.14L88.08,5,87.87,4.9a0.39,0.39,0,0,1-.15-0.15,0.4,0.4,0,0,1,0-.2,0.44,0.44,0,0,1,.21-0.4A0.83,0.83,0,0,1,88.33,4a1.43,1.43,0,0,1,.84.28l0.14-.2a1.5,1.5,0,0,0-.4-0.21,1.7,1.7,0,0,0-1,0A0.94,0.94,0,0,0,87.6,4a0.73,0.73,0,0,0-.21.25,0.77,0.77,0,0,0-.08.35,0.55,0.55,0,0,0,0,.24A0.44,0.44,0,0,0,87.5,5a1.08,1.08,0,0,0,.29.14l0.46,0.14a3.61,3.61,0,0,1,.57.19,0.38,0.38,0,0,1,.24.36,0.44,0.44,0,0,1-.2.39,0.86,0.86,0,0,1-.49.12,1.56,1.56,0,0,1-.56-0.1A2.15,2.15,0,0,1,87.36,6Z"/><path d="M91,6.72a0.82,0.82,0,0,1-.69-0.3A1.41,1.41,0,0,1,90,5.54V3.76h0.61V5.41q0,0.78.55,0.78A0.85,0.85,0,0,0,91.7,6a1,1,0,0,0,.36-0.46V3.76h0.61V5.94a0.24,0.24,0,0,0,0,.15,0.17,0.17,0,0,0,.13,0V6.66l-0.16,0H92.57a0.45,0.45,0,0,1-.28-0.09,0.3,0.3,0,0,1-.12-0.24V6.07a1.29,1.29,0,0,1-.5.48A1.45,1.45,0,0,1,91,6.72Z" fill="#fff"/><path d="M91,6.82a0.92,0.92,0,0,1-.77-0.34,1.51,1.51,0,0,1-.25-0.95V3.66h0.82V5.41c0,0.61.26,0.68,0.45,0.68a0.74,0.74,0,0,0,.43-0.14A0.91,0.91,0,0,0,92,5.55V3.66h0.82V5.94a0.15,0.15,0,0,0,0,.08h0.15V6.75H92.86l-0.16,0a0.65,0.65,0,0,1-.47-0.11,0.4,0.4,0,0,1-.16-0.31,1.36,1.36,0,0,1-.36.28A1.55,1.55,0,0,1,91,6.82Zm-0.82-3V5.54a1.31,1.31,0,0,0,.21.82,0.71,0.71,0,0,0,.6.26,1.36,1.36,0,0,0,.63-0.15A1.19,1.19,0,0,0,92.06,6l0.18-.29,0,0.63a0.2,0.2,0,0,0,.08.16,0.44,0.44,0,0,0,.33.06h0.06V6.23a0.22,0.22,0,0,1-.11-0.07,0.33,0.33,0,0,1-.06-0.21V3.87h-0.4V5.61a1.14,1.14,0,0,1-.4.51,1,1,0,0,1-.55.18c-0.3,0-.66-0.15-0.66-0.89V3.87h-0.4Z"/><path d="M94.22,6.72a1.11,1.11,0,0,1-.39-0.07,1,1,0,0,1-.31-0.19,0.91,0.91,0,0,1-.2-0.29,0.85,0.85,0,0,1-.08-0.36,0.77,0.77,0,0,1,.09-0.37,0.86,0.86,0,0,1,.25-0.29A1.19,1.19,0,0,1,94,5a1.72,1.72,0,0,1,.5-0.07,2.32,2.32,0,0,1,.4,0,2,2,0,0,1,.36.1V4.83A0.67,0.67,0,0,0,95,4.33a0.72,0.72,0,0,0-.53-0.18,1.26,1.26,0,0,0-.46.09,2.28,2.28,0,0,0-.46.25l-0.19-.39a2.06,2.06,0,0,1,1.16-.38,1.33,1.33,0,0,1,.93.3,1.13,1.13,0,0,1,.33.88v1a0.16,0.16,0,0,0,.16.2V6.66l-0.15,0H95.72a0.39,0.39,0,0,1-.27-0.09,0.38,0.38,0,0,1-.12-0.23l0-.18a1.29,1.29,0,0,1-.48.39A1.4,1.4,0,0,1,94.22,6.72Zm0.17-.45a1.09,1.09,0,0,0,.42-0.08A0.71,0.71,0,0,0,95.11,6a0.28,0.28,0,0,0,.12-0.21V5.37a1.92,1.92,0,0,0-.33-0.09,1.81,1.81,0,0,0-.34,0,0.93,0.93,0,0,0-.54.14,0.43,0.43,0,0,0-.21.37,0.47,0.47,0,0,0,.16.36A0.58,0.58,0,0,0,94.39,6.27Z" fill="#fff"/><path d="M94.22,6.82a1.21,1.21,0,0,1-.43-0.07,1.09,1.09,0,0,1-.35-0.21,1,1,0,0,1-.23-0.32,1,1,0,0,1-.08-0.4,0.89,0.89,0,0,1,.1-0.42,1,1,0,0,1,.28-0.32,1.29,1.29,0,0,1,.42-0.2,2.1,2.1,0,0,1,.95,0l0.24,0.06V4.83A0.57,0.57,0,0,0,95,4.4a0.61,0.61,0,0,0-.45-0.15,1.18,1.18,0,0,0-.42.08,2.22,2.22,0,0,0-.44.24l-0.1.07-0.28-.58,0.08,0a2.17,2.17,0,0,1,1.22-.39,1.43,1.43,0,0,1,1,.33,1.23,1.23,0,0,1,.37,1v1C95.94,6,96,6,96,6h0.1V6.75L96,6.77l-0.16,0a0.62,0.62,0,0,1-.48-0.11,0.48,0.48,0,0,1-.14-0.25,1.39,1.39,0,0,1-.36.24A1.51,1.51,0,0,1,94.22,6.82ZM94.46,5a1.61,1.61,0,0,0-.47.06,1.09,1.09,0,0,0-.36.17,0.76,0.76,0,0,0-.22.25,0.67,0.67,0,0,0-.08.32,0.75,0.75,0,0,0,.07.32,0.81,0.81,0,0,0,.18.26,0.87,0.87,0,0,0,.28.17,1.24,1.24,0,0,0,.92-0.06,1.2,1.2,0,0,0,.44-0.36l0.16-.21,0,0.45a0.27,0.27,0,0,0,.09.16,0.44,0.44,0,0,0,.32.06H95.9V6.23a0.28,0.28,0,0,1-.16-0.28v-1a1,1,0,0,0-.3-0.8,1.24,1.24,0,0,0-.86-0.28,1.93,1.93,0,0,0-1,.31l0.1,0.2A2.27,2.27,0,0,1,94,4.14,1.37,1.37,0,0,1,94.52,4a0.82,0.82,0,0,1,.6.21,0.77,0.77,0,0,1,.21.58V5.18l-0.14-.05A1.87,1.87,0,0,0,94.85,5,2.2,2.2,0,0,0,94.46,5ZM94.39,6.37a0.68,0.68,0,0,1-.48-0.17,0.57,0.57,0,0,1-.19-0.44A0.54,0.54,0,0,1,94,5.3a1.28,1.28,0,0,1,1-.12,2,2,0,0,1,.35.1l0.07,0V5.75a0.38,0.38,0,0,1-.15.29,0.78,0.78,0,0,1-.34.24A1.21,1.21,0,0,1,94.39,6.37Zm0.17-1a0.83,0.83,0,0,0-.48.13,0.33,0.33,0,0,0-.16.29A0.37,0.37,0,0,0,94,6a0.47,0.47,0,0,0,.34.12,1,1,0,0,0,.38-0.07A0.63,0.63,0,0,0,95,5.9a0.22,0.22,0,0,0,.09-0.15V5.44l-0.25-.07A1.71,1.71,0,0,0,94.56,5.35Z"/><path d="M96.58,2.62h0.61V5.82a0.36,0.36,0,0,0,.08.25,0.3,0.3,0,0,0,.23.09l0.14,0L97.8,6.1l0.09,0.48a1.35,1.35,0,0,1-.32.1,1.76,1.76,0,0,1-.33,0,0.67,0.67,0,0,1-.49-0.17A0.65,0.65,0,0,1,96.58,6V2.62Z" fill="#fff"/><path d="M97.25,6.81a0.77,0.77,0,0,1-.56-0.2A0.76,0.76,0,0,1,96.48,6V2.51h0.82V5.82a0.27,0.27,0,0,0,.06.18,0.25,0.25,0,0,0,.27,0l0.14,0,0.12,0L98,6.63l-0.07,0a1.48,1.48,0,0,1-.34.11A1.85,1.85,0,0,1,97.25,6.81ZM96.68,2.72V6a0.55,0.55,0,0,0,.14.41,0.76,0.76,0,0,0,.72.11l0.22-.06-0.05-.28h0a0.44,0.44,0,0,1-.48-0.1,0.46,0.46,0,0,1-.11-0.32V2.72h-0.4Z"/><path d="M99.32,3.16a0.49,0.49,0,0,1,.15-0.37,0.56,0.56,0,0,1,.76,0,0.5,0.5,0,0,1,.15.37,0.54,0.54,0,0,1-.15.39,0.51,0.51,0,0,1-.38.15,0.5,0.5,0,0,1-.38-0.16A0.54,0.54,0,0,1,99.32,3.16ZM99.69,3a0.24,0.24,0,0,0-.07.16,0.21,0.21,0,0,0,.07.16,0.19,0.19,0,0,0,.16.07l0.09,0,0.07,0a0.21,0.21,0,0,0,.07-0.16A0.24,0.24,0,0,0,100,3L99.93,3H99.85A0.21,0.21,0,0,0,99.69,3Z" fill="#fff"/><path d="M99.85,3.81a0.6,0.6,0,0,1-.45-0.19,0.64,0.64,0,0,1-.18-0.46,0.59,0.59,0,0,1,.18-0.44,0.66,0.66,0,0,1,.9,0,0.6,0.6,0,0,1,.18.44,0.64,0.64,0,0,1-.18.47A0.61,0.61,0,0,1,99.85,3.81Zm0-1.06a0.41,0.41,0,0,0-.3.12,0.39,0.39,0,0,0-.12.29,0.43,0.43,0,0,0,.12.32,0.4,0.4,0,0,0,.3.12,0.41,0.41,0,0,0,.31-0.12,0.44,0.44,0,0,0,.12-0.32,0.4,0.4,0,0,0-.12-0.29A0.42,0.42,0,0,0,99.85,2.75Zm0,0.75a0.29,0.29,0,0,1-.23-0.1,0.31,0.31,0,0,1-.09-0.22A0.34,0.34,0,0,1,99.61,3h0A0.33,0.33,0,0,1,100,2.87a0.26,0.26,0,0,1,.12.08,0.34,0.34,0,0,1,.09.22,0.32,0.32,0,0,1-.1.23,0.26,0.26,0,0,1-.1.07Zm-0.08-.41a0.14,0.14,0,0,0,0,.08,0.11,0.11,0,0,0,0,.08,0.1,0.1,0,0,0,.08,0h0l0,0a0.12,0.12,0,0,0,0-.09,0.15,0.15,0,0,0,0-.09l-0.08,0A0.11,0.11,0,0,0,99.77,3.09Z"/><path d="M100.81,4.67A2.06,2.06,0,0,1,100.94,4a2,2,0,0,1,.37-0.63,1.88,1.88,0,0,1,.6-0.45,1.81,1.81,0,0,1,.8-0.17,1.7,1.7,0,0,1,.92.24,1.54,1.54,0,0,1,.58.62l-0.49.33a1.1,1.1,0,0,0-.2-0.3,0.94,0.94,0,0,0-.25-0.19A1.1,1.1,0,0,0,103,3.3a1.42,1.42,0,0,0-.29,0,1.15,1.15,0,0,0-.54.12,1.22,1.22,0,0,0-.39.33,1.47,1.47,0,0,0-.24.46,1.69,1.69,0,0,0-.08.51,1.6,1.6,0,0,0,.09.55,1.47,1.47,0,0,0,.26.46,1.28,1.28,0,0,0,.4.32,1.09,1.09,0,0,0,.51.12,1.32,1.32,0,0,0,.3,0A1.11,1.11,0,0,0,103.3,6a1.14,1.14,0,0,0,.26-0.2,1,1,0,0,0,.2-0.29l0.51,0.29a1.22,1.22,0,0,1-.27.39,1.76,1.76,0,0,1-.39.29,2,2,0,0,1-.46.18,2,2,0,0,1-.47.06,1.63,1.63,0,0,1-.76-0.18,2,2,0,0,1-.59-0.46,2.12,2.12,0,0,1-.39-0.65A2.07,2.07,0,0,1,100.81,4.67Z" fill="#fff"/><path d="M102.69,6.8a1.75,1.75,0,0,1-.81-0.19,2.1,2.1,0,0,1-.62-0.49,2.22,2.22,0,0,1-.41-0.68,2.15,2.15,0,0,1,0-1.52,2.06,2.06,0,0,1,.39-0.67,2,2,0,0,1,.63-0.48,1.92,1.92,0,0,1,.85-0.18,1.81,1.81,0,0,1,1,.25,1.64,1.64,0,0,1,.61.66l0,0.08L103.68,4l-0.05-.11a1,1,0,0,0-.18-0.27,0.82,0.82,0,0,0-.23-0.17A1,1,0,0,0,103,3.4a1.15,1.15,0,0,0-.76.08,1.1,1.1,0,0,0-.36.3,1.4,1.4,0,0,0-.22.43,1.59,1.59,0,0,0-.08.48,1.52,1.52,0,0,0,.09.51,1.37,1.37,0,0,0,.25.43,1.19,1.19,0,0,0,.37.29A1.05,1.05,0,0,0,103,6a1,1,0,0,0,.26-0.11,1.08,1.08,0,0,0,.24-0.18,0.87,0.87,0,0,0,.18-0.26l0-.1,0.69,0.4,0,0.09a1.32,1.32,0,0,1-.29.42,1.87,1.87,0,0,1-.41.3A2.12,2.12,0,0,1,102.69,6.8Zm0-4A1.71,1.71,0,0,0,102,3a1.77,1.77,0,0,0-.57.43A1.87,1.87,0,0,0,101,4a2,2,0,0,0-.12.67,2,2,0,0,0,.13.7,2,2,0,0,0,.37.62,1.89,1.89,0,0,0,.56.44,1.61,1.61,0,0,0,1.16.11,1.88,1.88,0,0,0,.43-0.17,1.65,1.65,0,0,0,.36-0.27,1.14,1.14,0,0,0,.2-0.27l-0.34-.19a1,1,0,0,1-.17.22,1.3,1.3,0,0,1-.28.22,1.21,1.21,0,0,1-.32.13,1.28,1.28,0,0,1-.88-0.09,1.39,1.39,0,0,1-.43-0.34,1.57,1.57,0,0,1-.28-0.49,1.71,1.71,0,0,1-.1-0.58,1.78,1.78,0,0,1,.08-0.54,1.56,1.56,0,0,1,.25-0.49A1.26,1.26,0,0,1,103,3.19a1.2,1.2,0,0,1,.32.11,1,1,0,0,1,.28.21,1.12,1.12,0,0,1,.16.22l0.31-.21a1.45,1.45,0,0,0-.49-0.5A1.61,1.61,0,0,0,102.72,2.81Z"/><path d="M6.59,46.12v0.55H4.47V46.12H5.26V44.18a0.66,0.66,0,0,1-.16.14l-0.23.13-0.27.1a0.88,0.88,0,0,1-.24,0V44A0.66,0.66,0,0,0,4.62,44l0.28-.16,0.24-.18a0.51,0.51,0,0,0,.12-0.13H5.88v2.62h0.7Z" fill="#fff"/><path d="M6.69,46.77H4.37V46H5.15v-1.6l-0.24.14-0.28.11a1,1,0,0,1-.28,0H4.25V43.93h0.1a0.57,0.57,0,0,0,.22-0.06l0.27-.15,0.23-.17a0.47,0.47,0,0,0,.09-0.09l0-.05H6V46h0.7v0.76Zm-2.12-.21H6.48V46.22H5.78V43.61H5.31l-0.11.1a2,2,0,0,1-.25.19l-0.3.16-0.2.06v0.36l0.11,0,0.25-.1L5,44.24a0.58,0.58,0,0,0,.13-0.12l0.19-.25v2.35H4.57v0.34Z"/><path d="M8.76,45.36a0.94,0.94,0,0,1,.32.12,0.85,0.85,0,0,1,.24.21,1,1,0,0,1,.16.29,1.13,1.13,0,0,1,.06.36,1.08,1.08,0,0,1-.1.47,1,1,0,0,1-.28.36,1.23,1.23,0,0,1-.44.23,1.86,1.86,0,0,1-.57.08,1.78,1.78,0,0,1-.74-0.15,1.24,1.24,0,0,1-.51-0.42l0.37-.42a1,1,0,0,0,.34.32,1.08,1.08,0,0,0,.53.12,0.89,0.89,0,0,0,.56-0.16,0.55,0.55,0,0,0,.2-0.46,0.62,0.62,0,0,0-.22-0.5A1,1,0,0,0,8,45.62H7.88V45.14H8A0.85,0.85,0,0,0,8.61,45a0.56,0.56,0,0,0,.2-0.44,0.44,0.44,0,0,0-.18-0.39A0.78,0.78,0,0,0,8.18,44a1,1,0,0,0-.5.12,0.89,0.89,0,0,0-.34.35L7,44.07a0.9,0.9,0,0,1,.21-0.24,1.46,1.46,0,0,1,.3-0.19,1.57,1.57,0,0,1,.37-0.12,2,2,0,0,1,.41,0,1.59,1.59,0,0,1,.5.07,1.2,1.2,0,0,1,.39.2,0.84,0.84,0,0,1,.25.31,0.9,0.9,0,0,1,.09.4,1,1,0,0,1,0,.32,1,1,0,0,1-.14.27,0.81,0.81,0,0,1-.22.2A0.78,0.78,0,0,1,8.76,45.36Z" fill="#fff"/><path d="M8.15,47.58a1.89,1.89,0,0,1-.79-0.16A1.34,1.34,0,0,1,6.81,47l0-.07,0.52-.59,0.07,0.12a0.85,0.85,0,0,0,.31.29,1,1,0,0,0,.48.1,0.8,0.8,0,0,0,.5-0.13,0.45,0.45,0,0,0,.16-0.38,0.51,0.51,0,0,0-.18-0.42A0.91,0.91,0,0,0,8,45.72H7.77V45H8a0.75,0.75,0,0,0,.5-0.15,0.46,0.46,0,0,0,.16-0.36,0.34,0.34,0,0,0-.13-0.31,0.67,0.67,0,0,0-.4-0.11,0.89,0.89,0,0,0-.45.11,0.78,0.78,0,0,0-.3.31l-0.07.13-0.53-.58,0-.07a1,1,0,0,1,.24-0.27,1.53,1.53,0,0,1,.32-0.2,1.6,1.6,0,0,1,.39-0.13,1.93,1.93,0,0,1,1,0,1.32,1.32,0,0,1,.42.22,1,1,0,0,1,.28.35,1,1,0,0,1,.1.45,1.12,1.12,0,0,1-.05.35,1.06,1.06,0,0,1-.16.3,0.89,0.89,0,0,1-.25.23l0,0,0.06,0a1,1,0,0,1,.27.24,1.05,1.05,0,0,1,.17.32,1.23,1.23,0,0,1,.06.39,1.18,1.18,0,0,1-.11.51,1.14,1.14,0,0,1-.3.39,1.35,1.35,0,0,1-.47.25A2,2,0,0,1,8.15,47.58ZM7,46.92a1.15,1.15,0,0,0,.42.32,1.69,1.69,0,0,0,.7.14,1.76,1.76,0,0,0,.54-0.08,1.14,1.14,0,0,0,.4-0.21,0.92,0.92,0,0,0,.25-0.32,1,1,0,0,0,.09-0.42A1,1,0,0,0,9.38,46a0.86,0.86,0,0,0-.14-0.26A0.74,0.74,0,0,0,9,45.57a0.82,0.82,0,0,0-.28-0.11l-0.55-.1,0.55-.1A0.68,0.68,0,0,0,9,45.16,0.7,0.7,0,0,0,9.19,45a0.83,0.83,0,0,0,.13-0.24,0.9,0.9,0,0,0,0-.28,0.81,0.81,0,0,0-.08-0.36,0.76,0.76,0,0,0-.22-0.27,1.09,1.09,0,0,0-.36-0.18,1.75,1.75,0,0,0-.85,0,1.46,1.46,0,0,0-.34.12,1.33,1.33,0,0,0-.28.17,0.83,0.83,0,0,0-.14.15l0.24,0.26A1,1,0,0,1,7.63,44a1.1,1.1,0,0,1,.55-0.14,0.88,0.88,0,0,1,.52.14,0.55,0.55,0,0,1,.22.48,0.67,0.67,0,0,1-.23.52,1,1,0,0,1-.64.2H8v0.27H8a1.1,1.1,0,0,1,.72.21,0.72,0.72,0,0,1,.26.58,0.66,0.66,0,0,1-.24.55,1,1,0,0,1-.63.18,1.19,1.19,0,0,1-.58-0.13,1.07,1.07,0,0,1-.3-0.25Z"/><path d="M33.45,46.12v0.55H31.33V46.12h0.79V44.18a0.66,0.66,0,0,1-.16.14l-0.23.13-0.27.1a0.88,0.88,0,0,1-.24,0V44A0.66,0.66,0,0,0,31.48,44l0.28-.16L32,43.63a0.51,0.51,0,0,0,.12-0.13h0.63v2.62h0.7Z" fill="#fff"/><path d="M33.55,46.77H31.23V46H32v-1.6l-0.24.14-0.28.11a1,1,0,0,1-.28,0h-0.1V43.93h0.1a0.57,0.57,0,0,0,.22-0.06l0.27-.15,0.23-.17A0.47,0.47,0,0,0,32,43.46l0-.05h0.79V46h0.7v0.76Zm-2.12-.21h1.91V46.22h-0.7V43.61H32.17l-0.11.1a2,2,0,0,1-.25.19l-0.3.16-0.2.06v0.36l0.11,0,0.25-.1,0.22-.12A0.58,0.58,0,0,0,32,44.12l0.19-.25v2.35H31.43v0.34Z"/><path d="M36.71,45.36a1.32,1.32,0,0,1-.11.53,1.37,1.37,0,0,1-.3.44,1.41,1.41,0,0,1-.45.29,1.48,1.48,0,0,1-.56.11,1.45,1.45,0,0,1-.59-0.12,1.28,1.28,0,0,1-.46-0.34,1.62,1.62,0,0,1-.29-0.55,2.44,2.44,0,0,1-.1-0.73A4,4,0,0,1,34,44a2.28,2.28,0,0,1,.3-0.71,1.29,1.29,0,0,1,.47-0.43,1.33,1.33,0,0,1,.62-0.14,1.42,1.42,0,0,1,.69.17,1.35,1.35,0,0,1,.51.49l-0.36.38a1,1,0,0,0-.35-0.37,1,1,0,0,0-.5-0.13,0.77,0.77,0,0,0-.66.35,1.75,1.75,0,0,0-.26,1,0.91,0.91,0,0,1,.37-0.39A1.09,1.09,0,0,1,35.34,44a1.4,1.4,0,0,1,.54.1,1.37,1.37,0,0,1,.43.28,1.32,1.32,0,0,1,.29.42A1.29,1.29,0,0,1,36.71,45.36Zm-1.42.84a0.79,0.79,0,0,0,.32-0.07A0.83,0.83,0,0,0,35.88,46a0.9,0.9,0,0,0,.18-0.27,0.81,0.81,0,0,0,.07-0.32A0.79,0.79,0,0,0,36.06,45a0.86,0.86,0,0,0-.45-0.44,0.82,0.82,0,0,0-.65,0,0.9,0.9,0,0,0-.27.18,0.88,0.88,0,0,0-.18.26,0.79,0.79,0,0,0-.07.32,0.81,0.81,0,0,0,.07.32,0.89,0.89,0,0,0,.18.27,0.84,0.84,0,0,0,.27.18A0.79,0.79,0,0,0,35.29,46.2Z" fill="#fff"/><path d="M35.29,46.83a1.56,1.56,0,0,1-.63-0.13,1.38,1.38,0,0,1-.49-0.37,1.71,1.71,0,0,1-.31-0.58A2.55,2.55,0,0,1,33.74,45a4.14,4.14,0,0,1,.11-1,2.39,2.39,0,0,1,.32-0.74,1.4,1.4,0,0,1,.51-0.46,1.56,1.56,0,0,1,1.41,0,1.48,1.48,0,0,1,.55.53l0,0.07-0.51.54-0.07-.12a0.88,0.88,0,0,0-.32-0.33,0.84,0.84,0,0,0-.44-0.12,0.67,0.67,0,0,0-.58.31,1.35,1.35,0,0,0-.21.58,1,1,0,0,1,.18-0.13,1.39,1.39,0,0,1,1.19,0,1.49,1.49,0,0,1,.46.3,1.43,1.43,0,0,1,.31.45,1.38,1.38,0,0,1,.11.56,1.43,1.43,0,0,1-.12.57,1.51,1.51,0,0,1-.32.47,1.52,1.52,0,0,1-.49.31A1.6,1.6,0,0,1,35.29,46.83Zm0.06-4a1.23,1.23,0,0,0-.57.13,1.19,1.19,0,0,0-.43.4,2.2,2.2,0,0,0-.29.68,4,4,0,0,0-.11,1,2.36,2.36,0,0,0,.1.7,1.54,1.54,0,0,0,.27.51,1.17,1.17,0,0,0,.42.32,1.43,1.43,0,0,0,1.07,0,1.28,1.28,0,0,0,.42-0.27,1.25,1.25,0,0,0,.28-0.4,1.22,1.22,0,0,0,.1-0.49,1.17,1.17,0,0,0-.1-0.48,1.2,1.2,0,0,0-.26-0.38,1.29,1.29,0,0,0-.4-0.26,1.18,1.18,0,0,0-1,0,0.79,0.79,0,0,0-.32.35L34.3,45V44.58a1.85,1.85,0,0,1,.28-1,0.87,0.87,0,0,1,.75-0.4,1,1,0,0,1,.55.15,1.08,1.08,0,0,1,.31.29l0.21-.22A1.24,1.24,0,0,0,36,43,1.33,1.33,0,0,0,35.35,42.81Zm-0.06,3.5a0.9,0.9,0,0,1-.37-0.08,0.93,0.93,0,0,1-.3-0.21,1,1,0,0,1-.2-0.3,0.91,0.91,0,0,1-.07-0.37A0.9,0.9,0,0,1,34.42,45a1,1,0,0,1,.2-0.29,1,1,0,0,1,.3-0.2,0.93,0.93,0,0,1,.73,0,1,1,0,0,1,.3.2,1,1,0,0,1,.2.29,0.93,0.93,0,0,1,0,.73,1,1,0,0,1-.2.3,0.92,0.92,0,0,1-.3.21A0.9,0.9,0,0,1,35.29,46.31Zm0-1.67a0.69,0.69,0,0,0-.28.06,0.8,0.8,0,0,0-.24.16,0.78,0.78,0,0,0-.16.23,0.69,0.69,0,0,0-.06.28,0.7,0.7,0,0,0,.06.28,0.78,0.78,0,0,0,.16.24A0.75,0.75,0,0,0,35,46a0.71,0.71,0,0,0,.8-0.16A0.8,0.8,0,0,0,36,45.64,0.71,0.71,0,0,0,36,45.36,0.69,0.69,0,0,0,36,45.08a0.75,0.75,0,0,0-.39-0.39A0.69,0.69,0,0,0,35.29,44.63Z"/><path d="M58.37,46.67a2.22,2.22,0,0,1,0-.43,1.2,1.2,0,0,1,.14-0.37,1.4,1.4,0,0,1,.27-0.33,2.24,2.24,0,0,1,.44-0.31l0.37-.2,0.3-.17a0.88,0.88,0,0,0,.21-0.18,0.35,0.35,0,0,0,.08-0.22,0.43,0.43,0,0,0-.15-0.32A0.63,0.63,0,0,0,59.63,44a0.87,0.87,0,0,0-.27,0,1,1,0,0,0-.41.25l-0.14.15L58.42,44l0.17-.15a1.7,1.7,0,0,1,.29-0.17,2.06,2.06,0,0,1,.39-0.14,1.88,1.88,0,0,1,.47-0.06,1.59,1.59,0,0,1,.48.07,1.09,1.09,0,0,1,.36.19,0.82,0.82,0,0,1,.22.29,0.86,0.86,0,0,1,.08.36,0.78,0.78,0,0,1-.08.37,1.16,1.16,0,0,1-.21.28,1.38,1.38,0,0,1-.27.21l-0.27.15-0.26.13-0.29.17a2,2,0,0,0-.25.21,0.62,0.62,0,0,0-.16.24h1.83v0.55H58.37Z" fill="#fff"/><path d="M61,46.77H58.27v-0.1a2.33,2.33,0,0,1,0-.45,1.31,1.31,0,0,1,.15-0.41,1.47,1.47,0,0,1,.29-0.36,2.27,2.27,0,0,1,.46-0.32L59.55,45l0,0,0.29-.17a0.76,0.76,0,0,0,.18-0.16,0.24,0.24,0,0,0,.06-0.16A0.33,0.33,0,0,0,60,44.2a0.53,0.53,0,0,0-.37-0.11,0.76,0.76,0,0,0-.24,0,0.89,0.89,0,0,0-.2.09L59,44.35l-0.13.14-0.08.09L58.28,44l0.06-.07,0.19-.17a1.86,1.86,0,0,1,.31-0.19,2.2,2.2,0,0,1,.4-0.15,1.93,1.93,0,0,1,1,0,1.2,1.2,0,0,1,.4.21,0.93,0.93,0,0,1,.25.33,1,1,0,0,1,.09.41,0.88,0.88,0,0,1-.09.41,1.23,1.23,0,0,1-.22.31,1.52,1.52,0,0,1-.29.22l-0.27.15-0.18.09-0.08,0-0.27.16a2,2,0,0,0-.24.2L59.27,46H61v0.76Zm-2.56-.21h2.36V46.22H59l0-.14a0.74,0.74,0,0,1,.18-0.28,2,2,0,0,1,.26-0.22l0.3-.18,0.08,0L60,45.27l0.26-.14a1.25,1.25,0,0,0,.25-0.19,1.05,1.05,0,0,0,.19-0.26,0.68,0.68,0,0,0,.07-0.32A0.77,0.77,0,0,0,60.71,44a0.71,0.71,0,0,0-.2-0.25,1,1,0,0,0-.33-0.17,1.74,1.74,0,0,0-.89,0,2,2,0,0,0-.37.13,1.61,1.61,0,0,0-.27.16L58.56,44l0.25,0.29,0.06-.07a1.13,1.13,0,0,1,.2-0.16,1.07,1.07,0,0,1,.25-0.12,1,1,0,0,1,.31,0,0.73,0.73,0,0,1,.51.17,0.53,0.53,0,0,1,.19.39,0.45,0.45,0,0,1-.1.29,1,1,0,0,1-.23.21l-0.31.18,0,0-0.33.18a2.2,2.2,0,0,0-.42.29,1.33,1.33,0,0,0-.25.31,1.08,1.08,0,0,0-.13.34A1.86,1.86,0,0,0,58.48,46.56Z"/><path d="M63.67,46.12v0.55H61.55V46.12h0.79V44.18a0.66,0.66,0,0,1-.16.14L62,44.46l-0.27.1a0.88,0.88,0,0,1-.24,0V44A0.66,0.66,0,0,0,61.7,44L62,43.81l0.24-.18a0.51,0.51,0,0,0,.12-0.13H63v2.62h0.7Z" fill="#fff"/><path d="M63.77,46.77H61.45V46h0.79v-1.6L62,44.55l-0.28.11a1,1,0,0,1-.28,0h-0.1V43.93h0.1a0.57,0.57,0,0,0,.22-0.06l0.27-.15,0.23-.17a0.47,0.47,0,0,0,.09-0.09l0-.05h0.79V46h0.7v0.76Zm-2.12-.21h1.91V46.22h-0.7V43.61H62.39l-0.11.1a2,2,0,0,1-.25.19l-0.3.16-0.2.06v0.36l0.11,0,0.25-.1,0.22-.12a0.58,0.58,0,0,0,.13-0.12l0.19-.25v2.35H61.66v0.34Z"/><path d="M85.17,46.67a2.22,2.22,0,0,1,0-.43,1.2,1.2,0,0,1,.14-0.37,1.4,1.4,0,0,1,.27-0.33,2.24,2.24,0,0,1,.44-0.31l0.37-.2,0.3-.17a0.88,0.88,0,0,0,.21-0.18A0.35,0.35,0,0,0,87,44.44a0.43,0.43,0,0,0-.15-0.32A0.63,0.63,0,0,0,86.42,44a0.87,0.87,0,0,0-.27,0,1,1,0,0,0-.41.25l-0.14.15L85.22,44l0.17-.15a1.7,1.7,0,0,1,.29-0.17,2.06,2.06,0,0,1,.39-0.14,1.88,1.88,0,0,1,.47-0.06,1.59,1.59,0,0,1,.48.07,1.09,1.09,0,0,1,.36.19,0.82,0.82,0,0,1,.22.29,0.86,0.86,0,0,1,.08.36,0.78,0.78,0,0,1-.08.37,1.16,1.16,0,0,1-.21.28,1.38,1.38,0,0,1-.27.21l-0.27.15-0.26.13-0.29.17a2,2,0,0,0-.25.21,0.62,0.62,0,0,0-.16.24h1.83v0.55H85.17Z" fill="#fff"/><path d="M87.84,46.77H85.07v-0.1a2.33,2.33,0,0,1,0-.45,1.31,1.31,0,0,1,.15-0.41,1.47,1.47,0,0,1,.29-0.36A2.27,2.27,0,0,1,86,45.13L86.35,45l0,0,0.29-.17a0.76,0.76,0,0,0,.18-0.16,0.24,0.24,0,0,0,.06-0.16,0.33,0.33,0,0,0-.12-0.24,0.53,0.53,0,0,0-.37-0.11,0.76,0.76,0,0,0-.24,0,0.91,0.91,0,0,0-.2.09l-0.16.13-0.13.14-0.08.09L85.08,44l0.06-.07,0.19-.17a1.86,1.86,0,0,1,.31-0.19A2.2,2.2,0,0,1,86,43.4a1.93,1.93,0,0,1,1,0,1.2,1.2,0,0,1,.4.21,0.93,0.93,0,0,1,.25.33,1,1,0,0,1,.09.41,0.88,0.88,0,0,1-.09.41,1.23,1.23,0,0,1-.22.31,1.52,1.52,0,0,1-.29.22l-0.27.15-0.18.09-0.08,0-0.27.16a2,2,0,0,0-.24.2L86.07,46h1.77v0.76Zm-2.56-.21h2.36V46.22H85.76l0-.14A0.74,0.74,0,0,1,86,45.8a2,2,0,0,1,.26-0.22l0.3-.18,0.08,0,0.18-.09,0.26-.14a1.25,1.25,0,0,0,.25-0.19,1.05,1.05,0,0,0,.19-0.26,0.68,0.68,0,0,0,.07-0.32A0.77,0.77,0,0,0,87.5,44a0.71,0.71,0,0,0-.2-0.25A1,1,0,0,0,87,43.61a1.74,1.74,0,0,0-.89,0,2,2,0,0,0-.37.13,1.61,1.61,0,0,0-.27.16L85.36,44l0.25,0.29,0.06-.07a1.13,1.13,0,0,1,.2-0.16,1.07,1.07,0,0,1,.25-0.12,1,1,0,0,1,.31,0,0.73,0.73,0,0,1,.51.17,0.53,0.53,0,0,1,.19.39,0.45,0.45,0,0,1-.1.29,1,1,0,0,1-.23.21l-0.31.18,0,0-0.33.18a2.2,2.2,0,0,0-.42.29,1.33,1.33,0,0,0-.25.31,1.08,1.08,0,0,0-.13.34A1.86,1.86,0,0,0,85.28,46.56Z"/><path d="M89.57,44.91a1.38,1.38,0,0,1,.51.09,1.29,1.29,0,0,1,.41.26,1.16,1.16,0,0,1,.27.4,1.38,1.38,0,0,1,0,1,1.23,1.23,0,0,1-.3.42,1.31,1.31,0,0,1-.45.27,1.64,1.64,0,0,1-.56.09,1.53,1.53,0,0,1-.76-0.19,1.3,1.3,0,0,1-.52-0.52l0.37-.35a1.21,1.21,0,0,0,.4.38,1,1,0,0,0,.52.14A0.79,0.79,0,0,0,90,46.74a0.73,0.73,0,0,0,.22-0.56,0.77,0.77,0,0,0-.06-0.3A0.7,0.7,0,0,0,90,45.65a0.71,0.71,0,0,0-.24-0.15,0.78,0.78,0,0,0-.3-0.06,0.87,0.87,0,0,0-.39.09,0.75,0.75,0,0,0-.3.27H88.26l0-.13,0.05-.28L88.41,45c0-.14.05-0.28,0.08-0.42q0.1-.5.22-1.1h1.92v0.56H89.15L89,45.14A0.64,0.64,0,0,1,89.2,45,1,1,0,0,1,89.57,44.91Z" fill="#fff"/><path d="M89.44,47.6a1.64,1.64,0,0,1-.82-0.2,1.4,1.4,0,0,1-.56-0.56l0-.07,0.51-.49,0.07,0.1a1.1,1.1,0,0,0,.37.34,0.91,0.91,0,0,0,.47.13,0.68,0.68,0,0,0,.49-0.18,0.63,0.63,0,0,0,.19-0.49,0.65,0.65,0,0,0,0-.26,0.6,0.6,0,0,0-.13-0.2,0.62,0.62,0,0,0-.2-0.13,0.75,0.75,0,0,0-.61,0,0.64,0.64,0,0,0-.26.23l0,0H88.13l0-.13,0-.12c0-.08,0-0.17.05-0.28l0.06-.29,0-.08c0-.14.05-0.28,0.08-0.42,0.07-.33.14-0.7,0.21-1.1l0-.08h2.11v0.77h-1.5l-0.14.74,0.06,0a1.42,1.42,0,0,1,1,0,1.4,1.4,0,0,1,.44.28,1.25,1.25,0,0,1,.3.44,1.49,1.49,0,0,1,0,1.13,1.33,1.33,0,0,1-.33.45,1.41,1.41,0,0,1-.49.29A1.75,1.75,0,0,1,89.44,47.6Zm-1.15-.79a1.21,1.21,0,0,0,.44.41,1.43,1.43,0,0,0,.71.18A1.56,1.56,0,0,0,90,47.3a1.21,1.21,0,0,0,.42-0.25,1.15,1.15,0,0,0,.28-0.38,1.28,1.28,0,0,0,0-1,1.07,1.07,0,0,0-.25-0.37A1.18,1.18,0,0,0,90,45.1,1.27,1.27,0,0,0,89.57,45a0.92,0.92,0,0,0-.33.05,0.53,0.53,0,0,0-.21.14l-0.25.28L89.06,44h1.46V43.61H88.79c-0.07.37-.14,0.71-0.2,1,0,0.14-.06.28-0.08,0.41l0,0.08-0.06.3-0.05.27h0.36A0.83,0.83,0,0,1,89,45.44a1,1,0,0,1,.78,0,0.81,0.81,0,0,1,.45.44,0.87,0.87,0,0,1,.07.34,0.84,0.84,0,0,1-.25.64,0.89,0.89,0,0,1-.64.24,1.11,1.11,0,0,1-.57-0.16,1.33,1.33,0,0,1-.36-0.31Z"/><path d="M109.91,45.09l2.33-1.41v0.65l-1.45.9,1.45,0.88v0.68l-2.33-1.39v-0.3Z" fill="#fff"/><path d="M112.34,47l-2.54-1.51V45l2.54-1.53v0.89l-1.35.84L112.34,46V47ZM110,45.34l2.12,1.26V46.17l-1.54-.93,1.54-1V43.87L110,45.15v0.19Z"/><path d="M114.16,46.67a2.22,2.22,0,0,1,0-.43,1.2,1.2,0,0,1,.14-0.37,1.4,1.4,0,0,1,.27-0.33,2.24,2.24,0,0,1,.44-0.31l0.37-.2,0.3-.17a0.88,0.88,0,0,0,.21-0.18,0.35,0.35,0,0,0,.08-0.22,0.43,0.43,0,0,0-.15-0.32,0.63,0.63,0,0,0-.44-0.14,0.87,0.87,0,0,0-.27,0,1,1,0,0,0-.41.25l-0.14.15L114.2,44l0.17-.15a1.7,1.7,0,0,1,.29-0.17A2.06,2.06,0,0,1,115,43.5a1.88,1.88,0,0,1,.47-0.06,1.59,1.59,0,0,1,.48.07,1.09,1.09,0,0,1,.36.19,0.82,0.82,0,0,1,.22.29,0.86,0.86,0,0,1,.08.36,0.78,0.78,0,0,1-.08.37,1.16,1.16,0,0,1-.21.28,1.38,1.38,0,0,1-.27.21l-0.27.15-0.26.13-0.29.17a2,2,0,0,0-.25.21,0.62,0.62,0,0,0-.16.24h1.83v0.55h-2.57Z" fill="#fff"/><path d="M116.83,46.77h-2.77v-0.1a2.33,2.33,0,0,1,0-.45,1.31,1.31,0,0,1,.15-0.41,1.47,1.47,0,0,1,.29-0.36,2.27,2.27,0,0,1,.46-0.32l0.33-.18,0,0,0.29-.17a0.76,0.76,0,0,0,.18-0.16,0.24,0.24,0,0,0,.06-0.16,0.33,0.33,0,0,0-.12-0.24,0.53,0.53,0,0,0-.37-0.11,0.76,0.76,0,0,0-.24,0,0.91,0.91,0,0,0-.2.09l-0.16.13-0.13.14-0.08.09L114.06,44l0.06-.07,0.19-.17a1.86,1.86,0,0,1,.31-0.19,2.2,2.2,0,0,1,.4-0.15,1.93,1.93,0,0,1,1,0,1.2,1.2,0,0,1,.4.21,0.93,0.93,0,0,1,.25.33,1,1,0,0,1,.09.41,0.88,0.88,0,0,1-.09.41,1.23,1.23,0,0,1-.22.31,1.52,1.52,0,0,1-.29.22l-0.27.15-0.18.09-0.08,0-0.27.16a2,2,0,0,0-.24.2l-0.06.07h1.77v0.76Zm-2.56-.21h2.36V46.22h-1.87l0-.14A0.74,0.74,0,0,1,115,45.8a2,2,0,0,1,.26-0.22l0.3-.18,0.08,0,0.18-.09,0.26-.14a1.25,1.25,0,0,0,.25-0.19,1.05,1.05,0,0,0,.19-0.26,0.68,0.68,0,0,0,.07-0.32,0.77,0.77,0,0,0-.07-0.32,0.71,0.71,0,0,0-.2-0.25,1,1,0,0,0-.33-0.17,1.74,1.74,0,0,0-.89,0,2,2,0,0,0-.37.13,1.61,1.61,0,0,0-.27.16l-0.09.08,0.25,0.29,0.06-.07a1.13,1.13,0,0,1,.2-0.16,1.07,1.07,0,0,1,.25-0.12,1,1,0,0,1,.31,0,0.73,0.73,0,0,1,.51.17,0.53,0.53,0,0,1,.19.39,0.45,0.45,0,0,1-.1.29,1,1,0,0,1-.23.21l-0.31.18,0,0-0.33.18a2.2,2.2,0,0,0-.42.29,1.33,1.33,0,0,0-.25.31,1.08,1.08,0,0,0-.13.34A1.86,1.86,0,0,0,114.26,46.56Z"/><path d="M120,45.53a1,1,0,0,1-.11.48,1.16,1.16,0,0,1-.31.37,1.4,1.4,0,0,1-.45.24,1.71,1.71,0,0,1-.54.08,1.65,1.65,0,0,1-.55-0.09,1.39,1.39,0,0,1-.45-0.25,1.17,1.17,0,0,1-.3-0.38,1.08,1.08,0,0,1-.11-0.48,0.85,0.85,0,0,1,.06-0.32,1.09,1.09,0,0,1,.16-0.27,1.19,1.19,0,0,1,.22-0.21,1.49,1.49,0,0,1,.24-0.14,1,1,0,0,1-.39-0.3,0.73,0.73,0,0,1-.16-0.46,0.88,0.88,0,0,1,.12-0.45,1.12,1.12,0,0,1,.3-0.33,1.37,1.37,0,0,1,.41-0.21,1.51,1.51,0,0,1,.45-0.07,1.54,1.54,0,0,1,.45.07,1.4,1.4,0,0,1,.42.2,1.06,1.06,0,0,1,.3.33,0.87,0.87,0,0,1,.12.45,0.74,0.74,0,0,1-.16.47,1,1,0,0,1-.4.31,1.51,1.51,0,0,1,.26.15,1,1,0,0,1,.22.22,1.06,1.06,0,0,1,.15.27A0.93,0.93,0,0,1,120,45.53Zm-0.62,0a0.58,0.58,0,0,0-.07-0.29,0.71,0.71,0,0,0-.18-0.21,0.81,0.81,0,0,0-.25-0.13,1,1,0,0,0-.29,0,0.91,0.91,0,0,0-.29,0,0.78,0.78,0,0,0-.25.13,0.71,0.71,0,0,0-.17.21,0.6,0.6,0,0,0-.07.28,0.57,0.57,0,0,0,.07.28,0.67,0.67,0,0,0,.18.21,0.84,0.84,0,0,0,.25.13,0.9,0.9,0,0,0,.29,0,0.87,0.87,0,0,0,.29,0,0.9,0.9,0,0,0,.25-0.14,0.73,0.73,0,0,0,.18-0.21A0.56,0.56,0,0,0,119.43,45.49ZM118,43.81A0.43,0.43,0,0,0,118,44a0.53,0.53,0,0,0,.15.17,0.79,0.79,0,0,0,.21.1,0.8,0.8,0,0,0,.23,0,0.84,0.84,0,0,0,.24,0,0.71,0.71,0,0,0,.21-0.11,0.6,0.6,0,0,0,.16-0.17,0.45,0.45,0,0,0,.06-0.24,0.44,0.44,0,0,0-.05-0.22,0.55,0.55,0,0,0-.15-0.17,0.63,0.63,0,0,0-.21-0.11,0.89,0.89,0,0,0-.25,0,0.77,0.77,0,0,0-.25,0,0.68,0.68,0,0,0-.21.11,0.51,0.51,0,0,0-.14.17A0.47,0.47,0,0,0,118,43.81Z" fill="#fff"/><path d="M118.63,46.82a1.74,1.74,0,0,1-.59-0.1,1.51,1.51,0,0,1-.48-0.27,1.28,1.28,0,0,1-.32-0.42,1.19,1.19,0,0,1-.12-0.53,1,1,0,0,1,.07-0.36,1.22,1.22,0,0,1,.17-0.3,1.3,1.3,0,0,1,.24-0.23l0.09-.06a1.16,1.16,0,0,1-.25-0.24,0.84,0.84,0,0,1-.18-0.53,1,1,0,0,1,.13-0.5,1.23,1.23,0,0,1,.33-0.36,1.51,1.51,0,0,1,.44-0.22,1.65,1.65,0,0,1,1,0,1.47,1.47,0,0,1,.45.22,1.17,1.17,0,0,1,.33.36,1,1,0,0,1,.13.5,0.85,0.85,0,0,1-.18.53,1.19,1.19,0,0,1-.26.24l0.1,0.07a1.13,1.13,0,0,1,.24.24,1.17,1.17,0,0,1,.16.3,1,1,0,0,1,.06.36,1.17,1.17,0,0,1-.12.53,1.29,1.29,0,0,1-.33.41,1.53,1.53,0,0,1-.48.26A1.8,1.8,0,0,1,118.63,46.82Zm0-4a1.39,1.39,0,0,0-.42.06,1.27,1.27,0,0,0-.38.19,1,1,0,0,0-.27.3,0.78,0.78,0,0,0-.1.4,0.63,0.63,0,0,0,.14.4,0.89,0.89,0,0,0,.35.27l0.21,0.09-0.21.1-0.23.13a1,1,0,0,0-.2.19,1,1,0,0,0-.14.24,0.76,0.76,0,0,0-.05.28,1,1,0,0,0,.1.44,1.08,1.08,0,0,0,.27.35,1.32,1.32,0,0,0,.41.23,1.66,1.66,0,0,0,1,0,1.3,1.3,0,0,0,.42-0.22,1.05,1.05,0,0,0,.28-0.34,1,1,0,0,0,.1-0.44,0.82,0.82,0,0,0,0-.29,0.94,0.94,0,0,0-.13-0.25,0.91,0.91,0,0,0-.2-0.2,1.31,1.31,0,0,0-.24-0.14l-0.21-.1,0.21-.09a0.92,0.92,0,0,0,.36-0.28,0.64,0.64,0,0,0,.14-0.4,0.77,0.77,0,0,0-.1-0.4,0.94,0.94,0,0,0-.27-0.3,1.29,1.29,0,0,0-.39-0.19A1.42,1.42,0,0,0,118.64,42.84Zm0,3.43a1,1,0,0,1-.32-0.05,1,1,0,0,1-.28-0.15,0.78,0.78,0,0,1-.21-0.24,0.67,0.67,0,0,1-.08-0.33,0.7,0.7,0,0,1,.08-0.33,0.82,0.82,0,0,1,.2-0.25,0.89,0.89,0,0,1,.28-0.15,1.06,1.06,0,0,1,.64,0,0.92,0.92,0,0,1,.29.15,0.81,0.81,0,0,1,.21.25,0.71,0.71,0,0,1,0,.66,0.84,0.84,0,0,1-.2.24,1,1,0,0,1-.28.16A1,1,0,0,1,118.65,46.27Zm0-1.35a0.81,0.81,0,0,0-.26,0,0.66,0.66,0,0,0-.22.12,0.61,0.61,0,0,0-.15.18,0.5,0.5,0,0,0-.05.23,0.46,0.46,0,0,0,.06.23,0.57,0.57,0,0,0,.15.18,0.75,0.75,0,0,0,.22.12,0.77,0.77,0,0,0,.73-0.12,0.61,0.61,0,0,0,.15-0.18,0.46,0.46,0,0,0,.05-0.22,0.48,0.48,0,0,0-.06-0.23,0.61,0.61,0,0,0-.16-0.18,0.69,0.69,0,0,0-.22-0.11A0.83,0.83,0,0,0,118.64,44.92Zm0-.47a0.91,0.91,0,0,1-.26,0,0.89,0.89,0,0,1-.24-0.12,0.63,0.63,0,0,1-.18-0.2,0.54,0.54,0,0,1-.08-0.29,0.58,0.58,0,0,1,.06-0.27,0.62,0.62,0,0,1,.17-0.2,0.79,0.79,0,0,1,.24-0.12,1,1,0,0,1,.57,0,0.74,0.74,0,0,1,.24.12,0.65,0.65,0,0,1,.17.2,0.54,0.54,0,0,1,.07.27,0.56,0.56,0,0,1-.08.29,0.7,0.7,0,0,1-.18.2,0.8,0.8,0,0,1-.24.12A0.94,0.94,0,0,1,118.64,44.45Zm0-1.07a0.67,0.67,0,0,0-.22,0,0.57,0.57,0,0,0-.18.09,0.41,0.41,0,0,0-.12.13,0.37,0.37,0,0,0,0,.17,0.33,0.33,0,0,0,0,.18,0.41,0.41,0,0,0,.12.13,0.68,0.68,0,0,0,.18.09,0.71,0.71,0,0,0,.41,0,0.63,0.63,0,0,0,.18-0.09,0.5,0.5,0,0,0,.13-0.14,0.35,0.35,0,0,0,0-.18,0.34,0.34,0,0,0,0-.17A0.44,0.44,0,0,0,119,43.5a0.54,0.54,0,0,0-.18-0.09A0.8,0.8,0,0,0,118.64,43.38Z"/><path d="M4.29,12.54l2.33-1.41v0.65l-1.45.9,1.45,0.88v0.68L4.29,12.84v-0.3Z" fill="#fff"/><path d="M6.72,14.41L4.19,12.9V12.48l2.54-1.53v0.89l-1.35.84,1.35,0.82v0.92ZM4.39,12.78L6.52,14V13.61L5,12.67l1.54-1V11.31L4.39,12.59v0.19Z"/><path d="M7.28,12.87V12.32H8.94v0.55H7.28Z" fill="#fff"/><path d="M9,13H7.18V12.22H9V13Zm-1.66-.21H8.84V12.42H7.39v0.34Z"/><path d="M11.64,13.56v0.55H9.52V13.56h0.79V11.63a0.62,0.62,0,0,1-.16.14l-0.23.13L9.66,12a0.88,0.88,0,0,1-.24,0V11.47a0.64,0.64,0,0,0,.26-0.07A2.06,2.06,0,0,0,10,11.25l0.24-.18a0.51,0.51,0,0,0,.12-0.13h0.63v2.62h0.7Z" fill="#fff"/><path d="M11.74,14.21H9.42V13.46h0.79v-1.6L10,12l-0.28.11a1,1,0,0,1-.27,0H9.31V11.37h0.1a0.54,0.54,0,0,0,.21-0.06l0.27-.15L10.12,11l0.09-.09,0-.05H11v2.62h0.7v0.76ZM9.63,14h1.91V13.66h-0.7V11H10.36l-0.1.1L10,11.34a2.21,2.21,0,0,1-.3.16l-0.2.07v0.36l0.11,0,0.25-.1,0.22-.12a0.52,0.52,0,0,0,.13-0.12l0.19-.25v2.35H9.63V14Z"/><path d="M13.35,12.35a1.38,1.38,0,0,1,.51.09,1.29,1.29,0,0,1,.41.26,1.15,1.15,0,0,1,.27.4,1.38,1.38,0,0,1,0,1,1.23,1.23,0,0,1-.3.42,1.32,1.32,0,0,1-.45.27,1.64,1.64,0,0,1-.56.09,1.52,1.52,0,0,1-.76-0.19,1.3,1.3,0,0,1-.52-0.52l0.37-.35a1.21,1.21,0,0,0,.4.38,1,1,0,0,0,.52.14,0.79,0.79,0,0,0,.57-0.21A0.73,0.73,0,0,0,14,13.63a0.77,0.77,0,0,0-.06-0.3,0.72,0.72,0,0,0-.16-0.23,0.74,0.74,0,0,0-.24-0.15,0.78,0.78,0,0,0-.3-0.06,0.87,0.87,0,0,0-.39.09,0.75,0.75,0,0,0-.3.27H12l0-.13,0.05-.28,0.07-.37c0-.14.05-0.28,0.08-0.42q0.1-.49.22-1.1h1.92V11.5H12.93l-0.2,1.07A0.65,0.65,0,0,1,13,12.41,1,1,0,0,1,13.35,12.35Z" fill="#fff"/><path d="M13.22,15a1.63,1.63,0,0,1-.82-0.2,1.41,1.41,0,0,1-.56-0.56l0-.07,0.51-.49,0.07,0.1a1.1,1.1,0,0,0,.37.34,0.9,0.9,0,0,0,.47.13,0.68,0.68,0,0,0,.49-0.18,0.63,0.63,0,0,0,.19-0.48,0.67,0.67,0,0,0,0-.26,0.62,0.62,0,0,0-.13-0.2,0.65,0.65,0,0,0-.2-0.13,0.76,0.76,0,0,0-.6,0,0.65,0.65,0,0,0-.26.23l0,0H11.91l0-.13,0-.12L12,12.81l0.06-.29,0-.08c0-.14.05-0.28,0.08-0.42q0.1-.49.21-1.1l0-.08h2.11v0.77H13l-0.14.74,0.06,0a1.43,1.43,0,0,1,1,0,1.39,1.39,0,0,1,.44.28,1.25,1.25,0,0,1,.3.43,1.49,1.49,0,0,1,0,1.13,1.36,1.36,0,0,1-.32.45,1.44,1.44,0,0,1-.49.29A1.75,1.75,0,0,1,13.22,15Zm-1.15-.79a1.2,1.2,0,0,0,.44.41,1.42,1.42,0,0,0,.71.18,1.56,1.56,0,0,0,.52-0.09,1.23,1.23,0,0,0,.42-0.25,1.15,1.15,0,0,0,.28-0.38,1.28,1.28,0,0,0,0-1,1.06,1.06,0,0,0-.25-0.36,1.19,1.19,0,0,0-.38-0.24,1.22,1.22,0,0,0-.8,0,0.56,0.56,0,0,0-.21.14l-0.25.27,0.28-1.52h1.46V11H12.57q-0.11.56-.2,1c0,0.14-.06.28-0.08,0.41l0,0.08-0.06.3-0.05.27h0.36a0.86,0.86,0,0,1,.31-0.26,1,1,0,0,1,.78,0,0.81,0.81,0,0,1,.45.44,0.88,0.88,0,0,1,.07.34,0.83,0.83,0,0,1-.25.63,0.89,0.89,0,0,1-.64.24,1.1,1.1,0,0,1-.57-0.16A1.32,1.32,0,0,1,12.3,14Z"/><path d="M33.21,12.87V12.32h1.66v0.55H33.21Z" fill="#fff"/><path d="M35,13H33.11V12.22H35V13Zm-1.66-.21h1.45V12.42H33.31v0.34Z"/><path d="M38.33,12.8a1.32,1.32,0,0,1-.11.53,1.34,1.34,0,0,1-.3.44,1.39,1.39,0,0,1-.45.29,1.48,1.48,0,0,1-.56.11A1.44,1.44,0,0,1,36.32,14a1.27,1.27,0,0,1-.46-0.34,1.6,1.6,0,0,1-.29-0.55,2.43,2.43,0,0,1-.1-0.73,4,4,0,0,1,.11-1,2.26,2.26,0,0,1,.3-0.71,1.29,1.29,0,0,1,.47-0.43A1.32,1.32,0,0,1,37,10.15a1.4,1.4,0,0,1,.69.17,1.33,1.33,0,0,1,.51.49l-0.36.38a1,1,0,0,0-.35-0.37,0.93,0.93,0,0,0-.5-0.14,0.77,0.77,0,0,0-.66.35A1.75,1.75,0,0,0,36,12a0.92,0.92,0,0,1,.37-0.39A1.09,1.09,0,0,1,37,11.48a1.4,1.4,0,0,1,.54.1,1.37,1.37,0,0,1,.43.28,1.31,1.31,0,0,1,.29.42A1.28,1.28,0,0,1,38.33,12.8Zm-1.42.84a0.79,0.79,0,0,0,.32-0.07,0.83,0.83,0,0,0,.27-0.18,0.89,0.89,0,0,0,.18-0.27,0.81,0.81,0,0,0,.07-0.32,0.79,0.79,0,0,0-.07-0.32A0.87,0.87,0,0,0,37.24,12a0.82,0.82,0,0,0-.65,0,0.89,0.89,0,0,0-.27.18,0.86,0.86,0,0,0-.18.26,0.79,0.79,0,0,0-.07.32,0.81,0.81,0,0,0,.07.32,0.89,0.89,0,0,0,.18.27,0.84,0.84,0,0,0,.27.18A0.79,0.79,0,0,0,36.91,13.64Z" fill="#fff"/><path d="M36.91,14.27a1.54,1.54,0,0,1-.63-0.13,1.37,1.37,0,0,1-.49-0.37,1.69,1.69,0,0,1-.31-0.58,2.54,2.54,0,0,1-.11-0.77,4.13,4.13,0,0,1,.11-1,2.39,2.39,0,0,1,.32-0.74A1.37,1.37,0,0,1,37,10a1.51,1.51,0,0,1,.74.18,1.43,1.43,0,0,1,.55.52l0,0.07-0.51.54-0.07-.12a0.87,0.87,0,0,0-.31-0.33A0.83,0.83,0,0,0,37,10.78a0.67,0.67,0,0,0-.58.31,1.36,1.36,0,0,0-.21.58l0.18-.13a1.4,1.4,0,0,1,1.19,0,1.49,1.49,0,0,1,.46.3,1.44,1.44,0,0,1,.31.45,1.4,1.4,0,0,1,.11.56,1.43,1.43,0,0,1-.12.57,1.46,1.46,0,0,1-.32.47,1.5,1.5,0,0,1-.49.31A1.6,1.6,0,0,1,36.91,14.27Zm0.06-4a1.23,1.23,0,0,0-.57.13,1.19,1.19,0,0,0-.43.4,2.19,2.19,0,0,0-.29.68,4,4,0,0,0-.11,1,2.35,2.35,0,0,0,.1.7,1.53,1.53,0,0,0,.27.51,1.16,1.16,0,0,0,.42.32,1.44,1.44,0,0,0,1.07,0,1.29,1.29,0,0,0,.42-0.27,1.24,1.24,0,0,0,.28-0.4,1.22,1.22,0,0,0,.1-0.49,1.16,1.16,0,0,0-.1-0.48,1.2,1.2,0,0,0-.26-0.39,1.29,1.29,0,0,0-.4-0.26,1.3,1.3,0,0,0-.5-0.09,1,1,0,0,0-.51.13,0.81,0.81,0,0,0-.32.35l-0.21.42V12a1.86,1.86,0,0,1,.28-1,0.87,0.87,0,0,1,.75-0.4,1,1,0,0,1,.55.15,1.08,1.08,0,0,1,.31.29L38,10.79a1.22,1.22,0,0,0-.42-0.38A1.29,1.29,0,0,0,37,10.25Zm-0.06,3.5a0.9,0.9,0,0,1-.37-0.08,1,1,0,0,1-.3-0.2,1,1,0,0,1-.2-0.3A0.91,0.91,0,0,1,36,12.8,0.9,0.9,0,0,1,36,12.44a1,1,0,0,1,.5-0.5,0.92,0.92,0,0,1,.73,0,1,1,0,0,1,.5.5,0.93,0.93,0,0,1,0,.73,1,1,0,0,1-.2.3,0.93,0.93,0,0,1-.3.21A0.91,0.91,0,0,1,36.91,13.75Zm0-1.67a0.7,0.7,0,0,0-.28.06,0.79,0.79,0,0,0-.23.16,0.76,0.76,0,0,0-.16.23,0.69,0.69,0,0,0-.06.28,0.7,0.7,0,0,0,.06.28,0.79,0.79,0,0,0,.16.24,0.75,0.75,0,0,0,.23.16,0.72,0.72,0,0,0,.57,0,0.75,0.75,0,0,0,.23-0.16,0.83,0.83,0,0,0,.16-0.24,0.71,0.71,0,0,0,.06-0.28,0.69,0.69,0,0,0-.06-0.28,0.76,0.76,0,0,0-.16-0.23,0.79,0.79,0,0,0-.23-0.16A0.71,0.71,0,0,0,36.91,12.07Z"/><path d="M63.39,12.49a2,2,0,0,1-.11.67,1.64,1.64,0,0,1-.3.53,1.36,1.36,0,0,1-.45.35,1.28,1.28,0,0,1-.56.13A1.3,1.3,0,0,1,61.41,14,1.31,1.31,0,0,1,61,13.69a1.67,1.67,0,0,1-.3-0.53,2.15,2.15,0,0,1,0-1.35,1.69,1.69,0,0,1,.3-0.53,1.33,1.33,0,0,1,.45-0.35A1.26,1.26,0,0,1,62,10.8a1.24,1.24,0,0,1,.56.13,1.38,1.38,0,0,1,.45.35,1.65,1.65,0,0,1,.3.53A2,2,0,0,1,63.39,12.49Zm-0.62,0A1.65,1.65,0,0,0,62.71,12a1.14,1.14,0,0,0-.17-0.35,0.78,0.78,0,0,0-.25-0.23A0.67,0.67,0,0,0,62,11.37a0.68,0.68,0,0,0-.33.08,0.77,0.77,0,0,0-.26.23,1.14,1.14,0,0,0-.17.35,1.82,1.82,0,0,0,0,.91,1.11,1.11,0,0,0,.17.35,0.77,0.77,0,0,0,.26.23,0.66,0.66,0,0,0,.33.08,0.65,0.65,0,0,0,.32-0.08,0.78,0.78,0,0,0,.25-0.23,1.11,1.11,0,0,0,.17-0.35A1.66,1.66,0,0,0,62.77,12.49Z" fill="#fff"/><path d="M62,14.27a1.4,1.4,0,0,1-.61-0.13,1.42,1.42,0,0,1-.48-0.38,1.77,1.77,0,0,1-.31-0.56,2.25,2.25,0,0,1,0-1.42,1.8,1.8,0,0,1,.32-0.56,1.43,1.43,0,0,1,.48-0.38,1.41,1.41,0,0,1,1.22,0,1.48,1.48,0,0,1,.48.38,1.76,1.76,0,0,1,.32.57,2.26,2.26,0,0,1,0,1.42,1.73,1.73,0,0,1-.32.56,1.48,1.48,0,0,1-.48.38A1.38,1.38,0,0,1,62,14.27Zm0-3.36a1.17,1.17,0,0,0-.52.12,1.24,1.24,0,0,0-.41.33,1.59,1.59,0,0,0-.28.5,2,2,0,0,0,0,1.28,1.57,1.57,0,0,0,.28.5,1.21,1.21,0,0,0,.41.32,1.24,1.24,0,0,0,1,0,1.27,1.27,0,0,0,.42-0.32,1.52,1.52,0,0,0,.28-0.5,2,2,0,0,0,0-1.28,1.56,1.56,0,0,0-.28-0.5A1.27,1.27,0,0,0,62.49,11,1.14,1.14,0,0,0,62,10.9Zm0,2.8a0.77,0.77,0,0,1-.38-0.09,0.89,0.89,0,0,1-.29-0.26A1.21,1.21,0,0,1,61.12,13a1.8,1.8,0,0,1-.06-0.48A1.83,1.83,0,0,1,61.12,12a1.27,1.27,0,0,1,.18-0.39,0.88,0.88,0,0,1,.29-0.26,0.8,0.8,0,0,1,.75,0,0.89,0.89,0,0,1,.29.26,1.23,1.23,0,0,1,.18.39,1.93,1.93,0,0,1,0,1,1.21,1.21,0,0,1-.18.38,0.89,0.89,0,0,1-.29.26A0.76,0.76,0,0,1,62,13.7Zm0-2.23a0.57,0.57,0,0,0-.28.07,0.67,0.67,0,0,0-.22.2,1.06,1.06,0,0,0-.15.32,1.72,1.72,0,0,0,0,.85,1,1,0,0,0,.15.32,0.66,0.66,0,0,0,.22.2,0.58,0.58,0,0,0,.55,0,0.67,0.67,0,0,0,.22-0.2,1,1,0,0,0,.15-0.32,1.72,1.72,0,0,0,0-.85,1,1,0,0,0-.15-0.32,0.68,0.68,0,0,0-.22-0.2A0.57,0.57,0,0,0,62,11.47Z"/><path d="M89.67,12.8a1.32,1.32,0,0,1-.11.53,1.34,1.34,0,0,1-.3.44,1.37,1.37,0,0,1-.45.29,1.48,1.48,0,0,1-.56.11A1.43,1.43,0,0,1,87.66,14a1.26,1.26,0,0,1-.46-0.34,1.6,1.6,0,0,1-.29-0.55,2.43,2.43,0,0,1-.1-0.73,4,4,0,0,1,.11-1,2.26,2.26,0,0,1,.3-0.71,1.26,1.26,0,0,1,1.09-.57,1.41,1.41,0,0,1,.69.17,1.33,1.33,0,0,1,.51.49l-0.36.38a1,1,0,0,0-.35-0.37,0.93,0.93,0,0,0-.5-0.14,0.77,0.77,0,0,0-.66.35,1.74,1.74,0,0,0-.26,1,0.92,0.92,0,0,1,.37-0.39,1.08,1.08,0,0,1,.56-0.14,1.4,1.4,0,0,1,.54.1,1.36,1.36,0,0,1,.43.28,1.3,1.3,0,0,1,.29.42A1.28,1.28,0,0,1,89.67,12.8Zm-1.42.84a0.79,0.79,0,0,0,.32-0.07,0.82,0.82,0,0,0,.27-0.18A0.89,0.89,0,0,0,89,13.13a0.83,0.83,0,0,0,.07-0.32A0.81,0.81,0,0,0,89,12.48,0.87,0.87,0,0,0,88.58,12a0.82,0.82,0,0,0-.65,0,0.88,0.88,0,0,0-.27.18,0.83,0.83,0,0,0-.18.26,0.77,0.77,0,0,0-.07.32,0.79,0.79,0,0,0,.07.32,0.85,0.85,0,0,0,.18.27,0.84,0.84,0,0,0,.27.18A0.8,0.8,0,0,0,88.25,13.64Z" fill="#fff"/><path d="M88.25,14.27a1.54,1.54,0,0,1-.63-0.13,1.37,1.37,0,0,1-.49-0.37,1.69,1.69,0,0,1-.31-0.58,2.53,2.53,0,0,1-.11-0.77,4.1,4.1,0,0,1,.11-1,2.37,2.37,0,0,1,.32-0.74,1.39,1.39,0,0,1,.51-0.46,1.55,1.55,0,0,1,1.41,0,1.43,1.43,0,0,1,.54.52l0,0.07-0.51.54-0.07-.12a0.88,0.88,0,0,0-.31-0.33,0.84,0.84,0,0,0-.44-0.12,0.67,0.67,0,0,0-.58.31,1.35,1.35,0,0,0-.21.58l0.18-.13a1.4,1.4,0,0,1,1.19,0,1.45,1.45,0,0,1,.46.3,1.39,1.39,0,0,1,.43,1,1.43,1.43,0,0,1-.12.57,1.46,1.46,0,0,1-.81.78A1.61,1.61,0,0,1,88.25,14.27Zm0.06-4a1.21,1.21,0,0,0-.57.13,1.19,1.19,0,0,0-.44.4,2.17,2.17,0,0,0-.29.68,3.94,3.94,0,0,0-.11,1,2.34,2.34,0,0,0,.1.7,1.53,1.53,0,0,0,.27.51,1.16,1.16,0,0,0,.42.32,1.43,1.43,0,0,0,1.07,0,1.27,1.27,0,0,0,.42-0.27,1.24,1.24,0,0,0,.28-0.4,1.21,1.21,0,0,0,.1-0.49,1.16,1.16,0,0,0-.1-0.48,1.17,1.17,0,0,0-.27-0.39,1.27,1.27,0,0,0-.4-0.26,1.2,1.2,0,0,0-1,0,0.82,0.82,0,0,0-.32.35l-0.2.42V12a1.84,1.84,0,0,1,.28-1,0.87,0.87,0,0,1,.75-0.4,1,1,0,0,1,.55.15,1.07,1.07,0,0,1,.31.29l0.21-.22A1.22,1.22,0,0,0,89,10.41,1.3,1.3,0,0,0,88.31,10.25Zm-0.06,3.5a0.9,0.9,0,0,1-.37-0.08,1,1,0,0,1-.5-0.51,0.9,0.9,0,0,1-.07-0.36,0.89,0.89,0,0,1,.08-0.37,0.93,0.93,0,0,1,.2-0.29,1,1,0,0,1,.3-0.2,0.92,0.92,0,0,1,.73,0,1,1,0,0,1,.5.5,0.91,0.91,0,0,1,.08.37,0.92,0.92,0,0,1-.07.36,1,1,0,0,1-.2.3,0.92,0.92,0,0,1-.3.21A0.91,0.91,0,0,1,88.25,13.75Zm0-1.67a0.7,0.7,0,0,0-.28.06,0.76,0.76,0,0,0-.23.16,0.72,0.72,0,0,0-.16.23,0.67,0.67,0,0,0-.06.28,0.69,0.69,0,0,0,.06.28,0.76,0.76,0,0,0,.16.24,0.72,0.72,0,0,0,1,0,0.79,0.79,0,0,0,.16-0.24A0.72,0.72,0,0,0,89,12.8a0.69,0.69,0,0,0-.06-0.28,0.77,0.77,0,0,0-.16-0.23,0.75,0.75,0,0,0-.23-0.16A0.7,0.7,0,0,0,88.25,12.07Z"/><path d="M117.13,13.56v0.55H115V13.56h0.79V11.63a0.62,0.62,0,0,1-.16.14l-0.23.13-0.27.1a0.88,0.88,0,0,1-.24,0V11.47a0.64,0.64,0,0,0,.26-0.07,2.06,2.06,0,0,0,.28-0.16l0.24-.18a0.51,0.51,0,0,0,.12-0.13h0.63v2.62h0.7Z" fill="#fff"/><path d="M117.24,14.21h-2.32V13.46h0.79v-1.6l-0.24.14-0.28.11a1,1,0,0,1-.27,0h-0.1V11.37h0.1a0.54,0.54,0,0,0,.21-0.06l0.27-.15,0.23-.17,0.09-.09,0-.05h0.79v2.62h0.7v0.76ZM115.12,14H117V13.66h-0.7V11h-0.47l-0.1.1-0.25.19a2.21,2.21,0,0,1-.3.16l-0.2.07v0.36l0.11,0,0.25-.1,0.22-.12a0.52,0.52,0,0,0,.13-0.12l0.19-.25v2.35h-0.79V14Z"/><path d="M117.49,14.11a2.23,2.23,0,0,1,0-.43,1.17,1.17,0,0,1,.14-0.37,1.35,1.35,0,0,1,.27-0.33,2.24,2.24,0,0,1,.44-0.31l0.37-.19,0.3-.17a0.86,0.86,0,0,0,.21-0.18,0.35,0.35,0,0,0,.08-0.22,0.43,0.43,0,0,0-.15-0.32,0.62,0.62,0,0,0-.44-0.14,0.84,0.84,0,0,0-.27,0,1.16,1.16,0,0,0-.23.1,1,1,0,0,0-.18.14l-0.14.15-0.39-.45,0.17-.15a1.7,1.7,0,0,1,.29-0.17,2.14,2.14,0,0,1,.39-0.14,1.79,1.79,0,0,1,.47-0.06,1.56,1.56,0,0,1,.48.07,1.11,1.11,0,0,1,.36.19,0.83,0.83,0,0,1,.22.29,0.86,0.86,0,0,1,.08.36,0.78,0.78,0,0,1-.08.37,1.15,1.15,0,0,1-.21.28,1.35,1.35,0,0,1-.27.21l-0.27.15-0.26.13-0.29.17a2,2,0,0,0-.25.21,0.61,0.61,0,0,0-.16.24h1.83v0.55h-2.57Z" fill="#fff"/><path d="M120.16,14.21h-2.77v-0.1a2.34,2.34,0,0,1,0-.45,1.27,1.27,0,0,1,.15-0.41,1.45,1.45,0,0,1,.29-0.36,2.33,2.33,0,0,1,.46-0.32l0.37-.2,0.29-.17a0.81,0.81,0,0,0,.18-0.16,0.25,0.25,0,0,0,.06-0.16,0.32,0.32,0,0,0-.12-0.24,0.53,0.53,0,0,0-.37-0.11,0.74,0.74,0,0,0-.24,0l-0.21.09a0.79,0.79,0,0,0-.16.13l-0.13.14-0.08.09-0.53-.61,0.06-.07,0.19-.16a1.81,1.81,0,0,1,.31-0.19,2.24,2.24,0,0,1,.41-0.15,1.91,1.91,0,0,1,1,0,1.22,1.22,0,0,1,.39.21,1,1,0,0,1,.25.33,1,1,0,0,1,.09.41,0.88,0.88,0,0,1-.09.41,1.21,1.21,0,0,1-.22.31,1.43,1.43,0,0,1-.29.22l-0.27.15L119,13l-0.27.16a2,2,0,0,0-.24.2l-0.06.07h1.77v0.76ZM117.59,14h2.36V13.66h-1.87l0-.14a0.71,0.71,0,0,1,.18-0.29,2.12,2.12,0,0,1,.26-0.22l0.3-.18,0.26-.13,0.26-.14a1.21,1.21,0,0,0,.24-0.19,1,1,0,0,0,.19-0.26,0.69,0.69,0,0,0,.07-0.32,0.77,0.77,0,0,0-.07-0.32,0.73,0.73,0,0,0-.2-0.25,1,1,0,0,0-.33-0.17,1.7,1.7,0,0,0-.89,0,2,2,0,0,0-.37.13,1.63,1.63,0,0,0-.27.16l-0.09.08,0.25,0.28,0.07-.07a1,1,0,0,1,.2-0.16,1.35,1.35,0,0,1,.25-0.12,1,1,0,0,1,.31,0,0.73,0.73,0,0,1,.51.17,0.53,0.53,0,0,1,.18.4,0.45,0.45,0,0,1-.1.29,1,1,0,0,1-.23.2l-0.31.18-0.36.19A2.16,2.16,0,0,0,118,13a1.26,1.26,0,0,0-.25.31,1.05,1.05,0,0,0-.13.34A1.89,1.89,0,0,0,117.59,14Z"/><path d="M116.26,42.05H7.74A7.75,7.75,0,0,1,0,34.31V22.81a7.75,7.75,0,0,1,7.74-7.74H116.26A7.75,7.75,0,0,1,124,22.81v11.5A7.75,7.75,0,0,1,116.26,42.05ZM7.74,16.45a6.37,6.37,0,0,0-6.37,6.37v11.5a6.37,6.37,0,0,0,6.37,6.37H116.26a6.37,6.37,0,0,0,6.37-6.37V22.81a6.37,6.37,0,0,0-6.37-6.37H7.74Z" fill="#fff"/><g clip-path="url(#a)"><rect x="115.15" y="15.01" width="8.16" height="12.86" fill="#2dfd73"/><rect x="115.15" y="29.26" width="8.16" height="12.86" fill="#800600"/><rect x="106.99" y="29.26" width="7.96" height="12.86" fill="#992302"/><rect x="106.99" y="15.01" width="7.96" height="12.86" fill="#2dfea3"/><rect x="98.83" y="15.01" width="7.96" height="12.86" fill="#23fdd8"/><rect x="98.83" y="29.26" width="7.96" height="12.86" fill="#b63f02"/><rect x="90.67" y="29.26" width="7.96" height="12.86" fill="#d25702"/><rect x="90.67" y="15.01" width="7.96" height="12.86" fill="#1beffe"/><rect x="82.51" y="29.26" width="7.96" height="12.86" fill="#f47501"/><rect x="82.51" y="15.01" width="7.96" height="12.86" fill="#37b5fe"/><rect x="74.34" y="29.26" width="7.96" height="12.86" fill="#fd8f02"/><rect x="74.34" y="15.01" width="7.96" height="12.86" fill="#3a7efe"/><rect x="66.18" y="15.01" width="7.96" height="12.86" fill="#2f4bfe"/><rect x="66.18" y="29.26" width="7.96" height="12.86" fill="#ffae00"/><rect x="58.02" y="29.26" width="7.96" height="12.86" fill="#fec701"/><rect x="58.02" y="15.01" width="7.96" height="12.86" fill="#0c10fe"/><rect x="49.86" y="29.26" width="7.96" height="12.86" fill="#fee401"/><rect x="49.86" y="15.01" width="7.96" height="12.86" fill="#5302f9"/><rect x="41.7" y="15.01" width="7.96" height="12.86" fill="#8701fe"/><rect x="41.7" y="29.26" width="7.96" height="12.86" fill="#f9fd02"/><rect x="33.54" y="29.26" width="7.96" height="12.86" fill="#cafd02"/><rect x="33.54" y="15.01" width="7.96" height="12.86" fill="#b502fd"/><rect x="25.38" y="15.01" width="7.96" height="12.86" fill="#e501fe"/><rect x="25.38" y="29.26" width="7.96" height="12.86" fill="#9cfe01"/><rect x="17.21" y="29.26" width="7.96" height="12.86" fill="#69fe01"/><rect x="17.21" y="15.01" width="7.96" height="12.86" fill="#f3f"/><rect x="9.05" y="15.01" width="7.96" height="12.86" fill="#ff70ff"/><rect x="9.05" y="29.26" width="7.96" height="12.86" fill="#25fe01"/><rect x="0.69" y="15.01" width="8.16" height="12.86" fill="#ffb3ff"/><rect x="0.69" y="29.26" width="8.16" height="12.86" fill="#21ff3f"/></g></svg>