<svg xmlns="http://www.w3.org/2000/svg" xmlns:xlink="http://www.w3.org/1999/xlink" viewBox="0 0 125 50"><defs><clipPath id="a"><rect x="1.19" y="16.09" width="122.62" height="25.61" rx="7.05" ry="7.05" fill="none"/></clipPath></defs><title>escala e iconos</title><path d="M30.52,3.61H29.21V7H28.58V3.61H27.27V3.06h3.25V3.61Z" fill="#fff"/><path d="M29.31,7.1H28.48V3.71H27.17V3h3.46V3.71H29.31V7.1Zm-0.63-.21h0.42V3.51h1.31V3.17h-3V3.51h1.31V6.89Z"/><path d="M31.65,7.05A1.54,1.54,0,0,1,31,6.93a1.43,1.43,0,0,1-.47-0.32,1.47,1.47,0,0,1-.3-0.48,1.54,1.54,0,0,1-.11-0.58A1.56,1.56,0,0,1,30.25,5a1.49,1.49,0,0,1,.3-0.48A1.41,1.41,0,0,1,31,4.17,1.55,1.55,0,0,1,31.65,4a1.49,1.49,0,0,1,.61.12,1.45,1.45,0,0,1,.47.32A1.39,1.39,0,0,1,33,5a1.56,1.56,0,0,1,.1.56s0,0.09,0,.13v0.1H30.8a1,1,0,0,0,.09.35,0.91,0.91,0,0,0,.19.27,0.85,0.85,0,0,0,.59.24,1,1,0,0,0,.24,0,0.85,0.85,0,0,0,.22-0.09,0.78,0.78,0,0,0,.18-0.14,0.68,0.68,0,0,0,.12-0.18L33,6.31a1.21,1.21,0,0,1-.5.53A1.54,1.54,0,0,1,31.65,7.05Zm0.88-1.72A1,1,0,0,0,32.44,5a0.87,0.87,0,0,0-.19-0.26A0.85,0.85,0,0,0,32,4.56a0.89,0.89,0,0,0-.33-0.06,0.87,0.87,0,0,0-.59.23,0.84,0.84,0,0,0-.19.26,1,1,0,0,0-.09.34h1.75Z" fill="#fff"/><path d="M31.65,7.15A1.64,1.64,0,0,1,31,7a1.54,1.54,0,0,1-.51-0.35,1.59,1.59,0,0,1-.33-0.51A1.65,1.65,0,0,1,30,5.55a1.67,1.67,0,0,1,.11-0.62,1.6,1.6,0,0,1,.33-0.52A1.53,1.53,0,0,1,31,4.07a1.75,1.75,0,0,1,1.32,0,1.58,1.58,0,0,1,.5.35,1.49,1.49,0,0,1,.32.51,1.66,1.66,0,0,1,.11.6s0,0.09,0,.13,0,0.08,0,.1V5.85H30.92a0.82,0.82,0,0,0,.24.44,0.74,0.74,0,0,0,.24.15,0.8,0.8,0,0,0,.5,0,0.76,0.76,0,0,0,.19-0.08,0.69,0.69,0,0,0,.15-0.12,0.57,0.57,0,0,0,.1-0.15l0-.08L33.1,6.24l0,0.11a1.32,1.32,0,0,1-.54.58A1.65,1.65,0,0,1,31.65,7.15Zm0-3a1.46,1.46,0,0,0-.58.11,1.3,1.3,0,0,0-.44.3,1.39,1.39,0,0,0-.28.45,1.47,1.47,0,0,0-.1.54,1.44,1.44,0,0,0,.1.54,1.37,1.37,0,0,0,.28.44,1.31,1.31,0,0,0,.44.3,1.56,1.56,0,0,0,1.33-.08,1.14,1.14,0,0,0,.4-0.38l-0.32-.09-0.1.13a0.89,0.89,0,0,1-.2.16,1,1,0,0,1-.24.1,1,1,0,0,1-.62,0,1,1,0,0,1-.3-0.2,1,1,0,0,1-.22-0.3,1.1,1.1,0,0,1-.1-0.39V5.64H33s0-.07,0-0.11A1.47,1.47,0,0,0,32.93,5a1.3,1.3,0,0,0-.27-0.44,1.35,1.35,0,0,0-.44-0.3A1.39,1.39,0,0,0,31.65,4.15Zm1,1.28h-2V5.32a1.12,1.12,0,0,1,.1-0.37A1,1,0,0,1,31,4.65a1,1,0,0,1,.3-0.19,1,1,0,0,1,.73,0,0.94,0.94,0,0,1,.3.19,1,1,0,0,1,.21.29,1.1,1.1,0,0,1,.1.37V5.43ZM30.9,5.22h1.51A0.87,0.87,0,0,0,32.34,5a0.77,0.77,0,0,0-.17-0.23,0.76,0.76,0,0,0-.24-0.15,0.79,0.79,0,0,0-.57,0A0.73,0.73,0,0,0,31,5,0.87,0.87,0,0,0,30.9,5.22Z"/><path d="M38.07,7H37.46V5.37a1,1,0,0,0-.13-0.59,0.45,0.45,0,0,0-.39-0.19,0.69,0.69,0,0,0-.47.19,1.07,1.07,0,0,0-.31.5V7H35.54V5.37a1,1,0,0,0-.13-0.6A0.44,0.44,0,0,0,35,4.59a0.71,0.71,0,0,0-.48.19,1,1,0,0,0-.31.49V7H33.63V4.1h0.55V4.68a1.22,1.22,0,0,1,.45-0.47A1.24,1.24,0,0,1,35.28,4a0.82,0.82,0,0,1,.57.19,0.81,0.81,0,0,1,.26.47,1.31,1.31,0,0,1,.46-0.49A1.19,1.19,0,0,1,37.2,4a0.84,0.84,0,0,1,.42.1,0.75,0.75,0,0,1,.27.26,1.08,1.08,0,0,1,.14.37,2.57,2.57,0,0,1,0,.45V7Z" fill="#fff"/><path d="M38.17,7.1H37.35V5.37a1,1,0,0,0-.11-0.53,0.34,0.34,0,0,0-.3-0.14,0.59,0.59,0,0,0-.4.16,1,1,0,0,0-.27.44V7.1H35.44V5.37a1,1,0,0,0-.11-0.54A0.34,0.34,0,0,0,35,4.69a0.6,0.6,0,0,0-.41.16,0.94,0.94,0,0,0-.28.43V7.1H33.53V4h0.76V4.36a1.29,1.29,0,0,1,.3-0.24,1.35,1.35,0,0,1,.69-0.18,0.92,0.92,0,0,1,.64.22,0.9,0.9,0,0,1,.22.31,1.35,1.35,0,0,1,.37-0.34,1.29,1.29,0,0,1,.69-0.18,1,1,0,0,1,.48.11,0.86,0.86,0,0,1,.3.29,1.18,1.18,0,0,1,.15.41,2.71,2.71,0,0,1,0,.47V7.1Zm-0.61-.21H38V5.23a2.46,2.46,0,0,0,0-.43,1,1,0,0,0-.12-0.34,0.65,0.65,0,0,0-.23-0.22,0.74,0.74,0,0,0-.37-0.08,1.08,1.08,0,0,0-.58.15,1.22,1.22,0,0,0-.42.45L36.05,5,36,4.73a0.7,0.7,0,0,0-.22-0.41,0.72,0.72,0,0,0-.5-0.16,1.15,1.15,0,0,0-.59.15,1.12,1.12,0,0,0-.41.43l-0.19.35V4.2H33.74V6.89h0.4V5.24a1.15,1.15,0,0,1,.34-0.54A0.81,0.81,0,0,1,35,4.49a0.54,0.54,0,0,1,.47.23,1.12,1.12,0,0,1,.15.66V6.89h0.4V5.25a1.18,1.18,0,0,1,.34-0.54,0.79,0.79,0,0,1,.54-0.22,0.55,0.55,0,0,1,.47.23,1.12,1.12,0,0,1,.15.65V6.89Z"/><path d="M40.42,7.05a1.14,1.14,0,0,1-.62-0.17,1.24,1.24,0,0,1-.42-0.43V8.18H38.77V4.1h0.54V4.62a1.27,1.27,0,0,1,.43-0.42A1.15,1.15,0,0,1,40.33,4a1.23,1.23,0,0,1,.55.12,1.39,1.39,0,0,1,.43.33A1.51,1.51,0,0,1,41.6,5a1.6,1.6,0,0,1,.1.57,1.81,1.81,0,0,1-.09.59,1.46,1.46,0,0,1-.27.48,1.31,1.31,0,0,1-.41.32A1.13,1.13,0,0,1,40.42,7.05Zm-0.2-.52a0.74,0.74,0,0,0,.35-0.08,0.86,0.86,0,0,0,.27-0.22A1,1,0,0,0,41,5.91a1.13,1.13,0,0,0,.06-0.37A1,1,0,0,0,41,5.17a1,1,0,0,0-.19-0.31,0.86,0.86,0,0,0-.29-0.21,0.84,0.84,0,0,0-.36-0.08,0.73,0.73,0,0,0-.24,0,1,1,0,0,0-.43.3,0.59,0.59,0,0,0-.12.22V5.9a1.14,1.14,0,0,0,.14.25,1.06,1.06,0,0,0,.2.2,1,1,0,0,0,.24.13A0.7,0.7,0,0,0,40.22,6.53Z" fill="#fff"/><path d="M39.48,8.28H38.67V4h0.74V4.32a1.39,1.39,0,0,1,.27-0.21,1.37,1.37,0,0,1,1.24,0,1.5,1.5,0,0,1,.46.35,1.63,1.63,0,0,1,.31.51,1.72,1.72,0,0,1,.11.61,1.93,1.93,0,0,1-.1.62,1.57,1.57,0,0,1-.29.51A1.42,1.42,0,0,1,41,7,1.31,1.31,0,0,1,39.75,7a1.39,1.39,0,0,1-.26-0.21V8.28Zm-0.61-.21h0.4v-2L39.47,6.4a1.13,1.13,0,0,0,.39.4,1.1,1.1,0,0,0,1,0,1.22,1.22,0,0,0,.38-0.3,1.36,1.36,0,0,0,.25-0.44,1.7,1.7,0,0,0,.09-0.56A1.49,1.49,0,0,0,41.5,5a1.42,1.42,0,0,0-.27-0.44,1.31,1.31,0,0,0-.4-0.3,1.11,1.11,0,0,0-1.44.41L39.2,5V4.2H38.87V8.07Zm1.34-1.44a0.81,0.81,0,0,1-.3-0.06,1.05,1.05,0,0,1-.26-0.15,1.18,1.18,0,0,1-.22-0.22,1.27,1.27,0,0,1-.16-0.27V5.11a0.72,0.72,0,0,1,.14-0.26,1.08,1.08,0,0,1,.22-0.2,1.07,1.07,0,0,1,.26-0.13,0.88,0.88,0,0,1,.68,0,1,1,0,0,1,.32.24,1.09,1.09,0,0,1,.21.34,1.11,1.11,0,0,1,.08.41,1.24,1.24,0,0,1-.07.4,1.12,1.12,0,0,1-.19.35,1,1,0,0,1-.3.25A0.85,0.85,0,0,1,40.22,6.63Zm-0.73-.76a1,1,0,0,0,.12.21,1,1,0,0,0,.18.18,0.84,0.84,0,0,0,.21.12,0.64,0.64,0,0,0,.53,0,0.76,0.76,0,0,0,.24-0.2,0.89,0.89,0,0,0,.16-0.28A1,1,0,0,0,41,5.54a0.92,0.92,0,0,0-.06-0.34,0.89,0.89,0,0,0-.17-0.28,0.75,0.75,0,0,0-.25-0.19,0.66,0.66,0,0,0-.53,0,0.86,0.86,0,0,0-.39.27,0.49,0.49,0,0,0-.09.17V5.88Z"/><path d="M43.56,7.05a1.54,1.54,0,0,1-.61-0.12,1.43,1.43,0,0,1-.47-0.32,1.47,1.47,0,0,1-.3-0.48,1.54,1.54,0,0,1-.11-0.58A1.56,1.56,0,0,1,42.17,5a1.49,1.49,0,0,1,.3-0.48,1.41,1.41,0,0,1,.47-0.33A1.55,1.55,0,0,1,43.57,4a1.49,1.49,0,0,1,.61.12,1.45,1.45,0,0,1,.47.32,1.39,1.39,0,0,1,.3.47,1.56,1.56,0,0,1,.1.56s0,0.09,0,.13v0.1H42.71a1,1,0,0,0,.09.35,0.91,0.91,0,0,0,.19.27,0.85,0.85,0,0,0,.59.24,1,1,0,0,0,.24,0A0.85,0.85,0,0,0,44,6.48a0.78,0.78,0,0,0,.18-0.14,0.68,0.68,0,0,0,.12-0.18l0.52,0.15a1.21,1.21,0,0,1-.5.53A1.54,1.54,0,0,1,43.56,7.05Zm0.88-1.72A1,1,0,0,0,44.35,5a0.87,0.87,0,0,0-.19-0.26,0.85,0.85,0,0,0-.27-0.17,0.89,0.89,0,0,0-.33-0.06,0.87,0.87,0,0,0-.59.23,0.84,0.84,0,0,0-.19.26,1,1,0,0,0-.09.34h1.75Z" fill="#fff"/><path d="M43.56,7.15A1.64,1.64,0,0,1,42.91,7a1.54,1.54,0,0,1-.51-0.35,1.59,1.59,0,0,1-.33-0.51A1.65,1.65,0,0,1,42,5.55a1.67,1.67,0,0,1,.11-0.62,1.6,1.6,0,0,1,.33-0.52,1.53,1.53,0,0,1,.51-0.35,1.75,1.75,0,0,1,1.32,0,1.58,1.58,0,0,1,.5.35,1.49,1.49,0,0,1,.32.51,1.66,1.66,0,0,1,.11.6s0,0.09,0,.13,0,0.08,0,.1V5.85H42.83a0.82,0.82,0,0,0,.24.44,0.74,0.74,0,0,0,.24.15,0.8,0.8,0,0,0,.5,0A0.76,0.76,0,0,0,44,6.39a0.69,0.69,0,0,0,.15-0.12,0.57,0.57,0,0,0,.1-0.15l0-.08L45,6.24l0,0.11a1.32,1.32,0,0,1-.54.58A1.65,1.65,0,0,1,43.56,7.15Zm0-3a1.46,1.46,0,0,0-.58.11,1.3,1.3,0,0,0-.44.3,1.39,1.39,0,0,0-.28.45,1.47,1.47,0,0,0-.1.54,1.44,1.44,0,0,0,.1.54,1.37,1.37,0,0,0,.28.44,1.31,1.31,0,0,0,.44.3,1.56,1.56,0,0,0,1.33-.08,1.14,1.14,0,0,0,.4-0.38L44.4,6.28l-0.1.13a0.89,0.89,0,0,1-.2.16,1,1,0,0,1-.24.1,1,1,0,0,1-.62,0,1,1,0,0,1-.3-0.2,1,1,0,0,1-.22-0.3,1.1,1.1,0,0,1-.1-0.39V5.64h2.34s0-.07,0-0.11A1.47,1.47,0,0,0,44.85,5a1.3,1.3,0,0,0-.27-0.44,1.35,1.35,0,0,0-.44-0.3A1.39,1.39,0,0,0,43.57,4.15Zm1,1.28h-2V5.32a1.12,1.12,0,0,1,.1-0.37,1,1,0,0,1,.21-0.3,1,1,0,0,1,.3-0.19,1,1,0,0,1,.73,0,0.94,0.94,0,0,1,.3.19,1,1,0,0,1,.21.29,1.1,1.1,0,0,1,.1.37V5.43Zm-1.75-.21h1.51A0.87,0.87,0,0,0,44.26,5a0.77,0.77,0,0,0-.17-0.23,0.76,0.76,0,0,0-.24-0.15,0.79,0.79,0,0,0-.57,0,0.73,0.73,0,0,0-.4.38A0.87,0.87,0,0,0,42.81,5.22Z"/><path d="M47.18,4.62a1.37,1.37,0,0,0-.63.16,0.86,0.86,0,0,0-.39.44V7H45.55V4.1h0.56V4.75a1.34,1.34,0,0,1,.39-0.48A1,1,0,0,1,47,4.07h0.16V4.62Z" fill="#fff"/><path d="M46.26,7.1H45.44V4h0.77V4.4a1.34,1.34,0,0,1,.22-0.21A1.06,1.06,0,0,1,47,4H47.2l0.08,0V4.72h-0.1a1.27,1.27,0,0,0-.58.15,0.75,0.75,0,0,0-.34.37V7.1Zm-0.61-.21h0.4V5.18A1,1,0,0,1,46.5,4.7a1.44,1.44,0,0,1,.58-0.17V4.17H47a0.84,0.84,0,0,0-.46.18,1.23,1.23,0,0,0-.36.44L46,5.18v-1H45.65V6.89Z"/><path d="M48.35,7.05A1.09,1.09,0,0,1,48,7a1,1,0,0,1-.31-0.19,0.9,0.9,0,0,1-.2-0.29,0.85,0.85,0,0,1-.08-0.36,0.77,0.77,0,0,1,.09-0.37,0.85,0.85,0,0,1,.25-0.29,1.21,1.21,0,0,1,.39-0.19,1.74,1.74,0,0,1,.5-0.07,2.28,2.28,0,0,1,.4,0,2,2,0,0,1,.36.1V5.16a0.67,0.67,0,0,0-.18-0.5,0.72,0.72,0,0,0-.53-0.18,1.27,1.27,0,0,0-.46.09,2.3,2.3,0,0,0-.46.25l-0.19-.39A2.05,2.05,0,0,1,48.71,4a1.33,1.33,0,0,1,.93.3,1.13,1.13,0,0,1,.33.88v1a0.16,0.16,0,0,0,.16.2V7L50,7H49.85a0.39,0.39,0,0,1-.27-0.09,0.38,0.38,0,0,1-.12-0.23l0-.18a1.29,1.29,0,0,1-.48.39A1.4,1.4,0,0,1,48.35,7.05Zm0.17-.45a1.1,1.1,0,0,0,.42-0.08,0.73,0.73,0,0,0,.31-0.22,0.28,0.28,0,0,0,.12-0.21V5.7A1.83,1.83,0,0,0,49,5.61a1.81,1.81,0,0,0-.34,0,0.93,0.93,0,0,0-.54.14,0.43,0.43,0,0,0-.21.37,0.47,0.47,0,0,0,.16.36A0.58,0.58,0,0,0,48.52,6.6Z" fill="#fff"/><path d="M48.35,7.15a1.19,1.19,0,0,1-.43-0.08,1.06,1.06,0,0,1-.34-0.21,1,1,0,0,1-.23-0.32,1,1,0,0,1-.08-0.4,0.88,0.88,0,0,1,.1-0.42,1,1,0,0,1,.28-0.32,1.3,1.3,0,0,1,.42-0.2,2.1,2.1,0,0,1,.95,0l0.24,0.06V5.16a0.57,0.57,0,0,0-.15-0.43,0.62,0.62,0,0,0-.45-0.15,1.17,1.17,0,0,0-.42.08,2.22,2.22,0,0,0-.44.24L47.69,5l-0.28-.58,0.08-.05a2.16,2.16,0,0,1,1.22-.4,1.43,1.43,0,0,1,1,.33,1.23,1.23,0,0,1,.37,1v1c0,0.09,0,.09.06,0.1h0.1V7.08l-0.08,0L50,7.12A0.61,0.61,0,0,1,49.51,7a0.48,0.48,0,0,1-.14-0.25A1.37,1.37,0,0,1,49,7,1.51,1.51,0,0,1,48.35,7.15ZM48.6,5.33a1.64,1.64,0,0,0-.47.06,1.1,1.1,0,0,0-.35.17,0.75,0.75,0,0,0-.22.25,0.67,0.67,0,0,0-.08.32,0.73,0.73,0,0,0,.07.32,0.79,0.79,0,0,0,.18.26,0.85,0.85,0,0,0,.28.17,1.23,1.23,0,0,0,.92-0.06,1.19,1.19,0,0,0,.44-0.36l0.16-.21,0,0.45a0.27,0.27,0,0,0,.09.16,0.45,0.45,0,0,0,.32.06H50V6.56a0.28,0.28,0,0,1-.16-0.28v-1a1,1,0,0,0-.3-0.8,1.23,1.23,0,0,0-.86-0.28,1.93,1.93,0,0,0-1,.31l0.1,0.2a2.35,2.35,0,0,1,.38-0.19,1.38,1.38,0,0,1,.49-0.09,0.82,0.82,0,0,1,.6.21,0.78,0.78,0,0,1,.21.58V5.51l-0.14-.05A2,2,0,0,0,49,5.37,2.22,2.22,0,0,0,48.6,5.33ZM48.52,6.71A0.68,0.68,0,0,1,48,6.53a0.57,0.57,0,0,1-.19-0.44,0.53,0.53,0,0,1,.25-0.46,1.29,1.29,0,0,1,1-.12,1.94,1.94,0,0,1,.35.1l0.07,0V6.09a0.38,0.38,0,0,1-.15.29,0.79,0.79,0,0,1-.34.24A1.21,1.21,0,0,1,48.52,6.71Zm0.17-1a0.84,0.84,0,0,0-.48.12,0.33,0.33,0,0,0-.16.29,0.37,0.37,0,0,0,.13.29,0.71,0.71,0,0,0,.72,0,0.62,0.62,0,0,0,.26-0.19,0.22,0.22,0,0,0,.09-0.15V5.78L49,5.71A1.73,1.73,0,0,0,48.69,5.68Z"/><path d="M52.3,6.85L52,7a1.37,1.37,0,0,1-.44.07,0.93,0.93,0,0,1-.27,0A0.65,0.65,0,0,1,51,6.88a0.51,0.51,0,0,1-.15-0.2,0.74,0.74,0,0,1-.06-0.3V4.57H50.45V4.1h0.38v-1h0.61v1h0.63V4.57H51.44V6.19a0.31,0.31,0,0,0,.1.22,0.33,0.33,0,0,0,.21.07,0.68,0.68,0,0,0,.24,0l0.17-.07Z" fill="#fff"/><path d="M51.54,7.14a1,1,0,0,1-.3,0A0.77,0.77,0,0,1,51,7a0.62,0.62,0,0,1-.18-0.24,0.86,0.86,0,0,1-.06-0.34V4.67H50.35V4h0.38V3h0.82V4h0.63V4.67H51.55V6.19a0.21,0.21,0,0,0,.06.14,0.39,0.39,0,0,0,.35,0l0.16-.07,0.12-.06L52.42,6.9l-0.08,0L52,7.07A1.49,1.49,0,0,1,51.54,7.14Zm-1-2.68h0.38V6.38a0.66,0.66,0,0,0,0,.26,0.41,0.41,0,0,0,.12.16,0.54,0.54,0,0,0,.19.1,1.11,1.11,0,0,0,.65,0l0.23-.09L52.1,6.51,52,6.53a0.59,0.59,0,0,1-.56,0,0.4,0.4,0,0,1-.14-0.3V4.46H52V4.2H51.34v-1h-0.4v1H50.56V4.46Z"/><path d="M53.61,7.05a0.82,0.82,0,0,1-.69-0.3,1.41,1.41,0,0,1-.23-0.88V4.1H53.3V5.75q0,0.78.55,0.78a0.85,0.85,0,0,0,.49-0.16,1,1,0,0,0,.36-0.47V4.1h0.61V6.28a0.24,0.24,0,0,0,0,.15,0.17,0.17,0,0,0,.13,0V7L55.33,7H55.21a0.44,0.44,0,0,1-.28-0.09,0.3,0.3,0,0,1-.12-0.24V6.41a1.3,1.3,0,0,1-.5.48A1.44,1.44,0,0,1,53.61,7.05Z" fill="#fff"/><path d="M53.61,7.15a0.92,0.92,0,0,1-.77-0.34,1.52,1.52,0,0,1-.25-0.95V4H53.4V5.75c0,0.61.26,0.68,0.45,0.68a0.74,0.74,0,0,0,.43-0.14,0.92,0.92,0,0,0,.32-0.4V4h0.82V6.28a0.16,0.16,0,0,0,0,.08h0.15V7.08l-0.08,0-0.17,0A0.64,0.64,0,0,1,54.87,7,0.4,0.4,0,0,1,54.7,6.7a1.37,1.37,0,0,1-.36.28A1.55,1.55,0,0,1,53.61,7.15Zm-0.82-3V5.87a1.32,1.32,0,0,0,.21.82,0.71,0.71,0,0,0,.6.26,1.33,1.33,0,0,0,.63-0.15,1.19,1.19,0,0,0,.46-0.44l0.18-.29,0,0.63a0.2,0.2,0,0,0,.08.16,0.44,0.44,0,0,0,.33.06h0.06V6.56a0.22,0.22,0,0,1-.11-0.07,0.33,0.33,0,0,1-.06-0.22V4.2h-0.4V5.94a1.13,1.13,0,0,1-.4.51,1,1,0,0,1-.55.18c-0.3,0-.66-0.15-0.66-0.89V4.2h-0.4Z"/><path d="M57.72,4.62a1.37,1.37,0,0,0-.63.16,0.86,0.86,0,0,0-.39.44V7H56.09V4.1h0.56V4.75A1.34,1.34,0,0,1,57,4.27a1,1,0,0,1,.52-0.2h0.16V4.62Z" fill="#fff"/><path d="M56.81,7.1H56V4h0.77V4.4A1.34,1.34,0,0,1,57,4.18,1.06,1.06,0,0,1,57.56,4h0.18l0.08,0V4.72h-0.1a1.27,1.27,0,0,0-.58.15,0.75,0.75,0,0,0-.34.37V7.1ZM56.2,6.89h0.4V5.18A1,1,0,0,1,57,4.7a1.44,1.44,0,0,1,.58-0.17V4.17H57.57a0.84,0.84,0,0,0-.46.18,1.23,1.23,0,0,0-.36.44l-0.2.39v-1H56.2V6.89Z"/><path d="M58.9,7.05A1.09,1.09,0,0,1,58.51,7a1,1,0,0,1-.31-0.19A0.9,0.9,0,0,1,58,6.5a0.85,0.85,0,0,1-.08-0.36A0.77,0.77,0,0,1,58,5.77a0.85,0.85,0,0,1,.25-0.29,1.21,1.21,0,0,1,.39-0.19,1.74,1.74,0,0,1,.5-0.07,2.28,2.28,0,0,1,.4,0,2,2,0,0,1,.36.1V5.16a0.67,0.67,0,0,0-.18-0.5,0.72,0.72,0,0,0-.53-0.18,1.27,1.27,0,0,0-.46.09,2.3,2.3,0,0,0-.46.25l-0.19-.39A2.05,2.05,0,0,1,59.25,4a1.33,1.33,0,0,1,.93.3,1.13,1.13,0,0,1,.33.88v1a0.16,0.16,0,0,0,.16.2V7L60.52,7H60.4a0.39,0.39,0,0,1-.27-0.09A0.38,0.38,0,0,1,60,6.71l0-.18a1.29,1.29,0,0,1-.48.39A1.4,1.4,0,0,1,58.9,7.05Zm0.17-.45a1.1,1.1,0,0,0,.42-0.08,0.73,0.73,0,0,0,.31-0.22,0.28,0.28,0,0,0,.12-0.21V5.7a1.83,1.83,0,0,0-.33-0.09,1.81,1.81,0,0,0-.34,0,0.93,0.93,0,0,0-.54.14,0.43,0.43,0,0,0-.21.37,0.47,0.47,0,0,0,.16.36A0.58,0.58,0,0,0,59.06,6.6Z" fill="#fff"/><path d="M58.9,7.15a1.19,1.19,0,0,1-.43-0.08,1.06,1.06,0,0,1-.34-0.21,1,1,0,0,1-.23-0.32,1,1,0,0,1-.08-0.4,0.88,0.88,0,0,1,.1-0.42A1,1,0,0,1,58.2,5.4a1.3,1.3,0,0,1,.42-0.2,2.1,2.1,0,0,1,.95,0L59.8,5.22V5.16a0.57,0.57,0,0,0-.15-0.43,0.62,0.62,0,0,0-.45-0.15,1.17,1.17,0,0,0-.42.08,2.22,2.22,0,0,0-.44.24L58.24,5,58,4.39,58,4.34a2.16,2.16,0,0,1,1.22-.4,1.43,1.43,0,0,1,1,.33,1.23,1.23,0,0,1,.37,1v1c0,0.09,0,.09.06,0.1h0.1V7.08l-0.08,0-0.16,0A0.62,0.62,0,0,1,60.05,7a0.48,0.48,0,0,1-.14-0.25,1.37,1.37,0,0,1-.36.24A1.51,1.51,0,0,1,58.9,7.15Zm0.24-1.82a1.64,1.64,0,0,0-.47.06,1.1,1.1,0,0,0-.35.17,0.75,0.75,0,0,0-.22.25,0.67,0.67,0,0,0-.08.32,0.73,0.73,0,0,0,.07.32,0.79,0.79,0,0,0,.18.26,0.85,0.85,0,0,0,.28.17,1.23,1.23,0,0,0,.92-0.06,1.19,1.19,0,0,0,.44-0.36l0.16-.21,0,0.45a0.27,0.27,0,0,0,.09.16,0.45,0.45,0,0,0,.32.06h0.06V6.56a0.28,0.28,0,0,1-.16-0.28v-1a1,1,0,0,0-.3-0.8,1.23,1.23,0,0,0-.86-0.28,1.93,1.93,0,0,0-1,.31l0.1,0.2a2.35,2.35,0,0,1,.38-0.19,1.38,1.38,0,0,1,.49-0.09,0.82,0.82,0,0,1,.6.21,0.78,0.78,0,0,1,.21.58V5.51l-0.14-.05a2,2,0,0,0-.34-0.09A2.22,2.22,0,0,0,59.14,5.33ZM59.06,6.71a0.68,0.68,0,0,1-.48-0.17,0.57,0.57,0,0,1-.19-0.44,0.53,0.53,0,0,1,.25-0.46,1.29,1.29,0,0,1,1-.12,1.94,1.94,0,0,1,.35.1l0.07,0V6.09a0.38,0.38,0,0,1-.15.29,0.79,0.79,0,0,1-.34.24A1.21,1.21,0,0,1,59.06,6.71Zm0.17-1a0.84,0.84,0,0,0-.48.12,0.33,0.33,0,0,0-.16.29,0.37,0.37,0,0,0,.13.29,0.48,0.48,0,0,0,.34.12,1,1,0,0,0,.38-0.07,0.62,0.62,0,0,0,.26-0.19,0.22,0.22,0,0,0,.09-0.15V5.78l-0.25-.06A1.73,1.73,0,0,0,59.24,5.68Z"/><path d="M66,7V4.16L64.84,6.31H64.5L63.32,4.16V7H62.7V3.06h0.67l1.3,2.4L66,3.06h0.67V7H66Z" fill="#fff"/><path d="M66.74,7.1H65.9V4.57l-1,1.84H64.43l-1-1.84V7.1H62.6V3h0.83l0,0.05,1.21,2.24L65.91,3h0.83V7.1Zm-0.63-.21h0.42V3.17H66L64.67,5.68,63.3,3.17H62.8V6.89h0.41V3.76L64.56,6.2h0.22l1.33-2.45V6.89Z"/><path d="M68.72,7.05a1.54,1.54,0,0,1-.61-0.12,1.43,1.43,0,0,1-.47-0.32,1.47,1.47,0,0,1-.3-0.48,1.54,1.54,0,0,1-.11-0.58A1.56,1.56,0,0,1,67.32,5a1.49,1.49,0,0,1,.3-0.48,1.41,1.41,0,0,1,.47-0.33A1.55,1.55,0,0,1,68.72,4a1.49,1.49,0,0,1,.61.12,1.45,1.45,0,0,1,.47.32,1.39,1.39,0,0,1,.3.47,1.56,1.56,0,0,1,.1.56s0,0.09,0,.13v0.1H67.87A1,1,0,0,0,68,6.1a0.91,0.91,0,0,0,.19.27,0.85,0.85,0,0,0,.59.24,1,1,0,0,0,.24,0,0.85,0.85,0,0,0,.22-0.09,0.78,0.78,0,0,0,.18-0.14,0.68,0.68,0,0,0,.12-0.18L70,6.31a1.21,1.21,0,0,1-.5.53A1.54,1.54,0,0,1,68.72,7.05ZM69.6,5.33A1,1,0,0,0,69.51,5a0.87,0.87,0,0,0-.19-0.26A0.85,0.85,0,0,0,69,4.56a0.89,0.89,0,0,0-.33-0.06,0.87,0.87,0,0,0-.59.23,0.84,0.84,0,0,0-.19.26,1,1,0,0,0-.09.34H69.6Z" fill="#fff"/><path d="M68.72,7.15A1.64,1.64,0,0,1,68.06,7a1.54,1.54,0,0,1-.51-0.35,1.59,1.59,0,0,1-.33-0.51,1.65,1.65,0,0,1-.11-0.61,1.67,1.67,0,0,1,.11-0.62,1.6,1.6,0,0,1,.33-0.52,1.53,1.53,0,0,1,.51-0.35,1.75,1.75,0,0,1,1.32,0,1.58,1.58,0,0,1,.5.35,1.49,1.49,0,0,1,.32.51,1.66,1.66,0,0,1,.11.6s0,0.09,0,.13,0,0.08,0,.1V5.85H68a0.82,0.82,0,0,0,.24.44,0.74,0.74,0,0,0,.24.15,0.8,0.8,0,0,0,.5,0,0.76,0.76,0,0,0,.19-0.08,0.69,0.69,0,0,0,.15-0.12,0.57,0.57,0,0,0,.1-0.15l0-.08,0.72,0.21,0,0.11a1.32,1.32,0,0,1-.54.58A1.65,1.65,0,0,1,68.72,7.15Zm0-3a1.46,1.46,0,0,0-.58.11,1.3,1.3,0,0,0-.44.3,1.39,1.39,0,0,0-.28.45,1.47,1.47,0,0,0-.1.54,1.44,1.44,0,0,0,.1.54,1.37,1.37,0,0,0,.28.44,1.31,1.31,0,0,0,.44.3,1.56,1.56,0,0,0,1.33-.08,1.14,1.14,0,0,0,.4-0.38l-0.32-.09-0.1.13a0.89,0.89,0,0,1-.2.16,1,1,0,0,1-.24.1,1,1,0,0,1-.62,0,1,1,0,0,1-.3-0.2,1,1,0,0,1-.22-0.3,1.1,1.1,0,0,1-.1-0.39V5.64h2.34s0-.07,0-0.11A1.47,1.47,0,0,0,70,5a1.3,1.3,0,0,0-.27-0.44,1.35,1.35,0,0,0-.44-0.3A1.39,1.39,0,0,0,68.72,4.15Zm1,1.28h-2V5.32a1.12,1.12,0,0,1,.1-0.37,1,1,0,0,1,.21-0.3,1,1,0,0,1,.3-0.19,1,1,0,0,1,.73,0,0.94,0.94,0,0,1,.3.19,1,1,0,0,1,.21.29,1.1,1.1,0,0,1,.1.37V5.43ZM68,5.22h1.51A0.87,0.87,0,0,0,69.41,5a0.77,0.77,0,0,0-.17-0.23A0.76,0.76,0,0,0,69,4.65a0.79,0.79,0,0,0-.57,0A0.73,0.73,0,0,0,68,5,0.87,0.87,0,0,0,68,5.22Z"/><path d="M71.88,7.05a1.24,1.24,0,0,1-.54-0.12,1.34,1.34,0,0,1-.43-0.32,1.5,1.5,0,0,1-.29-0.48,1.74,1.74,0,0,1,0-1.16,1.5,1.5,0,0,1,.27-0.47,1.31,1.31,0,0,1,.41-0.32,1.2,1.2,0,0,1,1.13,0,1.23,1.23,0,0,1,.42.43V3h0.61V6.28a0.24,0.24,0,0,0,0,.15,0.17,0.17,0,0,0,.13,0V7L73.47,7h-0.1a0.46,0.46,0,0,1-.3-0.09,0.33,0.33,0,0,1-.13-0.24V6.47a1.16,1.16,0,0,1-.44.43A1.24,1.24,0,0,1,71.88,7.05ZM72,6.53a0.85,0.85,0,0,0,.27,0,1,1,0,0,0,.24-0.12,0.86,0.86,0,0,0,.19-0.18A0.66,0.66,0,0,0,72.85,6V5.19a0.92,0.92,0,0,0-.14-0.25,1,1,0,0,0-.21-0.2,0.92,0.92,0,0,0-.25-0.13,0.81,0.81,0,0,0-.26,0,0.69,0.69,0,0,0-.33.08,0.88,0.88,0,0,0-.26.22,1.12,1.12,0,0,0-.17.32,1.09,1.09,0,0,0-.06.37,1,1,0,0,0,.07.38,1,1,0,0,0,.19.31,0.93,0.93,0,0,0,.28.21A0.76,0.76,0,0,0,72,6.53Z" fill="#fff"/><path d="M71.88,7.15A1.35,1.35,0,0,1,71.29,7a1.46,1.46,0,0,1-.46-0.35,1.63,1.63,0,0,1-.31-0.51,1.79,1.79,0,0,1-.11-0.63,1.76,1.76,0,0,1,.1-0.61,1.59,1.59,0,0,1,.29-0.51,1.41,1.41,0,0,1,.44-0.35,1.3,1.3,0,0,1,1.24.06,1.39,1.39,0,0,1,.26.21V2.85h0.82V6.28a0.16,0.16,0,0,0,0,.08h0.15V7.08l-0.08,0-0.16,0H73.37A0.57,0.57,0,0,1,73,7a0.43,0.43,0,0,1-.16-0.26,1.3,1.3,0,0,1-.3.23A1.35,1.35,0,0,1,71.88,7.15Zm-0.07-3a1,1,0,0,0-.47.11,1.21,1.21,0,0,0-.38.3,1.41,1.41,0,0,0-.25.44,1.63,1.63,0,0,0,0,1.09,1.4,1.4,0,0,0,.27.45,1.24,1.24,0,0,0,.4.3,1.2,1.2,0,0,0,1.06,0,1.06,1.06,0,0,0,.4-0.39L73,6.12l0,0.56a0.23,0.23,0,0,0,.09.17,0.36,0.36,0,0,0,.23.07h0.15V6.56a0.22,0.22,0,0,1-.11-0.07,0.34,0.34,0,0,1-.06-0.21V3.05H73V5L72.76,4.7a1.13,1.13,0,0,0-.38-0.39A1,1,0,0,0,71.82,4.15ZM72,6.63a0.86,0.86,0,0,1-.39-0.09,1,1,0,0,1-.31-0.23A1.08,1.08,0,0,1,71.12,6,1.14,1.14,0,0,1,71,5.55a1.2,1.2,0,0,1,.07-0.4,1.21,1.21,0,0,1,.19-0.35,1,1,0,0,1,.29-0.25,0.85,0.85,0,0,1,.68,0,1,1,0,0,1,.27.14,1.07,1.07,0,0,1,.23.22,1,1,0,0,1,.16.28V6a0.78,0.78,0,0,1-.13.26,1,1,0,0,1-.21.2,1.06,1.06,0,0,1-.27.14A1,1,0,0,1,72,6.63Zm0-2a0.58,0.58,0,0,0-.29.07,0.79,0.79,0,0,0-.23.2,1,1,0,0,0-.16.29,1,1,0,0,0-.06.33,0.94,0.94,0,0,0,.06.34,0.9,0.9,0,0,0,.17.28,0.84,0.84,0,0,0,.25.19,0.69,0.69,0,0,0,.53,0,0.85,0.85,0,0,0,.22-0.11,0.74,0.74,0,0,0,.17-0.16,0.56,0.56,0,0,0,.09-0.18V5.21a0.88,0.88,0,0,0-.31-0.39,0.84,0.84,0,0,0-.22-0.11A0.71,0.71,0,0,0,72,4.67Z"/><path d="M74.23,3.62V3h0.61V3.62H74.23Zm0,3.38V4.1h0.61V7H74.23Z" fill="#fff"/><path d="M74.95,7.1H74.13V4h0.82V7.1Zm-0.61-.21h0.4V4.2h-0.4V6.89Zm0.61-3.17H74.13V2.85h0.82V3.72Zm-0.61-.21h0.4V3.05h-0.4V3.52Z"/><path d="M76.34,7.05A1.09,1.09,0,0,1,76,7a1,1,0,0,1-.31-0.19,0.9,0.9,0,0,1-.2-0.29,0.85,0.85,0,0,1-.08-0.36,0.77,0.77,0,0,1,.09-0.37,0.85,0.85,0,0,1,.25-0.29,1.21,1.21,0,0,1,.39-0.19,1.74,1.74,0,0,1,.5-0.07,2.28,2.28,0,0,1,.4,0,2,2,0,0,1,.36.1V5.16a0.67,0.67,0,0,0-.18-0.5,0.72,0.72,0,0,0-.53-0.18,1.27,1.27,0,0,0-.46.09,2.3,2.3,0,0,0-.46.25l-0.19-.39A2.05,2.05,0,0,1,76.7,4a1.33,1.33,0,0,1,.93.3,1.13,1.13,0,0,1,.33.88v1a0.16,0.16,0,0,0,.16.2V7L78,7H77.84a0.39,0.39,0,0,1-.27-0.09,0.38,0.38,0,0,1-.12-0.23l0-.18a1.29,1.29,0,0,1-.48.39A1.4,1.4,0,0,1,76.34,7.05Zm0.17-.45a1.1,1.1,0,0,0,.42-0.08,0.73,0.73,0,0,0,.31-0.22,0.28,0.28,0,0,0,.12-0.21V5.7A1.83,1.83,0,0,0,77,5.61a1.81,1.81,0,0,0-.34,0,0.93,0.93,0,0,0-.54.14,0.43,0.43,0,0,0-.21.37,0.47,0.47,0,0,0,.16.36A0.58,0.58,0,0,0,76.51,6.6Z" fill="#fff"/><path d="M76.34,7.15a1.19,1.19,0,0,1-.43-0.08,1.06,1.06,0,0,1-.34-0.21,1,1,0,0,1-.23-0.32,1,1,0,0,1-.08-0.4,0.88,0.88,0,0,1,.1-0.42,1,1,0,0,1,.28-0.32,1.3,1.3,0,0,1,.42-0.2,2.1,2.1,0,0,1,.95,0l0.24,0.06V5.16a0.57,0.57,0,0,0-.15-0.43,0.62,0.62,0,0,0-.45-0.15,1.17,1.17,0,0,0-.42.08,2.22,2.22,0,0,0-.44.24L75.68,5,75.4,4.39l0.08-.05a2.16,2.16,0,0,1,1.22-.4,1.43,1.43,0,0,1,1,.33,1.23,1.23,0,0,1,.37,1v1c0,0.09,0,.09.06,0.1h0.1V7.08l-0.08,0L78,7.12A0.61,0.61,0,0,1,77.5,7a0.48,0.48,0,0,1-.14-0.25A1.37,1.37,0,0,1,77,7,1.51,1.51,0,0,1,76.34,7.15Zm0.24-1.82a1.64,1.64,0,0,0-.47.06,1.1,1.1,0,0,0-.35.17,0.75,0.75,0,0,0-.22.25,0.67,0.67,0,0,0-.08.32,0.73,0.73,0,0,0,.07.32,0.79,0.79,0,0,0,.18.26,0.85,0.85,0,0,0,.28.17,1.23,1.23,0,0,0,.92-0.06,1.19,1.19,0,0,0,.44-0.36l0.16-.21,0,0.45a0.27,0.27,0,0,0,.09.16,0.45,0.45,0,0,0,.32.06H78V6.56a0.28,0.28,0,0,1-.16-0.28v-1a1,1,0,0,0-.3-0.8,1.23,1.23,0,0,0-.86-0.28,1.93,1.93,0,0,0-1,.31l0.1,0.2a2.35,2.35,0,0,1,.38-0.19,1.38,1.38,0,0,1,.49-0.09,0.82,0.82,0,0,1,.6.21,0.78,0.78,0,0,1,.21.58V5.51l-0.14-.05A2,2,0,0,0,77,5.37,2.22,2.22,0,0,0,76.59,5.33ZM76.51,6.71A0.68,0.68,0,0,1,76,6.53a0.57,0.57,0,0,1-.19-0.44,0.53,0.53,0,0,1,.25-0.46,1.29,1.29,0,0,1,1-.12,1.94,1.94,0,0,1,.35.1l0.07,0V6.09a0.38,0.38,0,0,1-.15.29,0.79,0.79,0,0,1-.34.24A1.21,1.21,0,0,1,76.51,6.71Zm0.17-1a0.84,0.84,0,0,0-.48.12,0.33,0.33,0,0,0-.16.29,0.37,0.37,0,0,0,.13.29,0.71,0.71,0,0,0,.72,0,0.62,0.62,0,0,0,.26-0.19,0.22,0.22,0,0,0,.09-0.15V5.78L77,5.71A1.73,1.73,0,0,0,76.68,5.68Z"/><path d="M81.13,3.06h0.54L83.23,7H82.57L82.16,5.93H80.64L80.23,7H79.57ZM82,5.47L81.4,3.78,80.75,5.47H82Z" fill="#fff"/><path d="M83.38,7.1H82.5L82.09,6H80.71L80.3,7.1H79.42L81.06,3h0.68l0,0.07Zm-0.73-.21h0.43L81.6,3.17H81.2L79.72,6.89h0.43l0.41-1.07h1.66ZM82.18,5.57H80.6l0.81-2.09ZM80.9,5.36h1L81.4,4.07Z"/><path d="M86.24,7H85.63V5.37a1.06,1.06,0,0,0-.13-0.6,0.44,0.44,0,0,0-.38-0.19,0.75,0.75,0,0,0-.27,0,0.94,0.94,0,0,0-.25.14,1.14,1.14,0,0,0-.21.22,1,1,0,0,0-.14.27V7H83.64V4.1h0.55V4.68a1.18,1.18,0,0,1,.48-0.46A1.45,1.45,0,0,1,85.37,4a0.86,0.86,0,0,1,.43.09,0.71,0.71,0,0,1,.26.26,1.12,1.12,0,0,1,.14.38,2.48,2.48,0,0,1,0,.45V7Z" fill="#fff"/><path d="M86.34,7.1H85.52V5.37a1,1,0,0,0-.11-0.54,0.34,0.34,0,0,0-.3-0.14,0.65,0.65,0,0,0-.23,0,0.83,0.83,0,0,0-.22.13,1,1,0,0,0-.19.2,0.93,0.93,0,0,0-.12.23V7.1H83.53V4h0.76V4.37a1.35,1.35,0,0,1,.33-0.25,1.56,1.56,0,0,1,.75-0.18,1,1,0,0,1,.48.11,0.81,0.81,0,0,1,.3.3,1.23,1.23,0,0,1,.15.41,2.65,2.65,0,0,1,0,.47V7.1Zm-0.61-.21h0.4V5.23a2.33,2.33,0,0,0,0-.43A1,1,0,0,0,86,4.45a0.6,0.6,0,0,0-.22-0.22,0.76,0.76,0,0,0-.37-0.08,1.36,1.36,0,0,0-.65.16,1.08,1.08,0,0,0-.44.42l-0.19.34V4.2H83.74V6.89h0.4V5.24a1.12,1.12,0,0,1,.16-0.3,1.25,1.25,0,0,1,.23-0.24,1,1,0,0,1,.28-0.16,0.85,0.85,0,0,1,.3-0.06,0.54,0.54,0,0,1,.47.23,1.14,1.14,0,0,1,.15.66V6.89Z"/><path d="M87.84,7.05a0.82,0.82,0,0,1-.69-0.3,1.41,1.41,0,0,1-.23-0.88V4.1h0.61V5.75q0,0.78.55,0.78a0.85,0.85,0,0,0,.49-0.16,1,1,0,0,0,.36-0.47V4.1h0.61V6.28a0.24,0.24,0,0,0,0,.15,0.17,0.17,0,0,0,.13,0V7L89.55,7H89.44a0.44,0.44,0,0,1-.28-0.09A0.3,0.3,0,0,1,89,6.7V6.41a1.3,1.3,0,0,1-.5.48A1.44,1.44,0,0,1,87.84,7.05Z" fill="#fff"/><path d="M87.84,7.15a0.92,0.92,0,0,1-.77-0.34,1.52,1.52,0,0,1-.25-0.95V4h0.82V5.75c0,0.61.26,0.68,0.45,0.68a0.74,0.74,0,0,0,.43-0.14,0.92,0.92,0,0,0,.32-0.4V4h0.82V6.28a0.16,0.16,0,0,0,0,.08h0.15V7.08l-0.08,0-0.17,0A0.64,0.64,0,0,1,89.09,7a0.4,0.4,0,0,1-.16-0.31,1.37,1.37,0,0,1-.36.28A1.55,1.55,0,0,1,87.84,7.15ZM87,4.2V5.87a1.32,1.32,0,0,0,.21.82,0.71,0.71,0,0,0,.6.26,1.33,1.33,0,0,0,.63-0.15,1.19,1.19,0,0,0,.46-0.44l0.18-.29,0,0.63a0.2,0.2,0,0,0,.08.16,0.44,0.44,0,0,0,.33.06h0.06V6.56a0.22,0.22,0,0,1-.11-0.07,0.33,0.33,0,0,1-.06-0.22V4.2H89V5.94a1.13,1.13,0,0,1-.4.51,1,1,0,0,1-.55.18c-0.3,0-.66-0.15-0.66-0.89V4.2H87Z"/><path d="M91.09,7.05A1.09,1.09,0,0,1,90.7,7a1,1,0,0,1-.31-0.19,0.9,0.9,0,0,1-.2-0.29,0.85,0.85,0,0,1-.08-0.36,0.77,0.77,0,0,1,.09-0.37,0.85,0.85,0,0,1,.25-0.29,1.21,1.21,0,0,1,.39-0.19,1.74,1.74,0,0,1,.5-0.07,2.28,2.28,0,0,1,.4,0,2,2,0,0,1,.36.1V5.16a0.67,0.67,0,0,0-.18-0.5,0.72,0.72,0,0,0-.53-0.18,1.27,1.27,0,0,0-.46.09,2.3,2.3,0,0,0-.46.25l-0.19-.39A2.05,2.05,0,0,1,91.45,4a1.33,1.33,0,0,1,.93.3,1.13,1.13,0,0,1,.33.88v1a0.16,0.16,0,0,0,.16.2V7L92.72,7H92.59a0.39,0.39,0,0,1-.27-0.09,0.38,0.38,0,0,1-.12-0.23l0-.18a1.29,1.29,0,0,1-.48.39A1.4,1.4,0,0,1,91.09,7.05Zm0.17-.45a1.1,1.1,0,0,0,.42-0.08A0.73,0.73,0,0,0,92,6.3a0.28,0.28,0,0,0,.12-0.21V5.7a1.83,1.83,0,0,0-.33-0.09,1.81,1.81,0,0,0-.34,0,0.93,0.93,0,0,0-.54.14,0.43,0.43,0,0,0-.21.37,0.47,0.47,0,0,0,.16.36A0.58,0.58,0,0,0,91.26,6.6Z" fill="#fff"/><path d="M91.09,7.15a1.19,1.19,0,0,1-.43-0.08,1.06,1.06,0,0,1-.34-0.21,1,1,0,0,1-.23-0.32A1,1,0,0,1,90,6.14a0.88,0.88,0,0,1,.1-0.42,1,1,0,0,1,.28-0.32,1.3,1.3,0,0,1,.42-0.2,2.1,2.1,0,0,1,.95,0L92,5.22V5.16a0.57,0.57,0,0,0-.15-0.43,0.62,0.62,0,0,0-.45-0.15,1.17,1.17,0,0,0-.42.08,2.22,2.22,0,0,0-.44.24L90.43,5l-0.28-.58,0.08-.05a2.16,2.16,0,0,1,1.22-.4,1.43,1.43,0,0,1,1,.33,1.23,1.23,0,0,1,.37,1v1c0,0.09,0,.09.06,0.1H93V7.08l-0.08,0-0.16,0A0.61,0.61,0,0,1,92.25,7a0.48,0.48,0,0,1-.14-0.25,1.37,1.37,0,0,1-.36.24A1.51,1.51,0,0,1,91.09,7.15Zm0.24-1.82a1.64,1.64,0,0,0-.47.06,1.1,1.1,0,0,0-.35.17,0.75,0.75,0,0,0-.22.25,0.67,0.67,0,0,0-.08.32,0.73,0.73,0,0,0,.07.32,0.79,0.79,0,0,0,.18.26,0.85,0.85,0,0,0,.28.17,1.23,1.23,0,0,0,.92-0.06,1.19,1.19,0,0,0,.44-0.36l0.16-.21,0,0.45a0.27,0.27,0,0,0,.09.16,0.45,0.45,0,0,0,.32.06h0.06V6.56a0.28,0.28,0,0,1-.16-0.28v-1a1,1,0,0,0-.3-0.8,1.23,1.23,0,0,0-.86-0.28,1.93,1.93,0,0,0-1,.31l0.1,0.2a2.35,2.35,0,0,1,.38-0.19,1.38,1.38,0,0,1,.49-0.09,0.82,0.82,0,0,1,.6.21,0.78,0.78,0,0,1,.21.58V5.51l-0.14-.05a2,2,0,0,0-.34-0.09A2.22,2.22,0,0,0,91.33,5.33ZM91.26,6.71a0.68,0.68,0,0,1-.48-0.17,0.57,0.57,0,0,1-.19-0.44,0.53,0.53,0,0,1,.25-0.46,1.29,1.29,0,0,1,1-.12,1.94,1.94,0,0,1,.35.1l0.07,0V6.09a0.38,0.38,0,0,1-.15.29,0.79,0.79,0,0,1-.34.24A1.21,1.21,0,0,1,91.26,6.71Zm0.17-1A0.84,0.84,0,0,0,91,5.8a0.33,0.33,0,0,0-.16.29,0.37,0.37,0,0,0,.13.29,0.71,0.71,0,0,0,.72,0,0.62,0.62,0,0,0,.26-0.19A0.22,0.22,0,0,0,92,6.09V5.78l-0.25-.06A1.73,1.73,0,0,0,91.43,5.68Z"/><path d="M93.45,3h0.61V6.16a0.36,0.36,0,0,0,.08.25,0.3,0.3,0,0,0,.23.09l0.14,0,0.15,0,0.09,0.48a1.38,1.38,0,0,1-.32.1,1.72,1.72,0,0,1-.33,0,0.67,0.67,0,0,1-.49-0.17,0.65,0.65,0,0,1-.17-0.49V3Z" fill="#fff"/><path d="M94.12,7.14a0.77,0.77,0,0,1-.56-0.2,0.76,0.76,0,0,1-.21-0.56V2.85h0.82V6.16a0.26,0.26,0,0,0,.06.18,0.24,0.24,0,0,0,.27,0l0.14,0,0.12,0L94.88,7,94.8,7a1.49,1.49,0,0,1-.34.1A1.82,1.82,0,0,1,94.12,7.14ZM93.55,3.05V6.38a0.56,0.56,0,0,0,.14.41,0.77,0.77,0,0,0,.72.11l0.22-.06-0.05-.28h0a0.44,0.44,0,0,1-.48-0.1A0.46,0.46,0,0,1,94,6.16V3.05h-0.4Z"/><path d="M96.19,3.5a0.49,0.49,0,0,1,.15-0.37,0.56,0.56,0,0,1,.76,0,0.5,0.5,0,0,1,.15.37,0.54,0.54,0,0,1-.15.39,0.51,0.51,0,0,1-.38.15,0.5,0.5,0,0,1-.38-0.16A0.54,0.54,0,0,1,96.19,3.5Zm0.37-.14a0.24,0.24,0,0,0-.07.16,0.21,0.21,0,0,0,.07.16,0.19,0.19,0,0,0,.16.07l0.09,0,0.07,0a0.21,0.21,0,0,0,.07-0.16,0.24,0.24,0,0,0-.07-0.16l-0.07,0H96.72A0.21,0.21,0,0,0,96.56,3.35Z" fill="#fff"/><path d="M96.72,4.15A0.61,0.61,0,0,1,96.26,4a0.64,0.64,0,0,1-.18-0.46,0.6,0.6,0,0,1,.18-0.44,0.66,0.66,0,0,1,.9,0,0.6,0.6,0,0,1,.18.44,0.64,0.64,0,0,1-.18.47A0.61,0.61,0,0,1,96.72,4.15Zm0-1.06a0.41,0.41,0,0,0-.3.12,0.39,0.39,0,0,0-.12.29,0.43,0.43,0,0,0,.12.32,0.39,0.39,0,0,0,.3.12A0.41,0.41,0,0,0,97,3.82a0.43,0.43,0,0,0,.12-0.32A0.4,0.4,0,0,0,97,3.2,0.41,0.41,0,0,0,96.72,3.09Zm0,0.75a0.3,0.3,0,0,1-.24-0.1,0.31,0.31,0,0,1-.09-0.22,0.34,0.34,0,0,1,.09-0.22h0a0.33,0.33,0,0,1,.35-0.07,0.25,0.25,0,0,1,.12.08,0.34,0.34,0,0,1,.09.22,0.32,0.32,0,0,1-.1.23,0.28,0.28,0,0,1-.1.07Zm-0.08-.41a0.14,0.14,0,0,0,0,.08,0.11,0.11,0,0,0,0,.08,0.11,0.11,0,0,0,.13,0l0,0a0.12,0.12,0,0,0,0-.09,0.15,0.15,0,0,0,0-.09l0,0A0.13,0.13,0,0,0,96.64,3.43Z"/><path d="M97.68,5a2.06,2.06,0,0,1,.13-0.71,2,2,0,0,1,.37-0.63,1.89,1.89,0,0,1,.6-0.45A1.82,1.82,0,0,1,99.59,3a1.71,1.71,0,0,1,.92.24,1.55,1.55,0,0,1,.58.62l-0.49.33a1.11,1.11,0,0,0-.2-0.3,1,1,0,0,0-.25-0.19,1.1,1.1,0,0,0-.29-0.1,1.42,1.42,0,0,0-.29,0,1.13,1.13,0,0,0-.54.12,1.2,1.2,0,0,0-.39.33,1.47,1.47,0,0,0-.24.46,1.68,1.68,0,0,0-.08.51,1.61,1.61,0,0,0,.09.55,1.47,1.47,0,0,0,.26.46,1.29,1.29,0,0,0,.4.32,1.1,1.1,0,0,0,.51.12,1.3,1.3,0,0,0,.3,0,1.11,1.11,0,0,0,.29-0.12,1.16,1.16,0,0,0,.26-0.2,1,1,0,0,0,.2-0.29l0.51,0.29a1.2,1.2,0,0,1-.27.39,1.71,1.71,0,0,1-.39.29A2,2,0,0,1,100,7a1.94,1.94,0,0,1-.47.06,1.63,1.63,0,0,1-.76-0.18,2,2,0,0,1-.59-0.46,2.12,2.12,0,0,1-.39-0.65A2.07,2.07,0,0,1,97.68,5Z" fill="#fff"/><path d="M99.56,7.13a1.73,1.73,0,0,1-.81-0.19,2.09,2.09,0,0,1-.62-0.49,2.22,2.22,0,0,1-.41-0.68,2.15,2.15,0,0,1,0-1.52,2.08,2.08,0,0,1,.39-0.67,2,2,0,0,1,.63-0.48,1.93,1.93,0,0,1,.85-0.18,1.82,1.82,0,0,1,1,.25,1.66,1.66,0,0,1,.61.66l0,0.08-0.66.45-0.05-.11A1,1,0,0,0,100.32,4a0.84,0.84,0,0,0-.23-0.17,1,1,0,0,0-.26-0.09,1.14,1.14,0,0,0-.76.08,1.12,1.12,0,0,0-.36.3,1.4,1.4,0,0,0-.22.43,1.59,1.59,0,0,0-.08.48,1.52,1.52,0,0,0,.09.51,1.36,1.36,0,0,0,.25.43,1.18,1.18,0,0,0,.37.29,1.05,1.05,0,0,0,.74.07,1,1,0,0,0,.26-0.11A1.06,1.06,0,0,0,100.36,6a0.91,0.91,0,0,0,.18-0.26l0-.1,0.69,0.4,0,0.08a1.31,1.31,0,0,1-.29.42,1.83,1.83,0,0,1-.41.3,2.12,2.12,0,0,1-.48.19A2,2,0,0,1,99.56,7.13Zm0-4a1.73,1.73,0,0,0-.76.16,1.78,1.78,0,0,0-.57.43,1.86,1.86,0,0,0-.35.6,2,2,0,0,0-.12.67,2,2,0,0,0,.13.7,2,2,0,0,0,.37.62,1.88,1.88,0,0,0,.56.44,1.64,1.64,0,0,0,1.16.11,1.92,1.92,0,0,0,.43-0.17,1.61,1.61,0,0,0,.36-0.27,1.08,1.08,0,0,0,.2-0.27L100.67,6a1.09,1.09,0,0,1-.17.22,1.28,1.28,0,0,1-.28.22,1.19,1.19,0,0,1-.32.13A1.27,1.27,0,0,1,99,6.44a1.39,1.39,0,0,1-.43-0.34,1.56,1.56,0,0,1-.28-0.49A1.71,1.71,0,0,1,98.21,5a1.79,1.79,0,0,1,.08-0.54A1.56,1.56,0,0,1,98.55,4,1.32,1.32,0,0,1,99,3.63a1.35,1.35,0,0,1,.9-0.1,1.2,1.2,0,0,1,.32.11,1.07,1.07,0,0,1,.28.21,1.12,1.12,0,0,1,.16.22l0.31-.21a1.47,1.47,0,0,0-.49-0.5A1.61,1.61,0,0,0,99.59,3.14Z"/><path d="M7.09,46.45V47H5V46.45H5.76V44.52a0.66,0.66,0,0,1-.16.14l-0.23.13-0.27.1a0.88,0.88,0,0,1-.24,0V44.36a0.66,0.66,0,0,0,.26-0.07l0.28-.16L5.64,44a0.51,0.51,0,0,0,.12-0.13H6.38v2.62h0.7Z" fill="#fff"/><path d="M7.19,47.1H4.87V46.35H5.65v-1.6l-0.24.14L5.13,45a1,1,0,0,1-.28,0H4.75V44.26h0.1a0.57,0.57,0,0,0,.22-0.06l0.27-.15,0.23-.17a0.47,0.47,0,0,0,.09-0.09l0-.05H6.49v2.62h0.7V47.1ZM5.07,46.9H7V46.55H6.28V43.94H5.81L5.7,44a2,2,0,0,1-.25.19l-0.3.16L5,44.46v0.36l0.11,0,0.25-.1,0.22-.12a0.58,0.58,0,0,0,.13-0.12l0.19-.25v2.35H5.07V46.9Z"/><path d="M9.26,45.69a0.94,0.94,0,0,1,.32.12,0.85,0.85,0,0,1,.24.21,1,1,0,0,1,.16.29,1.13,1.13,0,0,1,.06.36,1.08,1.08,0,0,1-.1.47,1,1,0,0,1-.28.36,1.23,1.23,0,0,1-.44.23,1.86,1.86,0,0,1-.57.08,1.78,1.78,0,0,1-.74-0.15,1.24,1.24,0,0,1-.51-0.42l0.37-.42a1,1,0,0,0,.34.32,1.08,1.08,0,0,0,.53.12,0.89,0.89,0,0,0,.56-0.16,0.55,0.55,0,0,0,.2-0.46,0.62,0.62,0,0,0-.22-0.5A1,1,0,0,0,8.53,46H8.38V45.48H8.54a0.85,0.85,0,0,0,.57-0.17,0.56,0.56,0,0,0,.2-0.44,0.44,0.44,0,0,0-.18-0.39,0.78,0.78,0,0,0-.46-0.12,1,1,0,0,0-.5.12,0.89,0.89,0,0,0-.34.35L7.45,44.4a0.9,0.9,0,0,1,.21-0.24A1.46,1.46,0,0,1,8,44a1.57,1.57,0,0,1,.37-0.12,2,2,0,0,1,.41,0,1.59,1.59,0,0,1,.5.07,1.2,1.2,0,0,1,.39.2,0.84,0.84,0,0,1,.25.31,0.9,0.9,0,0,1,.09.4,1,1,0,0,1,0,.32,1,1,0,0,1-.14.27,0.81,0.81,0,0,1-.22.2A0.78,0.78,0,0,1,9.26,45.69Z" fill="#fff"/><path d="M8.65,47.92a1.89,1.89,0,0,1-.79-0.16,1.34,1.34,0,0,1-.56-0.46l0-.07,0.52-.59,0.07,0.12a0.85,0.85,0,0,0,.31.29,1,1,0,0,0,.48.1A0.8,0.8,0,0,0,9.14,47a0.45,0.45,0,0,0,.16-0.38,0.51,0.51,0,0,0-.18-0.42,0.91,0.91,0,0,0-.59-0.16H8.27V45.37H8.54A0.75,0.75,0,0,0,9,45.22a0.46,0.46,0,0,0,.16-0.36,0.34,0.34,0,0,0-.13-0.31,0.67,0.67,0,0,0-.4-0.11,0.89,0.89,0,0,0-.45.11,0.78,0.78,0,0,0-.3.31L7.85,45l-0.53-.58,0-.07a1,1,0,0,1,.24-0.27,1.53,1.53,0,0,1,.32-0.2,1.6,1.6,0,0,1,.39-0.13,1.92,1.92,0,0,1,1,0,1.32,1.32,0,0,1,.42.22,1,1,0,0,1,.28.35,1,1,0,0,1,.1.45,1.12,1.12,0,0,1-.05.35,1.06,1.06,0,0,1-.16.3,0.89,0.89,0,0,1-.25.23l0,0,0.06,0a1,1,0,0,1,.27.24,1.05,1.05,0,0,1,.17.32,1.23,1.23,0,0,1,.06.39,1.18,1.18,0,0,1-.11.51,1.14,1.14,0,0,1-.3.39,1.35,1.35,0,0,1-.47.25A2,2,0,0,1,8.65,47.92Zm-1.12-.67a1.15,1.15,0,0,0,.42.32,1.69,1.69,0,0,0,.7.14,1.76,1.76,0,0,0,.54-0.08,1.14,1.14,0,0,0,.4-0.21,0.92,0.92,0,0,0,.25-0.32,1,1,0,0,0,.09-0.42,1,1,0,0,0-.05-0.33,0.86,0.86,0,0,0-.14-0.26,0.74,0.74,0,0,0-.21-0.19,0.82,0.82,0,0,0-.28-0.11l-0.55-.1,0.55-.1A0.68,0.68,0,0,0,9.5,45.5a0.7,0.7,0,0,0,.19-0.18,0.83,0.83,0,0,0,.13-0.24,0.9,0.9,0,0,0,0-.28,0.81,0.81,0,0,0-.08-0.36,0.76,0.76,0,0,0-.22-0.27A1.09,1.09,0,0,0,9.2,44a1.74,1.74,0,0,0-.85,0,1.46,1.46,0,0,0-.34.12,1.33,1.33,0,0,0-.28.17,0.83,0.83,0,0,0-.14.15l0.24,0.26a1,1,0,0,1,.31-0.27,1.1,1.1,0,0,1,.55-0.14,0.88,0.88,0,0,1,.52.14,0.55,0.55,0,0,1,.22.48,0.67,0.67,0,0,1-.23.52,1,1,0,0,1-.64.2H8.48v0.27h0a1.1,1.1,0,0,1,.72.21,0.72,0.72,0,0,1,.26.58,0.66,0.66,0,0,1-.24.55,1,1,0,0,1-.63.18,1.19,1.19,0,0,1-.58-0.13A1.07,1.07,0,0,1,7.76,47Z"/><path d="M33.95,46.45V47H31.83V46.45h0.79V44.52a0.66,0.66,0,0,1-.16.14l-0.23.13-0.27.1a0.88,0.88,0,0,1-.24,0V44.36A0.66,0.66,0,0,0,32,44.3l0.28-.16L32.5,44a0.51,0.51,0,0,0,.12-0.13h0.63v2.62h0.7Z" fill="#fff"/><path d="M34,47.1H31.73V46.35h0.79v-1.6l-0.24.14L32,45a1,1,0,0,1-.28,0h-0.1V44.26h0.1a0.57,0.57,0,0,0,.22-0.06l0.27-.15,0.23-.17a0.47,0.47,0,0,0,.09-0.09l0-.05h0.79v2.62H34V47.1Zm-2.12-.21h1.91V46.55h-0.7V43.94H32.67l-0.11.1a2,2,0,0,1-.25.19l-0.3.16-0.2.06v0.36l0.11,0,0.25-.1,0.22-.12a0.58,0.58,0,0,0,.13-0.12l0.19-.25v2.35H31.93V46.9Z"/><path d="M37.21,45.69a1.32,1.32,0,0,1-.11.53,1.37,1.37,0,0,1-.3.44,1.41,1.41,0,0,1-.45.29,1.48,1.48,0,0,1-.56.11,1.45,1.45,0,0,1-.59-0.12,1.28,1.28,0,0,1-.46-0.34A1.62,1.62,0,0,1,34.45,46a2.44,2.44,0,0,1-.1-0.73,4,4,0,0,1,.11-1,2.28,2.28,0,0,1,.3-0.71,1.29,1.29,0,0,1,.47-0.43A1.33,1.33,0,0,1,35.85,43a1.42,1.42,0,0,1,.69.17,1.35,1.35,0,0,1,.51.49l-0.36.38a1,1,0,0,0-.35-0.37,1,1,0,0,0-.5-0.13,0.77,0.77,0,0,0-.66.35,1.75,1.75,0,0,0-.26,1,0.91,0.91,0,0,1,.37-0.39,1.09,1.09,0,0,1,.56-0.14,1.4,1.4,0,0,1,.54.1,1.37,1.37,0,0,1,.43.28,1.32,1.32,0,0,1,.29.42A1.29,1.29,0,0,1,37.21,45.69Zm-1.42.84a0.79,0.79,0,0,0,.32-0.07,0.83,0.83,0,0,0,.27-0.18A0.9,0.9,0,0,0,36.56,46a0.81,0.81,0,0,0,.07-0.32,0.79,0.79,0,0,0-.07-0.32,0.86,0.86,0,0,0-.45-0.44,0.82,0.82,0,0,0-.65,0,0.9,0.9,0,0,0-.27.18,0.88,0.88,0,0,0-.18.26,0.79,0.79,0,0,0-.07.32A0.81,0.81,0,0,0,35,46a0.89,0.89,0,0,0,.18.27,0.84,0.84,0,0,0,.27.18A0.79,0.79,0,0,0,35.79,46.54Z" fill="#fff"/><path d="M35.79,47.16A1.56,1.56,0,0,1,35.15,47a1.38,1.38,0,0,1-.49-0.37,1.71,1.71,0,0,1-.31-0.58,2.55,2.55,0,0,1-.11-0.77,4.14,4.14,0,0,1,.11-1,2.39,2.39,0,0,1,.32-0.74,1.4,1.4,0,0,1,.51-0.46,1.55,1.55,0,0,1,1.41,0,1.48,1.48,0,0,1,.55.53l0,0.07-0.51.54-0.07-.12a0.88,0.88,0,0,0-.32-0.33,0.84,0.84,0,0,0-.44-0.12,0.67,0.67,0,0,0-.58.31,1.35,1.35,0,0,0-.21.58,1,1,0,0,1,.18-0.13,1.39,1.39,0,0,1,1.19,0,1.49,1.49,0,0,1,.46.3,1.43,1.43,0,0,1,.31.45,1.38,1.38,0,0,1,.11.56,1.43,1.43,0,0,1-.12.57,1.51,1.51,0,0,1-.32.47,1.52,1.52,0,0,1-.49.31A1.6,1.6,0,0,1,35.79,47.16Zm0.06-4a1.23,1.23,0,0,0-.57.13,1.19,1.19,0,0,0-.43.4,2.2,2.2,0,0,0-.29.68,4,4,0,0,0-.11,1,2.36,2.36,0,0,0,.1.7,1.54,1.54,0,0,0,.27.51,1.17,1.17,0,0,0,.42.32,1.43,1.43,0,0,0,1.07,0,1.28,1.28,0,0,0,.42-0.27,1.25,1.25,0,0,0,.28-0.4,1.22,1.22,0,0,0,.1-0.49,1.17,1.17,0,0,0-.1-0.48,1.2,1.2,0,0,0-.26-0.38,1.29,1.29,0,0,0-.4-0.26,1.18,1.18,0,0,0-1,0A0.79,0.79,0,0,0,35,45l-0.21.42V44.91a1.85,1.85,0,0,1,.28-1,0.87,0.87,0,0,1,.75-0.4,1,1,0,0,1,.55.15,1.08,1.08,0,0,1,.31.29l0.21-.22a1.24,1.24,0,0,0-.42-0.38A1.33,1.33,0,0,0,35.85,43.14Zm-0.06,3.5a0.9,0.9,0,0,1-.37-0.08,0.93,0.93,0,0,1-.3-0.21,1,1,0,0,1-.2-0.3,0.91,0.91,0,0,1-.07-0.37,0.9,0.9,0,0,1,.08-0.36,1,1,0,0,1,.2-0.29,1,1,0,0,1,.3-0.2,0.93,0.93,0,0,1,.73,0,1,1,0,0,1,.3.2,1,1,0,0,1,.2.29,0.93,0.93,0,0,1,0,.73,1,1,0,0,1-.2.3,0.92,0.92,0,0,1-.3.21A0.9,0.9,0,0,1,35.79,46.64Zm0-1.67a0.69,0.69,0,0,0-.28.06,0.8,0.8,0,0,0-.24.16,0.78,0.78,0,0,0-.16.23,0.69,0.69,0,0,0-.06.28,0.7,0.7,0,0,0,.06.28,0.78,0.78,0,0,0,.16.24,0.75,0.75,0,0,0,.23.16,0.71,0.71,0,0,0,.8-0.16A0.8,0.8,0,0,0,36.46,46a0.71,0.71,0,0,0,.06-0.28,0.69,0.69,0,0,0-.06-0.28A0.75,0.75,0,0,0,36.07,45,0.69,0.69,0,0,0,35.79,45Z"/><path d="M58.87,47a2.22,2.22,0,0,1,0-.43A1.2,1.2,0,0,1,59,46.19a1.4,1.4,0,0,1,.27-0.33,2.24,2.24,0,0,1,.44-0.31l0.37-.2,0.3-.17A0.88,0.88,0,0,0,60.64,45a0.35,0.35,0,0,0,.08-0.22,0.43,0.43,0,0,0-.15-0.32,0.63,0.63,0,0,0-.44-0.14,0.87,0.87,0,0,0-.27,0,1,1,0,0,0-.41.25l-0.14.15-0.39-.45,0.17-.15A1.7,1.7,0,0,1,59.38,44a2.06,2.06,0,0,1,.39-0.14,1.88,1.88,0,0,1,.47-0.06,1.59,1.59,0,0,1,.48.07,1.09,1.09,0,0,1,.36.19,0.82,0.82,0,0,1,.22.29,0.86,0.86,0,0,1,.08.36,0.78,0.78,0,0,1-.08.37,1.16,1.16,0,0,1-.21.28,1.38,1.38,0,0,1-.27.21l-0.27.15-0.26.13L60,46a2,2,0,0,0-.25.21,0.62,0.62,0,0,0-.16.24h1.83V47H58.87Z" fill="#fff"/><path d="M61.54,47.1H58.77V47a2.33,2.33,0,0,1,0-.45A1.31,1.31,0,0,1,59,46.14a1.47,1.47,0,0,1,.29-0.36,2.27,2.27,0,0,1,.46-0.32L60,45.29l0,0,0.29-.17a0.76,0.76,0,0,0,.18-0.16,0.24,0.24,0,0,0,.06-0.16,0.33,0.33,0,0,0-.12-0.24,0.53,0.53,0,0,0-.37-0.11,0.76,0.76,0,0,0-.24,0,0.89,0.89,0,0,0-.2.09l-0.16.13-0.13.14-0.08.09-0.53-.61,0.06-.07L59,44.07a1.86,1.86,0,0,1,.31-0.19,2.2,2.2,0,0,1,.4-0.15,1.94,1.94,0,0,1,1,0,1.2,1.2,0,0,1,.4.21,0.93,0.93,0,0,1,.25.33,1,1,0,0,1,.09.41,0.88,0.88,0,0,1-.09.41,1.23,1.23,0,0,1-.22.31,1.52,1.52,0,0,1-.29.22l-0.27.15-0.18.09-0.08,0-0.27.16a2,2,0,0,0-.24.2l-0.06.07h1.77V47.1ZM59,46.9h2.36V46.55H59.46l0-.14a0.74,0.74,0,0,1,.18-0.28,2,2,0,0,1,.26-0.22l0.3-.18,0.08,0,0.18-.09,0.26-.14A1.25,1.25,0,0,0,61,45.27,1.05,1.05,0,0,0,61.2,45a0.68,0.68,0,0,0,.07-0.32,0.77,0.77,0,0,0-.07-0.32,0.71,0.71,0,0,0-.2-0.25,1,1,0,0,0-.33-0.17,1.74,1.74,0,0,0-.89,0,2,2,0,0,0-.37.13,1.61,1.61,0,0,0-.27.16l-0.09.08,0.25,0.29,0.06-.07a1.13,1.13,0,0,1,.2-0.16,1.07,1.07,0,0,1,.25-0.12,1,1,0,0,1,.31,0,0.73,0.73,0,0,1,.51.17,0.53,0.53,0,0,1,.19.39,0.45,0.45,0,0,1-.1.29,1,1,0,0,1-.23.21l-0.31.18,0,0-0.33.18a2.2,2.2,0,0,0-.42.29,1.33,1.33,0,0,0-.25.31,1.08,1.08,0,0,0-.13.34A1.86,1.86,0,0,0,59,46.9Z"/><path d="M64.17,46.45V47H62.05V46.45h0.79V44.52a0.66,0.66,0,0,1-.16.14l-0.23.13-0.27.1a0.88,0.88,0,0,1-.24,0V44.36a0.66,0.66,0,0,0,.26-0.07l0.28-.16L62.72,44a0.51,0.51,0,0,0,.12-0.13h0.63v2.62h0.7Z" fill="#fff"/><path d="M64.27,47.1H62V46.35h0.79v-1.6l-0.24.14L62.22,45a1,1,0,0,1-.28,0h-0.1V44.26h0.1a0.57,0.57,0,0,0,.22-0.06l0.27-.15,0.23-.17a0.47,0.47,0,0,0,.09-0.09l0-.05h0.79v2.62h0.7V47.1Zm-2.12-.21h1.91V46.55h-0.7V43.94H62.89l-0.11.1a2,2,0,0,1-.25.19l-0.3.16-0.2.06v0.36l0.11,0,0.25-.1,0.22-.12a0.58,0.58,0,0,0,.13-0.12l0.19-.25v2.35H62.16V46.9Z"/><path d="M85.67,47a2.22,2.22,0,0,1,0-.43,1.2,1.2,0,0,1,.14-0.37,1.4,1.4,0,0,1,.27-0.33,2.24,2.24,0,0,1,.44-0.31l0.37-.2,0.3-.17A0.88,0.88,0,0,0,87.44,45a0.35,0.35,0,0,0,.08-0.22,0.43,0.43,0,0,0-.15-0.32,0.63,0.63,0,0,0-.44-0.14,0.87,0.87,0,0,0-.27,0,1,1,0,0,0-.41.25l-0.14.15-0.39-.45,0.17-.15A1.7,1.7,0,0,1,86.18,44a2.06,2.06,0,0,1,.39-0.14A1.88,1.88,0,0,1,87,43.78a1.59,1.59,0,0,1,.48.07,1.09,1.09,0,0,1,.36.19,0.82,0.82,0,0,1,.22.29,0.86,0.86,0,0,1,.08.36,0.78,0.78,0,0,1-.08.37,1.16,1.16,0,0,1-.21.28,1.38,1.38,0,0,1-.27.21l-0.27.15-0.26.13L86.81,46a2,2,0,0,0-.25.21,0.62,0.62,0,0,0-.16.24h1.83V47H85.67Z" fill="#fff"/><path d="M88.34,47.1H85.57V47a2.33,2.33,0,0,1,0-.45,1.31,1.31,0,0,1,.15-0.41,1.47,1.47,0,0,1,.29-0.36,2.27,2.27,0,0,1,.46-0.32l0.33-.18,0,0,0.29-.17a0.76,0.76,0,0,0,.18-0.16,0.24,0.24,0,0,0,.06-0.16,0.33,0.33,0,0,0-.12-0.24,0.53,0.53,0,0,0-.37-0.11,0.76,0.76,0,0,0-.24,0,0.91,0.91,0,0,0-.2.09l-0.16.13-0.13.14-0.08.09-0.53-.61,0.06-.07,0.19-.17a1.86,1.86,0,0,1,.31-0.19,2.2,2.2,0,0,1,.4-0.15,1.94,1.94,0,0,1,1,0,1.2,1.2,0,0,1,.4.21,0.93,0.93,0,0,1,.25.33,1,1,0,0,1,.09.41,0.88,0.88,0,0,1-.09.41,1.23,1.23,0,0,1-.22.31,1.52,1.52,0,0,1-.29.22l-0.27.15-0.18.09-0.08,0-0.27.16a2,2,0,0,0-.24.2l-0.06.07h1.77V47.1Zm-2.56-.21h2.36V46.55H86.26l0-.14a0.74,0.74,0,0,1,.18-0.28,2,2,0,0,1,.26-0.22l0.3-.18,0.08,0,0.18-.09,0.26-.14a1.25,1.25,0,0,0,.25-0.19A1.05,1.05,0,0,0,88,45a0.68,0.68,0,0,0,.07-0.32A0.77,0.77,0,0,0,88,44.38a0.71,0.71,0,0,0-.2-0.25,1,1,0,0,0-.33-0.17,1.74,1.74,0,0,0-.89,0,2,2,0,0,0-.37.13,1.61,1.61,0,0,0-.27.16l-0.09.08,0.25,0.29,0.06-.07a1.13,1.13,0,0,1,.2-0.16,1.07,1.07,0,0,1,.25-0.12,1,1,0,0,1,.31,0,0.73,0.73,0,0,1,.51.17,0.53,0.53,0,0,1,.19.39,0.45,0.45,0,0,1-.1.29,1,1,0,0,1-.23.21L87,45.45l0,0-0.33.18a2.2,2.2,0,0,0-.42.29,1.33,1.33,0,0,0-.25.31,1.08,1.08,0,0,0-.13.34A1.86,1.86,0,0,0,85.78,46.9Z"/><path d="M90.07,45.24a1.38,1.38,0,0,1,.51.09,1.29,1.29,0,0,1,.41.26,1.16,1.16,0,0,1,.27.4,1.38,1.38,0,0,1,0,1,1.23,1.23,0,0,1-.3.42,1.31,1.31,0,0,1-.45.27,1.64,1.64,0,0,1-.56.09,1.53,1.53,0,0,1-.76-0.19,1.3,1.3,0,0,1-.52-0.52L89,46.77a1.21,1.21,0,0,0,.4.38,1,1,0,0,0,.52.14,0.79,0.79,0,0,0,.57-0.21,0.73,0.73,0,0,0,.22-0.56,0.77,0.77,0,0,0-.06-0.3A0.7,0.7,0,0,0,90.52,46a0.71,0.71,0,0,0-.24-0.15,0.78,0.78,0,0,0-.3-0.06,0.87,0.87,0,0,0-.39.09,0.75,0.75,0,0,0-.3.27H88.76l0-.13,0.05-.28,0.07-.37c0-.14.05-0.28,0.08-0.42q0.1-.5.22-1.1h1.92V44.4H89.65l-0.2,1.07a0.64,0.64,0,0,1,.25-0.17A1,1,0,0,1,90.07,45.24Z" fill="#fff"/><path d="M89.94,47.93a1.64,1.64,0,0,1-.82-0.2,1.4,1.4,0,0,1-.56-0.56l0-.07L89,46.61l0.07,0.1a1.1,1.1,0,0,0,.37.34,0.91,0.91,0,0,0,.47.13A0.68,0.68,0,0,0,90.44,47a0.63,0.63,0,0,0,.19-0.49,0.65,0.65,0,0,0,0-.26,0.6,0.6,0,0,0-.13-0.2,0.62,0.62,0,0,0-.2-0.13,0.75,0.75,0,0,0-.61,0,0.64,0.64,0,0,0-.26.23l0,0H88.63l0-.13,0-.12c0-.08,0-0.17.05-0.28l0.06-.29,0-.08c0-.14.05-0.28,0.08-0.42,0.07-.33.14-0.7,0.21-1.1l0-.08h2.11V44.5h-1.5l-0.14.74,0.06,0a1.43,1.43,0,0,1,1,0,1.4,1.4,0,0,1,.44.28,1.25,1.25,0,0,1,.3.44,1.49,1.49,0,0,1,0,1.13,1.33,1.33,0,0,1-.33.45,1.41,1.41,0,0,1-.49.29A1.75,1.75,0,0,1,89.94,47.93Zm-1.15-.79a1.21,1.21,0,0,0,.44.41,1.43,1.43,0,0,0,.71.18,1.56,1.56,0,0,0,.52-0.09,1.21,1.21,0,0,0,.42-0.25A1.15,1.15,0,0,0,91.16,47a1.28,1.28,0,0,0,0-1,1.07,1.07,0,0,0-.25-0.37,1.18,1.18,0,0,0-.38-0.24,1.27,1.27,0,0,0-.47-0.09,0.92,0.92,0,0,0-.33.05,0.53,0.53,0,0,0-.21.14l-0.25.28,0.28-1.53H91V43.94H89.29c-0.07.37-.14,0.71-0.2,1,0,0.14-.06.28-0.08,0.41l0,0.08-0.06.3L88.89,46h0.36a0.83,0.83,0,0,1,.31-0.26,1,1,0,0,1,.78,0,0.81,0.81,0,0,1,.45.44,0.87,0.87,0,0,1,.07.34,0.84,0.84,0,0,1-.25.64,0.89,0.89,0,0,1-.64.24,1.11,1.11,0,0,1-.57-0.16A1.33,1.33,0,0,1,89,46.92Z"/><path d="M110.41,45.43L112.74,44v0.65l-1.45.9,1.45,0.88v0.68l-2.33-1.39v-0.3Z" fill="#fff"/><path d="M112.84,47.3l-2.54-1.51V45.37l2.54-1.53v0.89l-1.35.84,1.35,0.82V47.3Zm-2.33-1.63,2.12,1.26V46.5l-1.54-.93,1.54-1V44.2l-2.12,1.28v0.19Z"/><path d="M114.66,47a2.22,2.22,0,0,1,0-.43,1.2,1.2,0,0,1,.14-0.37,1.4,1.4,0,0,1,.27-0.33,2.24,2.24,0,0,1,.44-0.31l0.37-.2,0.3-.17a0.88,0.88,0,0,0,.21-0.18,0.35,0.35,0,0,0,.08-0.22,0.43,0.43,0,0,0-.15-0.32,0.63,0.63,0,0,0-.44-0.14,0.87,0.87,0,0,0-.27,0,1,1,0,0,0-.41.25l-0.14.15-0.39-.45,0.17-.15a1.7,1.7,0,0,1,.29-0.17,2.06,2.06,0,0,1,.39-0.14,1.88,1.88,0,0,1,.47-0.06,1.59,1.59,0,0,1,.48.07,1.09,1.09,0,0,1,.36.19,0.82,0.82,0,0,1,.22.29,0.86,0.86,0,0,1,.08.36,0.78,0.78,0,0,1-.08.37,1.16,1.16,0,0,1-.21.28,1.38,1.38,0,0,1-.27.21l-0.27.15-0.26.13-0.29.17a2,2,0,0,0-.25.21,0.62,0.62,0,0,0-.16.24h1.83V47h-2.57Z" fill="#fff"/><path d="M117.33,47.1h-2.77V47a2.33,2.33,0,0,1,0-.45,1.31,1.31,0,0,1,.15-0.41,1.47,1.47,0,0,1,.29-0.36,2.27,2.27,0,0,1,.46-0.32l0.33-.18,0,0,0.29-.17a0.76,0.76,0,0,0,.18-0.16,0.24,0.24,0,0,0,.06-0.16,0.33,0.33,0,0,0-.12-0.24,0.53,0.53,0,0,0-.37-0.11,0.76,0.76,0,0,0-.24,0,0.91,0.91,0,0,0-.2.09l-0.16.13-0.13.14-0.08.09-0.53-.61,0.06-.07,0.19-.17a1.86,1.86,0,0,1,.31-0.19,2.2,2.2,0,0,1,.4-0.15,1.94,1.94,0,0,1,1,0,1.2,1.2,0,0,1,.4.21,0.93,0.93,0,0,1,.25.33,1,1,0,0,1,.09.41,0.88,0.88,0,0,1-.09.41,1.23,1.23,0,0,1-.22.31,1.52,1.52,0,0,1-.29.22l-0.27.15-0.18.09-0.08,0-0.27.16a2,2,0,0,0-.24.2l-0.06.07h1.77V47.1Zm-2.56-.21h2.36V46.55h-1.87l0-.14a0.74,0.74,0,0,1,.18-0.28,2,2,0,0,1,.26-0.22l0.3-.18,0.08,0,0.18-.09,0.26-.14a1.25,1.25,0,0,0,.25-0.19A1.05,1.05,0,0,0,117,45a0.68,0.68,0,0,0,.07-0.32,0.77,0.77,0,0,0-.07-0.32,0.71,0.71,0,0,0-.2-0.25,1,1,0,0,0-.33-0.17,1.74,1.74,0,0,0-.89,0,2,2,0,0,0-.37.13,1.61,1.61,0,0,0-.27.16l-0.09.08,0.25,0.29,0.06-.07a1.13,1.13,0,0,1,.2-0.16,1.07,1.07,0,0,1,.25-0.12,1,1,0,0,1,.31,0,0.73,0.73,0,0,1,.51.17,0.53,0.53,0,0,1,.19.39,0.45,0.45,0,0,1-.1.29,1,1,0,0,1-.23.21l-0.31.18,0,0-0.33.18a2.2,2.2,0,0,0-.42.29,1.33,1.33,0,0,0-.25.31,1.08,1.08,0,0,0-.13.34A1.86,1.86,0,0,0,114.76,46.9Z"/><path d="M120.55,45.87a1,1,0,0,1-.11.48,1.16,1.16,0,0,1-.31.37,1.4,1.4,0,0,1-.45.24,1.71,1.71,0,0,1-.54.08,1.65,1.65,0,0,1-.55-0.09,1.39,1.39,0,0,1-.45-0.25,1.17,1.17,0,0,1-.3-0.38,1.08,1.08,0,0,1-.11-0.48,0.85,0.85,0,0,1,.06-0.32,1.09,1.09,0,0,1,.16-0.27,1.19,1.19,0,0,1,.22-0.21,1.49,1.49,0,0,1,.24-0.14,1,1,0,0,1-.39-0.3,0.73,0.73,0,0,1-.16-0.46,0.88,0.88,0,0,1,.12-0.45,1.12,1.12,0,0,1,.3-0.33,1.37,1.37,0,0,1,.41-0.21,1.51,1.51,0,0,1,.45-0.07,1.54,1.54,0,0,1,.45.07,1.4,1.4,0,0,1,.42.2,1.06,1.06,0,0,1,.3.33,0.87,0.87,0,0,1,.12.45,0.74,0.74,0,0,1-.16.47,1,1,0,0,1-.4.31,1.51,1.51,0,0,1,.26.15,1,1,0,0,1,.22.22,1.06,1.06,0,0,1,.15.27A0.93,0.93,0,0,1,120.55,45.87Zm-0.62,0a0.58,0.58,0,0,0-.07-0.29,0.71,0.71,0,0,0-.18-0.21,0.81,0.81,0,0,0-.25-0.13,1,1,0,0,0-.29,0,0.91,0.91,0,0,0-.29,0,0.78,0.78,0,0,0-.25.13,0.71,0.71,0,0,0-.17.21,0.6,0.6,0,0,0-.07.28,0.57,0.57,0,0,0,.07.28,0.67,0.67,0,0,0,.18.21,0.84,0.84,0,0,0,.25.13,0.9,0.9,0,0,0,.29,0,0.87,0.87,0,0,0,.29,0,0.9,0.9,0,0,0,.25-0.14,0.73,0.73,0,0,0,.18-0.21A0.56,0.56,0,0,0,119.93,45.83Zm-1.45-1.68a0.43,0.43,0,0,0,.06.23,0.53,0.53,0,0,0,.15.17,0.79,0.79,0,0,0,.21.1,0.8,0.8,0,0,0,.23,0,0.84,0.84,0,0,0,.24,0,0.71,0.71,0,0,0,.21-0.11,0.6,0.6,0,0,0,.16-0.17,0.45,0.45,0,0,0,.06-0.24,0.44,0.44,0,0,0-.05-0.22,0.55,0.55,0,0,0-.15-0.17,0.63,0.63,0,0,0-.21-0.11,0.89,0.89,0,0,0-.25,0,0.77,0.77,0,0,0-.25,0,0.68,0.68,0,0,0-.21.11,0.51,0.51,0,0,0-.14.17A0.47,0.47,0,0,0,118.48,44.15Z" fill="#fff"/><path d="M119.13,47.15a1.74,1.74,0,0,1-.59-0.1,1.51,1.51,0,0,1-.48-0.27,1.28,1.28,0,0,1-.32-0.42,1.19,1.19,0,0,1-.12-0.53,1,1,0,0,1,.07-0.36,1.22,1.22,0,0,1,.17-0.3,1.3,1.3,0,0,1,.24-0.23l0.09-.06a1.16,1.16,0,0,1-.25-0.24,0.84,0.84,0,0,1-.18-0.53,1,1,0,0,1,.13-0.5,1.23,1.23,0,0,1,.33-0.36,1.51,1.51,0,0,1,.44-0.22,1.65,1.65,0,0,1,1,0,1.47,1.47,0,0,1,.45.22,1.17,1.17,0,0,1,.33.36,1,1,0,0,1,.13.5,0.85,0.85,0,0,1-.18.53,1.19,1.19,0,0,1-.26.24l0.1,0.07a1.13,1.13,0,0,1,.24.24,1.17,1.17,0,0,1,.16.3,1,1,0,0,1,.06.36,1.17,1.17,0,0,1-.12.53,1.29,1.29,0,0,1-.33.41,1.53,1.53,0,0,1-.48.26A1.8,1.8,0,0,1,119.13,47.15Zm0-4a1.39,1.39,0,0,0-.42.06,1.27,1.27,0,0,0-.38.19,1,1,0,0,0-.27.3,0.78,0.78,0,0,0-.1.4,0.63,0.63,0,0,0,.14.4,0.89,0.89,0,0,0,.35.27l0.21,0.09-0.21.1-0.23.13a1,1,0,0,0-.2.19,1,1,0,0,0-.14.24,0.76,0.76,0,0,0-.05.28,1,1,0,0,0,.1.44,1.08,1.08,0,0,0,.27.35,1.32,1.32,0,0,0,.41.23,1.66,1.66,0,0,0,1,0,1.3,1.3,0,0,0,.42-0.22,1.05,1.05,0,0,0,.28-0.34,1,1,0,0,0,.1-0.44,0.82,0.82,0,0,0,0-.29,0.94,0.94,0,0,0-.13-0.25,0.91,0.91,0,0,0-.2-0.2,1.31,1.31,0,0,0-.24-0.14l-0.21-.1,0.21-.09a0.92,0.92,0,0,0,.36-0.28,0.64,0.64,0,0,0,.14-0.4,0.77,0.77,0,0,0-.1-0.4,0.94,0.94,0,0,0-.27-0.3,1.29,1.29,0,0,0-.39-0.19A1.42,1.42,0,0,0,119.14,43.17Zm0,3.43a1,1,0,0,1-.32-0.05,1,1,0,0,1-.28-0.15,0.78,0.78,0,0,1-.21-0.24,0.67,0.67,0,0,1-.08-0.33,0.7,0.7,0,0,1,.08-0.33,0.82,0.82,0,0,1,.2-0.25,0.89,0.89,0,0,1,.28-0.15,1,1,0,0,1,.64,0,0.92,0.92,0,0,1,.29.15,0.81,0.81,0,0,1,.21.25,0.71,0.71,0,0,1,0,.66,0.84,0.84,0,0,1-.2.24,1,1,0,0,1-.28.16A1,1,0,0,1,119.15,46.6Zm0-1.35a0.81,0.81,0,0,0-.26,0,0.66,0.66,0,0,0-.22.12,0.61,0.61,0,0,0-.15.18,0.5,0.5,0,0,0-.05.23,0.46,0.46,0,0,0,.06.23,0.57,0.57,0,0,0,.15.18,0.75,0.75,0,0,0,.22.12,0.81,0.81,0,0,0,.51,0,0.8,0.8,0,0,0,.22-0.12,0.61,0.61,0,0,0,.15-0.18,0.46,0.46,0,0,0,.05-0.22,0.48,0.48,0,0,0-.06-0.23,0.61,0.61,0,0,0-.16-0.18,0.69,0.69,0,0,0-.22-0.11A0.83,0.83,0,0,0,119.14,45.25Zm0-.47a0.91,0.91,0,0,1-.26,0,0.89,0.89,0,0,1-.24-0.12,0.63,0.63,0,0,1-.18-0.2,0.54,0.54,0,0,1-.08-0.29,0.58,0.58,0,0,1,.06-0.27,0.62,0.62,0,0,1,.17-0.2,0.79,0.79,0,0,1,.24-0.12,1,1,0,0,1,.57,0,0.74,0.74,0,0,1,.24.12,0.65,0.65,0,0,1,.17.2,0.54,0.54,0,0,1,.07.27,0.56,0.56,0,0,1-.08.29,0.7,0.7,0,0,1-.18.2,0.8,0.8,0,0,1-.24.12A0.94,0.94,0,0,1,119.14,44.79Zm0-1.07a0.67,0.67,0,0,0-.22,0,0.57,0.57,0,0,0-.18.09,0.41,0.41,0,0,0-.12.13,0.37,0.37,0,0,0,0,.17,0.33,0.33,0,0,0,0,.18,0.41,0.41,0,0,0,.12.13,0.68,0.68,0,0,0,.18.09,0.72,0.72,0,0,0,.41,0,0.63,0.63,0,0,0,.18-0.09,0.5,0.5,0,0,0,.13-0.14,0.35,0.35,0,0,0,0-.18,0.34,0.34,0,0,0,0-.17,0.44,0.44,0,0,0-.12-0.13,0.54,0.54,0,0,0-.18-0.09A0.8,0.8,0,0,0,119.14,43.71Z"/><path d="M4.79,12.87l2.33-1.41v0.65L5.67,13l1.45,0.88v0.68L4.79,13.17v-0.3Z" fill="#fff"/><path d="M7.22,14.74L4.69,13.23V12.81l2.54-1.53v0.89L5.87,13l1.35,0.82v0.92ZM4.89,13.11L7,14.38V13.94L5.47,13l1.54-1V11.65L4.89,12.93v0.19Z"/><path d="M7.78,13.2V12.65H9.44V13.2H7.78Z" fill="#fff"/><path d="M9.54,13.31H7.68V12.55H9.54v0.76ZM7.89,13.1H9.34V12.76H7.89V13.1Z"/><path d="M12.14,13.89v0.55H10V13.89h0.79V12a0.65,0.65,0,0,1-.16.14l-0.23.13-0.27.1a0.86,0.86,0,0,1-.24,0V11.8a0.64,0.64,0,0,0,.26-0.07l0.28-.16,0.24-.18a0.51,0.51,0,0,0,.12-0.13h0.63v2.62h0.7Z" fill="#fff"/><path d="M12.24,14.55H9.92V13.79h0.79v-1.6l-0.24.14-0.28.11a1,1,0,0,1-.27,0H9.81V11.7h0.1a0.53,0.53,0,0,0,.21-0.06l0.27-.15,0.23-.17a0.53,0.53,0,0,0,.09-0.09l0-.05h0.79v2.62h0.7v0.76Zm-2.12-.21H12V14h-0.7V11.38H10.86l-0.1.1-0.25.19-0.3.16L10,11.9v0.36l0.11,0,0.25-.1L10.6,12a0.55,0.55,0,0,0,.13-0.11l0.19-.25V14H10.13v0.34Z"/><path d="M13.85,12.69a1.37,1.37,0,0,1,.51.09,1.28,1.28,0,0,1,.41.26,1.16,1.16,0,0,1,.27.4,1.38,1.38,0,0,1,0,1,1.24,1.24,0,0,1-.3.42,1.33,1.33,0,0,1-.45.27,1.63,1.63,0,0,1-.56.09A1.52,1.52,0,0,1,13,15.08a1.3,1.3,0,0,1-.52-0.52l0.37-.35a1.22,1.22,0,0,0,.4.38,1,1,0,0,0,.52.14,0.79,0.79,0,0,0,.57-0.21A0.73,0.73,0,0,0,14.52,14a0.77,0.77,0,0,0-.06-0.3,0.72,0.72,0,0,0-.16-0.23,0.74,0.74,0,0,0-.24-0.15,0.79,0.79,0,0,0-.3-0.06,0.87,0.87,0,0,0-.39.09,0.76,0.76,0,0,0-.3.27H12.54l0-.13,0.05-.28,0.07-.37c0-.14.05-0.27,0.08-0.42q0.1-.49.22-1.1h1.92v0.56H13.43l-0.2,1.07a0.64,0.64,0,0,1,.25-0.17A1,1,0,0,1,13.85,12.69Z" fill="#fff"/><path d="M13.72,15.37a1.63,1.63,0,0,1-.82-0.2,1.41,1.41,0,0,1-.56-0.56l0-.07L12.83,14l0.07,0.1a1.13,1.13,0,0,0,.37.35,0.91,0.91,0,0,0,.47.13,0.68,0.68,0,0,0,.49-0.18A0.63,0.63,0,0,0,14.41,14a0.67,0.67,0,0,0,0-.26A0.6,0.6,0,0,0,14,13.37a0.76,0.76,0,0,0-.6,0,0.65,0.65,0,0,0-.26.23l0,0H12.4l0-.13,0-.12c0-.07,0-0.17.05-0.28l0.05-.27,0-.1c0-.14.05-0.28,0.08-0.42,0.07-.33.14-0.69,0.21-1.1l0-.08H15v0.77h-1.5l-0.14.74,0.07,0a1.43,1.43,0,0,1,1,0,1.39,1.39,0,0,1,.44.28,1.26,1.26,0,0,1,.3.43,1.49,1.49,0,0,1,0,1.13,1.34,1.34,0,0,1-.32.45,1.45,1.45,0,0,1-.49.29A1.73,1.73,0,0,1,13.72,15.37Zm-1.15-.79A1.22,1.22,0,0,0,13,15a1.43,1.43,0,0,0,.71.18,1.53,1.53,0,0,0,.52-0.09,1.24,1.24,0,0,0,.42-0.25,1.14,1.14,0,0,0,.28-0.38,1.28,1.28,0,0,0,0-1,1.06,1.06,0,0,0-.25-0.36,1.18,1.18,0,0,0-.38-0.24,1.21,1.21,0,0,0-.8,0,0.54,0.54,0,0,0-.21.14l-0.25.28,0.28-1.52h1.46V11.38H13.07q-0.11.56-.2,1c0,0.14-.06.28-0.08,0.41l0,0.1-0.05.28-0.05.27H13a0.85,0.85,0,0,1,.31-0.26,1,1,0,0,1,.78,0,0.81,0.81,0,0,1,.45.44,0.88,0.88,0,0,1,.07.34,0.84,0.84,0,0,1-.25.63,0.89,0.89,0,0,1-.64.24,1.11,1.11,0,0,1-.57-0.16,1.34,1.34,0,0,1-.36-0.31Z"/><path d="M33.71,13.2V12.65h1.66V13.2H33.71Z" fill="#fff"/><path d="M35.47,13.31H33.61V12.55h1.86v0.76Zm-1.66-.21h1.45V12.76H33.81V13.1Z"/><path d="M38.83,13.13a1.32,1.32,0,0,1-.11.53,1.35,1.35,0,0,1-.3.44,1.39,1.39,0,0,1-.45.29,1.49,1.49,0,0,1-.56.1,1.43,1.43,0,0,1-.59-0.12A1.26,1.26,0,0,1,36.36,14a1.6,1.6,0,0,1-.29-0.55,2.43,2.43,0,0,1-.1-0.73,4,4,0,0,1,.11-1,2.25,2.25,0,0,1,.3-0.71,1.29,1.29,0,0,1,.47-0.43,1.32,1.32,0,0,1,.62-0.14,1.41,1.41,0,0,1,.69.17,1.34,1.34,0,0,1,.51.49l-0.36.38A1,1,0,0,0,38,11.15a0.94,0.94,0,0,0-.5-0.14,0.77,0.77,0,0,0-.66.35,1.75,1.75,0,0,0-.26,1A0.92,0.92,0,0,1,36.91,12a1.09,1.09,0,0,1,.56-0.14,1.4,1.4,0,0,1,.54.1,1.36,1.36,0,0,1,.43.28,1.31,1.31,0,0,1,.29.42A1.28,1.28,0,0,1,38.83,13.13ZM37.41,14a0.8,0.8,0,0,0,.32-0.07A0.82,0.82,0,0,0,38,13.73a0.89,0.89,0,0,0,.18-0.27,0.81,0.81,0,0,0,.07-0.32,0.79,0.79,0,0,0-.07-0.32A0.87,0.87,0,0,0,38,12.55a0.85,0.85,0,0,0-.27-0.18,0.82,0.82,0,0,0-.65,0,0.85,0.85,0,0,0-.45.44,0.79,0.79,0,0,0-.07.32,0.81,0.81,0,0,0,.07.32,0.89,0.89,0,0,0,.18.27,0.83,0.83,0,0,0,.27.18A0.8,0.8,0,0,0,37.41,14Z" fill="#fff"/><path d="M37.41,14.6a1.54,1.54,0,0,1-.64-0.13,1.36,1.36,0,0,1-.49-0.37A1.7,1.7,0,0,1,36,13.52a2.54,2.54,0,0,1-.11-0.77,4.14,4.14,0,0,1,.11-1A2.37,2.37,0,0,1,36.29,11a1.39,1.39,0,0,1,.51-0.46,1.55,1.55,0,0,1,1.41,0,1.45,1.45,0,0,1,.55.52l0,0.07-0.51.54-0.07-.12a0.87,0.87,0,0,0-.31-0.33,0.84,0.84,0,0,0-.44-0.12,0.67,0.67,0,0,0-.58.31,1.36,1.36,0,0,0-.21.58,1,1,0,0,1,.18-0.13,1.39,1.39,0,0,1,1.19,0,1.47,1.47,0,0,1,.46.3,1.42,1.42,0,0,1,.31.45,1.38,1.38,0,0,1,.11.56,1.44,1.44,0,0,1-.12.57,1.47,1.47,0,0,1-.32.47,1.5,1.5,0,0,1-.49.31A1.6,1.6,0,0,1,37.41,14.6Zm0.06-4a1.23,1.23,0,0,0-.57.13,1.18,1.18,0,0,0-.43.4,2.17,2.17,0,0,0-.29.68,4,4,0,0,0-.11,1,2.35,2.35,0,0,0,.1.7,1.5,1.5,0,0,0,.27.51,1.17,1.17,0,0,0,.42.31,1.44,1.44,0,0,0,1.07,0A1.29,1.29,0,0,0,38.35,14a1.25,1.25,0,0,0,.28-0.4,1.22,1.22,0,0,0,.1-0.49,1.19,1.19,0,0,0-.1-0.48,1.23,1.23,0,0,0-.27-0.39A1.24,1.24,0,0,0,38,12a1.19,1.19,0,0,0-1,0,0.82,0.82,0,0,0-.32.35l-0.21.42V12.35a1.85,1.85,0,0,1,.28-1,0.87,0.87,0,0,1,.75-0.4,1,1,0,0,1,.55.15,1.05,1.05,0,0,1,.31.29l0.21-.22a1.24,1.24,0,0,0-.42-0.38A1.29,1.29,0,0,0,37.47,10.58Zm-0.06,3.5A0.91,0.91,0,0,1,37,14a1,1,0,0,1-.3-0.21,1,1,0,0,1-.2-0.3,0.91,0.91,0,0,1-.07-0.37,0.9,0.9,0,0,1,.08-0.36,1,1,0,0,1,.5-0.5,0.93,0.93,0,0,1,.73,0,1,1,0,0,1,.3.2,1,1,0,0,1,.2.29,0.9,0.9,0,0,1,.08.36,0.92,0.92,0,0,1-.07.37,1,1,0,0,1-.2.3,0.92,0.92,0,0,1-.3.21A0.9,0.9,0,0,1,37.41,14.08Zm0-1.67a0.7,0.7,0,0,0-.28.06,0.76,0.76,0,0,0-.24.16,0.77,0.77,0,0,0-.16.23,0.71,0.71,0,0,0,0,.56,0.79,0.79,0,0,0,.16.24,0.75,0.75,0,0,0,.23.16,0.72,0.72,0,0,0,.8-0.16,0.79,0.79,0,0,0,.16-0.24,0.71,0.71,0,0,0,.06-0.28,0.69,0.69,0,0,0-.06-0.28,0.78,0.78,0,0,0-.16-0.23,0.74,0.74,0,0,0-.23-0.16A0.7,0.7,0,0,0,37.41,12.41Z"/><path d="M63.89,12.82a2,2,0,0,1-.11.67,1.65,1.65,0,0,1-.3.53,1.37,1.37,0,0,1-.45.35,1.28,1.28,0,0,1-.56.12,1.3,1.3,0,0,1-.57-0.12A1.32,1.32,0,0,1,61.46,14a1.69,1.69,0,0,1-.3-0.53,2.15,2.15,0,0,1,0-1.35,1.69,1.69,0,0,1,.3-0.53,1.35,1.35,0,0,1,.45-0.35,1.27,1.27,0,0,1,.57-0.13,1.25,1.25,0,0,1,.56.13,1.4,1.4,0,0,1,.45.35,1.65,1.65,0,0,1,.3.53A2,2,0,0,1,63.89,12.82Zm-0.62,0a1.65,1.65,0,0,0-.06-0.45A1.15,1.15,0,0,0,63,12a0.78,0.78,0,0,0-.25-0.23,0.66,0.66,0,0,0-.32-0.08,0.68,0.68,0,0,0-.33.08,0.77,0.77,0,0,0-.26.23,1.15,1.15,0,0,0-.17.35,1.82,1.82,0,0,0,0,.91,1.11,1.11,0,0,0,.17.35,0.78,0.78,0,0,0,.26.23,0.67,0.67,0,0,0,.33.08,0.66,0.66,0,0,0,.32-0.08A0.78,0.78,0,0,0,63,13.63a1.11,1.11,0,0,0,.17-0.35A1.65,1.65,0,0,0,63.27,12.82Z" fill="#fff"/><path d="M62.47,14.6a1.41,1.41,0,0,1-.61-0.13,1.43,1.43,0,0,1-.48-0.38,1.8,1.8,0,0,1-.31-0.56,2.25,2.25,0,0,1,0-1.42,1.78,1.78,0,0,1,.32-0.56,1.45,1.45,0,0,1,.48-0.38,1.42,1.42,0,0,1,1.22,0,1.52,1.52,0,0,1,.48.38,1.76,1.76,0,0,1,.32.57,2.26,2.26,0,0,1,0,1.42,1.76,1.76,0,0,1-.32.56,1.48,1.48,0,0,1-.48.38A1.38,1.38,0,0,1,62.47,14.6Zm0-3.36a1.17,1.17,0,0,0-.52.12,1.24,1.24,0,0,0-.41.33,1.59,1.59,0,0,0-.28.5,2,2,0,0,0,0,1.28,1.6,1.6,0,0,0,.28.5,1.22,1.22,0,0,0,.41.32,1.24,1.24,0,0,0,1,0A1.28,1.28,0,0,0,63.41,14a1.56,1.56,0,0,0,.28-0.5,2,2,0,0,0,0-1.28,1.56,1.56,0,0,0-.28-0.5A1.31,1.31,0,0,0,63,11.35,1.15,1.15,0,0,0,62.47,11.24Zm0,2.8a0.78,0.78,0,0,1-.38-0.09,0.88,0.88,0,0,1-.29-0.26,1.23,1.23,0,0,1-.18-0.39,1.8,1.8,0,0,1-.06-0.48,1.83,1.83,0,0,1,.06-0.48,1.29,1.29,0,0,1,.18-0.39,0.88,0.88,0,0,1,.29-0.26,0.8,0.8,0,0,1,.75,0,0.88,0.88,0,0,1,.29.26,1.26,1.26,0,0,1,.18.39,1.92,1.92,0,0,1,0,1,1.22,1.22,0,0,1-.18.38,0.89,0.89,0,0,1-.29.26A0.76,0.76,0,0,1,62.47,14Zm0-2.23a0.57,0.57,0,0,0-.28.07,0.67,0.67,0,0,0-.22.2,1,1,0,0,0-.15.32,1.72,1.72,0,0,0,0,.85,1,1,0,0,0,.15.32,0.69,0.69,0,0,0,.22.2,0.58,0.58,0,0,0,.55,0,0.68,0.68,0,0,0,.22-0.2,1,1,0,0,0,.15-0.32,1.72,1.72,0,0,0,0-.85A1,1,0,0,0,63,12.07a0.69,0.69,0,0,0-.22-0.2A0.56,0.56,0,0,0,62.47,11.8Z"/><path d="M90.17,13.13a1.32,1.32,0,0,1-.11.53,1.35,1.35,0,0,1-.3.44,1.37,1.37,0,0,1-.45.29,1.49,1.49,0,0,1-.56.1,1.43,1.43,0,0,1-.59-0.12A1.25,1.25,0,0,1,87.71,14a1.6,1.6,0,0,1-.29-0.55,2.43,2.43,0,0,1-.1-0.73,4,4,0,0,1,.11-1,2.25,2.25,0,0,1,.3-0.71,1.3,1.3,0,0,1,.47-0.43,1.32,1.32,0,0,1,.62-0.14,1.41,1.41,0,0,1,.69.17,1.34,1.34,0,0,1,.51.49l-0.36.38a1,1,0,0,0-.35-0.37A0.94,0.94,0,0,0,88.8,11a0.77,0.77,0,0,0-.66.35,1.74,1.74,0,0,0-.26,1A0.91,0.91,0,0,1,88.25,12a1.08,1.08,0,0,1,.56-0.14,1.4,1.4,0,0,1,.54.1,1.34,1.34,0,0,1,.43.28,1.29,1.29,0,0,1,.29.42A1.28,1.28,0,0,1,90.17,13.13ZM88.75,14a0.8,0.8,0,0,0,.32-0.07,0.81,0.81,0,0,0,.27-0.18,0.9,0.9,0,0,0,.18-0.27,0.82,0.82,0,0,0,.07-0.32,0.8,0.8,0,0,0-.07-0.32,0.87,0.87,0,0,0-.18-0.26,0.84,0.84,0,0,0-.27-0.18,0.82,0.82,0,0,0-.65,0,0.86,0.86,0,0,0-.27.18,0.84,0.84,0,0,0-.18.26,0.77,0.77,0,0,0-.07.32,0.79,0.79,0,0,0,.07.32,0.86,0.86,0,0,0,.18.27,0.83,0.83,0,0,0,.27.18A0.8,0.8,0,0,0,88.75,14Z" fill="#fff"/><path d="M88.75,14.6a1.53,1.53,0,0,1-.63-0.13,1.36,1.36,0,0,1-.49-0.37,1.72,1.72,0,0,1-.31-0.58,2.53,2.53,0,0,1-.11-0.77,4.12,4.12,0,0,1,.11-1A2.36,2.36,0,0,1,87.63,11a1.41,1.41,0,0,1,.51-0.46,1.55,1.55,0,0,1,1.41,0,1.45,1.45,0,0,1,.54.52l0,0.07-0.51.54-0.07-.12a0.88,0.88,0,0,0-.31-0.33,0.84,0.84,0,0,0-.44-0.12,0.67,0.67,0,0,0-.58.31A1.35,1.35,0,0,0,88,12l0.18-.13a1.4,1.4,0,0,1,1.19,0,1.44,1.44,0,0,1,.46.3,1.4,1.4,0,0,1,.31.45,1.38,1.38,0,0,1,.11.56,1.43,1.43,0,0,1-.12.57,1.46,1.46,0,0,1-.81.78A1.6,1.6,0,0,1,88.75,14.6Zm0.06-4a1.22,1.22,0,0,0-.57.13,1.18,1.18,0,0,0-.43.4,2.15,2.15,0,0,0-.29.68,3.93,3.93,0,0,0-.11,1,2.34,2.34,0,0,0,.1.7,1.5,1.5,0,0,0,.27.51,1.15,1.15,0,0,0,.42.31,1.43,1.43,0,0,0,1.07,0A1.29,1.29,0,0,0,89.69,14a1.26,1.26,0,0,0,.28-0.4,1.21,1.21,0,0,0,.1-0.49,1.19,1.19,0,0,0-.36-0.86,1.24,1.24,0,0,0-.4-0.26,1.19,1.19,0,0,0-1,0,0.81,0.81,0,0,0-.32.35l-0.2.42V12.35a1.84,1.84,0,0,1,.28-1,0.87,0.87,0,0,1,.75-0.4,1,1,0,0,1,.55.15,1.07,1.07,0,0,1,.31.29l0.21-.22a1.21,1.21,0,0,0-.42-0.38A1.31,1.31,0,0,0,88.81,10.58Zm-0.06,3.5A0.91,0.91,0,0,1,88.39,14a0.94,0.94,0,0,1-.3-0.21,1,1,0,0,1-.2-0.3,0.91,0.91,0,0,1-.07-0.36,0.88,0.88,0,0,1,.08-0.36,0.94,0.94,0,0,1,.2-0.29,1,1,0,0,1,.3-0.2,0.93,0.93,0,0,1,.73,0,1,1,0,0,1,.3.2,1,1,0,0,1,.2.29,0.9,0.9,0,0,1,.08.36,0.93,0.93,0,0,1-.07.36,1,1,0,0,1-.2.3A0.93,0.93,0,0,1,88.75,14.08Zm0-1.67a0.7,0.7,0,0,0-.28.06,0.75,0.75,0,0,0-.23.16,0.73,0.73,0,0,0-.16.23,0.67,0.67,0,0,0-.06.28,0.69,0.69,0,0,0,.06.28,0.76,0.76,0,0,0,.16.24,0.74,0.74,0,0,0,.23.16,0.72,0.72,0,0,0,.57,0,0.7,0.7,0,0,0,.23-0.16,0.79,0.79,0,0,0,.16-0.24,0.72,0.72,0,0,0,.06-0.28,0.7,0.7,0,0,0-.06-0.28,0.78,0.78,0,0,0-.16-0.23A0.73,0.73,0,0,0,89,12.46,0.69,0.69,0,0,0,88.75,12.41Z"/><path d="M117.63,13.89v0.55h-2.12V13.89h0.79V12a0.65,0.65,0,0,1-.16.14l-0.23.13-0.27.1a0.86,0.86,0,0,1-.24,0V11.8a0.64,0.64,0,0,0,.26-0.07l0.28-.16,0.24-.18a0.51,0.51,0,0,0,.12-0.13h0.63v2.62h0.7Z" fill="#fff"/><path d="M117.74,14.55h-2.32V13.79h0.79v-1.6l-0.24.14-0.28.11a1,1,0,0,1-.27,0h-0.1V11.7h0.1a0.53,0.53,0,0,0,.21-0.06l0.27-.15,0.23-.17a0.53,0.53,0,0,0,.09-0.09l0-.05H117v2.62h0.7v0.76Zm-2.12-.21h1.91V14h-0.7V11.38h-0.47l-0.1.1-0.25.19-0.3.16-0.2.06v0.36l0.11,0,0.25-.1,0.22-.12a0.55,0.55,0,0,0,.13-0.11l0.19-.25V14h-0.79v0.34Z"/><path d="M118,14.44a2.22,2.22,0,0,1,0-.43,1.18,1.18,0,0,1,.14-0.37,1.36,1.36,0,0,1,.27-0.33,2.24,2.24,0,0,1,.44-0.31l0.37-.19,0.3-.17a0.88,0.88,0,0,0,.21-0.18,0.35,0.35,0,0,0,.08-0.22,0.43,0.43,0,0,0-.15-0.32,0.63,0.63,0,0,0-.44-0.14,0.86,0.86,0,0,0-.27,0,1.08,1.08,0,0,0-.23.1,1,1,0,0,0-.18.14l-0.14.15L118,11.75l0.17-.15a1.73,1.73,0,0,1,.29-0.17,2.14,2.14,0,0,1,.39-0.14,1.79,1.79,0,0,1,.47-0.06,1.54,1.54,0,0,1,.48.07,1.09,1.09,0,0,1,.36.19,0.82,0.82,0,0,1,.22.29,0.86,0.86,0,0,1,.08.36,0.78,0.78,0,0,1-.08.37,1.14,1.14,0,0,1-.21.28,1.35,1.35,0,0,1-.27.21l-0.27.15-0.26.13-0.29.17a2,2,0,0,0-.25.21,0.62,0.62,0,0,0-.16.24h1.83v0.55H118Z" fill="#fff"/><path d="M120.66,14.55h-2.77v-0.1a2.33,2.33,0,0,1,0-.45,1.29,1.29,0,0,1,.15-0.41,1.47,1.47,0,0,1,.29-0.36,2.37,2.37,0,0,1,.46-0.32l0.37-.2,0.29-.17a0.79,0.79,0,0,0,.18-0.16,0.25,0.25,0,0,0,.06-0.16,0.32,0.32,0,0,0-.12-0.24,0.53,0.53,0,0,0-.37-0.11,0.75,0.75,0,0,0-.24,0l-0.21.09a0.86,0.86,0,0,0-.16.13l-0.13.14-0.08.09-0.53-.61,0.06-.07,0.19-.16a1.81,1.81,0,0,1,.31-0.19,2.27,2.27,0,0,1,.41-0.15,1.91,1.91,0,0,1,1,0,1.2,1.2,0,0,1,.39.21,0.93,0.93,0,0,1,.25.33,1,1,0,0,1,.09.41,0.88,0.88,0,0,1-.09.41,1.25,1.25,0,0,1-.22.31,1.45,1.45,0,0,1-.29.22l-0.27.15-0.26.13-0.27.16a1.8,1.8,0,0,0-.24.2l-0.06.07h1.77v0.76Zm-2.56-.21h2.36V14h-1.87l0-.14a0.72,0.72,0,0,1,.18-0.28,2,2,0,0,1,.26-0.22l0.3-.18,0.26-.13,0.26-.14a1.26,1.26,0,0,0,.25-0.19,1,1,0,0,0,.19-0.26,0.68,0.68,0,0,0,.07-0.32,0.76,0.76,0,0,0-.07-0.32,0.72,0.72,0,0,0-.2-0.25,1,1,0,0,0-.33-0.17,1.7,1.7,0,0,0-.89,0,2.07,2.07,0,0,0-.37.13,1.63,1.63,0,0,0-.27.16l-0.09.08L118.42,12l0.06-.07a1.12,1.12,0,0,1,.2-0.16,1.2,1.2,0,0,1,.25-0.12,1,1,0,0,1,.31,0,0.72,0.72,0,0,1,.51.17,0.53,0.53,0,0,1,.19.4,0.45,0.45,0,0,1-.1.29,1,1,0,0,1-.23.21l-0.31.18-0.36.19a2.14,2.14,0,0,0-.42.29,1.29,1.29,0,0,0-.25.31,1.08,1.08,0,0,0-.13.34A1.87,1.87,0,0,0,118.09,14.34Z"/><path d="M116.76,42.39H8.24A7.75,7.75,0,0,1,.5,34.65V23.15a7.75,7.75,0,0,1,7.74-7.74H116.76a7.75,7.75,0,0,1,7.74,7.74v11.5A7.75,7.75,0,0,1,116.76,42.39ZM8.24,16.78a6.37,6.37,0,0,0-6.37,6.37v11.5A6.37,6.37,0,0,0,8.24,41H116.76a6.37,6.37,0,0,0,6.37-6.37V23.15a6.37,6.37,0,0,0-6.37-6.37H8.24Z" fill="#fff"/><g clip-path="url(#a)"><rect x="115.65" y="15.34" width="8.16" height="12.86" fill="#2dfd73"/><rect x="115.65" y="29.59" width="8.16" height="12.86" fill="#800600"/><rect x="107.49" y="29.59" width="7.96" height="12.86" fill="#992302"/><rect x="107.49" y="15.34" width="7.96" height="12.86" fill="#2dfea3"/><rect x="99.33" y="15.34" width="7.96" height="12.86" fill="#23fdd8"/><rect x="99.33" y="29.59" width="7.96" height="12.86" fill="#b63f02"/><rect x="91.17" y="29.59" width="7.96" height="12.86" fill="#d25702"/><rect x="91.17" y="15.34" width="7.96" height="12.86" fill="#1beffe"/><rect x="83.01" y="29.59" width="7.96" height="12.86" fill="#f47501"/><rect x="83.01" y="15.34" width="7.96" height="12.86" fill="#37b5fe"/><rect x="74.84" y="29.59" width="7.96" height="12.86" fill="#fd8f02"/><rect x="74.84" y="15.34" width="7.96" height="12.86" fill="#3a7efe"/><rect x="66.68" y="15.34" width="7.96" height="12.86" fill="#2f4bfe"/><rect x="66.68" y="29.59" width="7.96" height="12.86" fill="#ffae00"/><rect x="58.52" y="29.59" width="7.96" height="12.86" fill="#fec701"/><rect x="58.52" y="15.34" width="7.96" height="12.86" fill="#0c10fe"/><rect x="50.36" y="29.59" width="7.96" height="12.86" fill="#fee401"/><rect x="50.36" y="15.34" width="7.96" height="12.86" fill="#5302f9"/><rect x="42.2" y="15.34" width="7.96" height="12.86" fill="#8701fe"/><rect x="42.2" y="29.59" width="7.96" height="12.86" fill="#f9fd02"/><rect x="34.04" y="29.59" width="7.96" height="12.86" fill="#cafd02"/><rect x="34.04" y="15.34" width="7.96" height="12.86" fill="#b502fd"/><rect x="25.88" y="15.34" width="7.96" height="12.86" fill="#e501fe"/><rect x="25.88" y="29.59" width="7.96" height="12.86" fill="#9cfe01"/><rect x="17.71" y="29.59" width="7.96" height="12.86" fill="#69fe01"/><rect x="17.71" y="15.34" width="7.96" height="12.86" fill="#f3f"/><rect x="9.55" y="15.34" width="7.96" height="12.86" fill="#ff70ff"/><rect x="9.55" y="29.59" width="7.96" height="12.86" fill="#25fe01"/><rect x="1.19" y="15.34" width="8.16" height="12.86" fill="#ffb3ff"/><rect x="1.19" y="29.59" width="8.16" height="12.86" fill="#21ff3f"/></g></svg>